<svg xmlns="http://www.w3.org/2000/svg" version="1.2" viewBox="0 0 280 280" width="280" height="280"><title>W8dJ1s01</title><style>.s0 { fill: #000000 } </style><g><path class="s0" d="m9.5-6.6c-9.6 4.5-18.1 16.6-17.3 24.7 0.3 3.2 0.5 3 4.6-5.3 4.9-9.9 8-12.9 18.5-17.6 3.7-1.7 6.7-3.3 6.7-3.6 0-1.5-8-0.3-12.5 1.8z"/><path class="s0" d="m260-8.4c0 0.3 3.3 2 7.4 3.9 9.3 4.2 13.9 8.8 18.4 18.4 3.5 7.4 3.6 7.5 4 4.2 1.2-11.2-14.1-27.1-26-27.1-2.1 0-3.8 0.3-3.8 0.6z"/><path class="s0" d="m19.6 4.1c-5.3 1.3-10.2 5.1-12.8 10.2l-2.2 4.2v121.5l-0.1 121.5 2.5 4.5c1.4 2.4 4.5 5.8 6.8 7.5l4.4 3h122.8 122.8l4.4-3c2.3-1.7 5.4-5.1 6.8-7.5l2.5-4.5v-121.5-121.5l-2.3-4.2c-2.8-5.3-7.5-8.9-13.2-10.2-5.8-1.3-236.8-1.3-242.4 0zm246.8 5.8c1.5 1 3.7 3.2 4.7 4.7 1.8 2.8 1.9 7.1 1.9 125.4 0 118.3-0.1 122.6-1.9 125.4-1 1.5-3.2 3.7-4.7 4.7-2.8 1.8-7.1 1.9-125.4 1.9-118.3 0-122.6-0.1-125.4-1.9-1.5-1-3.7-3.2-4.7-4.7-1.8-2.8-1.9-7.1-1.9-125.4 0-118.3 0.1-122.6 1.9-125.4 1-1.5 3.2-3.7 4.7-4.7 2.8-1.8 7.1-1.9 125.4-1.9 118.3 0 122.6 0.1 125.4 1.9z"/><path class="s0" d="m90.5 48.3c-8.3 3.3-14.6 8.9-18.6 16.7l-2.4 4.5-0.3 79.2-0.2 79.1 2.2 2.7 2.3 2.6h24.9 25l2.5-2.6 2.6-2.5v-18.5-18.5h9.8c13.2 0 23.3-2.2 34.2-7.5 36.1-17.5 50.9-60.8 33.1-97-9.1-18.4-27.8-33.3-47.6-37.9-8.3-2-62.7-2.2-67.5-0.3zm72.3 6c11.2 4 18 8.3 26.3 16.6 8.3 8.3 13.4 16.6 17.1 27.6 1.9 5.9 2.3 9 2.3 20.5 0 14.6-0.8 18.4-6.7 30.6-11.2 23-35.6 37.4-63.6 37.4-13 0-13-0.1-13.4 21.6-0.2 12.6-0.7 17.5-1.7 18.7-1.2 1.5-4.2 1.7-24.5 1.7-16.7 0-23.5-0.3-24.4-1.2-0.9-0.9-1.2-19.6-1.2-78.2v-77.1l2.4-5c3.6-7.7 9.7-13.1 17.6-15.6 1.4-0.4 16-0.7 32.5-0.5 29.6 0.2 30.1 0.3 37.3 2.9z"/><path class="s0" d="m93.2 62.1c-4.7 2.4-8.3 6.6-10.1 11.8-0.8 2.4-1.1 23.4-1.1 72.3v68.9l2.5 2.4c2.3 2.4 3 2.5 14.4 2.5 11.7 0 12-0.1 14-2.6 1.9-2.5 2.1-4 2.1-19.4 0-21.2-1-20 17.1-20 7.9 0 16.3-0.6 20.4-1.5 23.4-4.9 41.9-24.1 46.1-47.8 5.1-28.1-12.1-56.8-39.5-65.9-6-2-9-2.2-34.1-2.5-26.6-0.4-27.6-0.3-31.8 1.8zm66 5c18.4 7.1 31.4 22 35.3 40.4 1.8 8.8 1.8 14.2 0 22.8-3 14.4-14.4 29.7-27 36.4-10.1 5.3-15.5 6.4-33 6.9-8.8 0.3-17 0.7-18.2 1-4.4 0.9-5.3 4.8-5.3 23.9v17.5h-12.5-12.5v-69.7c0-67.5 0.1-69.8 2-73.8 1.2-2.5 3.5-5 5.7-6.3 3.7-2.2 4.4-2.2 31.3-1.9 26.7 0.3 27.7 0.4 34.2 2.8z"/><path class="s0" d="m114.9 90.2c-3.6 2.9-3.9 5.3-3.9 29.3v23.7l3 3 3 3 15.8-0.4c13.4-0.3 16.4-0.6 20.3-2.5 6-2.7 12.5-9.2 15.2-15.2 3.1-6.6 3-18.9-0.1-24.8-3.3-6.4-7.9-11.1-13.6-14.1-4.8-2.5-5.9-2.7-21.6-3-12.2-0.2-16.9 0.1-18.1 1zm37.1 5.2c19.4 10.2 19.8 36.3 0.6 46.4-4.9 2.6-5.8 2.7-19.7 2.7-10.9 0-15-0.3-16.2-1.4-1.5-1.2-1.7-4.1-1.7-23.5 0-18.8 0.2-22.5 1.6-24.5 1.6-2.2 1.9-2.3 16.8-1.9 12.3 0.3 15.8 0.7 18.6 2.2z"/><path class="s0" d="m130 102.7c-4.6 1.7-5 3.1-5 16 0 15.7 0.5 16.3 11.5 16.3 9.1 0 13.3-1.6 17-6.4 9.2-12.1-0.5-26.8-17.5-26.5-2.5 0-5.2 0.3-6 0.6zm13.9 4.3c1.3 0 3.8 1.5 5.7 3.4 2.8 2.8 3.4 4.2 3.4 7.5 0 9.4-4.7 13.1-16.7 13.1h-7.8l0.2-12.2c0.1-6.8 0.2-12.4 0.3-12.6 0-0.1 2.8 0 6.3 0.2 3.4 0.3 7.3 0.5 8.6 0.6z"/><path class="s0" d="m-8 262.7c0 12 15.8 27.2 27.1 26.1 3.3-0.3 3.3-0.4-3.4-3.5-10.6-5-14.1-8.3-18.8-17.9-2.3-4.6-4.3-8.4-4.5-8.4-0.2 0-0.4 1.7-0.4 3.7z"/><path class="s0" d="m285.8 266.1c-4.5 9.5-9 14.1-18.7 18.7-7.6 3.7-7.6 3.7-3.9 4 11.7 1 27.8-15.3 26.6-26.9-0.4-3.3-0.5-3.2-4 4.2z"/></g></svg>