<?xml version="1.0" encoding="UTF-8"?><svg xmlns="http://www.w3.org/2000/svg" id="Layer_1" data-name="Layer 1" version="1.1" viewBox="0 0 345.9 180.4"><defs><style> .cls-1 { fill: #fff; stroke-width: 0px; } </style></defs><polygon class="cls-1" points="268.2 34.6 249 34.6 238 48.5 257.2 48.5 268.2 34.6"/><polygon class="cls-1" points="222.1 6.5 222.1 76.6 266.1 76.6 272.5 63.1 238 63.1 238 20 266.1 20 272.5 6.5 222.1 6.5"/><path class="cls-1" d="M129.2,41.4c0,8.1-2.9,21.8-22.4,21.8h-7V20.1h8.6c12.3,0,20.8,8.8,20.8,21.4M133.6,15.5c-6.7-5.8-16.2-8.9-26.8-8.9h-21.7v70.2h19.5c12,0,22.1-3.2,29.1-9.1,7.2-6.1,11.1-15.1,11.1-25.9s-3.9-19.9-11.2-26.2"/><polygon class="cls-1" points="42.3 3.7 4 76.7 20.8 76.7 25.1 67.6 49.6 67.6 42.8 53.5 31.9 53.5 33.2 50.9 42.2 31.8 57.3 63.3 63.6 76.7 80.5 76.7 42.3 3.7"/><path class="cls-1" d="M332.1,53.5c-3.8,6.2-10.5,10.2-18.2,10.2-11.9,0-21.9-9.8-21.9-22.2s10-22,21.9-22,14.3,3.9,18.1,9.9l10.4-12.3c-6.9-7.3-17-11.7-28.7-11.7-21.7,0-38.2,15.3-38.2,36.1s16.5,36.3,38.2,36.3,22.5-4.8,29.4-12.6l-11-11.6Z"/><polygon class="cls-1" points="212 79.7 212 6.5 197.1 6.5 197.2 16.8 197.2 45.4 153.2 4.3 154 76.7 168.7 76.7 167.9 38.6 212 79.7"/><path class="cls-1" d="M217.3,95.5c2.6,0,5.4,1.1,7.3,3l3.4-4.3c-2.7-2.4-6.8-3.9-10.7-3.9-8.3,0-14.6,5.8-14.6,13.6s6.2,13.7,14.3,13.7,8-1.4,10.9-3.5v-10.3h-5.2v7c-1.7.9-3.6,1.5-5.2,1.5-4.7,0-8.5-3.6-8.5-8.4s3.7-8.3,8.4-8.3"/><path class="cls-1" d="M273.8,90.2c-8.2,0-14.4,5.8-14.4,13.6s6.2,13.6,14.4,13.6,14.4-5.9,14.4-13.6-6.2-13.6-14.4-13.6M273.9,112.2c-4.5,0-8.3-3.7-8.3-8.4s3.7-8.3,8.3-8.3,8.1,3.6,8.1,8.3-3.6,8.4-8.1,8.4"/><path class="cls-1" d="M310.6,106c0,3.9-2.4,6.2-6,6.2s-6.1-2.3-6.1-6.2v-15.6h-6v15.6c0,7.1,4.7,11.5,12.2,11.5s12-4.4,12-11.5v-15.6h-6v15.6Z"/><path class="cls-1" d="M333.2,90.4h-11.4v26.8h6v-21.8h5c3.4,0,5.3,1.5,5.3,4.5s-1.9,4.6-5.3,4.6h-4.3l3,5c.4,0,1.8,0,1.8,0,6.7,0,10.5-3.7,10.5-9.8s-3.9-9.3-10.7-9.3"/><path class="cls-1" d="M255.5,99.7c0-5.9-3.9-9.3-10.7-9.3h-11.4v26.8h6v-21.8h5c3.4,0,5.3,1.5,5.3,4.5s-1.9,4.6-5.3,4.6h-4.5s7.5,12.7,7.5,12.7h6.4l-4.9-8.2c4.2-1.2,6.5-4.5,6.5-9.3"/><path class="cls-1" d="M58.9,101.7h-7.8l1.8,3.9h5.9c3.2,0,4.6,1.4,4.6,3.8s-1.3,3.8-4.6,3.8h-8v3.9h8.2c5,0,7.8-2.9,7.8-7.7s-2.8-7.7-7.8-7.7"/><rect class="cls-1" x="69" y="97.6" width="3.9" height="19.4"/><path class="cls-1" d="M104.4,111.2c-.3-.7-.4-1.5-.4-2.4s.1-1.2.3-1.7c.2-.5.6-1,1.1-1.5.7-.6,1.8-1,3.1-1s1.3.1,2.1.4c.7.2,1.4.5,2,.9l1.3-3.6c-1-.5-1.9-.9-2.9-1.1-.9-.3-2-.4-3-.4s-2,.1-2.8.4c-.9.3-1.6.7-2.3,1.2-.8.7-1.5,1.5-2,2.5-.5,1-.8,2.2-.8,3.6s.1,1.7.4,2.5c.2.8.5,1.5.8,2.2h-5.1v-11.9h-4.5c-1.5,0-2.9.2-4.1.6-1.2.4-2.2,1-3,1.7-.8.7-1.5,1.5-1.9,2.5-.4,1-.7,2-.7,3.2s.2,2.5.7,3.5c.5,1,1.1,1.8,2,2.5.9.7,1.9,1.1,3,1.5,1.2.3,2.5.5,3.9.5h22.8v-3.9h-8.9c-.5-.6-.8-1.2-1.1-2M92.1,113.1h-1.7c-.6,0-1.1,0-1.7-.3-.5-.2-1-.4-1.5-.8-.4-.3-.8-.7-1-1.2-.3-.5-.4-1.1-.4-1.7s.1-1.2.4-1.7c.3-.5.6-.9,1.1-1.3.4-.3,1-.6,1.5-.8.6-.2,1.1-.3,1.7-.3h1.5v8Z"/><path class="cls-1" d="M190.7,107.9c-.4-1.1-1.1-2-1.8-2.7-.8-.8-1.7-1.4-2.7-1.8-1-.4-2.2-.7-3.3-.7s-2.3.2-3.3.7c-1,.5-1.9,1.1-2.7,1.8-.8.8-1.4,1.7-1.8,2.7-.4,1-.7,2.2-.7,3.4s0,.6,0,.9c0,.3,0,.6.2.9h-2.1s-1.8,0-1.8,0c0,0,0,0,0,0,.5-1.1.7-2.3.7-3.8,0-4.9-2.8-7.7-7.8-7.7h-9.6l1.9,3.9h7.6c3.2,0,4.6,1.4,4.6,3.8s-1.3,3.8-4.6,3.8h-9.4s-1.5,0-1.5,0c0-.3.1-.6.1-.9,0-.3,0-.6,0-.9,0-1.2-.2-2.4-.7-3.4-.4-1.1-1.1-2-1.8-2.7-.8-.8-1.7-1.4-2.7-1.8-1-.4-2.2-.7-3.3-.7s-2.3.2-3.3.7c-1,.5-1.9,1.1-2.7,1.8-.8.8-1.4,1.7-1.8,2.7-.4,1-.7,2.2-.7,3.4s0,.6,0,.9c0,.3,0,.6.2.9h-4.8v-11.9s-4.4,0-4.4,0c-1.4,0-2.7.2-3.9.6-1.2.4-2.2.9-3.1,1.6-.9.7-1.5,1.5-2,2.5-.5,1-.7,2.1-.7,3.3s.2,2.6.7,3.6c.5,1,1.2,1.8,2.1,2.5.9.6,1.9,1.1,3.1,1.4,1.2.3,2.4.5,3.8.5h.5c0,.5-.2.9-.4,1.2-.2.3-.4.5-.7.7-.3.2-.6.3-1.1.3-.4,0-.9,0-1.4,0s-1.3,0-2-.2c-.7-.1-1.4-.3-2.1-.5l.3,4,1.2.3c.3,0,.7.1,1,.2.3,0,.6,0,.9.1.3,0,.7,0,1,0,1.3,0,2.3-.2,3.2-.5.9-.3,1.6-.7,2.2-1.3.6-.5,1-1.2,1.3-2,.3-.8.5-1.6.5-2.5h7c.8.8,1.7,1.5,2.8,2,1.1.5,2.2.7,3.4.7s2.4-.2,3.4-.7c1.1-.5,2-1.1,2.8-2h13.2s0,0,0,0h8.2s4.8,0,4.8,0c.8.8,1.7,1.5,2.8,2,1.1.5,2.2.7,3.4.7s2.2-.2,3.3-.7c1-.4,1.9-1,2.7-1.8.8-.7,1.4-1.6,1.9-2.7.5-1,.7-2.1.7-3.3s-.2-2.4-.7-3.4M127.2,113.1h-1.7c-.6,0-1.2,0-1.8-.3-.6-.2-1-.4-1.5-.8-.4-.3-.7-.8-1-1.3-.2-.5-.4-1.1-.4-1.7s.1-1.1.4-1.6c.3-.5.6-.9,1-1.3.4-.3.9-.6,1.5-.8.6-.2,1.1-.3,1.7-.3h1.7v8ZM148.4,113.1c-.2.6-.6,1-1,1.4-.4.4-.9.7-1.5.9-.6.2-1.2.3-1.8.3s-1.2-.1-1.8-.4c-.5-.2-1-.6-1.4-1-.4-.4-.7-.9-.9-1.4-.2-.6-.3-1.2-.3-1.8s.1-1.2.3-1.8c.2-.6.5-1.1.9-1.5.4-.4.9-.7,1.4-1,.5-.2,1.1-.4,1.8-.4s1.3.1,1.9.4c.6.2,1.1.6,1.5,1,.4.4.7.9,1,1.5.2.6.3,1.2.3,1.8s-.1,1.3-.4,1.8M187.1,113.1c-.2.6-.6,1-1,1.4-.4.4-.9.7-1.5.9s-1.2.3-1.8.3-1.2-.1-1.8-.4c-.5-.2-1-.6-1.4-1-.4-.4-.7-.9-.9-1.4-.2-.6-.3-1.2-.3-1.8s.1-1.2.3-1.8c.2-.6.5-1.1.9-1.5s.9-.7,1.4-1c.5-.2,1.1-.4,1.8-.4s1.3.1,1.9.4c.6.2,1.1.6,1.5,1,.4.4.7.9,1,1.5.2.6.3,1.2.3,1.8s-.1,1.3-.4,1.8"/><path class="cls-1" d="M70.4,94.1c0-.2-.1-.5-.1-.8s0-.4,0-.5c0-.1.2-.3.3-.4.3-.3.9-.4,1.5-.2.2,0,.4.2.6.3h.2c0,.1.6-1.5.6-1.5h-.2c-.3-.3-.7-.4-1-.5-.7-.2-1.5-.2-2.1,0-.3.1-.6.3-.8.5-.3.2-.5.6-.7.9-.2.4-.3.8-.3,1.3s0,.6.1.9c0,.2.1.3.2.5h-.9v1.7h5.9v-1.7h-3.1c-.1-.2-.2-.3-.3-.5"/><path class="cls-1" d="M162.7,118.9c-1.2,0-2.2,1-2.2,2.2s1,2.2,2.2,2.2,2.2-1,2.2-2.2-1-2.2-2.2-2.2"/><path class="cls-1" d="M15.1,103.6h-3.1c-.1-.2-.2-.3-.3-.5,0-.2-.1-.5-.1-.8s0-.4,0-.5c0-.1.2-.3.3-.4.3-.3.9-.4,1.5-.2.2,0,.4.2.6.3h.2c0,.1.6-1.5.6-1.5h-.2c-.3-.3-.7-.4-1-.5-.7-.2-1.5-.2-2.1,0-.3.1-.6.3-.8.5-.3.2-.5.6-.7.9-.2.4-.3.8-.3,1.3s0,.6.1.9c0,.2.1.3.2.5h-.9v1.7h5.9v-1.7Z"/><path class="cls-1" d="M35.9,118.9c-1.2,0-2.2,1-2.2,2.2s1,2.2,2.2,2.2,2.2-1,2.2-2.2-1-2.2-2.2-2.2"/><path class="cls-1" d="M30.7,118.9c-1.2,0-2.2,1-2.2,2.2s1,2.2,2.2,2.2,2.2-1,2.2-2.2-1-2.2-2.2-2.2"/><path class="cls-1" d="M93.5,97.9c1.2,0,2.2-1,2.2-2.2s-1-2.2-2.2-2.2-2.2,1-2.2,2.2,1,2.2,2.2,2.2"/><path class="cls-1" d="M88.3,97.9c1.2,0,2.2-1,2.2-2.2s-1-2.2-2.2-2.2-2.2,1-2.2,2.2,1,2.2,2.2,2.2"/><path class="cls-1" d="M45.8,93.5c-1.2,0-2.2,1-2.2,2.2s1,2.2,2.2,2.2,2.2-1,2.2-2.2-1-2.2-2.2-2.2"/><path class="cls-1" d="M44,113.1h-8.1v-11.9h-3.9v11.9h-9.1v-18.9h-3.9v18.9h-7.9c-.8,0-1.6,0-2.4-.2-.7-.1-1.3-.4-1.8-.8-.4-.4-.7-.9-.9-1.5-.2-.6-.3-1.3-.3-2.2v-4.8H1.7v5.3c0,1.1.1,2.2.4,3.3.3,1,.8,1.9,1.5,2.5.4.4.9.8,1.4,1.1.5.3,1,.5,1.6.7.6.2,1.2.3,1.9.4.7,0,1.5.1,2.3.1h37.2v-15.9h-3.9v11.9Z"/><g><path class="cls-1" d="M93.5,152.2l4.4,7,4.2-6.9c.2-.1,3.1-.1,3.3,0s.3.2.3.3v15.2s-.2.2-.3.3c-.6.3-2.8,0-3.5,0v-9l-4.2,6.6-4.1-6.7v8.9c0,.1,0,.2-.1.3-.2.1-2.7.1-3,0s-.5-.2-.5-.3v-15.3l.2-.2h3.2Z"/><path class="cls-1" d="M168.9,161.3v-9c.1,0,.3-.1.3-.1h3.2l.2.2v15.4l-.2.2h-3.2l-6.8-9.1v8.8s-.2.2-.3.3c-.2.1-2.8.1-3.1,0s-.5-.2-.5-.3v-15.2s.2-.2.3-.3c.4-.2,3.1-.1,3.5.1l6.6,8.9Z"/><path class="cls-1" d="M148,152.3c9.9-.8,11.7,13.7,2.3,15.6-11.1,2.3-13.2-14.7-2.3-15.6ZM145.9,163.4c2.3,1.9,6,.8,6.6-2.2s-1.6-6-5-5.2c-3.2.8-4,5.5-1.7,7.4Z"/><path class="cls-1" d="M120,153.7c.4-.3,1.8,1.2,2,1.6,3.2,4.3,1.2,11-4.1,12.4-8.7,2.3-13.8-8.5-7.1-14h.2c.4,0,1.6,2.6,1.8,3.1-2.2,2.3-1.4,7.1,2.1,7.4,4.7.5,6.1-4.3,3.5-7.6l1.6-3Z"/><path class="cls-1" d="M126,152.2h5c7.3,0,10.5,9.6,4.8,14.1-2.2,1.8-6.7,2.1-9.5,1.8-.2,0-.3,0-.5-.2v-3.2l.2-.2h5.2c.2,0,1.5-.5,1.7-.7,2.6-1.7,2.2-6.2-.6-7.5-.2,0-1.1-.4-1.2-.4h-5.1l-.2-.2v-3.2l.2-.2Z"/><path class="cls-1" d="M115.5,152.2c2.5-.2,2.7,3.6.4,3.7-2.5.2-2.8-3.5-.4-3.7Z"/></g><g><path class="cls-1" d="M191.8,168c-4.6,0-7.3-3.5-7.3-8.4s2.9-8.4,7.5-8.4,6.1,2,6.7,5.4h-2.2c-.5-2-2.1-3.5-4.6-3.5s-5.1,2.2-5.1,6.4,2.1,6.5,5.2,6.5,4.2-1.5,4.7-3.5h2.2c-.7,3.6-3.5,5.4-7,5.4Z"/><path class="cls-1" d="M206.3,168c-2.8,0-5.8-1.9-5.8-6.3s3-6.3,5.8-6.3,5.8,1.9,5.8,6.3-3,6.3-5.8,6.3ZM209.9,161.7c0-3.2-1.8-4.5-3.6-4.5s-3.6,1.2-3.6,4.5,1.8,4.5,3.6,4.5,3.6-1.4,3.6-4.5Z"/><path class="cls-1" d="M214.5,167.7v-12h2v1.8c.7-1.1,1.8-2,3.6-2s2.9.8,3.5,2.1c1-1.5,2.4-2.1,4-2.1,2.8,0,3.9,1.9,3.9,4.6v7.6h-2v-7c0-1.9-.4-3.5-2.6-3.5s-2.9,1.4-2.9,3.9v6.5h-2v-7c0-1.9-.4-3.5-2.6-3.5s-2.9,1.4-2.9,3.9v6.5h-2Z"/><path class="cls-1" d="M236.6,157.5c.7-1.3,2-2.1,3.9-2.1,2.7,0,5.1,2.3,5.1,6.3s-2.4,6.3-5.1,6.3-3.2-.8-3.9-2.1v5.7h-2v-15.9h2v1.9ZM243.5,161.7c0-2.9-1.4-4.5-3.4-4.5s-3.5,1.3-3.5,4.5,1.7,4.5,3.5,4.5,3.4-1.7,3.4-4.5Z"/><path class="cls-1" d="M255.5,160.3v-.3c0-2.2-1.2-2.9-2.7-2.9s-2.7.9-2.7,2.4h-2.1c.2-2.6,2.5-4,4.8-4s4.8,1.6,4.8,5v2.8c0,2,0,3.4.3,4.5h-2.1c0-.4-.1-.9-.2-1.7-.7,1.2-2,1.9-4.1,1.9s-4.1-1.3-4.1-3.5,3.2-3.7,8.1-4.2ZM249.6,164.4c0,1.1.9,1.9,2.3,1.9s3.7-.9,3.7-3.7v-.8c-3.7.4-6,.9-6,2.6Z"/><path class="cls-1" d="M266.5,155.4c2.9,0,4,1.9,4,4.6v7.6h-2v-7c0-1.9-.3-3.5-2.6-3.5s-3.2,1.4-3.2,3.9v6.5h-2v-12h2v1.8c.7-1.1,1.9-2,3.9-2Z"/><path class="cls-1" d="M277.9,168.2c-.9,2.6-1.5,3.4-4.2,3.4h-1v-1.7h.8c1.3,0,2,0,2.5-2v-.2c0,0-4.2-12-4.2-12h2.3l3.1,9.3,3-9.3h2.1l-4.3,12.5Z"/></g><path class="cls-1" d="M72.2,151.5l6.1,16.2h-2.5l-1.3-3.5h-7.4l-1.3,3.5h-2.3l6-16.2h2.6ZM73.8,162.2l-3-8.4-3,8.4h6Z"/></svg>