<svg xmlns="http://www.w3.org/2000/svg" width="193" height="94" viewBox="0 0 193 94" fill="none"><g clip-path="url(#clip0_39_1487)"><path d="M150.266 17.2893H139.445L133.274 25.1366H144.095L150.266 17.2893Z" fill="#1FACE0"/><path d="M124.271 1.55273V40.8313H149.083L152.718 33.2777H133.274V9.14827H149.083L152.718 1.55273H124.271Z" fill="white"/><path d="M74.3934 6.63047C70.5892 3.39922 65.221 1.63672 59.2611 1.63672H47.0453V40.9153H58.0353C64.7983 40.9153 70.5046 39.1528 74.4356 35.7956C78.4934 32.3546 80.6492 27.3608 80.6492 21.276C80.6492 15.1912 78.4934 10.1135 74.3511 6.63047M71.9418 21.1081C71.9418 25.6823 70.2933 33.3198 59.3033 33.3198H55.3301V9.19029H60.191C67.0808 9.19029 71.9418 14.1001 71.9418 21.1501" fill="white"/><path d="M22.9098 0L1.31036 40.8732H10.7786L13.2302 35.7955H27.0099L23.2057 27.9063H17.0767L17.7953 26.4375L22.8253 15.7786L31.3213 33.3616L34.9142 40.8732H44.467L22.9098 0Z" fill="white"/><path d="M186.364 27.9062C184.208 31.3892 180.446 33.6133 176.135 33.6133C169.456 33.6133 163.75 28.158 163.75 21.1499C163.75 14.1419 169.372 8.81244 176.135 8.81244C180.404 8.81244 184.166 10.9946 186.322 14.3937L192.155 7.55351C188.266 3.48297 182.56 1.00708 176.008 1.00708C163.75 1.00708 154.451 9.60976 154.451 21.1919C154.451 32.774 163.75 41.5026 176.008 41.5026C182.813 41.5026 188.689 38.8169 192.577 34.4526L186.364 27.9482V27.9062Z" fill="white"/><path d="M118.607 42.5518V1.55266H110.237L110.28 7.34373V23.3741L85.4255 0.335693L85.8905 40.8732H94.2175L93.7525 19.5553L118.607 42.5518Z" fill="white"/><path d="M121.566 51.4062C123.045 51.4062 124.567 52.0357 125.708 53.0848L127.61 50.6509C126.088 49.308 123.806 48.4688 121.566 48.4688C116.874 48.4688 113.323 51.742 113.323 56.0643C113.323 60.3866 116.789 63.7018 121.354 63.7018C123.468 63.7018 125.877 62.9045 127.483 61.7714V56.0223H124.524V59.967C123.552 60.4705 122.495 60.7643 121.566 60.7643C118.903 60.7643 116.789 58.708 116.789 56.0643C116.789 53.4205 118.86 51.4062 121.523 51.4062" fill="#1FACE0"/><path d="M153.521 60.7643C150.985 60.7643 148.871 58.708 148.871 56.0643C148.871 53.4205 150.985 51.4062 153.521 51.4062C156.057 51.4062 158.086 53.4205 158.086 56.0643C158.086 58.708 156.015 60.7643 153.521 60.7643ZM153.479 48.4688C148.871 48.4688 145.363 51.7 145.363 56.0643C145.363 60.4286 148.871 63.7018 153.479 63.7018C158.086 63.7018 161.594 60.3866 161.594 56.0643C161.594 51.742 158.086 48.4688 153.479 48.4688Z" fill="#1FACE0"/><path d="M174.19 57.2813C174.19 59.4634 172.838 60.7643 170.851 60.7643C168.864 60.7643 167.385 59.4634 167.385 57.2813V48.5527H163.961V57.2813C163.961 61.2259 166.624 63.7018 170.809 63.7018C174.993 63.7018 177.572 61.2259 177.572 57.2813V48.5527H174.148V57.2813H174.19Z" fill="#1FACE0"/><path d="M186.956 48.5527H180.573V63.534H183.997V51.3643H186.829C188.731 51.3643 189.788 52.2036 189.788 53.8822C189.788 55.5608 188.731 56.442 186.829 56.442H184.377L186.068 59.2536C186.068 59.2536 187.082 59.2536 187.125 59.2536C190.887 59.2536 193.042 57.1974 193.042 53.7563C193.042 50.3152 190.844 48.5527 186.998 48.5527" fill="#1FACE0"/><path d="M143.165 53.7563C143.165 50.4411 140.967 48.5527 137.12 48.5527H130.738V63.534H134.162V51.3643H136.994C138.896 51.3643 139.995 52.2036 139.995 53.8822C139.995 55.5608 138.896 56.442 136.994 56.442H134.5L138.727 63.534H142.32L139.53 58.9179C141.897 58.2465 143.207 56.442 143.207 53.7563" fill="#1FACE0"/><path d="M32.2512 54.8474H27.8552L28.8697 57.0296H32.2089C34.0265 57.0296 34.7873 57.7849 34.7873 59.1697C34.7873 60.5546 34.0265 61.3099 32.2089 61.3099H27.6862V63.4921H32.2935C35.1255 63.4921 36.6894 61.8974 36.6894 59.1697C36.6894 56.4421 35.1255 54.8474 32.2935 54.8474" fill="white"/><path d="M40.24 52.5813H37.9998V63.4501H40.24V52.5813Z" fill="white"/><path d="M50.9763 61.2678H50.0041C49.666 61.2678 49.3701 61.2258 49.032 61.1419C48.7361 61.058 48.4402 60.8901 48.2288 60.7223C47.9752 60.5544 47.8062 60.3026 47.6371 60.0508C47.5103 59.7571 47.4257 59.4633 47.4257 59.0857C47.4257 58.708 47.5103 58.4142 47.6371 58.1205C47.8062 57.8267 47.9752 57.6169 48.2288 57.4071C48.4825 57.2392 48.7783 57.0714 49.0742 56.9874C49.3701 56.9035 49.7083 56.8196 50.0464 56.8196H50.8918V61.2678H50.9763ZM57.9084 60.1767C57.7394 59.7571 57.6971 59.2955 57.6971 58.7919C57.6971 58.4562 57.7394 58.1205 57.8662 57.8267C57.993 57.533 58.162 57.2392 58.4579 57.0294C58.8806 56.6517 59.4724 56.4839 60.191 56.4839C60.5714 56.4839 60.9518 56.5678 61.3745 56.6937C61.7972 56.8196 62.1353 56.9874 62.4735 57.1553L63.2343 55.141C62.6848 54.8892 62.1353 54.6374 61.6281 54.5115C61.0786 54.3437 60.5291 54.2598 59.9373 54.2598C59.3456 54.2598 58.8384 54.3437 58.3311 54.5115C57.8239 54.6794 57.4012 54.8892 57.0208 55.2249C56.5558 55.6026 56.1754 56.0642 55.8795 56.6517C55.5836 57.2392 55.4146 57.8687 55.4146 58.6241C55.4146 59.1276 55.4991 59.5892 55.6259 60.0508C55.7527 60.5124 55.9218 60.8901 56.0909 61.2678H53.2166V54.5955H50.6804C49.8351 54.5955 49.0742 54.7214 48.3979 54.9312C47.7216 55.141 47.1721 55.4767 46.7072 55.8544C46.2422 56.2321 45.9041 56.7357 45.6504 57.2392C45.3968 57.7848 45.27 58.3723 45.27 59.0017C45.27 59.7571 45.3968 60.3865 45.6927 60.974C45.9463 61.5196 46.3267 61.9812 46.834 62.3589C47.2989 62.7365 47.8907 62.9883 48.567 63.1982C49.2433 63.366 49.9619 63.4499 50.765 63.4499H63.657V61.2258H58.627C58.3734 60.8901 58.1621 60.5544 57.993 60.1348" fill="white"/><path d="M104.531 61.2259C104.404 61.5196 104.193 61.8134 103.982 62.0232C103.728 62.233 103.474 62.4428 103.136 62.5687C102.798 62.6946 102.46 62.7786 102.122 62.7786C101.784 62.7786 101.445 62.6946 101.107 62.5687C100.811 62.4428 100.516 62.275 100.304 62.0232C100.093 61.7714 99.8815 61.5196 99.797 61.2259C99.6702 60.9321 99.5856 60.5964 99.5856 60.2187C99.5856 59.8411 99.6279 59.5053 99.797 59.2116C99.9238 58.9178 100.093 58.6241 100.304 58.3723C100.516 58.1205 100.811 57.9527 101.107 57.8268C101.403 57.7009 101.741 57.6169 102.122 57.6169C102.502 57.6169 102.84 57.7009 103.179 57.8268C103.474 57.9527 103.77 58.1205 104.024 58.3723C104.235 58.5821 104.447 58.8759 104.573 59.2116C104.7 59.5473 104.742 59.883 104.742 60.2187C104.742 60.5544 104.7 60.9321 104.531 61.2259ZM82.7203 61.2259C82.5935 61.5196 82.4245 61.8134 82.1708 62.0232C81.9172 62.233 81.6636 62.4428 81.3255 62.5687C81.0296 62.6946 80.6914 62.7786 80.311 62.7786C79.9306 62.7786 79.6347 62.6946 79.2966 62.5687C79.0007 62.4428 78.7048 62.275 78.4934 62.0232C78.2821 61.8134 78.0708 61.5196 77.9439 61.2259C77.8171 60.9321 77.7326 60.5964 77.7326 60.2187C77.7326 59.8411 77.7749 59.5053 77.9439 59.2116C78.0708 58.9178 78.2398 58.6241 78.4512 58.3723C78.6625 58.1205 78.9584 57.9527 79.2543 57.8268C79.5502 57.7009 79.8883 57.6169 80.2687 57.6169C80.6492 57.6169 80.9873 57.7009 81.3255 57.8268C81.6636 57.9527 81.9172 58.1205 82.1708 58.3723C82.4245 58.5821 82.5935 58.8759 82.7203 59.2116C82.8471 59.5473 82.9317 59.883 82.9317 60.2187C82.9317 60.5544 82.8471 60.9321 82.7203 61.2259ZM70.7582 61.2678H69.8283C69.4479 61.2678 69.1097 61.2259 68.8139 61.1419C68.518 61.058 68.2221 60.8902 68.0107 60.7223C67.7571 60.5125 67.5881 60.3027 67.4612 60.0089C67.3344 59.7152 67.2499 59.4214 67.2499 59.0437C67.2499 58.708 67.3344 58.4143 67.4612 58.1205C67.5881 57.8687 67.7994 57.6169 68.053 57.4071C68.3066 57.1973 68.5602 57.0714 68.8561 56.9455C69.152 56.8196 69.4902 56.7777 69.8283 56.7777H70.7582V61.2259V61.2678ZM106.602 58.3303C106.349 57.7428 106.011 57.2393 105.588 56.8196C105.165 56.4 104.616 56.0643 104.066 55.8125C103.474 55.5607 102.84 55.4348 102.164 55.4348C101.488 55.4348 100.896 55.5607 100.304 55.8125C99.7125 56.0643 99.2052 56.4 98.7825 56.8616C98.3598 57.2812 98.0217 57.8268 97.7681 58.3723C97.5145 58.9598 97.3877 59.5893 97.3877 60.2607C97.3877 60.4286 97.3877 60.5964 97.3877 60.7643C97.3877 60.9321 97.4299 61.1 97.4722 61.2678H95.2742C95.5701 60.6803 95.6969 59.9669 95.6969 59.1696C95.6969 56.4419 94.133 54.8473 91.3009 54.8473H85.8905L86.9472 57.0294H91.2164C93.034 57.0294 93.7948 57.7848 93.7948 59.1696C93.7948 60.5544 93.034 61.3098 91.2164 61.3098H85.0451C85.0451 61.3098 85.0874 60.9741 85.1297 60.8062C85.1297 60.6384 85.1297 60.4705 85.1297 60.3027C85.1297 59.6312 85.0029 59.0018 84.7492 58.4143C84.4956 57.8268 84.1575 57.3232 83.7348 56.9036C83.3121 56.4839 82.7626 56.1482 82.2131 55.8964C81.6213 55.6446 80.9873 55.5187 80.311 55.5187C79.6347 55.5187 79.0429 55.6446 78.4512 55.8964C77.8594 56.1482 77.3522 56.4839 76.9295 56.9455C76.5068 57.3652 76.1686 57.9107 75.915 58.4562C75.6614 59.0437 75.5346 59.6732 75.5346 60.3446C75.5346 60.5125 75.5346 60.6803 75.5346 60.8482C75.5346 61.0161 75.5769 61.1839 75.6192 61.3518H72.9139V54.6794H70.4201C69.617 54.6794 68.8984 54.8053 68.2221 54.9732C67.5458 55.183 66.9963 55.4768 66.4891 55.8544C66.0241 56.2321 65.6437 56.6937 65.3478 57.2393C65.0942 57.7848 64.9251 58.4143 64.9251 59.0857C64.9251 59.883 65.0519 60.5544 65.3478 61.1C65.6437 61.6455 66.0241 62.1071 66.4891 62.4848C66.9963 62.8625 67.5458 63.1143 68.2221 63.2821C68.8984 63.45 69.617 63.5339 70.3778 63.5339H70.6314C70.6314 63.7857 70.5469 64.0375 70.4201 64.2053C70.3355 64.3732 70.2087 64.4991 70.0397 64.583C69.8706 64.6669 69.6592 64.7089 69.4479 64.7509C69.1943 64.7509 68.9407 64.7509 68.6448 64.7509C68.2644 64.7509 67.8839 64.7509 67.5458 64.6669C67.1654 64.583 66.7849 64.4991 66.32 64.3732L66.4891 66.5973L67.1231 66.7652C67.1231 66.7652 67.5035 66.8491 67.6726 66.8911C67.8417 66.8911 68.0107 66.933 68.2221 66.975C68.3912 66.975 68.6025 66.975 68.8139 66.975C69.5324 66.975 70.1242 66.8911 70.6314 66.7232C71.1386 66.5553 71.5613 66.3036 71.8572 66.0098C72.1531 65.7161 72.4067 65.3384 72.5758 64.9187C72.7449 64.4991 72.8294 64.0375 72.8717 63.4919H76.8027C77.2676 63.9536 77.7749 64.3312 78.3666 64.583C78.9584 64.8348 79.5924 65.0027 80.2687 65.0027C80.945 65.0027 81.6213 64.8768 82.2131 64.625C82.8049 64.3732 83.3544 63.9955 83.8193 63.5339H91.2587H95.9082H98.6135C99.0784 63.9955 99.5856 64.3732 100.177 64.625C100.769 64.8768 101.403 65.0446 102.08 65.0446C102.756 65.0446 103.348 64.9187 103.939 64.6669C104.531 64.4152 105.038 64.0794 105.461 63.6598C105.926 63.2402 106.264 62.7366 106.518 62.1911C106.771 61.6036 106.898 60.9741 106.898 60.3027C106.898 59.6312 106.771 59.0018 106.518 58.4143" fill="white"/><path d="M38.7606 50.6089C38.7606 50.6089 38.6761 50.3571 38.6761 50.1893C38.6761 50.1053 38.6761 49.9794 38.7183 49.8955C38.7183 49.8116 38.8029 49.7277 38.8874 49.6857C39.0565 49.5178 39.3946 49.4759 39.7751 49.6018C39.9019 49.6437 40.0287 49.6857 40.1132 49.7696L40.24 49.8535L40.5782 48.9303H40.4936C40.4936 48.9303 40.1132 48.7205 39.9441 48.6366C39.5637 48.5527 39.0987 48.5107 38.7606 48.6366C38.5915 48.7205 38.4224 48.7625 38.2956 48.8884C38.1266 49.0143 37.9998 49.1821 37.8729 49.3919C37.7461 49.6018 37.7039 49.8535 37.7039 50.1053C37.7039 50.2732 37.7039 50.441 37.7884 50.6089C37.7884 50.6928 37.8307 50.7768 37.8729 50.8607H37.3657V51.8259H40.705V50.8607H38.9297C38.9297 50.8607 38.8029 50.6509 38.7606 50.5669" fill="white"/><path d="M90.7937 64.499C90.1174 64.499 89.5679 65.0446 89.5679 65.716C89.5679 66.3874 90.1174 66.933 90.7937 66.933C91.47 66.933 92.0195 66.3874 92.0195 65.716C92.0195 65.0446 91.47 64.499 90.7937 64.499Z" fill="white"/><path d="M7.56611 55.9384H5.79082C5.79082 55.9384 5.66401 55.7705 5.62174 55.6446C5.57947 55.5188 5.5372 55.3929 5.5372 55.225C5.5372 55.1411 5.53721 55.0152 5.57947 54.9313C5.57947 54.8473 5.66401 54.7634 5.74855 54.7214C5.91763 54.5536 6.25578 54.5116 6.6362 54.6375C6.763 54.6375 6.88981 54.7214 6.97435 54.8054L7.10116 54.8893L7.43931 53.9661H7.35477C7.35477 53.9661 6.97435 53.7563 6.80527 53.7143C6.42485 53.5884 6.00216 53.5884 5.62174 53.7143C5.45267 53.7563 5.28359 53.8402 5.15678 53.9661C4.98771 54.092 4.8609 54.2598 4.7341 54.4696C4.64956 54.6795 4.56502 54.9313 4.56502 55.183C4.56502 55.3509 4.56502 55.5188 4.64956 55.6866C4.64956 55.7705 4.69183 55.8545 4.7341 55.9384H4.22687V56.9036H7.56611V55.9384Z" fill="white"/><path d="M19.2746 64.499C18.5983 64.499 18.0488 65.0446 18.0488 65.716C18.0488 66.3874 18.5983 66.933 19.2746 66.933C19.9509 66.933 20.5004 66.3874 20.5004 65.716C20.5004 65.0446 19.9509 64.499 19.2746 64.499Z" fill="white"/><path d="M16.3581 64.499C15.6818 64.499 15.1323 65.0446 15.1323 65.716C15.1323 66.3874 15.6818 66.933 16.3581 66.933C17.0344 66.933 17.5839 66.3874 17.5839 65.716C17.5839 65.0446 17.0344 64.499 16.3581 64.499Z" fill="white"/><path d="M51.7794 52.7491C52.4558 52.7491 53.0052 52.2036 53.0052 51.5321C53.0052 50.8607 52.4558 50.3152 51.7794 50.3152C51.1031 50.3152 50.5536 50.8607 50.5536 51.5321C50.5536 52.2036 51.1031 52.7491 51.7794 52.7491Z" fill="white"/><path d="M48.8206 52.7491C49.497 52.7491 50.0464 52.2036 50.0464 51.5321C50.0464 50.8607 49.497 50.3152 48.8206 50.3152C48.1443 50.3152 47.5948 50.8607 47.5948 51.5321C47.5948 52.2036 48.1443 52.7491 48.8206 52.7491Z" fill="white"/><path d="M24.8542 50.2732C24.1779 50.2732 23.6284 50.8187 23.6284 51.4902C23.6284 52.1616 24.1779 52.7071 24.8542 52.7071C25.5305 52.7071 26.08 52.1616 26.08 51.4902C26.08 50.8187 25.5305 50.2732 24.8542 50.2732Z" fill="white"/><path d="M23.8396 61.2679H19.2745V54.5956H17.0343V61.2679H11.9198V50.6929H9.6795V61.2679H5.24126C4.7763 61.2679 4.31134 61.2259 3.88865 61.142C3.46596 61.058 3.12781 60.8902 2.8742 60.6804C2.62058 60.4705 2.45151 60.2188 2.36697 59.8831C2.28243 59.5473 2.1979 59.1697 2.1979 58.6661V55.9384H-0.0423584V58.9179C-0.0423584 59.5473 0.0421795 60.1768 0.211255 60.7643C0.380331 61.3518 0.633945 61.8134 1.05663 62.1911C1.31025 62.4009 1.56386 62.6107 1.81747 62.7786C2.07109 62.9464 2.36697 63.0723 2.70512 63.1563C3.04327 63.2822 3.38143 63.3241 3.76185 63.3661C4.14227 63.4081 4.56496 63.45 5.07218 63.45H26.0376V54.5536H23.7973V61.2259L23.8396 61.2679Z" fill="white"/><path d="M51.7795 83.1731L54.2734 87.0758L56.6404 83.2151C56.6404 83.2151 58.3734 83.1731 58.5425 83.2151C58.5425 83.2151 58.7116 83.341 58.7116 83.3829V91.8597C58.7116 91.8597 58.5848 91.9856 58.5425 92.0276C58.2466 92.1535 56.9786 92.0276 56.5981 92.0276V86.9918L54.2311 90.6847L51.9063 86.9079V91.9017C51.9063 91.9017 51.9063 92.0276 51.8218 92.0695C51.6949 92.1535 50.3001 92.1535 50.131 92.0695C50.0465 92.0695 49.8774 91.9436 49.8774 91.8597V83.299L50.0042 83.1731H51.8218H51.7795Z" fill="white"/><path d="M94.302 88.251V83.2153L94.4711 83.1313H96.2886L96.4154 83.2572V91.9019L96.2886 92.0278H94.4711L90.6669 86.9081V91.818C90.6669 91.818 90.54 91.9439 90.4978 91.9858C90.371 92.0278 88.9338 92.0697 88.7225 91.9858C88.6379 91.9858 88.4689 91.8599 88.4689 91.818V83.3412C88.4689 83.3412 88.5957 83.2153 88.6379 83.2153C88.8493 83.1313 90.4132 83.1314 90.5823 83.2992L94.302 88.293V88.251Z" fill="white"/><path d="M81.3254 89.4259C82.5935 90.517 84.7069 89.8455 85.0451 88.2089C85.4255 86.4464 84.1152 84.8518 82.2553 85.2714C80.4378 85.6911 80.0151 88.3348 81.3254 89.4259ZM82.509 83.1732C88.0885 82.7536 89.1029 90.8527 83.8193 91.9018C77.5635 93.1607 76.38 83.6348 82.509 83.1732Z" fill="white"/><path d="M66.7426 84.0124C66.9963 83.8865 67.7571 84.6838 67.8839 84.8937C69.7015 87.2856 68.5179 91.0624 65.6014 91.8178C60.6982 93.1187 57.7816 87.0758 61.5858 84.0124H61.6704C61.8817 84.0124 62.6003 85.4392 62.6848 85.733C61.459 86.9919 61.8817 89.6776 63.8684 89.8874C66.5313 90.1812 67.2921 87.4535 65.8127 85.649L66.7004 83.9705L66.7426 84.0124Z" fill="white"/><path d="M70.0819 83.1733H72.8716C76.9717 83.1733 78.7893 88.5447 75.5768 91.0626C74.3088 92.0697 71.7726 92.2376 70.2087 92.0278C70.0819 92.0278 69.9973 92.0278 69.9551 91.9019V90.0974L70.0819 89.9715H73.0407C73.0407 89.9715 73.8861 89.6778 74.0129 89.5939C75.45 88.6287 75.281 86.1108 73.6747 85.3974C73.5479 85.3555 73.083 85.1876 72.9984 85.1876H70.1242L69.9973 85.0617V83.2572L70.1242 83.1313L70.0819 83.1733Z" fill="white"/><path d="M64.2065 83.1732C65.6014 83.0473 65.7282 85.1455 64.4179 85.2714C62.9807 85.3553 62.8539 83.2991 64.2065 83.1732Z" fill="white"/><path d="M107.194 91.9857C104.573 91.9857 103.052 90.0134 103.052 87.2857C103.052 84.558 104.7 82.6277 107.279 82.6277C109.181 82.6277 110.702 83.7188 111.083 85.6911H109.857C109.561 84.558 108.716 83.7188 107.236 83.7188C105.63 83.7188 104.362 84.9777 104.362 87.3277C104.362 89.6777 105.588 90.9786 107.279 90.9786C108.716 90.9786 109.603 90.1813 109.899 89.0063H111.125C110.702 91.0205 109.138 92.0696 107.194 92.0696" fill="white"/><path d="M117.423 88.4608C117.423 86.6564 116.451 85.943 115.394 85.943C114.338 85.943 113.365 86.6144 113.365 88.4608C113.365 90.3072 114.338 90.9367 115.394 90.9367C116.451 90.9367 117.423 90.1814 117.423 88.4608ZM115.394 91.9858C113.83 91.9858 112.14 90.9367 112.14 88.5028C112.14 86.0689 113.83 84.9778 115.394 84.9778C116.958 84.9778 118.649 86.0269 118.649 88.5028C118.649 90.9787 116.958 91.9858 115.394 91.9858Z" fill="white"/><path d="M120.044 91.818V85.1037H121.185V86.1108C121.566 85.4814 122.2 84.9778 123.214 84.9778C124.228 84.9778 124.862 85.4394 125.158 86.1528C125.708 85.3135 126.511 84.9778 127.441 84.9778C129.005 84.9778 129.639 86.0269 129.639 87.5796V91.818H128.498V87.9153C128.498 86.8662 128.286 85.9849 127.06 85.9849C126.088 85.9849 125.412 86.7403 125.412 88.1671V91.818H124.271V87.9153C124.271 86.8662 124.059 85.9849 122.834 85.9849C121.861 85.9849 121.185 86.7403 121.185 88.1671V91.818H120.044Z" fill="white"/><path d="M136.36 88.4608C136.36 86.8662 135.599 85.943 134.415 85.943C133.401 85.943 132.429 86.6983 132.429 88.4608C132.429 90.2233 133.401 90.9787 134.415 90.9787C135.599 90.9787 136.36 90.0555 136.36 88.4608ZM132.513 86.1528C132.936 85.4394 133.654 84.9778 134.711 84.9778C136.275 84.9778 137.585 86.2787 137.585 88.4608C137.585 90.643 136.233 91.9439 134.711 91.9439C133.612 91.9439 132.894 91.4822 132.513 90.7689V93.9581H131.372V85.0617H132.513V86.1108V86.1528Z" fill="white"/><path d="M139.826 90.0135C139.826 90.6429 140.333 91.0626 141.136 91.0626C142.193 91.0626 143.207 90.559 143.207 89.0063V88.5867C141.136 88.7965 139.826 89.0903 139.826 90.0135ZM143.123 87.6635V87.4956C143.123 86.2787 142.446 85.859 141.601 85.859C140.671 85.859 140.122 86.3626 140.037 87.2019H138.853C138.98 85.7331 140.248 84.9358 141.559 84.9358C143.419 84.9358 144.264 85.817 144.264 87.7054V89.2581C144.264 90.3912 144.264 91.1465 144.433 91.776H143.292C143.292 91.5242 143.207 91.2724 143.207 90.8528C142.785 91.5242 142.108 91.9438 140.882 91.9438C139.614 91.9438 138.558 91.2304 138.558 90.0135C138.558 88.4188 140.375 87.9572 143.165 87.6635" fill="white"/><path d="M149.336 84.9778C150.985 84.9778 151.576 86.0269 151.576 87.5796V91.818H150.435V87.9153C150.435 86.8662 150.266 85.9849 148.956 85.9849C147.857 85.9849 147.18 86.7403 147.18 88.1671V91.818H146.039V85.1037H147.18V86.1108C147.561 85.4814 148.237 84.9778 149.378 84.9778" fill="white"/><path d="M155.761 92.1116C155.254 93.5803 154.916 93.9999 153.394 93.9999H152.802V93.0348H153.267C154.028 93.0348 154.366 92.9928 154.704 91.9437V91.8178L152.295 85.1035H153.563L155.296 90.3071L156.987 85.1035H158.17L155.761 92.1116Z" fill="white"/><path d="M40.6627 88.7546L38.9719 84.0126L37.2812 88.7546H40.6627ZM39.7328 82.7537L43.1566 91.8179H41.7617L41.0431 89.8456H36.8585L36.1399 91.8179H34.8296L38.2111 82.7537H39.6905H39.7328Z" fill="white"/></g><defs><clipPath id="clip0_39_1487"><rect width="193" height="94" fill="white"/></clipPath></defs></svg>