<?xml version="1.0" encoding="UTF-8"?><svg xmlns="http://www.w3.org/2000/svg" id="Layer_1" version="1.1" viewBox="0 0 841.89 595.28"><defs><style> .st0 { fill: #85754e; } </style></defs><g><rect class="st0" x="232.01" y="326.97" width="2" height="18.05"/><polygon class="st0" points="248.74 342.21 248.69 342.21 241.39 326.96 238.82 326.96 238.82 345.01 240.71 345.01 240.71 329.8 240.76 329.8 248.07 345.01 250.64 345.01 250.64 326.96 248.74 326.96 248.74 342.21"/><polygon class="st0" points="253.11 328.66 257.35 328.66 257.35 345.01 259.37 345.01 259.37 328.66 263.62 328.66 263.62 326.96 253.11 326.96 253.11 328.66"/><polygon class="st0" points="268.04 336.4 274.33 336.4 274.33 334.7 268.04 334.7 268.04 328.65 274.63 328.65 274.63 326.96 266.04 326.96 266.04 345.01 274.88 345.01 274.88 343.33 268.04 343.33 268.04 336.4"/><path class="st0" d="M284.69,336.09v-.05c1.64-.42,3.59-1.28,3.59-4.53,0-4.39-4.44-4.54-5.65-4.54h-4.4v18.05h2v-8.02h1.86c2.71,0,3.26,1.24,3.8,3.86l.87,4.16h1.99l-1.01-4.94c-.38-1.97-.61-3.31-3.05-3.98M281.34,335.27h-1.11v-6.61h1.49c2.14,0,4.57,0,4.57,3.07s-2.52,3.54-4.94,3.54"/><polygon class="st0" points="302.23 342.21 302.18 342.21 294.89 326.96 292.31 326.96 292.31 345.01 294.22 345.01 294.22 329.8 294.28 329.8 301.55 345.01 304.13 345.01 304.13 326.96 302.23 326.96 302.23 342.21"/><path class="st0" d="M312.48,326.96l-5.64,18.04h2l1.73-5.57h6.33l1.77,5.57h2l-5.73-18.04h-2.46ZM311.09,337.74l2.6-8.92h.03l2.62,8.92h-5.25Z"/><polygon class="st0" points="320.7 328.66 324.95 328.66 324.95 345.01 326.94 345.01 326.94 328.66 331.19 328.66 331.19 326.96 320.7 326.96 320.7 328.66"/><rect class="st0" x="333.75" y="326.97" width="1.99" height="18.05"/><path class="st0" d="M346.02,326.67c-5.09,0-6.32,4.7-6.32,9.28s1.23,9.36,6.32,9.36,6.28-4.79,6.28-9.36-1.22-9.28-6.28-9.28M346.02,343.61c-3.58,0-4.15-4.43-4.15-7.67s.56-7.57,4.15-7.57,4.1,4.29,4.1,7.57-.55,7.67-4.1,7.67"/><polygon class="st0" points="366.02 342.21 365.96 342.21 358.66 326.96 356.07 326.96 356.07 345.01 358 345.01 358 329.8 358.03 329.8 365.33 345.01 367.91 345.01 367.91 326.96 366.02 326.96 366.02 342.21"/><path class="st0" d="M376.26,326.96l-5.65,18.04h2.02l1.72-5.57h6.32l1.76,5.57h1.98l-5.71-18.04h-2.44ZM374.87,337.74l2.57-8.92h.07l2.61,8.92h-5.25Z"/><polygon class="st0" points="389.15 326.96 387.14 326.96 387.14 345.02 395.49 345.02 395.49 343.33 389.15 343.33 389.15 326.96"/><polygon class="st0" points="414.17 334.77 406.83 334.77 406.83 326.96 404.83 326.96 404.83 345.02 406.83 345.02 406.83 336.49 414.17 336.49 414.17 345.02 416.18 345.02 416.18 326.96 414.17 326.96 414.17 334.77"/><path class="st0" d="M429.86,338.82c0,2.03,0,4.79-3.69,4.79-3.36,0-3.49-2.76-3.49-4.79v-11.85h-2.01v12.24c0,2.36.6,6.1,5.43,6.1,5.42,0,5.75-3.74,5.75-6.1v-12.24h-1.99v11.85Z"/><polygon class="st0" points="446.28 342.21 446.2 342.21 438.91 326.96 436.34 326.96 436.34 345.01 438.24 345.01 438.24 329.8 438.3 329.8 445.59 345.01 448.19 345.01 448.19 326.96 446.28 326.96 446.28 342.21"/><polygon class="st0" points="450.63 328.66 454.89 328.66 454.89 345.01 456.89 345.01 456.89 328.66 461.12 328.66 461.12 326.96 450.63 326.96 450.63 328.66"/><rect class="st0" x="463.68" y="326.97" width="2.02" height="18.05"/><polygon class="st0" points="480.43 342.21 480.38 342.21 473.08 326.96 470.5 326.96 470.5 345.01 472.4 345.01 472.4 329.8 472.46 329.8 479.76 345.01 482.35 345.01 482.35 326.96 480.43 326.96 480.43 342.21"/><path class="st0" d="M492.74,328.37c2.55,0,3.42,1.9,3.42,3.51h2.28c0-3.01-2.18-5.22-5.72-5.22-4.86,0-6.6,4.13-6.6,8.73,0,5.22,1.49,9.93,7.09,9.93,2.78,0,4.69-1.36,5.12-1.72v-8.78h-6.05v1.69h4.04v6.11c-.31.27-1.45.99-3.26.99-4.18,0-4.76-4.71-4.76-8.21,0-3.29.86-7.02,4.45-7.02"/><polygon class="st0" points="534.38 336.4 540.64 336.4 540.64 334.7 534.38 334.7 534.38 328.65 540.98 328.65 540.98 326.96 532.38 326.96 532.38 345.01 541.19 345.01 541.19 343.33 534.38 343.33 534.38 336.4"/><path class="st0" d="M554.15,343.44c1.17-.72,2.36-3.16,2.36-7.48,0-4.59-1.22-9.28-6.3-9.28s-6.52,4.7-6.52,9.28c0,4.01,1.34,9.05,6.43,9.05h7.72v-1.75l-3.63.25-.06-.07ZM550.1,343.32c-3.59,0-4.21-4.45-4.21-7.39,0-3.28.58-7.57,4.31-7.57s4.11,4.29,4.11,7.57c0,3.54-.35,7.39-4.22,7.39"/><path class="st0" d="M569.56,338.82c0,2.03,0,4.79-3.66,4.79-3.39,0-3.51-2.76-3.51-4.79v-11.85h-1.99v12.24c0,2.36.59,6.1,5.42,6.1,5.43,0,5.76-3.74,5.76-6.1v-12.24h-2.01v11.85Z"/><polygon class="st0" points="578.08 336.4 584.34 336.4 584.34 334.7 578.08 334.7 578.08 328.65 584.63 328.65 584.63 326.96 576.06 326.96 576.06 345.01 584.88 345.01 584.88 343.33 578.08 343.33 578.08 336.4"/><path class="st0" d="M593.84,335.24l-1.65-.91c-1.38-.78-2.93-1.61-2.93-3.2,0-1.69,1.31-2.76,3.33-2.76,1.9,0,3.44.61,3.87.79v-2.02c-.61-.15-2.01-.47-3.71-.47-3.26,0-5.68,1.51-5.68,4.62,0,2.75,2.19,3.75,3.83,4.7l1.56.88c1.46.83,2.95,1.59,2.95,3.64s-1.64,3.09-3.84,3.09-3.91-.78-4.29-.97v2.1c.45.11,2.19.57,4.08.57,3.33,0,6.25-1.31,6.25-5.08,0-2.85-1.98-3.96-3.76-4.98"/><polygon class="st0" points="598.7 328.66 602.93 328.66 602.93 345.01 604.94 345.01 604.94 328.66 609.19 328.66 609.19 326.96 598.7 326.96 598.7 328.66"/><path class="st0" d="M618.08,336.09v-.05c1.64-.42,3.61-1.28,3.61-4.53,0-4.39-4.47-4.54-5.67-4.54h-4.4v18.05h2.01v-8.02h1.85c2.73,0,3.25,1.24,3.82,3.86l.87,4.16h1.99l-1-4.94c-.4-1.97-.63-3.31-3.07-3.98M614.73,335.27h-1.1v-6.61h1.5c2.14,0,4.56,0,4.56,3.07s-2.52,3.54-4.95,3.54"/><rect class="st0" x="625.84" y="326.97" width="2.01" height="18.05"/><path class="st0" d="M636.34,326.96l-5.64,18.04h1.99l1.72-5.57h6.33l1.79,5.57h2.01l-5.74-18.04h-2.46ZM634.99,337.74l2.61-8.92h.04l2.59,8.92h-5.23Z"/><polygon class="st0" points="657.13 342.21 657.1 342.21 649.8 326.96 647.24 326.96 647.24 345.01 649.13 345.01 649.13 329.8 649.18 329.8 656.49 345.01 659.05 345.01 659.05 326.96 657.13 326.96 657.13 342.21"/><polygon class="st0" points="672.64 336.4 678.93 336.4 678.93 334.7 672.64 334.7 672.64 328.65 679.22 328.65 679.22 326.96 670.66 326.96 670.66 345.01 679.45 345.01 679.45 343.33 672.64 343.33 672.64 336.4"/><polygon class="st0" points="693.43 326.96 691.25 326.96 687.32 333.71 683.37 326.96 681.19 326.96 686.2 335.55 680.64 345.02 682.85 345.02 687.32 337.43 691.79 345.02 693.98 345.02 688.41 335.55 693.43 326.96"/><polygon class="st0" points="705.77 334.77 698.46 334.77 698.46 326.96 696.46 326.96 696.46 345.02 698.46 345.02 698.46 336.49 705.77 336.49 705.77 345.02 707.78 345.02 707.78 326.96 705.77 326.96 705.77 334.77"/><rect class="st0" x="712.57" y="326.97" width="2" height="18.05"/><path class="st0" d="M726.32,335.47v-.05c.44-.16,2.61-.94,2.61-4s-1.98-4.45-4.84-4.45h-4.69v18.05h4.69c2.89,0,5.65-1.14,5.65-4.88,0-3.51-2.06-4.33-3.42-4.66M721.4,328.65h2c1.37,0,3.51.22,3.51,2.88,0,3.17-2.67,3.2-3.8,3.2h-1.72v-6.09ZM723.69,343.32h-2.29v-6.86h2.52c2.18,0,3.81,1.23,3.81,3.45,0,3.31-3.02,3.41-4.04,3.41"/><rect class="st0" x="733.58" y="326.97" width="2.02" height="18.05"/><polygon class="st0" points="738.23 328.66 742.46 328.66 742.46 345.01 744.46 345.01 744.46 328.66 748.7 328.66 748.7 326.96 738.23 326.96 738.23 328.66"/><rect class="st0" x="751.27" y="326.97" width="2.03" height="18.05"/><path class="st0" d="M763.54,326.67c-5.1,0-6.34,4.7-6.34,9.28s1.24,9.36,6.34,9.36,6.28-4.79,6.28-9.36-1.22-9.28-6.28-9.28M763.54,343.61c-3.58,0-4.15-4.43-4.15-7.67s.57-7.57,4.15-7.57,4.1,4.29,4.1,7.57-.56,7.67-4.1,7.67"/><polygon class="st0" points="783.54 342.21 783.48 342.21 776.19 326.96 773.62 326.96 773.62 345.01 775.51 345.01 775.51 329.8 775.57 329.8 782.85 345.01 785.44 345.01 785.44 326.96 783.54 326.96 783.54 342.21"/><path class="st0" d="M236.39,282.15c-1.42-.78-2.53-1.42-3.34-1.9l-1.4,2.54c.37.21.97.53,1.8,1,.82.44,1.41.77,1.8.97.62-1.06.99-1.66,1.17-1.81,1.72,1.04,2.79,1.65,3.28,1.87l1.34-2.31-3.48-2.27c-.67,1.07-1.06,1.7-1.17,1.9"/><path class="st0" d="M271.75,310.54c.37-.57.85-1.43,1.41-2.61-1.99-1.19-3.11-1.84-3.39-1.94-.47.8-.8,1.4-1.03,1.78-1.73-1.07-2.92-1.78-3.53-2.11-.46.6-.95,1.49-1.51,2.65l3.58,2.01c.47-.81.83-1.4,1.04-1.77,1.53.84,2.67,1.51,3.42,1.98"/><path class="st0" d="M311.47,302.7c.25,0,.71-.34,1.41-1.06.3.47.55.82.71,1.06h2.71s4.63.01,4.63.01c.08,0,.32-.13.68-.41.39-.26.59-.39.66-.39-.07,0,.29.12,1.09.39.79.28,1.69.41,2.74.41h2.64c.8-1.43,1.2-2.64,1.15-3.71v-5.44c-.25.28-.8.89-1.66,1.87-.49.53-.72.94-.72,1.21,0-.06.18.91.57,2.92-.13.15-.91.15-2.3,0-.07-.02-.4-.08-.98-.14-.43-.07-.74-.2-.92-.37l1.25-4.96c-.6.38-1.21.91-1.83,1.56-.75.77-1.14,1.35-1.19,1.74v1.04c.04.44-.04.84-.22,1.14h-5.61v.13c-.87-.02-1.41-.17-1.56-.48.48-.59.81-1.56.98-2.93.09-.9.19-1.79.27-2.71-1.02,1-1.95,1.97-2.83,2.95,0,.56,0,1.12-.03,1.65-.09,1.04-.45,1.54-1.11,1.54h-4.93v-.06h-33.36v-.07h-1.36c-.02-.32-.04-.7-.08-1.16-.05-.44-.05-.71-.05-.79v-2.93c0-.11-.07-.54-.15-1.27-.12-.75-.17-1.25-.17-1.53-.1.05-.5.54-1.22,1.53-.69.99-1.05,1.61-1.05,1.9,0,.04.07.59.24,1.65.16,1.06.25,1.81.25,2.25l-.04.36h-8.99v.07h-15.51v-.08h-.77c-.95,0-1.59-.2-1.93-.63l-.16-.47c-.66-5.65-1.13-9.87-1.44-12.68-1.27,1.46-1.95,2.35-2.1,2.75-.02.77,0,1.37.09,1.79-.29.2-1.12.49-2.43.92-1.08.34-1.84.74-2.3,1.14-1.53,1.35-2.48,3.26-2.91,5.78.5.39,1.06.68,1.67.88.33.17.8.3,1.42.44,2.19.59,3.38.89,3.59.89.23,0,.44-.1.56-.31.23-.4.39-.77.58-1.12.32-.53.63-.85.99-1,.15.27.22.58.26.89.13,1.35.26,2.12.36,2.35.26.59.62,1.03,1.16,1.31.26.14.53.22.71.22h19.19s6.82-.01,6.82-.01c.74-1.08,1.2-1.69,1.33-1.79.49.81.83,1.41,1.04,1.79h1.26s4.8.01,4.8.01h29.73s4.37-.01,4.37-.01ZM238.83,296.99c-.29,0-.69-.04-1.18-.12-.54-.09-1.25-.32-2.18-.68-.61-.18-1.1-.47-1.52-.95.44-.35,1.18-.69,2.19-1.04,1.02-.32,1.7-.6,2.09-.86.55-.68.98-1.29,1.3-1.85l.87,5.5h-1.56Z"/><path class="st0" d="M343.72,303.37c.31-1.69.51-2.95.58-3.75.08-.45.09-.85.09-1.17,0-.65-.11-1.61-.36-2.85-.22-.81-.44-1.42-.58-1.82-.17-.41-.5-.98-1.03-1.73-.64-.84-1.16-1.27-1.58-1.27-.76,0-1.71.93-2.87,2.78-1.15,1.84-1.74,3.22-1.74,4.14,0,1,.21,1.85.63,2.58.55.98,1.35,1.49,2.37,1.49,1.46,0,2.6-.94,3.55-2.81l.16.22c0,.17.01.42.03.76.04.33.07.52.07.56,0,2.38-2.06,4.99-6.22,7.76-1.32.9-2.46,1.33-3.43,1.33-.07,0-.73-.12-1.91-.36-1.25-.25-1.88-.37-1.98-.37-.25,0-.42.16-.54.49.42.32,1.58.75,3.5,1.26.79.19,1.71.41,2.75.66h1.45c1.59,0,3.08-.91,4.48-2.75,1.14-1.44,1.99-3.15,2.59-5.14M340.23,298.38c-.52,0-1.03-.08-1.55-.3-.73-.32-1.08-.74-1.08-1.26,0-.35.28-.81.88-1.4.59-.61,1.05-.92,1.41-.92.61,0,1.17.52,1.6,1.52.34.65.49,1.22.57,1.74-.54.42-1.13.62-1.82.62"/><path class="st0" d="M360.06,302.22c.5.34.87.49,1.08.49h6.26s14.48,0,14.48,0h0s7.96,0,7.96,0c.4-.58.7-1.25.84-2.06.1-.71.2-1.42.28-2.12.11-.59.18-1.15.18-1.63l-.96-10.21.2.15c.61-1.14,1.22-2.33,1.77-3.62-1.08-.56-1.88-1-2.44-1.32-.24-.13-.37-.35-.37-.64l.1-.53c.03-.33.03-.56,0-.69h-.52c-.89,1.44-1.55,2.57-1.93,3.39-.09.17-.13.4-.13.73,0,.28.03.46.13.58.29.35.51.59.67.72.5,3.26.84,5.75,1.06,7.51.11.59.21,1.41.32,2.44.19,1.67.31,2.71.31,3,0,.46-.03.75-.09.87l-.07.25c-.62-.02-3.05-.01-7.31.04h-1.68c.44-.78.9-1.55,1.34-2.32.27-.56.41-1.1.41-1.64s-.14-1.32-.48-2.26c-.42-1.26-.92-1.9-1.54-1.9-1.26,0-2.81.77-4.64,2.32-1.67,1.41-2.81,2.76-3.46,4.06-.12.77-.13,1.35-.07,1.75h-5.41v.07h-3.57v-.08h-.82c-1.08-.3-2.16-1.19-3.26-2.66-.81-1.26-1.66-2.48-2.49-3.7l-1.7,3.13c.24.2.77.88,1.64,2.02.97,1.29,1.49,2.1,1.49,2.36,0,1.06-1.19,2.8-3.5,5.2-2.34,2.39-4.25,3.59-5.71,3.59-.57,0-1.42-.23-2.55-.69-1.11-.49-1.7-.71-1.74-.71l-.29.08-.17.06v.49c.5.32,1.64.85,3.37,1.58,2.13.92,3.56,1.38,4.31,1.38,1.5,0,3.16-1.38,5.02-4.12,1.77-2.6,2.68-4.66,2.68-6.14.17.21.51.48,1,.78M375.45,295.6c.77-.43,1.39-.65,1.89-.65.64,0,1.19.31,1.64.95.46.62.68,1.24.68,1.91,0,.49-.34.93-1.02,1.34-.58.26-1.04.42-1.45.42-.45,0-1.08-.23-1.83-.71-.88-.53-1.3-1.09-1.3-1.66s.47-1.11,1.4-1.59"/><path class="st0" d="M380.2,284.41l-3.7-1.89c-.8,1.61-1.22,2.46-1.31,2.58.81.48,1.96,1.18,3.49,2.06.47-.74.95-1.65,1.52-2.75"/><path class="st0" d="M396.22,283.04l2,19.66c.95-2.03,1.41-3.87,1.41-5.44l-1.06-19.37c-1.58,2.53-2.36,4.21-2.36,5.14"/><path class="st0" d="M408.11,311.26c1.59,0,3.08-.91,4.47-2.75,1.14-1.44,2.02-3.15,2.61-5.14.31-1.69.51-2.95.57-3.75.06-.45.11-.85.11-1.16,0-.66-.13-1.62-.37-2.86-.25-.82-.43-1.43-.61-1.82-.14-.41-.48-.98-1.01-1.73-.62-.84-1.16-1.27-1.57-1.27-.78,0-1.71.92-2.89,2.78-1.16,1.84-1.75,3.22-1.75,4.14,0,.99.22,1.85.64,2.58.54.99,1.37,1.49,2.38,1.49,1.43,0,2.63-.95,3.55-2.81l.17.22c0,.17.01.42.06.76.03.34.05.52.05.56,0,2.38-2.1,4.99-6.25,7.76-1.31.9-2.46,1.33-3.43,1.33-.08,0-.72-.11-1.94-.36-1.19-.25-1.87-.37-1.97-.37-.24,0-.41.16-.51.49.42.32,1.58.75,3.47,1.26.83.19,1.74.4,2.78.66h1.45ZM411.7,298.37c-.53,0-1.05-.08-1.56-.3-.73-.32-1.1-.75-1.1-1.26,0-.34.31-.81.9-1.4.57-.61,1.05-.92,1.4-.92.62,0,1.17.52,1.62,1.52.3.64.47,1.22.57,1.74-.53.42-1.14.62-1.82.62"/><path class="st0" d="M472.96,308.55c1.52.84,2.67,1.5,3.42,1.98.39-.57.87-1.43,1.41-2.61-1.96-1.19-3.09-1.84-3.38-1.94-.49.8-.84,1.41-1.04,1.79-1.74-1.07-2.9-1.79-3.55-2.11-.44.6-.94,1.48-1.49,2.65l3.58,2c.49-.81.82-1.4,1.04-1.76"/><path class="st0" d="M535.71,300.65c.12-.71.2-1.42.32-2.12.09-.59.13-1.15.13-1.63l-.93-10.22.22.16c.62-1.14,1.2-2.33,1.73-3.62-1.06-.56-1.86-1-2.44-1.32-.26-.13-.37-.35-.37-.64l.12-.53c.05-.33.05-.56,0-.69h-.52c-.9,1.44-1.55,2.57-1.92,3.39-.11.17-.16.4-.16.73,0,.28.05.46.16.58.29.34.51.58.65.72.5,3.26.85,5.75,1.08,7.51.09.6.17,1.41.29,2.44.2,1.67.3,2.71.3,3,0,.46-.03.75-.06.87l-.08.25c-.58-.02-2.77-.01-6.55.03h-1.12c-.32-3.3-.52-5.75-.57-7.33-.08-1.25-.16-2.21-.2-2.83-.2-2.57-.32-4.48-.39-5.71-.11-1.23-.2-2.59-.35-4.09l-2.63,3.28,2.19,16.68h-6.64v.08h-3.41v-.07h-2.68c.12-.19.37-.63.83-1.36.37-.51.53-.83.53-.94,0-1.28-.95-2.52-2.85-3.67-1.71-1.02-3.2-1.57-4.48-1.57-1.84,0-4.46,1.01-7.82,3.04-4.14,2.47-6.99,3.97-8.66,4.5h-1.97v.12c-.89-.02-1.42-.17-1.56-.48.49-.59.8-1.57.99-2.94.09-.9.18-1.79.26-2.7-1.01,1-1.94,1.97-2.81,2.95,0,.56-.02,1.12-.04,1.65-.07,1.04-.44,1.54-1.1,1.54h-4.83v-.14h-1.35c-.03-.32-.09-.71-.11-1.17-.03-.44-.06-.71-.06-.79v-2.93c0-.11-.04-.54-.15-1.28-.11-.74-.14-1.24-.14-1.52-.11.04-.52.54-1.23,1.52-.71,1-1.05,1.61-1.05,1.91,0,.04.08.6.24,1.65.17,1.06.25,1.82.25,2.25l-.07.36h-9v.07h-22.79v-.08h-1.67c-.7-1.12-1.24-3.02-1.64-5.68-.46-2.98-.92-5.01-1.42-6.11-.17.36-.47.92-.85,1.7-.4.74-.68,1.29-.88,1.64l1.68,6.53c-.17,1.17-.6,1.84-1.31,2-1.76.43-3.37.64-4.83.64-.97,0-1.9-.1-2.74-.32-.26-.18-.41-.33-.53-.47-.11-.14-.18-.39-.2-.75-.05-.93-.17-1.48-.39-1.54-.75,2.23-1.12,3.76-1.12,4.61,0,.13.09.47.32.99l.4.33c.73.22,1.52.32,2.4.32,1.2,0,2.67-.09,4.4-.32,1.49-.21,2.34-.37,2.55-.56.88-1.17,1.42-2.1,1.71-2.83.08.13.29.59.67,1.38.29.6.61,1.02.99,1.24.39.23.66.36.84.36h25.46s6.75-.01,6.75-.01c.79-1.08,1.23-1.68,1.38-1.79.48.81.83,1.41,1.03,1.79h6.7c.25,0,.71-.34,1.4-1.06.31.47.54.82.71,1.06h2.72s25.7.01,25.7.01h10.32c.33,0,.69-.46,1.16-1.4l.14.23c0,.14.01.33.05.61.04.27.07.46.07.56h9.97c.41-.59.7-1.26.83-2.07M509.51,299.3c-.27.16-.47.26-.61.26h-15.47c1.72-.91,3.42-1.81,5.13-2.72,2.15-1.12,3.97-1.67,5.51-1.67.74,0,1.42.09,2.08.33.34.1,1,.5,1.96,1.24,1.2.88,1.82,1.56,1.82,2.03,0,.18-.12.36-.43.53"/><path class="st0" d="M563.8,307.78c1.3-2.32,2.12-3.82,2.38-4.44.14-.31.24-.47.28-.47l.25-.15h24.48c.39-.88.62-1.6.74-2.17.27-1.8.39-2.99.39-3.55l-.9-10.21.17.1c.09,0,.76-1.14,1.96-3.45-1.68-.97-2.67-1.53-2.95-1.71.05-.28.05-.49.05-.59.2-.54.17-.9-.05-1.03h-.36c-.72,1.3-1.28,2.25-1.63,2.83-.32.62-.51,1.04-.51,1.31l.06.48c.34.36.6.61.78.73v.23c.2,1.61.55,4.08,1.06,7.38.1.64.19,1.46.3,2.42.16,1.69.24,2.69.24,3.01,0,.49,0,.85-.04,1.04h-24.1l-3.05.06c-2.22.03-3.84.06-4.88.06-.24,0-.5.43-.87,1.33-.25.62-.46,1.25-.66,1.86,1.23.16,2.5.3,3.78.44,1.65.25,2.58,1.1,2.75,2.54-1.06.92-2.38,1.56-4.07,1.94-1.84.29-3.24.46-4.17.59-.4.03-.86.04-1.39.04-4.05,0-6.07-1.49-6.07-4.5,0-.84.38-2.1,1.16-3.78.72-1.68,1.11-2.48,1.11-2.44v-.7l-.47.15c-1.69,1.9-2.8,4.28-3.32,7.1-.17.81-.26,1.5-.26,2.06,0,1.93.71,3.38,2.12,4.33,1.15.79,2.61,1.15,4.46,1.15,1.05,0,1.74-.03,2.13-.1,2.66-.6,4.53-1.14,5.59-1.63.63-.26,1.23-.51,1.82-.73.78-.43,1.36-.94,1.71-1.55"/><path class="st0" d="M555.89,316.31c-1.75-1.08-2.84-1.72-3.28-1.94l-1.31,2.41,3.38,2.1c.41-.81.72-1.41.95-1.83,1.37.82,2.34,1.42,3,1.83.51-1.01.9-1.76,1.22-2.29l-2.95-1.92c-.37.72-.68,1.25-1.01,1.64"/><path class="st0" d="M603.59,308.5c1.16-1.44,2.04-3.15,2.61-5.14.29-1.69.49-2.95.55-3.75.07-.45.12-.85.12-1.16,0-.66-.12-1.62-.38-2.86-.23-.81-.42-1.42-.58-1.82-.14-.41-.49-.98-1.02-1.73-.63-.84-1.14-1.27-1.55-1.27-.76,0-1.72.92-2.89,2.78-1.16,1.84-1.76,3.22-1.76,4.14,0,1,.22,1.85.64,2.58.56.99,1.36,1.49,2.39,1.49,1.43,0,2.61-.94,3.55-2.81l.14.22c0,.17.03.42.04.76.06.34.07.52.07.56,0,2.38-2.09,4.99-6.24,7.76-1.31.9-2.47,1.33-3.44,1.33-.07,0-.7-.12-1.91-.36-1.21-.25-1.9-.37-1.98-.37-.25,0-.43.16-.53.49.43.32,1.56.75,3.47,1.26.82.19,1.74.4,2.77.66h1.47c1.58,0,3.09-.91,4.45-2.75M602.7,298.38c-.51,0-1.02-.08-1.55-.3-.73-.32-1.12-.75-1.12-1.26,0-.34.33-.81.91-1.4.59-.61,1.07-.92,1.41-.92.63,0,1.13.52,1.6,1.52.3.64.5,1.22.57,1.74-.52.42-1.11.62-1.83.62"/><path class="st0" d="M648.57,298.52c.1-.59.17-1.14.17-1.63l-.96-10.22.19.16c.63-1.14,1.23-2.33,1.77-3.62-1.07-.56-1.88-1.01-2.43-1.32-.24-.12-.37-.35-.37-.64l.09-.53c.05-.33.05-.56,0-.69h-.53c-.87,1.44-1.52,2.57-1.91,3.38-.09.17-.13.41-.13.74,0,.27.04.45.13.57.27.35.5.59.69.72.48,3.26.82,5.75,1.03,7.51.09.59.19,1.41.3,2.43.21,1.67.33,2.71.33,3.01,0,.46-.04.75-.09.87l-.06.25c-.62-.03-3.06-.02-7.34.04v.07h-13.31v-.08h-1.66c-.69-1.12-1.24-3.02-1.66-5.68-.46-2.98-.93-5.01-1.4-6.11-.19.35-.46.92-.87,1.7-.39.74-.7,1.28-.87,1.63l1.69,6.53c-.18,1.17-.6,1.84-1.3,2-1.76.43-3.39.64-4.83.64-.96,0-1.87-.1-2.75-.32-.25-.18-.41-.33-.53-.47-.09-.14-.16-.38-.22-.75,0-.93-.13-1.48-.34-1.54-.79,2.22-1.14,3.75-1.14,4.6,0,.13.09.47.29,1l.44.32c.72.22,1.5.32,2.39.32,1.22,0,2.68-.1,4.4-.32,1.5-.21,2.34-.37,2.55-.56.86-1.17,1.42-2.1,1.72-2.82.05.13.29.59.69,1.38.26.61.6,1.02.98,1.24.38.24.65.36.81.36h22.91c.4-.59.69-1.26.83-2.06.09-.71.2-1.42.31-2.13"/><path class="st0" d="M656.16,277.9c-1.56,2.53-2.36,4.21-2.36,5.14l2.02,19.66c.95-2.03,1.41-3.87,1.41-5.44l-1.08-19.37Z"/><path class="st0" d="M682.05,310.07c2.64-1.26,4.25-3.37,4.83-6.29.16-.66.25-1.01.3-1.01h.71l-.18-.04-.08-.04h17.66c.12,0,.35-.11.66-.34.27-.23.47-.39.53-.51.94-1.77,1.57-3.05,1.87-3.74.08-.22.1-.47.1-.79,0-.22-.08-.58-.2-1.12-.2-.65-.76-1.4-1.67-2.21-.75-.71-1.47-1.19-2.13-1.52-.66-.29-1.16-.44-1.52-.44-.69,0-1.45.22-2.33.68-1.83,1.1-3.17,1.9-4,2.52-3.56,1.9-6.44,3.35-8.63,4.33h-.73c-.44-.25-.91-1.01-1.47-2.3-.67-1.59-1.19-2.58-1.55-2.97l-1.48,3.44c1.57,2.6,2.37,4.66,2.37,6.18,0,1.4-1.31,2.56-3.94,3.43-2.02.67-3.7,1-5.09,1-1.53,0-2.81-.36-3.89-1.04-1.31-.88-1.95-2.19-1.95-3.96,0-.87.31-2.06.93-3.54.64-1.52.97-2.26.97-2.2v-.59h-.43c-.83.9-1.55,2.27-2.16,4.05-.59,1.78-.89,3.32-.89,4.57,0,2.02.66,3.54,2.01,4.57,1.17.87,2.73,1.31,4.63,1.31,2.52,0,4.77-.48,6.74-1.42M696.31,297.56c1.37-1.02,2.38-1.64,3.02-1.89.62-.25,1.24-.37,1.91-.37.5,0,1.01.07,1.44.24.47.15.83.32,1.1.55.56.39,1.2,1.08,1.93,2.02.18.45.27.59.27.46v.69c-.6.2-1,.31-1.2.31h-11.7c.76-.31,1.82-1,3.23-2"/><path class="st0" d="M691.3,286.69l3.4,2.01,1.51-2.51-3.49-2.14c-.18.31-.43.77-.77,1.36-.32.61-.55,1.01-.65,1.27"/><path class="st0" d="M775.84,304.91c.3-.58.62-1.14.92-1.75.32-.59.49-1.09.49-1.42,0-.84-.79-1.76-2.35-2.75-1.58-.98-2.41-1.74-2.51-2.28-.18-.71-.24-1.61-.24-2.75v-2.9c0,.11-.08-.42-.1-1.64-.05-1.08-.08-1.87-.04-2.38h.14l1.77-3.6c-1.68-.92-2.64-1.48-2.92-1.69,0-.02.02-.38.15-1.02.04-.33-.07-.55-.32-.62-.33.25-.82.94-1.42,2.08-.61,1.14-.92,1.84-.92,2.07,0,.31.08.48.16.59.35.29.61.51.79.64.33,3.15.55,5.49.68,7.09.08,1.02.15,1.81.17,2.42.03.42.08,1.01.16,1.77.08.77.13,1.15.13,1.18,0,.46-.53.86-1.55,1.22-.8.28-1.43.41-1.83.41h-4.11v.08h-3.31v-.08h-1.72c-1.15,0-1.73-.22-1.73-.68v-.05c.5-.17.92-.7,1.39-1.56.46-.89.71-1.53.71-1.95,0-.46-.55-1.08-1.59-1.92-.97-.75-1.54-1.16-1.79-1.21-.75-.25-1.25-.39-1.56-.39-.57,0-1.09.17-1.53.49-.12.11-.55.77-1.28,2.01-.79,1.33-1.17,2.18-1.17,2.55,0,.45.28.67.86.67l.46-.05.36-.03c.68,0,1.21.46,1.64,1.38-.6.25-.96.42-1.11.45-1.41.21-2.31.3-2.68.3h-4.48v.08h-17.91v-.08h-.82c-1.06-.3-2.15-1.19-3.28-2.66-.83-1.26-1.66-2.48-2.46-3.71l-1.72,3.13c.24.19.81.88,1.66,2.02.96,1.29,1.46,2.09,1.46,2.36,0,1.07-1.17,2.8-3.47,5.21-2.35,2.39-4.26,3.59-5.74,3.59-.54,0-1.38-.23-2.52-.7-1.13-.48-1.72-.7-1.76-.7l-.28.08-.17.06v.49c.51.32,1.62.85,3.37,1.59,2.14.92,3.59,1.38,4.29,1.38,1.49,0,3.19-1.38,5.06-4.12,1.74-2.6,2.66-4.67,2.66-6.15.15.21.48.48.99.78.53.34.85.5,1.07.5h23.6c.77,0,1.81-.22,3.17-.6,1.39-.42,2.19-.83,2.5-1.21.28.46.56.78.81.9.87.6,1.53.91,1.98.91h7.51s2.56,0,2.56,0c.07,0,.82-.22,2.21-.69,1.39-.45,2.15-.69,2.2-.69,1.05,0,2.48,1.2,4.33,3.58"/><path class="st0" d="M781.97,283.04l2.02,19.66c.95-2.03,1.44-3.87,1.44-5.44l-1.1-19.37c-1.55,2.53-2.36,4.21-2.36,5.14"/><path class="st0" d="M521.21,336.76h-1.62c0,1.4-.1,2.21-.54,3.14l-4.02-4.93c1.84-1.18,3.61-2.51,3.61-4.83s-1.85-3.8-4.07-3.8-4.06,1.52-4.06,3.8c0,1.8,1.27,3.14,2.26,4.48-2.05,1.16-4.49,2.88-4.49,5.56,0,3.36,2.38,5.23,5.56,5.23,2.15,0,4.03-1.12,5.38-2.82l1.94,2.43h2.04l-3.09-3.8c.85-1.58,1.09-3.44,1.09-4.46M512.25,330.14c0-1.57,1.19-2.28,2.32-2.28s2.31.7,2.31,2.28-1.33,2.73-2.69,3.58l-.08-.12c-.77-.98-1.86-2.31-1.86-3.46M513.86,343.88c-1.88,0-3.83-1.33-3.83-3.54s1.88-3.51,3.58-4.46l4.41,5.45c-1.15,1.63-2.61,2.55-4.17,2.55"/><path class="st0" d="M239.69,256.35c.28-.92,2.26-5.98,4.74-11.74h19.52c2.34,5.9,4.45,10.82,4.88,11.74.61,1.76.09,2.84-1.87,3.75h13.62c-2.63-1.22-3.15-2.14-3.76-3.75-1.2-2.91-20.63-49.63-20.63-49.63,0,0-19.37,46.72-20.65,49.63-.68,1.46-1.36,2.31-3.47,3.75h9.21c-1.97-.76-2.2-1.99-1.59-3.75M254.16,219.84s4.58,11.81,8.51,21.48h-16.95c3.3-8.28,8.44-21.48,8.44-21.48"/><path class="st0" d="M283.76,260.1h16.27c16.12,0,20.19-8.43,20.19-14.42,0-12.64-14.92-13.73-14.92-13.73,0,0,10.15-3.07,10.15-12.12,0-10.27-12.28-11.89-17.38-11.89h-14.32c1.36.61,2.11,1.68,2.11,3.45v45.26c0,1.68-.75,2.76-2.11,3.44M292.95,211.26s1.73-.17,4.96-.17c4.98,0,10.4,2.54,10.4,9.21,0,9.66-8.51,10.44-12.2,10.44-1.81,0-3.17-.16-3.17-.16v-19.33ZM292.95,234.11s3.69-.16,6.04-.16c6.32,0,13.24,1.99,13.24,10.96,0,11.43-10.99,12.12-15.75,12.12-2.18,0-3.53-.23-3.53-.23v-22.7Z"/><path class="st0" d="M329.57,211.39v32.3c0,12.97,10.63,17.1,18.9,17.1,9.41,0,17.34-4.68,17.41-17.25l.22-32.15c0-1.75.83-2.82,2.04-3.44h-7.91c1.21.62,1.95,1.69,1.95,3.44l.32,32.47c.06,6.9-3.18,13.42-13.25,13.42-10.63,0-12.45-8.13-12.45-13.42v-32.47c0-1.75,1.28-2.82,2.49-3.44h-12.06c1.14.62,2.35,1.69,2.35,3.44"/><path class="st0" d="M389.47,260.11h17.36c21.45,0,30.34-14.64,30.34-26.92,0-6.68-3.91-25.24-28.91-25.24h-18.79c1.22.61,1.96,1.68,1.96,3.45v45.25c0,1.68-.74,2.77-1.96,3.45M398.68,211.4c1.66-.31,6.79-.14,9.58-.14,15.59,0,21.07,12.42,21.07,21.93,0,11.43-4.96,23.62-22.15,23.62-2.24,0-5.79,0-8.51-.16v-45.25Z"/><path class="st0" d="M445.53,260.11h11.16c-1.12-.68-1.95-1.76-1.95-3.44v-23.94h26.21v23.94c0,1.68-.75,2.77-1.94,3.44h11.13c-1.26-.68-1.97-1.76-1.97-3.44v-45.27c0-1.76.7-2.82,1.97-3.44h-11.13c1.19.62,1.94,1.68,1.94,3.44v18.2h-26.21v-18.2c0-1.76.82-2.82,1.95-3.44h-11.16c1.22.62,1.97,1.68,1.97,3.44v45.27c0,1.68-.76,2.77-1.97,3.44"/><path class="st0" d="M501.44,256.35c.31-.92,2.28-5.98,4.76-11.74h19.51c2.33,5.9,4.46,10.82,4.9,11.74.61,1.76.08,2.84-1.87,3.75h13.64c-2.65-1.22-3.17-2.14-3.78-3.75-1.2-2.91-20.63-49.63-20.63-49.63,0,0-19.38,46.72-20.66,49.63-.69,1.46-1.33,2.31-3.45,3.75h9.19c-1.96-.76-2.19-1.99-1.6-3.75M515.91,219.84s4.61,11.81,8.52,21.48h-16.95c3.31-8.28,8.44-21.48,8.44-21.48"/><path class="st0" d="M545.51,260.1h16.29c16.1,0,20.17-8.43,20.17-14.42,0-12.64-14.9-13.73-14.9-13.73,0,0,10.17-3.07,10.17-12.12,0-10.27-12.28-11.89-17.4-11.89h-14.33c1.38.61,2.11,1.68,2.11,3.45v45.26c0,1.68-.73,2.76-2.11,3.44M554.71,211.26s1.71-.17,4.96-.17c5,0,10.4,2.54,10.4,9.21,0,9.66-8.49,10.44-12.2,10.44-1.8,0-3.16-.16-3.16-.16v-19.33ZM554.71,234.11s3.68-.16,6.03-.16c6.32,0,13.24,1.99,13.24,10.96,0,11.43-10.98,12.12-15.74,12.12-2.17,0-3.52-.23-3.52-.23v-22.7Z"/><path class="st0" d="M590.04,260.11h11.13c-1.11-.68-1.94-1.76-1.94-3.44v-45.27c0-1.76.84-2.82,1.94-3.44h-11.13c1.19.62,2.01,1.68,2.01,3.44v45.27c0,1.68-.82,2.77-2.01,3.44"/><g><path class="st0" d="M640.1,204.54c5.04,0,8.79,1.17,11.26,3.52s3.7,6.04,3.7,11.07c0,3.77-.7,7.29-2.09,10.56-1.39,3.28-3.21,6.33-5.46,9.17-2.25,2.84-4.77,5.49-7.55,7.96-2.79,2.47-5.6,4.8-8.43,7h13.79c1.47,0,2.71-.06,3.74-.18s1.92-.43,2.68-.92c.76-.49,1.43-1.18,2.02-2.09.59-.9,1.15-2.14,1.69-3.7l2.2.37-3.15,13.27h-27.13c-1.17,0-2.26.02-3.26.07-1,.05-1.92.12-2.75.22l-.29-2.2c2.93-2.93,5.96-5.87,9.09-8.8,3.13-2.93,5.98-5.96,8.54-9.09,2.57-3.13,4.68-6.37,6.34-9.72,1.66-3.35,2.49-6.91,2.49-10.67,0-4.11-.92-7.03-2.75-8.76-1.83-1.73-4.44-2.6-7.81-2.6-1.61,0-3.01.11-4.18.33-1.17.22-2.18.66-3.01,1.32-.83.66-1.5,1.58-2.02,2.75-.51,1.17-.89,2.69-1.14,4.55l-2.13.29-.44-10.63c1.51-.63,2.9-1.15,4.14-1.54,1.25-.39,2.48-.7,3.7-.92,1.22-.22,2.49-.38,3.81-.48,1.32-.1,2.79-.15,4.4-.15Z"/><path class="st0" d="M683.37,204.47c3.08,0,5.79.75,8.14,2.24,2.35,1.49,4.31,3.5,5.9,6.01,1.59,2.52,2.79,5.46,3.59,8.84.81,3.37,1.21,6.92,1.21,10.63,0,4.4-.43,8.41-1.28,12.03-.86,3.62-2.13,6.74-3.81,9.35s-3.8,4.64-6.34,6.09c-2.54,1.44-5.5,2.16-8.87,2.16s-6.08-.71-8.4-2.13c-2.32-1.42-4.23-3.36-5.72-5.83-1.49-2.47-2.59-5.35-3.3-8.65-.71-3.3-1.06-6.86-1.06-10.67,0-4.69.42-8.9,1.25-12.61.83-3.71,2.07-6.87,3.7-9.46,1.64-2.59,3.7-4.57,6.2-5.94,2.49-1.37,5.43-2.05,8.8-2.05ZM680.81,208.14c-1.91,0-3.42.73-4.55,2.2-1.12,1.47-1.98,3.34-2.57,5.62s-.97,4.76-1.14,7.45c-.17,2.69-.26,5.29-.26,7.78,0,4.21.17,7.99.51,11.35.34,3.35.93,6.19,1.76,8.52.83,2.33,1.96,4.11,3.37,5.36s3.2,1.87,5.35,1.87c2.39,0,4.26-.64,5.61-1.91,1.34-1.27,2.33-2.96,2.97-5.07.63-2.11,1.01-4.53,1.14-7.27.12-2.74.18-5.58.18-8.52,0-1.71-.04-3.57-.11-5.58s-.23-4.03-.48-6.06c-.25-2.03-.64-3.99-1.17-5.87-.54-1.88-1.26-3.56-2.16-5.03-.91-1.47-2.05-2.64-3.45-3.53-1.39-.88-3.07-1.32-5.02-1.32Z"/><path class="st0" d="M725.76,204.54c5.04,0,8.79,1.17,11.26,3.52s3.7,6.04,3.7,11.07c0,3.77-.7,7.29-2.09,10.56-1.39,3.28-3.21,6.33-5.46,9.17-2.25,2.84-4.77,5.49-7.55,7.96-2.79,2.47-5.6,4.8-8.43,7h13.79c1.47,0,2.71-.06,3.74-.18s1.92-.43,2.68-.92c.76-.49,1.43-1.18,2.02-2.09.59-.9,1.15-2.14,1.69-3.7l2.2.37-3.15,13.27h-27.13c-1.17,0-2.26.02-3.26.07-1,.05-1.92.12-2.75.22l-.29-2.2c2.93-2.93,5.96-5.87,9.09-8.8,3.13-2.93,5.98-5.96,8.54-9.09,2.57-3.13,4.68-6.37,6.34-9.72,1.66-3.35,2.49-6.91,2.49-10.67,0-4.11-.92-7.03-2.75-8.76-1.83-1.73-4.44-2.6-7.81-2.6-1.61,0-3.01.11-4.18.33-1.17.22-2.18.66-3.01,1.32-.83.66-1.5,1.58-2.02,2.75-.51,1.17-.89,2.69-1.14,4.55l-2.13.29-.44-10.63c1.51-.63,2.9-1.15,4.14-1.54,1.25-.39,2.48-.7,3.7-.92,1.22-.22,2.49-.38,3.81-.48,1.32-.1,2.79-.15,4.4-.15Z"/><path class="st0" d="M777.9,205.42c1.17,0,2.36-.05,3.56-.15,1.2-.1,2.43-.24,3.7-.44l-.81,11.22-2.2.37c-.2-3.28-.78-5.28-1.76-6.01-.78-.78-2.25-1.17-4.4-1.17h-12.83l-1.03,11.51c3.42.64,6.57,1.54,9.46,2.71,2.88,1.17,5.35,2.63,7.41,4.36,2.05,1.74,3.65,3.72,4.8,5.94,1.15,2.23,1.72,4.68,1.72,7.37s-.44,5.35-1.32,7.85-2.25,4.69-4.11,6.6c-1.86,1.91-4.23,3.42-7.11,4.55-2.89,1.12-6.33,1.69-10.34,1.69-.59,0-1.28-.05-2.09-.15-.81-.1-1.61-.22-2.42-.37s-1.59-.31-2.35-.48c-.76-.17-1.38-.35-1.87-.55l.51-12.47h1.76c.24,3.67,1.2,6.39,2.86,8.18,1.66,1.79,3.81,2.68,6.45,2.68,1.61,0,3.18-.28,4.69-.84,1.51-.56,2.86-1.43,4.03-2.6,1.17-1.17,2.11-2.63,2.82-4.36.71-1.73,1.06-3.78,1.06-6.12,0-2.49-.53-4.74-1.58-6.75-1.05-2-2.47-3.75-4.25-5.24-1.79-1.49-3.89-2.74-6.31-3.74-2.42-1-5-1.75-7.74-2.24l-.59-.59,1.91-20.75h18.33Z"/></g></g><path class="st0" d="M104.84,250.47c-8.91-2.9-19.77,5.74-24.28,19.28-1.35,4.07-1.97,8.11-1.96,11.84.01-1.62.17-3.36.54-5.12,2.43-11.92,11.76-23.5,21.54-24.14,6.34-.41,11.66,4.73,13.52,10.66-1.22-6.19-4.49-10.92-9.36-12.52"/><path class="st0" d="M127.58,205.24c18.82,0,36.51,7.25,49.81,20.43,13.33,13.17,20.64,30.69,20.64,49.32s-7.31,36.17-20.64,49.35c-13.3,13.17-31,20.42-49.81,20.42s-36.49-7.25-49.8-20.42c-13.31-13.18-20.63-30.7-20.63-49.35s7.32-36.15,20.63-49.32c13.3-13.17,31-20.43,49.8-20.43M79.34,227.21h0c-12.9,12.77-20,29.74-20,47.77s7.09,35.05,20,47.8c12.89,12.75,30.02,19.79,48.24,19.79s35.38-7.04,48.26-19.79c12.9-12.75,20-29.73,20-47.8s-7.09-35.01-20-47.77c-12.89-12.76-30.01-19.79-48.26-19.79s-35.35,7.03-48.24,19.79"/><path class="st0" d="M80.31,248.33c6.68-20.12,24.13-18.07,24.13-18.07,0,0-19.14-3.82-24.13,18.07"/><path class="st0" d="M115.63,238.4s-1.43,1.82,1.87,2.19c3.29.39,3.89,1.6.04,2.54-3.8.95-2.91,1.9-2.91,1.9,1.39.09,1.7-.96,4.05.52,2.35,1.49,2.67-.47,2.67-.47,5.13,4.9,1.64,4.69,1.64,4.69,2.62-2.34-5.72-3.51-10.87.6-5.15,4.13-6.39.43-6.39.43,4.39.35,2.58-2.16,9.99-3.14,0,0-.93-2.19-3.5-2.42,0,0,2-2.68,4.55-2.75.94-.02-2.08-2.01-2.08-2.01-1.23-1.21-3.75,1.65-5.43,1.94-2.36.4-3.9-.39-4.58-.86.39.07.78.11,1.21.11,2.27,0,4.12-1.11,4.12-2.48,0-.77-.61-1.47-1.56-1.93.12.27.19.55.19.85,0,1.4-1.36,2.54-3.04,2.54s-3.03-1.14-3.03-2.54c0-.38.1-.73.26-1.05-1.18.21-2.6.55-4.1,1.07,1.44.53,2.1,1.28,2.1,1.28-2.58-1.12-5.64-.83-5.64-.83,0,0,13.92-7.76,20.42-.19M103.84,236.69s.13.76.41,1.04c0,0,1.32-.9,3.03-1.07l-3.44.04Z"/><path class="st0" d="M105.26,230.37s6.37-.07,13.2,6.61c.82.82.42,1.15,2.64,2.69,1.03.7,4.85,3.77,3.54,7.93,0,0,1.43-6-7.68-8.15,0,0,2.38.1,1.26-1.37-1.24-1.64-6.51-6.82-12.96-7.72"/><path class="st0" d="M145.8,258.82s2.57,1.2,2.87-.22c.29-1.37.72-2.48,1.2-3.42.68-1.3,1.47-2.24,2.23-2.88,1.37-1.18,2.57-1.49,2.57-1.49-6.69,1.45-8.88,8-8.88,8"/><path class="st0" d="M128.17,287.78s.73-.31,1.24-2.6c.5-2.31,1.76-8.1,5.52-8,1.75.06,2.17-.8,2.17-.8,0,0,.81,1.91-1.87,2.53-5.58,1.24-4.36,7.32-7.06,8.87"/><path class="st0" d="M133.3,255.76l-.35-.36c-2.61-2.39-4.67-5.7-4.67-5.7,0,0,1.99,5.27,3.36,6.87l1.65-.82Z"/><path class="st0" d="M124.52,308.1c7.47-2.69,5.16-13.48,14.11-14.56,15.79-1.95,12.63-19.09,12.63-19.09,0,0,.93,17.47-15.85,17.18-5.52-.1-3,11.3-10.9,16.47"/><path class="st0" d="M139.19,293.15s-.02,9.06-7.26,13.8c0,0,9.42-3.41,9.03-14.99l-1.76,1.19Z"/><path class="st0" d="M124.95,272.01s-2.77-3.06-1.64-5.09c.46-.74,3.37-.92,3.71-1.95,2.71-8.02,6.28-9.5,9.5-10.42,0,0-7.72.47-10.51,10.07-.23.82-1.31.7-2.24.94-.96.25-2.36,1.92-1.47,4.97.81,2.8,2.07,3.92,2.07,3.92l.59-2.44Z"/><path class="st0" d="M122.63,297.77s-1.61.19-1.68.92c-.11.75,1.04,2.23,2.82.84,1.77-1.38,1.31-2.79.84-3.8-.49-1.03-1.23-.38-.95.55.28.93.28,1.31-1.02,1.49"/><path class="st0" d="M126.33,270.47s-2.44.41-7.03,15.04c-1.35,4.35-1.71,4.07-2.34,4.53-2.37,1.72-3.72,1.65-4.05,3.95-.34,2.3-1.09,2.78-.78,3.45,0,0,1.47-.71,1.56-2.13.07-1.44,1.35-2.38,4.38-4.13,3.62-2.1,3.56-10.81,8.27-20.72"/><path class="st0" d="M143.52,267.32s.85,1.94-1.69,3.05c-2.5,1.11-3.04,2.16-2.47,5.02,0,0-1.98-3.81.49-5.24,1.55-.92,3.33-.71,3.67-2.83"/><path class="st0" d="M142.3,274.69c-.37-.27-.47-.79-.21-1.15.29-.38.78-.46,1.18-.21.37.27.45.78.19,1.15-.28.38-.79.46-1.16.21M144.33,274.19h0v-.07l-.06-.6c0-.34.05-.69.47-1.02,1.79-1.43.57-2.93.57-2.93-.86,2.48-3.18,2.28-3.86,2.8-.25.14-.44.32-.62.55l-.1.17-.09.17-.04.08-.14.5c-.04.31-.04.74.04,1.27.15.89-.1,1.48-.1,1.48,0,0,.35-.2.48-.57.13-.39.85.07,1.55-.04.59-.03,1.18-.31,1.55-.82.2-.28.34-.62.35-.96"/><path class="st0" d="M149.84,254.81c.13-.35-.31.21,0,0M173.82,229.24c-12.34-12.24-28.77-18.96-46.22-18.96s-33.9,6.72-46.23,18.96c-12.36,12.21-19.16,28.46-19.16,45.75s6.8,33.56,19.16,45.78c12.33,12.22,28.76,18.96,46.23,18.96s33.88-6.73,46.22-18.96c12.35-12.22,19.15-28.48,19.15-45.78s-6.8-33.53-19.15-45.75M162.3,282.33c1.1,16.14,8.01,27.8,16.48,29.29-11.48,15.69-30.13,25.9-51.18,25.9-1.93,0-3.83-.09-5.71-.26,43.73-20.04,29.93-49.8,29.93-49.8,0,0,.08.17.15.46l.08.33c.42,1.44.67,2.89.73,4.32.89,9.91-1.99,31.75-41.03,42.96-19.25-4.92-34.96-18.62-42.5-36.54,39.89,33.13,68.36,7.94,68.36,7.94,0,0-.18.14-.54.39-1.87,1.29-3.87,2.31-5.93,3.08-11.58,4.87-37.28,9.83-65.39-22.58-.56-2.69-.97-5.47-1.17-8.31,14.77,15.68,34.98,20.78,45.45,11.35,5.82-5.25,7.45-13.89,5.27-23.3,1.08,9.46-3.11,19.91-12.26,23.27-11.53,4.23-27.26-2.04-38.54-12.8-.05-1-.07-2-.07-3.03,0-34.53,28.26-62.51,63.15-62.51,13.53,0,26.03,4.22,36.29,11.38-1.11,1.55-3.99,4.48-11.31,8.78-10.39,6.1-11.36,13.58-11.36,13.58,0,0,1.8-7.76,13.45-13.41,7.34-3.55,10.19-5.75,11.28-7.46,3.38,2.57,6.49,5.48,9.29,8.65-1.35.89-4.67,2.31-12.8,2.76-11.38.63-15.82,5.99-15.82,5.99,0,0,5.67-5.28,17.98-4.76,7.56.31,10.79-.99,12.28-2.03,5.36,6.61,9.38,14.32,11.66,22.74-4.07-1.18-6.73-2.55-10.06-4.98-27.67-20.18-38.38-1.77-38.38-1.77l.14-.19c.56-.7,1.16-1.3,1.82-1.82,4.14-3.52,15.53-9.27,32.88,4.33,0,0,5.82,6.17,14.47,8.02.85,4.1,1.3,8.36,1.3,12.7,0,12.17-3.51,23.53-9.57,33.12-8.76-1.9-16.1-14.63-16.98-31.62-.48-9.35-5.46-20.9-14.15-21.85l-.09.08-.11.1-.18.36c9.59,1.06,11.89,15.72,12.64,27.16"/></svg>