<svg xmlns="http://www.w3.org/2000/svg" width="324" height="70" viewBox="0 0 324 70" fill="none"><path d="M112.694 0H0V69.551H112.694V0Z" fill="white"/><path d="M111.657 1.03467H29.3696V23.8136H111.657V1.03467Z" fill="#069547"/><path d="M111.657 45.7373H29.3696V68.5163H111.657V45.7373Z" fill="#010101"/><path d="M29.3834 1.03467H1.03705V68.5299H29.3834V1.03467Z" fill="#CE202F"/><path d="M150.38 16.1424C149.855 16.1424 149.385 16.0597 148.984 15.9079C148.569 15.7423 148.237 15.5354 147.947 15.2594C147.67 14.9835 147.449 14.6662 147.297 14.2936C147.145 13.9211 147.075 13.5348 147.075 13.1209C147.075 12.6656 147.131 12.2517 147.227 11.8654C147.324 11.479 147.463 11.1341 147.642 10.8306C147.808 10.527 148.016 10.2649 148.251 10.0303C148.486 9.79579 148.735 9.60263 148.984 9.45087C149.246 9.2991 149.509 9.17493 149.786 9.09214C150.048 9.00936 150.325 8.96797 150.588 8.96797C150.989 8.96797 151.403 9.05075 151.804 9.21631C152.219 9.38188 152.579 9.64402 152.911 9.98895C153.229 10.3339 153.505 10.7616 153.699 11.2859C153.906 11.8102 154.003 12.4172 154.003 13.1071C154.003 13.4934 153.92 13.8659 153.782 14.2384C153.63 14.5972 153.422 14.9283 153.132 15.2042C152.855 15.4802 152.51 15.7147 152.122 15.8803C151.721 16.0459 151.279 16.1286 150.795 16.1286H150.394L150.38 16.1424ZM148.209 6.4569C148.209 6.30513 148.237 6.18096 148.292 6.05679C148.348 5.93261 148.417 5.82224 148.513 5.72566C148.61 5.62908 148.721 5.56009 148.845 5.5049C148.97 5.44972 149.108 5.42212 149.246 5.42212C149.385 5.42212 149.523 5.44972 149.647 5.5049C149.772 5.56009 149.882 5.62908 149.979 5.72566C150.076 5.82224 150.145 5.93261 150.2 6.05679C150.256 6.18096 150.283 6.31893 150.283 6.4569C150.283 6.59487 150.256 6.73284 150.2 6.85702C150.145 6.98119 150.076 7.09157 149.979 7.18815C149.882 7.28473 149.772 7.35371 149.647 7.4089C149.523 7.46409 149.385 7.49168 149.246 7.49168C149.108 7.49168 148.97 7.46409 148.845 7.4089C148.721 7.35371 148.61 7.28473 148.513 7.18815C148.417 7.09157 148.348 6.98119 148.292 6.85702C148.237 6.73284 148.209 6.59487 148.209 6.4569ZM149.025 12.8587C149.025 13.3692 149.163 13.7556 149.44 14.0039C149.716 14.2522 150.076 14.3764 150.532 14.3764H150.698C150.919 14.3764 151.099 14.335 151.265 14.2522C151.431 14.1695 151.569 14.0591 151.666 13.9211C151.763 13.7831 151.846 13.6176 151.901 13.4382C151.956 13.2589 151.984 13.0657 151.984 12.8587C151.984 12.4862 151.943 12.1551 151.86 11.8791C151.777 11.5894 151.666 11.3549 151.528 11.1755C151.39 10.9823 151.237 10.8444 151.072 10.7478C150.906 10.6512 150.74 10.596 150.588 10.596C150.394 10.596 150.2 10.6374 150.021 10.734C149.841 10.8306 149.675 10.9685 149.523 11.1617C149.371 11.3549 149.26 11.5894 149.163 11.8654C149.067 12.1413 149.025 12.4862 149.025 12.8725M150.643 6.4569C150.643 6.30513 150.671 6.18096 150.726 6.05679C150.781 5.93261 150.85 5.82224 150.947 5.72566C151.044 5.62908 151.154 5.56009 151.279 5.5049C151.403 5.44972 151.542 5.42212 151.68 5.42212C151.818 5.42212 151.956 5.44972 152.081 5.5049C152.205 5.56009 152.316 5.62908 152.413 5.72566C152.51 5.82224 152.579 5.93261 152.634 6.05679C152.689 6.18096 152.717 6.31893 152.717 6.4569C152.717 6.59487 152.689 6.73284 152.634 6.85702C152.579 6.98119 152.51 7.09157 152.413 7.18815C152.316 7.28473 152.205 7.35371 152.081 7.4089C151.956 7.46409 151.818 7.49168 151.68 7.49168C151.542 7.49168 151.403 7.46409 151.279 7.4089C151.154 7.35371 151.044 7.28473 150.947 7.18815C150.85 7.09157 150.781 6.98119 150.726 6.85702C150.671 6.73284 150.643 6.59487 150.643 6.4569Z" fill="white"/><path d="M155.054 16.1425V14.3765H158.165C158.497 14.3765 158.76 14.3489 158.953 14.3075C159.161 14.2523 159.313 14.1971 159.423 14.1005C159.534 14.004 159.603 13.9074 159.645 13.7832C159.686 13.659 159.7 13.5211 159.7 13.3831C159.7 13.121 159.617 12.845 159.465 12.5415C159.313 12.2379 159.105 11.9344 158.843 11.6171C158.58 11.2997 158.29 10.9962 157.971 10.6927C157.653 10.3891 157.322 10.0994 156.99 9.83725L158.511 8.34717C159.562 9.21638 160.364 10.058 160.917 10.8858C161.47 11.7137 161.746 12.4863 161.746 13.2313C161.746 13.4935 161.719 13.7556 161.65 14.004C161.926 14.1281 162.23 14.2247 162.548 14.2937C162.866 14.3489 163.212 14.3903 163.558 14.3903H163.627C163.779 14.3903 163.903 14.3903 163.986 14.4179C164.069 14.4455 164.139 14.4731 164.18 14.5282C164.222 14.5834 164.249 14.6386 164.249 14.7076C164.249 14.7766 164.249 14.8732 164.249 14.9698V15.5354C164.249 15.6734 164.249 15.7838 164.222 15.8666C164.208 15.9493 164.18 16.0045 164.125 16.0597C164.069 16.1011 164.014 16.1287 163.931 16.1425C163.848 16.1563 163.738 16.1701 163.613 16.1701H163.53C162.922 16.1701 162.396 16.0873 161.981 15.9356C161.553 15.7838 161.207 15.5768 160.903 15.3147C160.613 15.5768 160.239 15.7838 159.783 15.9356C159.327 16.0873 158.773 16.1563 158.11 16.1563H155.04L155.054 16.1425Z" fill="white"/><path d="M164.816 9.47836C165.189 9.36799 165.577 9.27141 165.95 9.18863C166.323 9.10584 166.752 9.06445 167.236 9.06445C167.72 9.06445 168.121 9.13344 168.48 9.27141C168.84 9.40938 169.158 9.60254 169.421 9.85089C169.683 10.0992 169.891 10.389 170.043 10.7339C170.209 11.0788 170.319 11.4513 170.375 11.8515C170.43 12.1826 170.472 12.4999 170.527 12.8173C170.582 13.1208 170.637 13.3967 170.707 13.6313C170.776 13.8658 170.845 14.059 170.942 14.197C171.038 14.3349 171.135 14.4039 171.274 14.4039H172.034C172.186 14.4039 172.311 14.4039 172.394 14.4315C172.477 14.4591 172.546 14.4867 172.587 14.5419C172.629 14.5833 172.656 14.6523 172.656 14.7213C172.656 14.7902 172.656 14.8868 172.656 14.9834V15.5491C172.656 15.687 172.656 15.7974 172.629 15.8802C172.615 15.963 172.587 16.0182 172.532 16.0734C172.49 16.1148 172.421 16.1423 172.338 16.1561C172.255 16.1561 172.158 16.1699 172.02 16.1699H163.572C163.447 16.1699 163.337 16.1699 163.254 16.1561C163.171 16.1423 163.101 16.1148 163.06 16.0734C163.019 16.032 162.977 15.963 162.963 15.8802C162.949 15.7974 162.936 15.687 162.936 15.5491V14.9834C162.936 14.873 162.936 14.7902 162.936 14.7213C162.936 14.6523 162.963 14.5833 163.005 14.5419C163.046 14.5005 163.115 14.4591 163.198 14.4315C163.281 14.4177 163.406 14.4039 163.558 14.4039H168.895C168.826 14.2521 168.757 14.0866 168.688 13.8934C168.619 13.7003 168.577 13.4933 168.536 13.3002C168.494 12.9966 168.439 12.6931 168.384 12.3895C168.328 12.086 168.231 11.8239 168.107 11.5755C167.983 11.341 167.817 11.134 167.609 10.9822C167.402 10.8305 167.139 10.7615 166.793 10.7615C166.683 10.7615 166.545 10.7615 166.379 10.7891C166.213 10.8029 166.047 10.8305 165.867 10.8581C165.687 10.8857 165.507 10.9271 165.314 10.9822C165.12 11.0374 164.954 11.0926 164.788 11.1754V9.50596L164.816 9.47836Z" fill="white"/><path d="M175.989 13.4796C175.989 13.5762 175.989 13.6728 175.989 13.7694C175.989 13.8659 175.975 13.9625 175.961 14.0453C176.224 14.1557 176.514 14.2384 176.818 14.2936C177.123 14.3488 177.441 14.3764 177.772 14.3764H177.842C177.994 14.3764 178.118 14.3764 178.201 14.404C178.284 14.4316 178.353 14.4592 178.395 14.5144C178.436 14.5696 178.464 14.6248 178.464 14.6938C178.464 14.7627 178.464 14.8593 178.464 14.9559V15.5216C178.464 15.6595 178.464 15.7699 178.436 15.8527C178.422 15.9355 178.395 15.9907 178.339 16.0321C178.298 16.0735 178.229 16.1011 178.146 16.1148C178.063 16.1286 177.952 16.1424 177.828 16.1424H177.745C177.206 16.1424 176.749 16.0873 176.362 15.9631C175.975 15.8389 175.643 15.6733 175.353 15.4802C175.159 15.6871 174.924 15.8527 174.647 15.9631C174.371 16.0873 174.025 16.1424 173.61 16.1424H171.965C171.84 16.1424 171.73 16.1424 171.647 16.1148C171.564 16.1011 171.495 16.0735 171.453 16.0321C171.412 15.9907 171.37 15.9217 171.357 15.8527C171.343 15.7699 171.329 15.6595 171.329 15.5216V14.9559C171.329 14.8593 171.329 14.7627 171.329 14.6938C171.329 14.6248 171.357 14.5558 171.398 14.5144C171.439 14.473 171.495 14.4316 171.578 14.404C171.661 14.3764 171.785 14.3764 171.937 14.3764H172.85C173.03 14.3764 173.182 14.3626 173.306 14.3212C173.431 14.2798 173.541 14.2247 173.61 14.1281C173.693 14.0315 173.749 13.9211 173.79 13.7694C173.832 13.6176 173.845 13.4244 173.845 13.2037V9.51985H175.961V13.4934L175.989 13.4796ZM172.601 6.4569C172.601 6.30513 172.629 6.18096 172.684 6.05679C172.739 5.93261 172.808 5.82224 172.905 5.72566C173.002 5.62908 173.113 5.56009 173.237 5.5049C173.362 5.44972 173.5 5.42212 173.638 5.42212C173.776 5.42212 173.915 5.44972 174.039 5.5049C174.163 5.56009 174.274 5.62908 174.371 5.72566C174.468 5.82224 174.537 5.93261 174.592 6.05679C174.647 6.18096 174.675 6.31893 174.675 6.4569C174.675 6.59487 174.647 6.73284 174.592 6.85702C174.537 6.98119 174.468 7.09157 174.371 7.18815C174.274 7.28473 174.163 7.35371 174.039 7.4089C173.915 7.46409 173.776 7.49168 173.638 7.49168C173.5 7.49168 173.362 7.46409 173.237 7.4089C173.113 7.35371 173.002 7.28473 172.905 7.18815C172.808 7.09157 172.739 6.98119 172.684 6.85702C172.629 6.73284 172.601 6.59487 172.601 6.4569ZM175.035 6.4569C175.035 6.30513 175.062 6.18096 175.118 6.05679C175.173 5.93261 175.242 5.82224 175.339 5.72566C175.436 5.62908 175.546 5.56009 175.671 5.5049C175.795 5.44972 175.933 5.42212 176.072 5.42212C176.21 5.42212 176.348 5.44972 176.473 5.5049C176.597 5.56009 176.708 5.62908 176.805 5.72566C176.901 5.82224 176.97 5.93261 177.026 6.05679C177.081 6.18096 177.109 6.31893 177.109 6.4569C177.109 6.59487 177.081 6.73284 177.026 6.85702C176.97 6.98119 176.901 7.09157 176.805 7.18815C176.708 7.28473 176.597 7.35371 176.473 7.4089C176.348 7.46409 176.21 7.49168 176.072 7.49168C175.933 7.49168 175.795 7.46409 175.671 7.4089C175.546 7.35371 175.436 7.28473 175.339 7.18815C175.242 7.09157 175.173 6.98119 175.118 6.85702C175.062 6.73284 175.035 6.59487 175.035 6.4569Z" fill="white"/><path d="M183.469 16.2391C183.082 16.2391 182.737 16.2115 182.446 16.1425C182.142 16.0735 181.879 15.9908 181.63 15.8942C181.395 15.7838 181.174 15.6734 180.994 15.5355C180.814 15.3975 180.649 15.2733 180.51 15.1491C180.026 15.8252 179.335 16.1563 178.422 16.1563H177.786C177.662 16.1563 177.551 16.1563 177.468 16.1287C177.385 16.1149 177.316 16.0873 177.275 16.0459C177.233 16.0046 177.192 15.9356 177.178 15.8528C177.164 15.77 177.15 15.6596 177.15 15.5217V14.956C177.15 14.8594 177.15 14.7628 177.15 14.6938C177.15 14.6248 177.178 14.5559 177.219 14.5145C177.261 14.4731 177.316 14.4317 177.413 14.4041C177.496 14.3765 177.62 14.3765 177.772 14.3765H178.16C178.422 14.3765 178.657 14.3075 178.851 14.1695C179.045 14.0316 179.197 13.8108 179.293 13.5073C179.556 12.6243 179.86 11.9206 180.206 11.3687C180.552 10.8307 180.897 10.4029 181.257 10.1132C181.616 9.82347 181.976 9.61651 182.322 9.51993C182.667 9.42335 182.985 9.36816 183.262 9.36816C183.663 9.36816 184.022 9.42335 184.354 9.51993C184.686 9.63031 184.977 9.76828 185.239 9.94764C185.502 10.127 185.723 10.334 185.917 10.5685C186.11 10.8031 186.263 11.0652 186.401 11.3274C186.525 11.5895 186.622 11.8654 186.691 12.1552C186.76 12.4449 186.788 12.7071 186.788 12.983C186.788 13.1348 186.788 13.3003 186.76 13.4521C186.733 13.6039 186.705 13.7694 186.664 13.9212C186.954 14.073 187.272 14.1971 187.631 14.2661C187.991 14.3351 188.35 14.3765 188.751 14.3765H188.821C188.973 14.3765 189.097 14.3765 189.18 14.4041C189.263 14.4317 189.332 14.4593 189.374 14.5145C189.415 14.5697 189.443 14.6248 189.443 14.6938C189.443 14.7628 189.443 14.8594 189.443 14.956V15.5217C189.443 15.6596 189.443 15.77 189.415 15.8528C189.401 15.9356 189.36 15.9908 189.318 16.0459C189.263 16.0873 189.208 16.1149 189.125 16.1287C189.042 16.1425 188.931 16.1563 188.807 16.1563H188.71C188.378 16.1563 188.088 16.1287 187.811 16.0873C187.548 16.0459 187.3 15.977 187.065 15.8942C186.843 15.8114 186.636 15.7148 186.456 15.5906C186.276 15.4803 186.11 15.3561 185.958 15.2043C185.668 15.5217 185.322 15.77 184.907 15.9632C184.493 16.1563 184.009 16.2391 183.456 16.2391M184.824 12.9692C184.824 12.776 184.783 12.5829 184.714 12.3621C184.645 12.1414 184.534 11.9344 184.396 11.7551C184.258 11.5619 184.078 11.4101 183.87 11.286C183.663 11.1618 183.428 11.0928 183.151 11.0928C182.875 11.0928 182.654 11.1756 182.432 11.3274C182.211 11.4791 182.017 11.6999 181.852 11.9482C181.686 12.2104 181.534 12.5001 181.409 12.845C181.285 13.1762 181.188 13.5211 181.119 13.866C181.188 13.935 181.298 14.004 181.451 14.0868C181.603 14.1557 181.755 14.2247 181.948 14.2937C182.128 14.3489 182.322 14.4041 182.515 14.4455C182.709 14.4869 182.902 14.5007 183.082 14.5007C183.345 14.5007 183.594 14.4731 183.801 14.4179C184.022 14.3627 184.202 14.2661 184.354 14.1557C184.506 14.0316 184.631 13.8798 184.714 13.6866C184.797 13.4935 184.838 13.2589 184.838 12.9692" fill="white"/><path d="M188.738 16.1425C188.613 16.1425 188.503 16.1425 188.42 16.1149C188.337 16.1149 188.268 16.0735 188.226 16.0322C188.185 15.9908 188.143 15.9218 188.129 15.839C188.115 15.7562 188.102 15.6458 188.102 15.5079V14.9422C188.102 14.8456 188.102 14.749 188.102 14.68C188.102 14.6111 188.129 14.5421 188.171 14.5007C188.212 14.4455 188.281 14.4179 188.364 14.3903C188.447 14.3627 188.572 14.3627 188.724 14.3627H190.66V4.4978H192.775V16.1287H188.738V16.1425Z" fill="white"/><path d="M197.007 4.52539H194.891V16.1563H197.007V4.52539Z" fill="white"/><path d="M209.756 13.3693C209.756 13.5625 209.756 13.728 209.783 13.8522C209.797 13.9764 209.838 14.0868 209.894 14.1558C209.949 14.2385 210.032 14.2937 210.129 14.3213C210.226 14.3489 210.364 14.3627 210.53 14.3627H211.111C211.263 14.3627 211.387 14.3627 211.47 14.3903C211.553 14.4179 211.622 14.4455 211.664 14.5007C211.705 14.5559 211.733 14.6111 211.733 14.68C211.733 14.749 211.733 14.8456 211.733 14.9422V15.5079C211.733 15.6458 211.733 15.7562 211.705 15.839C211.691 15.9218 211.65 15.977 211.608 16.0322C211.553 16.0736 211.498 16.1011 211.415 16.1149C211.332 16.1287 211.235 16.1425 211.097 16.1425H210.143C209.769 16.1425 209.451 16.1149 209.189 16.0598C208.926 16.0046 208.691 15.9218 208.511 15.839C208.317 15.7424 208.165 15.632 208.055 15.5079C207.944 15.3837 207.847 15.2457 207.764 15.094C207.419 15.2733 207.073 15.4113 206.741 15.4803C206.409 15.5493 206.064 15.5907 205.704 15.5907C205.345 15.5907 204.971 15.5355 204.598 15.4389C204.225 15.3423 203.893 15.1905 203.588 14.9698C203.284 14.7628 203.035 14.4869 202.842 14.1558C202.648 13.8246 202.551 13.4245 202.551 12.9692C202.551 12.5553 202.634 12.1828 202.8 11.8517C202.966 11.5205 203.187 11.217 203.45 10.9548C203.727 10.6927 204.031 10.4581 204.39 10.2512C204.736 10.0442 205.096 9.86487 205.483 9.7131C205.856 9.56133 206.23 9.42337 206.603 9.31299C206.976 9.20261 207.322 9.11983 207.64 9.03705V8.12644H209.728V13.3555L209.756 13.3693ZM207.668 10.6927C207.197 10.7893 206.783 10.8997 206.409 11.0376C206.036 11.1756 205.718 11.3274 205.455 11.4929C205.192 11.6585 204.985 11.8517 204.833 12.0724C204.695 12.2794 204.626 12.5277 204.626 12.7761C204.626 12.983 204.667 13.1624 204.75 13.3141C204.833 13.4659 204.944 13.5763 205.068 13.6729C205.206 13.7694 205.345 13.8246 205.524 13.866C205.69 13.9074 205.856 13.9212 206.022 13.9212C206.326 13.9212 206.631 13.8798 206.921 13.797C207.211 13.7143 207.46 13.6039 207.681 13.4521V10.7065L207.668 10.6927ZM205.123 6.04308C205.123 5.89131 205.151 5.76714 205.206 5.64297C205.262 5.5188 205.331 5.40842 205.428 5.31184C205.524 5.21526 205.635 5.14627 205.759 5.09109C205.884 5.0359 206.022 5.0083 206.16 5.0083C206.299 5.0083 206.437 5.0359 206.561 5.09109C206.686 5.14627 206.796 5.21526 206.893 5.31184C206.99 5.40842 207.059 5.5188 207.114 5.64297C207.17 5.76714 207.197 5.90511 207.197 6.04308C207.197 6.18105 207.17 6.31902 207.114 6.4432C207.059 6.56737 206.99 6.67775 206.893 6.77433C206.796 6.87091 206.686 6.93989 206.561 6.99508C206.437 7.05027 206.299 7.07786 206.16 7.07786C206.022 7.07786 205.884 7.05027 205.759 6.99508C205.635 6.93989 205.524 6.87091 205.428 6.77433C205.331 6.67775 205.262 6.56737 205.206 6.4432C205.151 6.31902 205.123 6.18105 205.123 6.04308ZM207.557 6.04308C207.557 5.89131 207.585 5.76714 207.64 5.64297C207.695 5.5188 207.764 5.40842 207.861 5.31184C207.958 5.21526 208.069 5.14627 208.193 5.09109C208.317 5.0359 208.456 5.0083 208.594 5.0083C208.732 5.0083 208.871 5.0359 208.995 5.09109C209.119 5.14627 209.23 5.21526 209.327 5.31184C209.424 5.40842 209.493 5.5188 209.548 5.64297C209.603 5.76714 209.631 5.90511 209.631 6.04308C209.631 6.18105 209.603 6.31902 209.548 6.4432C209.493 6.56737 209.424 6.67775 209.327 6.77433C209.23 6.87091 209.119 6.93989 208.995 6.99508C208.871 7.05027 208.732 7.07786 208.594 7.07786C208.456 7.07786 208.317 7.05027 208.193 6.99508C208.069 6.93989 207.958 6.87091 207.861 6.77433C207.764 6.67775 207.695 6.56737 207.64 6.4432C207.585 6.31902 207.557 6.18105 207.557 6.04308Z" fill="white"/><path d="M215.093 13.4795C215.093 13.5761 215.093 13.6727 215.093 13.7693C215.093 13.8659 215.079 13.9624 215.065 14.0452C215.328 14.1556 215.618 14.2384 215.923 14.2936C216.227 14.3487 216.545 14.3763 216.877 14.3763H216.946C217.098 14.3763 217.222 14.3763 217.305 14.4039C217.388 14.4315 217.457 14.4591 217.499 14.5143C217.54 14.5557 217.568 14.6247 217.568 14.6937C217.568 14.7627 217.568 14.8592 217.568 14.9558V15.5215C217.568 15.6595 217.568 15.7699 217.54 15.8526C217.527 15.9354 217.485 15.9906 217.444 16.0458C217.388 16.0872 217.333 16.1148 217.25 16.1286C217.167 16.1286 217.07 16.1424 216.932 16.1424H216.849C216.31 16.1424 215.84 16.0872 215.466 15.963C215.079 15.8388 214.747 15.6871 214.457 15.4801C214.263 15.6871 214.028 15.8526 213.752 15.963C213.475 16.0734 213.129 16.1424 212.715 16.1424H211.083C210.945 16.1424 210.848 16.1424 210.765 16.1286C210.682 16.1148 210.627 16.0872 210.571 16.0458C210.53 16.0044 210.488 15.9354 210.475 15.8526C210.461 15.7699 210.447 15.6595 210.447 15.5215V14.9558C210.447 14.8454 210.447 14.7627 210.447 14.6937C210.447 14.6247 210.475 14.5557 210.516 14.5143C210.558 14.4591 210.613 14.4315 210.71 14.4039C210.793 14.3901 210.917 14.3763 211.069 14.3763H211.982C212.162 14.3763 212.314 14.3626 212.438 14.3212C212.563 14.2798 212.673 14.2246 212.742 14.128C212.825 14.0314 212.881 13.921 212.922 13.7693C212.964 13.6175 212.977 13.4243 212.977 13.2036V9.51978H215.093V13.4933V13.4795ZM211.65 18.4741C211.65 18.3223 211.678 18.1981 211.733 18.074C211.788 17.9498 211.857 17.8394 211.954 17.7428C212.051 17.6462 212.162 17.5773 212.286 17.5221C212.41 17.4669 212.549 17.4393 212.687 17.4393C212.825 17.4393 212.964 17.4669 213.088 17.5221C213.212 17.5773 213.323 17.6462 213.42 17.7428C213.517 17.8394 213.586 17.9498 213.641 18.074C213.696 18.1981 213.724 18.3361 213.724 18.4741C213.724 18.612 213.696 18.75 213.641 18.8742C213.586 18.9984 213.517 19.1087 213.42 19.2053C213.323 19.3019 213.212 19.3709 213.088 19.4261C212.964 19.4813 212.825 19.5088 212.687 19.5088C212.549 19.5088 212.41 19.4813 212.286 19.4261C212.162 19.3709 212.051 19.3019 211.954 19.2053C211.857 19.1087 211.788 18.9984 211.733 18.8742C211.678 18.75 211.65 18.612 211.65 18.4741ZM214.084 18.4741C214.084 18.3223 214.111 18.1981 214.166 18.074C214.222 17.9498 214.291 17.8394 214.388 17.7428C214.485 17.6462 214.595 17.5773 214.72 17.5221C214.844 17.4669 214.982 17.4393 215.121 17.4393C215.259 17.4393 215.397 17.4669 215.522 17.5221C215.646 17.5773 215.757 17.6462 215.853 17.7428C215.95 17.8394 216.019 17.9498 216.075 18.074C216.13 18.1981 216.158 18.3361 216.158 18.4741C216.158 18.612 216.13 18.75 216.075 18.8742C216.019 18.9984 215.95 19.1087 215.853 19.2053C215.757 19.3019 215.646 19.3709 215.522 19.4261C215.397 19.4813 215.259 19.5088 215.121 19.5088C214.982 19.5088 214.844 19.4813 214.72 19.4261C214.595 19.3709 214.485 19.3019 214.388 19.2053C214.291 19.1087 214.222 18.9984 214.166 18.8742C214.111 18.75 214.084 18.612 214.084 18.4741Z" fill="white"/><path d="M216.863 16.1425C216.738 16.1425 216.628 16.1425 216.545 16.1287C216.462 16.1149 216.393 16.0873 216.351 16.0459C216.31 16.0045 216.268 15.9355 216.254 15.8528C216.241 15.77 216.227 15.6596 216.227 15.5216V14.9559C216.227 14.8456 216.227 14.7628 216.227 14.6938C216.227 14.6248 216.254 14.5558 216.296 14.5144C216.337 14.4593 216.393 14.4317 216.49 14.4041C216.572 14.3903 216.697 14.3765 216.849 14.3765H218.923V9.5061H221.039V16.1425H216.849H216.863ZM219.338 18.4742C219.338 18.3224 219.366 18.1982 219.421 18.0741C219.476 17.9499 219.545 17.8395 219.642 17.7429C219.739 17.6464 219.85 17.5774 219.974 17.5222C220.099 17.467 220.237 17.4394 220.375 17.4394C220.513 17.4394 220.652 17.467 220.776 17.5222C220.901 17.5774 221.011 17.6464 221.108 17.7429C221.205 17.8395 221.274 17.9499 221.329 18.0741C221.384 18.1982 221.412 18.3362 221.412 18.4742C221.412 18.6122 221.384 18.7501 221.329 18.8743C221.274 18.9985 221.205 19.1089 221.108 19.2054C221.011 19.302 220.901 19.371 220.776 19.4262C220.652 19.4814 220.513 19.509 220.375 19.509C220.237 19.509 220.099 19.4814 219.974 19.4262C219.85 19.371 219.739 19.302 219.642 19.2054C219.545 19.1089 219.476 18.9985 219.421 18.8743C219.366 18.7501 219.338 18.6122 219.338 18.4742Z" fill="white"/><path d="M222.062 17.6878C222.532 17.5912 222.919 17.4808 223.21 17.3428C223.5 17.2049 223.735 17.0255 223.887 16.8185C224.039 16.6116 224.15 16.3632 224.219 16.0873C224.274 15.7976 224.302 15.4664 224.302 15.0939V9.5061H226.418V14.3765H228.049C228.201 14.3765 228.326 14.3765 228.409 14.4041C228.492 14.4317 228.561 14.4593 228.602 14.5144C228.644 14.5696 228.672 14.6248 228.672 14.6938C228.672 14.7628 228.672 14.8594 228.672 14.9559V15.5216C228.672 15.6596 228.672 15.77 228.644 15.8528C228.63 15.9355 228.589 15.9907 228.547 16.0321C228.492 16.0735 228.436 16.1011 228.354 16.1149C228.271 16.1287 228.16 16.1425 228.035 16.1425H226.293C226.21 16.6668 226.058 17.1083 225.865 17.4808C225.671 17.8533 225.408 18.1845 225.076 18.4466C224.758 18.7087 224.371 18.9295 223.915 19.0951C223.459 19.2606 222.933 19.3986 222.339 19.4814L222.062 17.6878Z" fill="white"/><path d="M238.102 15.5215C238.102 15.6594 238.102 15.7698 238.074 15.8526C238.06 15.9354 238.019 15.9906 237.977 16.0458C237.922 16.0872 237.867 16.1148 237.784 16.1286C237.701 16.1423 237.59 16.1561 237.466 16.1561H236.221C235.82 16.1561 235.433 16.1285 235.06 16.0734C234.7 16.0182 234.355 15.9354 234.05 15.8526C233.746 15.7698 233.47 15.6732 233.221 15.5629C232.986 15.4663 232.778 15.3697 232.612 15.2869C232.391 15.3973 232.142 15.5077 231.88 15.6181C231.617 15.7284 231.326 15.8112 231.022 15.894C230.718 15.9768 230.4 16.032 230.068 16.0872C229.736 16.1423 229.391 16.1561 229.031 16.1561H227.966C227.842 16.1561 227.731 16.1561 227.648 16.1286C227.565 16.1286 227.51 16.0872 227.455 16.0458C227.413 16.0044 227.372 15.9354 227.358 15.8526C227.344 15.7698 227.33 15.6594 227.33 15.5215V14.9558C227.33 14.8592 227.33 14.7626 227.33 14.6937C227.33 14.6247 227.358 14.5557 227.399 14.5143C227.441 14.4591 227.51 14.4315 227.593 14.4039C227.676 14.3763 227.8 14.3763 227.952 14.3763H229.128C229.57 14.3763 229.957 14.3487 230.317 14.2935C230.677 14.2383 230.939 14.1832 231.133 14.1004C230.981 13.9624 230.815 13.8106 230.663 13.6451C230.497 13.4795 230.345 13.3001 230.206 13.1346C230.054 12.969 229.916 12.7897 229.792 12.6379C229.667 12.4723 229.556 12.3344 229.46 12.2102C229.308 12.0032 229.197 11.8515 229.1 11.7273C229.003 11.6031 228.948 11.5203 228.893 11.4789C228.92 11.3686 228.948 11.2306 229.003 11.0788C229.059 10.9271 229.114 10.7753 229.183 10.6235C229.252 10.4718 229.321 10.3338 229.391 10.2096C229.474 10.0854 229.556 10.0027 229.626 9.96126C229.805 9.86468 230.013 9.7681 230.276 9.67152C230.524 9.56115 230.815 9.46457 231.133 9.38179C231.451 9.28521 231.797 9.21622 232.17 9.16103C232.543 9.10584 232.93 9.06445 233.331 9.06445C233.663 9.06445 233.995 9.09205 234.327 9.16103C234.659 9.23002 234.977 9.32659 235.253 9.46456C235.53 9.60253 235.751 9.7819 235.931 10.0027C236.111 10.2234 236.194 10.4855 236.194 10.8029C236.194 10.9684 236.166 11.1616 236.125 11.3686C236.069 11.5893 235.986 11.8377 235.848 12.1136C235.71 12.3895 235.53 12.6931 235.295 13.0242C235.06 13.3553 234.756 13.7141 234.382 14.1004C234.507 14.1418 234.659 14.1694 234.839 14.2108C235.005 14.2522 235.198 14.2797 235.392 14.2935C235.585 14.3211 235.793 14.3349 236.014 14.3487C236.221 14.3625 236.443 14.3763 236.65 14.3763H237.466C237.618 14.3763 237.729 14.3763 237.825 14.4039C237.908 14.4315 237.977 14.4591 238.019 14.5143C238.06 14.5695 238.088 14.6247 238.088 14.6937C238.088 14.7626 238.088 14.8592 238.088 14.9558V15.5215H238.102ZM232.778 13.4243C233.041 13.2312 233.262 13.038 233.442 12.8586C233.622 12.6655 233.774 12.4999 233.884 12.3206C233.995 12.155 234.078 11.9894 234.133 11.8515C234.189 11.7135 234.216 11.5893 234.216 11.4927C234.216 11.3686 234.175 11.2582 234.106 11.1616C234.037 11.0512 233.94 10.9684 233.802 10.8995C233.677 10.8167 233.511 10.7615 233.345 10.7201C233.165 10.6787 232.972 10.6511 232.751 10.6511C232.626 10.6511 232.474 10.6511 232.308 10.6787C232.142 10.7063 231.976 10.7339 231.797 10.7753C231.617 10.8167 231.451 10.8719 231.271 10.9271C231.105 10.9822 230.939 11.0512 230.787 11.1202C230.87 11.2582 230.981 11.4375 231.133 11.6445C231.285 11.8515 231.451 12.0584 231.631 12.2792C231.81 12.4999 232.004 12.7069 232.198 12.9138C232.391 13.1208 232.585 13.2864 232.764 13.4243" fill="white"/><path d="M237.411 16.1425C237.286 16.1425 237.175 16.1425 237.093 16.1149C237.01 16.1149 236.94 16.0735 236.899 16.0322C236.857 15.9908 236.816 15.9218 236.802 15.839C236.788 15.7562 236.774 15.6458 236.774 15.5079V14.9422C236.774 14.8456 236.774 14.749 236.774 14.68C236.774 14.6111 236.802 14.5421 236.844 14.5007C236.885 14.4455 236.954 14.4179 237.037 14.3903C237.12 14.3627 237.245 14.3627 237.397 14.3627H239.333V4.4978H241.448V16.1287H237.411V16.1425Z" fill="white"/><path d="M245.666 4.52539H243.55V16.1563H245.666V4.52539Z" fill="white"/><path d="M263.144 14.3764V9.50606H265.259V16.1424H255.898C255.248 16.1424 254.695 16.1011 254.211 16.0321C253.727 15.9631 253.326 15.8527 252.98 15.7147C252.635 15.5768 252.358 15.4112 252.137 15.218C251.916 15.0249 251.736 14.8179 251.611 14.5834C251.487 14.3488 251.39 14.1005 251.349 13.8383C251.293 13.5762 251.266 13.3002 251.266 13.0105C251.266 12.9001 251.266 12.776 251.28 12.6242C251.28 12.4724 251.307 12.3207 251.321 12.1689C251.335 12.0171 251.362 11.8516 251.376 11.686C251.39 11.5204 251.418 11.3687 251.445 11.2307L253.326 11.3963C253.285 11.6032 253.257 11.8102 253.229 12.0171C253.202 12.2241 253.188 12.431 253.188 12.638C253.188 12.9553 253.229 13.2175 253.312 13.4382C253.395 13.659 253.561 13.8383 253.796 13.9763C254.031 14.1143 254.363 14.2108 254.792 14.2798C255.22 14.335 255.773 14.3764 256.451 14.3764H263.144ZM256.41 6.4569C256.41 6.30513 256.437 6.18096 256.492 6.05679C256.548 5.93261 256.617 5.82224 256.714 5.72566C256.811 5.62908 256.921 5.56009 257.046 5.5049C257.17 5.44972 257.308 5.42212 257.447 5.42212C257.585 5.42212 257.723 5.44972 257.848 5.5049C257.972 5.56009 258.083 5.62908 258.179 5.72566C258.276 5.82224 258.345 5.93261 258.401 6.05679C258.456 6.18096 258.484 6.31893 258.484 6.4569C258.484 6.59487 258.456 6.73284 258.401 6.85702C258.345 6.98119 258.276 7.09157 258.179 7.18815C258.083 7.28473 257.972 7.35371 257.848 7.4089C257.723 7.46409 257.585 7.49168 257.447 7.49168C257.308 7.49168 257.17 7.46409 257.046 7.4089C256.921 7.35371 256.811 7.28473 256.714 7.18815C256.617 7.09157 256.548 6.98119 256.492 6.85702C256.437 6.73284 256.41 6.59487 256.41 6.4569ZM258.843 6.4569C258.843 6.30513 258.871 6.18096 258.926 6.05679C258.981 5.93261 259.051 5.82224 259.147 5.72566C259.244 5.62908 259.355 5.56009 259.479 5.5049C259.604 5.44972 259.742 5.42212 259.88 5.42212C260.019 5.42212 260.157 5.44972 260.281 5.5049C260.406 5.56009 260.516 5.62908 260.613 5.72566C260.71 5.82224 260.779 5.93261 260.834 6.05679C260.89 6.18096 260.917 6.31893 260.917 6.4569C260.917 6.59487 260.89 6.73284 260.834 6.85702C260.779 6.98119 260.71 7.09157 260.613 7.18815C260.516 7.28473 260.406 7.35371 260.281 7.4089C260.157 7.46409 260.019 7.49168 259.88 7.49168C259.742 7.49168 259.604 7.46409 259.479 7.4089C259.355 7.35371 259.244 7.28473 259.147 7.18815C259.051 7.09157 258.981 6.98119 258.926 6.85702C258.871 6.73284 258.843 6.59487 258.843 6.4569Z" fill="white"/><path d="M269.477 4.52539H267.361V16.1563H269.477V4.52539Z" fill="white"/><path d="M270.472 17.6878C270.942 17.5912 271.329 17.4808 271.62 17.3428C271.91 17.2049 272.145 17.0255 272.297 16.8185C272.463 16.6116 272.574 16.3632 272.629 16.0873C272.685 15.7976 272.712 15.4664 272.712 15.0939V9.5061H274.828V14.6662C274.828 15.4526 274.759 16.1149 274.607 16.6806C274.454 17.2463 274.219 17.7016 273.888 18.0879C273.556 18.4604 273.141 18.7639 272.615 18.9847C272.104 19.2054 271.482 19.371 270.749 19.4814L270.486 17.6878H270.472Z" fill="white"/><path d="M276.93 4.52527H279.045V13.0243C279.045 13.3002 279.059 13.521 279.1 13.6865C279.142 13.8659 279.197 14.0039 279.28 14.1004C279.363 14.197 279.46 14.2798 279.584 14.3212C279.709 14.3626 279.847 14.3764 280.013 14.3764H280.414C280.566 14.3764 280.691 14.3764 280.774 14.404C280.857 14.4316 280.926 14.4592 280.967 14.5144C281.009 14.5695 281.036 14.6247 281.036 14.6937C281.036 14.7627 281.036 14.8593 281.036 14.9559V15.5215C281.036 15.6595 281.036 15.7699 281.009 15.8527C280.995 15.9355 280.967 15.9906 280.912 16.0458C280.857 16.0872 280.801 16.1148 280.718 16.1286C280.635 16.1424 280.539 16.1562 280.4 16.1562H279.488C279.031 16.1562 278.644 16.0872 278.326 15.963C278.008 15.8389 277.732 15.6457 277.524 15.4112C277.317 15.1766 277.165 14.8869 277.068 14.5557C276.971 14.2246 276.916 13.8521 276.916 13.452V4.51147L276.93 4.52527Z" fill="white"/><path d="M286.07 16.2391C285.682 16.2391 285.337 16.2115 285.046 16.1425C284.742 16.0735 284.479 15.9908 284.231 15.8942C283.995 15.7838 283.774 15.6734 283.594 15.5355C283.415 15.3975 283.249 15.2733 283.097 15.1491C282.613 15.8252 281.921 16.1563 281.009 16.1563H280.373C280.248 16.1563 280.138 16.1563 280.055 16.1287C279.972 16.1149 279.916 16.0873 279.861 16.0459C279.82 16.0046 279.778 15.9356 279.764 15.8528C279.75 15.77 279.737 15.6596 279.737 15.5217V14.956C279.737 14.8594 279.737 14.7628 279.737 14.6938C279.737 14.6248 279.764 14.5559 279.806 14.5145C279.847 14.4731 279.916 14.4317 279.999 14.4041C280.082 14.3765 280.207 14.3765 280.359 14.3765H280.746C281.009 14.3765 281.244 14.3075 281.437 14.1695C281.631 14.0316 281.783 13.8108 281.88 13.5073C282.143 12.6243 282.447 11.9206 282.792 11.3687C283.138 10.8307 283.484 10.4029 283.843 10.1132C284.203 9.82347 284.562 9.61651 284.908 9.51993C285.254 9.42335 285.572 9.36816 285.848 9.36816C286.249 9.36816 286.609 9.42335 286.941 9.51993C287.273 9.63031 287.563 9.76828 287.826 9.94764C288.088 10.127 288.31 10.334 288.503 10.5685C288.697 10.8031 288.849 11.0652 288.987 11.3274C289.112 11.5895 289.208 11.8654 289.278 12.1552C289.333 12.4449 289.374 12.7071 289.374 12.983C289.374 13.3969 289.305 13.8108 289.153 14.1971C289.001 14.5835 288.794 14.9284 288.517 15.2319C288.24 15.5355 287.881 15.77 287.48 15.9494C287.065 16.1287 286.595 16.2253 286.056 16.2253M287.438 12.9692C287.438 12.776 287.397 12.5829 287.328 12.3621C287.259 12.1414 287.148 11.9344 287.01 11.7551C286.872 11.5619 286.692 11.4101 286.484 11.286C286.277 11.1618 286.042 11.0928 285.765 11.0928C285.489 11.0928 285.268 11.1756 285.046 11.3274C284.825 11.4791 284.632 11.6999 284.466 11.9482C284.3 12.2104 284.148 12.5001 284.023 12.845C283.899 13.1762 283.802 13.5211 283.733 13.866C283.802 13.935 283.912 14.004 284.065 14.0868C284.217 14.1557 284.369 14.2247 284.562 14.2937C284.742 14.3489 284.936 14.4041 285.129 14.4455C285.323 14.4869 285.516 14.5007 285.696 14.5007C285.959 14.5007 286.208 14.4731 286.415 14.4179C286.636 14.3627 286.816 14.2661 286.968 14.1557C287.12 14.0316 287.245 13.8798 287.328 13.6866C287.411 13.4935 287.452 13.2589 287.452 12.9692" fill="white"/><path d="M301.128 4.51147V16.1562H291.13V14.3764H294.767V7.2433H296.883V14.3764H299.026V4.51147H301.142H301.128ZM297.159 18.3637C297.076 18.3499 296.966 18.3361 296.827 18.3223C296.689 18.3085 296.578 18.2947 296.482 18.2947C296.316 18.2947 296.164 18.3361 296.053 18.4051C295.942 18.4741 295.887 18.6121 295.887 18.7914C295.887 18.9708 295.97 19.1364 296.122 19.2743C296.288 19.4123 296.523 19.4813 296.869 19.4813H297.339V20.4609H294.325V19.4813H295.113C295.03 19.3709 294.947 19.2467 294.878 19.0812C294.809 18.9294 294.767 18.7638 294.767 18.5845C294.767 18.4189 294.795 18.2672 294.864 18.1154C294.933 17.9636 295.03 17.8256 295.154 17.7015C295.279 17.5773 295.458 17.4807 295.666 17.4117C295.873 17.3428 296.122 17.3014 296.413 17.3014C296.537 17.3014 296.675 17.3014 296.814 17.3014C296.952 17.3014 297.118 17.329 297.311 17.3565L297.145 18.3499L297.159 18.3637Z" fill="white"/><path d="M305.525 4.52539H303.409V16.1563H305.525V4.52539Z" fill="white"/><path d="M133.538 30.0775H135.861V36.7691C135.861 37.183 135.903 37.5831 135.958 37.9694C136.027 38.3558 136.152 38.7145 136.331 39.018C136.511 39.3216 136.76 39.5699 137.064 39.7493C137.368 39.9424 137.769 40.0252 138.253 40.0252C138.737 40.0252 139.152 39.9286 139.456 39.7493C139.774 39.5699 140.01 39.3216 140.189 39.018C140.369 38.7145 140.494 38.3696 140.549 37.9694C140.618 37.5693 140.646 37.1692 140.646 36.7553V30.0637H142.969V37.4589C142.969 38.2316 142.858 38.9076 142.651 39.4595C142.429 40.0114 142.125 40.4667 141.724 40.8254C141.323 41.1842 140.825 41.4325 140.231 41.5981C139.65 41.7636 138.986 41.8464 138.24 41.8464C137.493 41.8464 136.829 41.7636 136.248 41.5981C135.668 41.4325 135.17 41.1704 134.755 40.8254C134.354 40.4667 134.036 40.0252 133.829 39.4595C133.607 38.9076 133.511 38.2454 133.511 37.4589V30.0637L133.538 30.0775Z" fill="white"/><path d="M145.43 30.0774H148.278L152.703 38.742H152.745V30.0774H154.971V41.6531H152.122L147.684 33.0024H147.656V41.6531H145.43V30.0774Z" fill="white"/><path d="M159.589 30.0774H157.266V41.6531H159.589V30.0774Z" fill="white"/><path d="M164.111 31.9124H160.778V30.0774H169.752V31.9124H166.434V41.6531H164.111V31.9124Z" fill="white"/><path d="M171.163 30.0774H178.008V31.9124H173.486V34.7546H177.62V36.5758H173.486V39.8319H178.035V41.6531H171.163V30.0774Z" fill="white"/><path d="M180.317 30.0774H183.649C184.023 30.0774 184.41 30.105 184.811 30.1326C185.212 30.174 185.599 30.243 186 30.3395C186.387 30.4361 186.774 30.5603 187.134 30.6983C187.507 30.85 187.853 31.0294 188.171 31.2363C188.558 31.4985 188.876 31.802 189.139 32.147C189.401 32.4919 189.595 32.8782 189.761 33.2783C189.913 33.6784 190.024 34.1061 190.079 34.5476C190.134 34.9891 190.176 35.4307 190.176 35.8584C190.176 36.9345 190.01 37.8313 189.678 38.5764C189.346 39.3076 188.89 39.9147 188.309 40.37C187.714 40.8253 187.023 41.1564 186.193 41.3496C185.364 41.5428 184.465 41.6531 183.469 41.6531H180.303V30.0774H180.317ZM182.654 39.8319H183.94C184.52 39.8319 185.032 39.7353 185.502 39.5284C185.972 39.3214 186.373 39.0455 186.705 38.6868C187.037 38.328 187.3 37.9141 187.479 37.4312C187.659 36.9483 187.756 36.424 187.756 35.8584C187.756 35.2927 187.659 34.7684 187.479 34.2855C187.3 33.8026 187.037 33.3887 186.705 33.03C186.373 32.6712 185.958 32.3953 185.488 32.2021C185.018 31.9952 184.493 31.8986 183.926 31.8986H182.64V39.8319H182.654Z" fill="white"/><path d="M200.09 30.0774H202.717L207.267 41.6531H204.695L203.699 39.0041H198.998L197.988 41.6531H195.582L200.104 30.0774H200.09ZM201.376 32.4091H201.348L199.675 37.1829H203.063L201.39 32.4091H201.376Z" fill="white"/><path d="M208.497 30.0774H211.678C212.065 30.0774 212.452 30.0774 212.839 30.105C213.226 30.1188 213.6 30.1602 213.945 30.2292C214.305 30.2981 214.637 30.3947 214.941 30.5327C215.245 30.6569 215.522 30.85 215.743 31.0846C215.978 31.3191 216.144 31.6089 216.282 31.9538C216.407 32.2987 216.476 32.7264 216.476 33.2369C216.476 33.6094 216.42 33.9406 216.31 34.2441C216.199 34.5476 216.033 34.8236 215.826 35.0443C215.618 35.2789 215.369 35.472 215.065 35.61C214.775 35.7618 214.443 35.8584 214.084 35.8998V35.9273C214.249 35.9549 214.388 35.9963 214.512 36.0791C214.637 36.1619 214.747 36.2447 214.858 36.3551C214.955 36.4654 215.038 36.5896 215.121 36.7138C215.19 36.8517 215.259 36.9897 215.314 37.1277L217.167 41.6531H214.581L213.185 38.0383C213.102 37.8175 213.019 37.6244 212.936 37.4726C212.853 37.3209 212.756 37.1967 212.632 37.1001C212.507 37.0035 212.369 36.9345 212.203 36.8931C212.037 36.8518 211.83 36.838 211.581 36.838H210.834V41.6531H208.511V30.0774H208.497ZM210.82 35.0305H211.581C211.76 35.0305 211.968 35.0305 212.175 35.0029C212.397 34.9891 212.604 34.9478 212.811 34.8926C213.019 34.8374 213.212 34.7546 213.406 34.658C213.586 34.5614 213.738 34.4235 213.835 34.2579C213.918 34.1475 213.959 34.0096 213.987 33.844C214.014 33.6784 214.028 33.5405 214.028 33.4025C214.028 33.03 213.959 32.7402 213.807 32.5471C213.655 32.3401 213.461 32.1883 213.226 32.0918C212.991 31.9952 212.728 31.94 212.438 31.9262C212.148 31.9124 211.857 31.8986 211.581 31.8986H210.82V35.0167V35.0305Z" fill="white"/><path d="M222.09 30.0774H224.717L229.266 41.6531H226.694L225.699 39.0041H220.997L219.988 41.6531H217.582L222.104 30.0774H222.09ZM223.362 32.4091H223.334L221.661 37.1829H225.049L223.376 32.4091H223.362Z" fill="white"/><path d="M230.69 30.0774H234.756C235.267 30.0774 235.751 30.1188 236.194 30.2154C236.65 30.3119 237.037 30.4637 237.383 30.6983C237.729 30.919 237.991 31.2363 238.185 31.6089C238.378 31.9952 238.475 32.4643 238.475 33.0438C238.475 33.4025 238.42 33.7198 238.309 34.0234C238.199 34.3131 238.033 34.5752 237.839 34.7822C237.632 35.0029 237.397 35.1823 237.106 35.3203C236.816 35.4582 236.512 35.5686 236.166 35.6376V35.6652C236.539 35.6928 236.885 35.7756 237.203 35.9135C237.521 36.0515 237.812 36.2171 238.047 36.4516C238.282 36.6724 238.475 36.9345 238.614 37.2519C238.752 37.5692 238.821 37.9141 238.821 38.3004C238.821 38.9075 238.71 39.4318 238.489 39.8595C238.268 40.2872 237.977 40.6321 237.604 40.8943C237.231 41.1564 236.802 41.3496 236.304 41.4738C235.807 41.5979 235.295 41.6531 234.742 41.6531H230.677V30.0774H230.69ZM233.013 34.7546H234.023C234.258 34.7546 234.507 34.7408 234.756 34.6994C235.005 34.658 235.24 34.589 235.447 34.4925C235.654 34.3959 235.82 34.2441 235.959 34.0647C236.097 33.8854 236.152 33.6508 236.152 33.3473C236.152 32.9886 236.083 32.7126 235.959 32.5195C235.82 32.3263 235.654 32.1883 235.447 32.0918C235.24 31.9952 234.991 31.94 234.728 31.9262C234.465 31.9124 234.189 31.8986 233.912 31.8986H233.013V34.7546ZM233.013 39.8319H234.106C234.382 39.8319 234.659 39.8043 234.935 39.7629C235.226 39.7215 235.475 39.6388 235.71 39.5284C235.945 39.418 236.125 39.2524 236.277 39.0317C236.429 38.8247 236.498 38.5488 236.498 38.2177C236.498 37.9003 236.443 37.6244 236.346 37.376C236.235 37.1277 236.042 36.9207 235.751 36.7828C235.627 36.7138 235.502 36.6586 235.378 36.6172C235.253 36.5758 235.115 36.5344 234.977 36.5206C234.839 36.5068 234.686 36.493 234.534 36.493C234.382 36.493 234.244 36.493 234.092 36.493H233V39.8457L233.013 39.8319Z" fill="white"/><path d="M245.292 30.0774H252.137V31.9124H247.615V34.7546H251.764V36.5758H247.615V39.8319H252.178V41.6531H245.292V30.0774Z" fill="white"/><path d="M254.446 30.0774H258.179L260.931 38.8523H260.973L263.724 30.0774H267.444V41.6531H265.218V32.1056H265.19L262.065 41.6531H259.839L256.714 32.1056L256.672 32.1332V41.6531H254.446V30.0774Z" fill="white"/><path d="M272.173 30.0774H269.85V41.6531H272.173V30.0774Z" fill="white"/><path d="M274.385 30.0774H277.566C277.953 30.0774 278.34 30.0774 278.727 30.105C279.114 30.1188 279.488 30.1602 279.833 30.2292C280.193 30.2981 280.525 30.3947 280.829 30.5327C281.133 30.6569 281.41 30.85 281.631 31.0846C281.852 31.3191 282.032 31.6089 282.17 31.9538C282.295 32.2987 282.364 32.7264 282.364 33.2369C282.364 33.6094 282.308 33.9406 282.198 34.2441C282.087 34.5476 281.921 34.8236 281.714 35.0443C281.506 35.2789 281.244 35.472 280.953 35.61C280.663 35.7618 280.331 35.8584 279.972 35.8998V35.9273C280.138 35.9549 280.276 35.9963 280.4 36.0791C280.525 36.1619 280.635 36.2447 280.746 36.3551C280.843 36.4654 280.926 36.5896 281.009 36.7138C281.078 36.8517 281.147 36.9897 281.202 37.1277L283.055 41.6531H280.469L279.073 38.0383C278.99 37.8175 278.907 37.6244 278.824 37.4726C278.741 37.3209 278.644 37.1967 278.52 37.1001C278.395 37.0035 278.257 36.9345 278.091 36.8931C277.925 36.8518 277.718 36.838 277.469 36.838H276.722V41.6531H274.399V30.0774H274.385ZM276.722 35.0305H277.483C277.662 35.0305 277.87 35.0305 278.077 35.0029C278.298 34.9891 278.506 34.9478 278.713 34.8926C278.921 34.8374 279.114 34.7546 279.308 34.658C279.488 34.5614 279.626 34.4235 279.737 34.2579C279.82 34.1475 279.861 34.0096 279.889 33.844C279.916 33.6784 279.93 33.5405 279.93 33.4025C279.93 33.03 279.861 32.7402 279.709 32.5471C279.557 32.3401 279.363 32.1883 279.128 32.0918C278.893 31.9952 278.63 31.94 278.34 31.9262C278.05 31.9124 277.759 31.8986 277.483 31.8986H276.722V35.0167V35.0305Z" fill="white"/><path d="M287.978 30.0774H290.605L295.154 41.6531H292.582L291.587 39.0041H286.885L285.876 41.6531H283.47L287.992 30.0774H287.978ZM289.264 32.4091H289.236L287.563 37.1829H290.951L289.278 32.4091H289.264Z" fill="white"/><path d="M297.367 31.9124H294.034V30.0774H303.008V31.9124H299.69V41.6531H297.367V31.9124Z" fill="white"/><path d="M304.419 30.0774H311.263V31.9124H306.742V34.7546H310.876V36.5758H306.742V39.8319H311.291V41.6531H304.419V30.0774Z" fill="white"/><path d="M319.809 32.2161C319.435 32.0505 319.048 31.9264 318.647 31.8436C318.246 31.7608 317.845 31.7194 317.444 31.7194C317.181 31.7194 316.946 31.747 316.725 31.816C316.504 31.885 316.31 31.9815 316.144 32.1195C315.978 32.2437 315.854 32.423 315.757 32.6162C315.66 32.8232 315.619 33.0577 315.619 33.3337C315.619 33.5406 315.674 33.72 315.785 33.8717C315.895 34.0235 316.048 34.1615 316.241 34.2857C316.435 34.4098 316.642 34.5202 316.905 34.6168C317.154 34.7272 317.416 34.8237 317.693 34.9341C317.97 35.0445 318.246 35.1549 318.523 35.279C318.799 35.4032 319.062 35.555 319.325 35.7205C319.574 35.8861 319.809 36.0931 320.016 36.3138C320.223 36.5346 320.389 36.7967 320.514 37.1003C320.583 37.2934 320.638 37.5004 320.666 37.7211C320.694 37.9557 320.707 38.1626 320.707 38.3696C320.707 39.0181 320.583 39.5561 320.348 39.9976C320.113 40.4392 319.795 40.8117 319.394 41.0876C318.993 41.3635 318.537 41.5705 318.011 41.6947C317.486 41.8189 316.933 41.874 316.366 41.874C315.854 41.874 315.356 41.8326 314.858 41.7361C314.361 41.6395 313.877 41.5429 313.379 41.4187L313.6 39.3216C314.001 39.5423 314.43 39.7217 314.872 39.8459C315.315 39.9701 315.771 40.039 316.227 40.039C316.449 40.039 316.684 40.0114 316.919 39.9562C317.168 39.9011 317.389 39.8183 317.582 39.6941C317.79 39.5699 317.942 39.4182 318.08 39.2388C318.218 39.0594 318.274 38.8249 318.274 38.5627C318.274 38.4386 318.26 38.3144 318.232 38.1902C318.205 38.066 318.149 37.9557 318.08 37.8453C318.011 37.7487 317.928 37.6659 317.817 37.5694C317.707 37.4728 317.596 37.4038 317.499 37.3348C317.223 37.183 316.933 37.0451 316.642 36.9209C316.352 36.7967 316.048 36.6863 315.757 36.576C315.605 36.5208 315.453 36.4518 315.301 36.369C315.149 36.2862 314.997 36.2034 314.858 36.1207C314.582 35.9551 314.347 35.7895 314.139 35.6102C313.932 35.4308 313.766 35.2376 313.628 35.0307C313.489 34.8099 313.379 34.5754 313.31 34.3133C313.241 34.0511 313.199 33.7614 313.199 33.4302C313.199 33.1681 313.227 32.9059 313.268 32.63C313.31 32.3679 313.393 32.1195 313.489 31.8712C313.586 31.6366 313.725 31.4159 313.89 31.2089C314.056 31.002 314.25 30.8226 314.471 30.6708C314.872 30.3949 315.315 30.2017 315.799 30.0776C316.283 29.9534 316.753 29.8982 317.251 29.8982C317.748 29.8982 318.191 29.9258 318.661 29.9948C319.117 30.0638 319.587 30.1603 320.03 30.3121L319.809 32.2299V32.2161Z" fill="white"/><path d="M323.694 47.6135H129.694V49.5865H323.694V47.6135Z" fill="white"/><path d="M129.694 55.7539H130.814L135.405 63.6734H135.433V55.7539H136.318V64.7496H135.128L130.607 56.9818H130.579V64.7496H129.694V55.7539Z" fill="white"/><path d="M141.185 55.7539H142.194L145.776 64.7634H144.849L143.881 62.3489H139.332L138.364 64.7634H137.493L141.185 55.7539ZM139.664 61.5625H143.577L141.627 56.5955L139.664 61.5625Z" fill="white"/><path d="M147.85 56.5265H145.181V55.7539H151.403V56.5265H148.749V64.7496H147.85V56.5265Z" fill="white"/><path d="M153.408 55.7539H152.523V64.7634H153.408V55.7539Z" fill="white"/><path d="M159.05 64.9013C158.359 64.9013 157.764 64.7771 157.266 64.515C156.768 64.2666 156.354 63.9217 156.036 63.494C155.718 63.0663 155.469 62.5696 155.317 61.9901C155.165 61.4244 155.082 60.8312 155.082 60.1965C155.082 59.617 155.165 59.0513 155.317 58.5132C155.469 57.9752 155.718 57.4647 156.049 56.9818C156.229 56.7334 156.423 56.5265 156.644 56.3471C156.865 56.1677 157.1 56.0298 157.363 55.9056C157.612 55.7952 157.889 55.7124 158.165 55.6573C158.455 55.6021 158.746 55.5745 159.036 55.5745C159.7 55.5745 160.281 55.6986 160.778 55.9332C161.276 56.1677 161.691 56.4989 162.023 56.9128C162.355 57.3267 162.604 57.8096 162.756 58.3615C162.922 58.9134 163.005 59.4928 163.005 60.1137C163.005 60.7346 162.936 61.3554 162.783 61.9349C162.645 62.5144 162.41 63.0249 162.092 63.4526C161.774 63.8941 161.359 64.239 160.861 64.4874C160.364 64.7357 159.755 64.8737 159.036 64.8737M159.05 56.3747C158.566 56.3747 158.124 56.4713 157.723 56.6782C157.322 56.8714 156.99 57.1749 156.727 57.5888C156.464 57.989 156.285 58.4167 156.16 58.872C156.036 59.3273 155.98 59.7826 155.98 60.2655C155.98 60.7484 156.036 61.2037 156.16 61.6452C156.285 62.0867 156.464 62.5006 156.741 62.9145C157.017 63.3422 157.349 63.6457 157.723 63.8527C158.11 64.0597 158.552 64.1562 159.05 64.1562C159.548 64.1562 160.004 64.0597 160.391 63.8527C160.778 63.6457 161.124 63.3422 161.387 62.9145C161.65 62.5144 161.829 62.0867 161.954 61.6452C162.064 61.2037 162.134 60.7484 162.134 60.2655C162.134 59.7826 162.078 59.3273 161.954 58.872C161.829 58.4167 161.65 57.989 161.387 57.5888C161.124 57.1887 160.792 56.8852 160.377 56.6782C159.976 56.4851 159.534 56.3747 159.05 56.3747Z" fill="white"/><path d="M164.719 55.7539H165.839L170.43 63.6734H170.458V55.7539H171.343V64.7496H170.14L165.632 56.9818H165.604V64.7496H164.719V55.7539Z" fill="white"/><path d="M176.196 55.7539H177.206L180.787 64.7634H179.86L178.893 62.3489H174.343L173.375 64.7634H172.504L176.196 55.7539ZM174.675 61.5625H178.588L176.639 56.5955L174.675 61.5625Z" fill="white"/><path d="M181.99 55.7539H182.889V63.977H186.511V64.7496H181.99V55.7539Z" fill="white"/><path d="M191.393 55.7539H193.605C194.034 55.7539 194.407 55.8091 194.753 55.9057C195.098 56.0023 195.389 56.154 195.638 56.3748C195.887 56.5817 196.066 56.8439 196.205 57.1612C196.343 57.4785 196.398 57.8649 196.398 58.3064C196.398 58.7479 196.315 59.1066 196.177 59.4239C196.025 59.7413 195.817 60.0034 195.555 60.2242C195.292 60.4311 194.988 60.5967 194.642 60.707C194.296 60.8174 193.923 60.8726 193.522 60.8726H192.278V64.7634H191.393V55.7677V55.7539ZM192.278 60.0862H192.9C193.066 60.0862 193.232 60.0862 193.384 60.0724C193.55 60.0586 193.716 60.0448 193.868 60.0172C194.13 59.9896 194.379 59.9344 194.573 59.8516C194.78 59.7827 194.946 59.6723 195.085 59.5343C195.223 59.3963 195.32 59.2308 195.389 59.0238C195.458 58.8168 195.486 58.5823 195.486 58.2926C195.486 57.7131 195.333 57.2716 195.029 56.968C194.725 56.6645 194.283 56.5127 193.702 56.5127H192.25V60.0724L192.278 60.0862Z" fill="white"/><path d="M199.648 55.7539H200.657L204.238 64.7634H203.312L202.344 62.3489H197.795L196.827 64.7634H195.956L199.648 55.7539ZM198.127 61.5625H202.04L200.09 56.5955L198.127 61.5625Z" fill="white"/><path d="M208.152 64.7496H207.197L203.837 55.7539H204.778L207.695 63.8666L210.696 55.7539H211.581L208.152 64.7496Z" fill="white"/><path d="M213.53 55.7539H212.645V64.7634H213.53V55.7539Z" fill="white"/><path d="M215.563 55.7539H216.448V63.977H220.071V64.7496H215.563V55.7539Z" fill="white"/><path d="M222.145 55.7539H221.26V64.7634H222.145V55.7539Z" fill="white"/><path d="M227.787 64.9013C227.095 64.9013 226.501 64.7771 226.003 64.515C225.505 64.2666 225.09 63.9217 224.772 63.494C224.454 63.0663 224.219 62.5696 224.053 61.9901C223.901 61.4244 223.818 60.8312 223.818 60.1965C223.818 59.617 223.901 59.0513 224.053 58.5132C224.205 57.9752 224.454 57.4647 224.786 56.9818C224.966 56.7334 225.159 56.5265 225.381 56.3471C225.602 56.1677 225.837 56.0298 226.1 55.9056C226.349 55.7952 226.625 55.7124 226.902 55.6573C227.192 55.6021 227.482 55.5745 227.773 55.5745C228.437 55.5745 229.017 55.6986 229.515 55.9332C230.013 56.1677 230.428 56.4989 230.76 56.9128C231.091 57.3267 231.34 57.8096 231.492 58.3615C231.658 58.9134 231.741 59.4928 231.741 60.1137C231.741 60.7346 231.672 61.3554 231.52 61.9349C231.382 62.5144 231.147 63.0249 230.829 63.4526C230.511 63.8941 230.096 64.239 229.598 64.4874C229.1 64.7357 228.492 64.8737 227.773 64.8737M227.787 56.3747C227.303 56.3747 226.86 56.4713 226.459 56.6782C226.058 56.8714 225.726 57.1749 225.464 57.5888C225.201 57.989 225.021 58.4167 224.897 58.872C224.772 59.3273 224.717 59.7826 224.717 60.2655C224.717 60.7484 224.772 61.2037 224.897 61.6452C225.007 62.0867 225.201 62.5006 225.477 62.9145C225.754 63.3422 226.086 63.6457 226.459 63.8527C226.833 64.0597 227.289 64.1562 227.787 64.1562C228.284 64.1562 228.741 64.0597 229.128 63.8527C229.515 63.6457 229.861 63.3422 230.123 62.9145C230.386 62.5144 230.566 62.0867 230.69 61.6452C230.801 61.2037 230.87 60.7484 230.87 60.2655C230.87 59.7826 230.815 59.3273 230.69 58.872C230.566 58.4167 230.386 57.989 230.123 57.5888C229.861 57.1887 229.529 56.8852 229.114 56.6782C228.713 56.4851 228.271 56.3747 227.787 56.3747Z" fill="white"/><path d="M233.456 55.7539H234.576L239.167 63.6734H239.194V55.7539H240.079V64.7496H238.89L234.368 56.9818H234.341V64.7496H233.456V55.7539Z" fill="white"/><path d="M248.445 60.8313H245.195V61.7281H248.445V60.8313Z" fill="white"/><path d="M259.535 62.3903C259.535 61.5625 259.742 60.9279 260.171 60.5001C260.599 60.0862 261.263 59.8655 262.148 59.8655H263.752V62.4593C263.752 62.7905 263.766 63.0526 263.807 63.2458C263.849 63.4389 263.904 63.5907 263.987 63.6873C264.07 63.7839 264.167 63.8528 264.277 63.8942C264.402 63.9218 264.526 63.9356 264.692 63.9356H265.162C265.356 63.9356 265.439 63.977 265.439 64.0736V64.5565C265.439 64.6393 265.411 64.6807 265.356 64.7083C265.301 64.722 265.231 64.7359 265.162 64.7359H264.499C264.305 64.7359 264.111 64.7082 263.918 64.6393C263.738 64.5841 263.572 64.4737 263.42 64.3357C263.282 64.1978 263.157 64.0184 263.074 63.7839C262.991 63.5631 262.936 63.2734 262.936 62.9422V60.6243H262.466C262.134 60.6243 261.83 60.6519 261.567 60.6933C261.304 60.7347 261.069 60.8313 260.89 60.9554C260.71 61.0934 260.558 61.2728 260.461 61.5211C260.364 61.7695 260.309 62.1006 260.309 62.5007V64.2254C260.309 64.6255 260.24 65.0118 260.088 65.3981C259.936 65.7844 259.7 66.1294 259.396 66.4329C259.078 66.7364 258.677 66.9848 258.193 67.1641C257.709 67.3573 257.115 67.4401 256.437 67.4401C255.912 67.4401 255.442 67.3849 255.041 67.2883C254.64 67.1917 254.294 67.04 254.004 66.8744C253.713 66.7088 253.478 66.5019 253.284 66.2811C253.091 66.0604 252.939 65.8258 252.828 65.6051C252.718 65.3843 252.635 65.136 252.593 64.9152C252.552 64.6807 252.524 64.4737 252.524 64.2943C252.524 63.839 252.579 63.3975 252.69 62.9974C252.801 62.5973 252.966 62.2524 253.16 61.9764C253.271 62.0454 253.381 62.1006 253.478 62.1558C253.575 62.211 253.685 62.2662 253.796 62.3214C253.644 62.5835 253.533 62.8732 253.437 63.2044C253.354 63.5355 253.312 63.8528 253.312 64.1702C253.312 64.3357 253.326 64.5151 253.367 64.6945C253.409 64.8876 253.478 65.067 253.575 65.2463C253.672 65.4257 253.81 65.5913 253.962 65.7568C254.128 65.9224 254.335 66.0604 254.584 66.1845C254.833 66.3087 255.124 66.4053 255.455 66.4743C255.787 66.5433 256.174 66.5847 256.617 66.5847C257.115 66.5847 257.543 66.5157 257.903 66.3915C258.262 66.2535 258.567 66.088 258.788 65.881C259.023 65.674 259.189 65.4257 259.299 65.1498C259.41 64.8738 259.465 64.5979 259.465 64.3219V62.3352L259.535 62.3903ZM255.469 68.875C255.469 68.7232 255.525 68.599 255.621 68.5024C255.718 68.4059 255.843 68.3507 255.981 68.3507C256.119 68.3507 256.244 68.4059 256.34 68.5024C256.437 68.599 256.492 68.7232 256.492 68.875C256.492 69.0129 256.437 69.1371 256.34 69.2337C256.244 69.3303 256.119 69.3855 255.981 69.3855C255.829 69.3855 255.704 69.3303 255.621 69.2337C255.525 69.1371 255.469 69.0129 255.469 68.875ZM257.101 68.875C257.101 68.7232 257.156 68.599 257.253 68.5024C257.35 68.4059 257.474 68.3507 257.613 68.3507C257.751 68.3507 257.875 68.4059 257.972 68.5024C258.069 68.599 258.124 68.7232 258.124 68.875C258.124 69.0129 258.069 69.1371 257.972 69.2337C257.875 69.3303 257.751 69.3855 257.613 69.3855C257.474 69.3855 257.35 69.3303 257.253 69.2337C257.156 69.1371 257.101 69.0129 257.101 68.875Z" fill="white"/><path d="M264.844 64.7496C264.665 64.7496 264.568 64.7082 264.568 64.6117V64.1426C264.568 64.0598 264.595 64.0046 264.651 63.9908C264.706 63.977 264.761 63.9632 264.844 63.9632H266.172C266.324 63.9632 266.448 63.9494 266.559 63.9218C266.67 63.8942 266.752 63.839 266.808 63.77C266.877 63.701 266.918 63.5907 266.946 63.4665C266.974 63.3423 266.988 63.1768 266.988 62.9698V59.9069H267.79V63.2319C267.79 63.2319 267.79 63.3561 267.79 63.4113C267.79 63.4665 267.79 63.5355 267.776 63.5907C268.218 63.839 268.771 63.9632 269.463 63.9632H269.532C269.712 63.9632 269.808 64.0184 269.808 64.115V64.5979C269.808 64.6806 269.781 64.722 269.725 64.7496C269.67 64.7634 269.615 64.7772 269.532 64.7772H269.449C269.214 64.7772 269.006 64.7772 268.813 64.7358C268.619 64.7082 268.453 64.6806 268.301 64.6392C268.149 64.5979 268.011 64.5427 267.886 64.4737C267.762 64.4047 267.637 64.3357 267.513 64.2529C267.402 64.4047 267.264 64.5289 267.084 64.6255C266.905 64.722 266.67 64.7634 266.393 64.7634H264.844V64.7496ZM267.914 57.7683C267.914 57.9201 267.859 58.0442 267.762 58.1408C267.665 58.2374 267.541 58.2926 267.402 58.2926C267.264 58.2926 267.14 58.2374 267.043 58.1408C266.946 58.0442 266.891 57.9201 266.891 57.7683C266.891 57.6303 266.946 57.5062 267.043 57.4096C267.14 57.313 267.264 57.2578 267.402 57.2578C267.541 57.2578 267.665 57.313 267.762 57.4096C267.859 57.5062 267.914 57.6303 267.914 57.7683Z" fill="white"/><path d="M269.159 64.7495C268.979 64.7495 268.882 64.7081 268.882 64.6115V64.1424C268.882 64.0596 268.91 64.0044 268.965 63.9906C269.02 63.9768 269.089 63.963 269.159 63.963H270.61C270.68 63.7423 270.776 63.4939 270.887 63.218C270.998 62.9421 271.136 62.6661 271.302 62.3764V55.7124H272.104V61.1622C272.297 60.9139 272.505 60.6931 272.74 60.4724C272.961 60.2516 273.21 60.0723 273.473 59.9067C273.735 59.7411 274.012 59.617 274.302 59.5342C274.593 59.4376 274.897 59.3962 275.215 59.3962C275.699 59.3962 276.114 59.479 276.459 59.6446C276.805 59.8101 277.095 60.0309 277.317 60.3206C277.538 60.6104 277.704 60.9415 277.801 61.3278C277.897 61.7141 277.953 62.128 277.953 62.5695V64.7633H269.145L269.159 64.7495ZM277.151 62.6937C277.151 62.2108 277.095 61.7969 276.985 61.4796C276.874 61.1622 276.736 60.9001 276.542 60.6931C276.349 60.5 276.128 60.362 275.879 60.2792C275.63 60.1964 275.353 60.155 275.049 60.155C274.745 60.155 274.454 60.2102 274.178 60.3206C273.901 60.431 273.625 60.5828 273.39 60.7759C273.141 60.9691 272.92 61.1898 272.698 61.4382C272.491 61.6865 272.297 61.9487 272.131 62.2384C271.965 62.5144 271.813 62.8041 271.689 63.0938C271.564 63.3836 271.468 63.6733 271.399 63.9492H277.165V62.6937H277.151Z" fill="white"/><path d="M282.64 64.7496C282.115 64.7496 281.672 64.6806 281.313 64.5288C280.953 64.377 280.663 64.1977 280.442 63.9631C280.221 63.7286 280.055 63.4664 279.958 63.1767C279.861 62.887 279.82 62.5972 279.82 62.3075C279.82 61.935 279.889 61.59 280.013 61.2727C280.138 60.9554 280.317 60.6794 280.552 60.4311C280.787 60.1965 281.064 60.0034 281.396 59.8654C281.728 59.7274 282.101 59.6584 282.516 59.6584C282.682 59.6584 282.862 59.6722 283.041 59.7136C283.221 59.7412 283.401 59.8102 283.581 59.893C283.76 59.9758 283.926 60.0862 284.078 60.2241C284.23 60.3621 284.369 60.5415 284.493 60.7622C284.618 60.983 284.714 61.2313 284.784 61.5348C284.853 61.8384 284.88 62.1833 284.88 62.5834V63.9769H286.415C286.609 63.9769 286.706 64.0183 286.706 64.1149V64.5978C286.706 64.6806 286.678 64.722 286.623 64.7496C286.567 64.7634 286.498 64.7772 286.415 64.7772H284.797C284.701 65.2601 284.521 65.6602 284.272 65.9775C284.023 66.2948 283.719 66.557 283.373 66.7501C283.028 66.9433 282.613 67.1089 282.17 67.2054C281.728 67.3158 281.244 67.3986 280.746 67.4538C280.746 67.3158 280.718 67.1916 280.704 67.0813C280.691 66.9571 280.677 66.8329 280.663 66.7087C281.119 66.6673 281.548 66.5984 281.935 66.5018C282.322 66.4052 282.668 66.2672 282.972 66.1017C283.263 65.9361 283.511 65.743 283.691 65.5222C283.871 65.3014 283.995 65.0531 284.037 64.7634H282.654L282.64 64.7496ZM284.078 63.9493V62.9559C284.078 62.4179 284.023 61.9901 283.926 61.6452C283.829 61.3141 283.691 61.0519 283.525 60.8588C283.359 60.6656 283.166 60.5415 282.958 60.4725C282.751 60.4035 282.544 60.3759 282.322 60.3759C282.087 60.3759 281.852 60.4173 281.645 60.5277C281.437 60.6242 281.244 60.7622 281.092 60.9278C280.94 61.0933 280.815 61.2865 280.718 61.5072C280.622 61.728 280.58 61.9626 280.58 62.2109C280.58 62.4592 280.622 62.6662 280.691 62.887C280.76 63.0939 280.884 63.2871 281.05 63.4388C281.216 63.5906 281.424 63.7286 281.686 63.8114C281.949 63.9079 282.253 63.9493 282.627 63.9493H284.065H284.078Z" fill="white"/><path d="M286.056 64.7495C285.862 64.7495 285.765 64.7081 285.765 64.6115V64.1424C285.765 64.0596 285.793 64.0044 285.848 63.9906C285.904 63.9768 285.973 63.963 286.056 63.963H288.144V55.7124H288.946V64.7633H286.056V64.7495Z" fill="white"/><path d="M292.015 55.7124H291.213V64.7633H292.015V55.7124Z" fill="white"/><path d="M302.275 63.9494C302.179 63.8666 302.096 63.7838 302.027 63.6734C301.957 63.5768 301.902 63.4665 301.847 63.3423C301.791 63.2181 301.764 63.1077 301.736 62.9836C301.708 62.8594 301.681 62.749 301.653 62.6248C301.626 62.4317 301.584 62.2523 301.543 62.0592C301.501 61.866 301.46 61.6867 301.39 61.5073C301.335 61.3279 301.252 61.1624 301.169 61.0106C301.072 60.8588 300.962 60.7209 300.824 60.6105C300.685 60.5001 300.519 60.4035 300.326 60.3483C300.132 60.2794 299.897 60.2518 299.634 60.2518C299.551 60.2518 299.468 60.2518 299.358 60.2656C299.247 60.2793 299.15 60.2931 299.054 60.3069C298.943 60.3207 298.846 60.3483 298.736 60.3759C298.625 60.4035 298.528 60.4311 298.431 60.4449V59.7689C298.666 59.6999 298.915 59.6447 299.164 59.5895C299.413 59.5481 299.676 59.5205 299.966 59.5205C300.284 59.5205 300.575 59.5757 300.824 59.6723C301.072 59.7689 301.294 59.9068 301.473 60.0862C301.653 60.2656 301.791 60.4863 301.902 60.7347C302.013 60.983 302.082 61.2589 302.123 61.5487C302.165 61.8384 302.206 62.1144 302.248 62.3765C302.289 62.6386 302.358 62.887 302.428 63.094C302.497 63.3147 302.593 63.4941 302.704 63.6458C302.815 63.7976 302.953 63.8942 303.119 63.9494V64.7772H299.607C298.971 64.7772 298.487 64.9428 298.141 65.2877C297.795 65.6326 297.616 66.1155 297.616 66.764C297.616 67.0261 297.657 67.2883 297.754 67.5228C297.851 67.7712 297.989 67.9919 298.196 68.1713C298.404 68.3644 298.653 68.5162 298.971 68.6266C299.289 68.737 299.662 68.7921 300.104 68.7921C300.284 68.7921 300.464 68.7921 300.658 68.7645C300.851 68.737 301.031 68.7232 301.225 68.6956V69.3854C301.003 69.4406 300.81 69.482 300.63 69.5096C300.45 69.5372 300.257 69.551 300.049 69.551C299.496 69.551 299.012 69.4682 298.611 69.3164C298.21 69.1647 297.878 68.9577 297.616 68.7094C297.353 68.461 297.159 68.1713 297.035 67.8401C296.91 67.5228 296.841 67.1779 296.841 66.8468C296.841 66.3501 296.924 65.9224 297.076 65.5636C297.228 65.2049 297.45 64.9152 297.726 64.6806C298.003 64.4461 298.335 64.2805 298.708 64.1701C299.081 64.0597 299.482 64.0046 299.911 64.0046H302.234L302.275 63.9494Z" fill="white"/><path d="M304.875 55.7124H305.677V62.7213C305.677 62.9559 305.691 63.149 305.732 63.3146C305.774 63.4801 305.829 63.6043 305.912 63.7009C305.995 63.7975 306.106 63.8665 306.244 63.9079C306.382 63.9492 306.562 63.963 306.769 63.963H307.06C307.253 63.963 307.35 64.0044 307.35 64.101V64.5839C307.35 64.6667 307.322 64.7081 307.267 64.7357C307.212 64.7495 307.143 64.7633 307.06 64.7633H306.507C306.202 64.7633 305.954 64.7219 305.746 64.6253C305.539 64.5287 305.373 64.4183 305.248 64.2528C305.124 64.101 305.027 63.9079 304.972 63.6871C304.916 63.4664 304.889 63.2318 304.889 62.9835V55.7124H304.875Z" fill="white"/><path d="M306.7 64.7496C306.52 64.7496 306.424 64.7082 306.424 64.6117V64.1426C306.424 64.0598 306.451 64.0046 306.507 63.9908C306.562 63.977 306.617 63.9632 306.7 63.9632H308.028C308.18 63.9632 308.304 63.9494 308.415 63.9218C308.525 63.8942 308.608 63.839 308.664 63.77C308.733 63.701 308.774 63.5907 308.802 63.4665C308.83 63.3423 308.843 63.1768 308.843 62.9698V59.9069H309.645V63.2319C309.645 63.2319 309.645 63.3561 309.645 63.4113C309.645 63.4665 309.645 63.5355 309.632 63.5907C310.074 63.839 310.627 63.9632 311.319 63.9632H311.388C311.567 63.9632 311.664 64.0184 311.664 64.115V64.5979C311.664 64.6806 311.637 64.722 311.581 64.7496C311.526 64.7634 311.471 64.7772 311.388 64.7772H311.305C311.07 64.7772 310.862 64.7772 310.669 64.7358C310.475 64.7082 310.309 64.6806 310.157 64.6392C310.005 64.5979 309.867 64.5427 309.742 64.4737C309.618 64.4047 309.493 64.3357 309.369 64.2529C309.258 64.4047 309.12 64.5289 308.94 64.6255C308.761 64.722 308.525 64.7634 308.249 64.7634H306.7V64.7496ZM309.784 57.7683C309.784 57.9201 309.728 58.0442 309.632 58.1408C309.535 58.2374 309.41 58.2926 309.272 58.2926C309.134 58.2926 309.009 58.2374 308.913 58.1408C308.816 58.0442 308.76 57.9201 308.76 57.7683C308.76 57.6303 308.816 57.5062 308.913 57.4096C309.009 57.313 309.134 57.2578 309.272 57.2578C309.41 57.2578 309.535 57.313 309.632 57.4096C309.728 57.5062 309.784 57.6303 309.784 57.7683Z" fill="white"/><path d="M312.522 59.7549C312.757 59.686 313.006 59.617 313.254 59.5756C313.503 59.5204 313.78 59.5066 314.07 59.5066C314.388 59.5066 314.665 59.548 314.914 59.6446C315.163 59.7411 315.37 59.8791 315.55 60.0447C315.73 60.2102 315.882 60.431 315.992 60.6793C316.103 60.9277 316.186 61.2036 316.227 61.521C316.269 61.8245 316.324 62.128 316.379 62.4178C316.435 62.7075 316.504 62.9697 316.601 63.1904C316.684 63.4112 316.794 63.5905 316.933 63.7285C317.071 63.8665 317.237 63.9354 317.444 63.9354H318.094C318.274 63.9354 318.371 63.9906 318.371 64.0872V64.5701C318.371 64.6529 318.343 64.6943 318.288 64.7219C318.232 64.7357 318.177 64.7495 318.094 64.7495H311.042C310.862 64.7495 310.766 64.7081 310.766 64.6115V64.1424C310.766 64.0596 310.793 64.0044 310.848 63.9906C310.904 63.9768 310.973 63.963 311.042 63.963H316.379C316.283 63.8941 316.2 63.7975 316.131 63.7009C316.061 63.6043 316.006 63.4939 315.951 63.3698C315.896 63.2456 315.854 63.1352 315.826 63.011C315.799 62.8869 315.771 62.7627 315.743 62.6523C315.702 62.3764 315.647 62.0866 315.577 61.7969C315.508 61.5072 315.412 61.2588 315.259 61.0243C315.121 60.8035 314.928 60.6104 314.693 60.4724C314.444 60.3344 314.139 60.2516 313.738 60.2516C313.655 60.2516 313.572 60.2516 313.462 60.2654C313.365 60.2654 313.254 60.293 313.158 60.3068C313.047 60.3206 312.95 60.3482 312.84 60.3758C312.729 60.4034 312.632 60.4172 312.535 60.4448V59.7687L312.522 59.7549ZM313.559 66.4741C313.559 66.3223 313.614 66.1982 313.697 66.1016C313.794 66.005 313.918 65.9498 314.056 65.9498C314.195 65.9498 314.319 66.005 314.416 66.1016C314.513 66.1982 314.568 66.3223 314.568 66.4741C314.568 66.6121 314.513 66.7363 314.416 66.8328C314.319 66.9294 314.195 66.9846 314.056 66.9846C313.904 66.9846 313.794 66.9294 313.697 66.8328C313.6 66.7363 313.559 66.6121 313.559 66.4741Z" fill="white"/><path d="M317.721 64.7495C317.527 64.7495 317.43 64.7081 317.43 64.6115V64.1424C317.43 64.0596 317.458 64.0044 317.513 63.9906C317.569 63.9768 317.638 63.963 317.721 63.963H319.809V55.7124H320.611V64.7633H317.721V64.7495Z" fill="white"/><path d="M323.694 55.7124H322.892V64.7633H323.694V55.7124Z" fill="white"/></svg>