<svg xmlns="http://www.w3.org/2000/svg" width="194" height="152" viewBox="0 0 194 152" fill="none"><path d="M153.347 0H40.6529V69.551H153.347V0Z" fill="white"/><path d="M152.31 1.03467H70.0225V23.8136H152.31V1.03467Z" fill="#069547"/><path d="M152.31 45.7373H70.0225V68.5163H152.31V45.7373Z" fill="#010101"/><path d="M70.0363 1.03467H41.6899V68.5299H70.0363V1.03467Z" fill="#CE202F"/><path d="M20.6859 98.1957C20.1605 98.1957 19.6904 98.1129 19.2894 97.9611C18.8745 97.7955 18.5427 97.5886 18.2523 97.3127C17.9757 97.0367 17.7545 96.7194 17.6024 96.3469C17.4503 95.9743 17.3812 95.588 17.3812 95.1741C17.3812 94.7188 17.4365 94.3049 17.5333 93.9186C17.6301 93.5323 17.7683 93.1873 17.9481 92.8838C18.114 92.5803 18.3214 92.3181 18.5565 92.0836C18.7916 91.849 19.0405 91.6559 19.2894 91.5041C19.5521 91.3523 19.8148 91.2281 20.0914 91.1454C20.3541 91.0626 20.6306 91.0212 20.8934 91.0212C21.2944 91.0212 21.7092 91.104 22.1102 91.2695C22.525 91.4351 22.8845 91.6972 23.2164 92.0422C23.5344 92.3871 23.811 92.8148 24.0045 93.3391C24.212 93.8634 24.3087 94.4705 24.3087 95.1603C24.3087 95.5466 24.2258 95.9191 24.0875 96.2917C23.9354 96.6504 23.728 96.9815 23.4376 97.2575C23.1611 97.5334 22.8154 97.768 22.4282 97.9335C22.0272 98.0991 21.5847 98.1819 21.1008 98.1819H20.6998L20.6859 98.1957ZM18.515 88.5101C18.515 88.3584 18.5427 88.2342 18.598 88.11C18.6533 87.9858 18.7224 87.8755 18.8192 87.7789C18.916 87.6823 19.0266 87.6133 19.1511 87.5581C19.2755 87.5029 19.4138 87.4753 19.5521 87.4753C19.6904 87.4753 19.8286 87.5029 19.9531 87.5581C20.0775 87.6133 20.1882 87.6823 20.2849 87.7789C20.3817 87.8755 20.4509 87.9858 20.5062 88.11C20.5615 88.2342 20.5891 88.3722 20.5891 88.5101C20.5891 88.6481 20.5615 88.7861 20.5062 88.9102C20.4509 89.0344 20.3817 89.1448 20.2849 89.2414C20.1882 89.3379 20.0775 89.4069 19.9531 89.4621C19.8286 89.5173 19.6904 89.5449 19.5521 89.5449C19.4138 89.5449 19.2755 89.5173 19.1511 89.4621C19.0266 89.4069 18.916 89.3379 18.8192 89.2414C18.7224 89.1448 18.6533 89.0344 18.598 88.9102C18.5427 88.7861 18.515 88.6481 18.515 88.5101ZM19.3308 94.912C19.3308 95.4225 19.4691 95.8088 19.7457 96.0571C20.0222 96.3055 20.3817 96.4296 20.838 96.4296H21.004C21.2252 96.4296 21.405 96.3883 21.5709 96.3055C21.7368 96.2227 21.8751 96.1123 21.9719 95.9743C22.0687 95.8364 22.1517 95.6708 22.207 95.4914C22.2623 95.3121 22.2899 95.1189 22.2899 94.912C22.2899 94.5394 22.2485 94.2083 22.1655 93.9324C22.0825 93.6426 21.9719 93.4081 21.8336 93.2287C21.6953 93.0356 21.5432 92.8976 21.3773 92.801C21.2114 92.7044 21.0455 92.6492 20.8934 92.6492C20.6998 92.6492 20.5062 92.6906 20.3264 92.7872C20.1467 92.8838 19.9807 93.0218 19.8286 93.2149C19.6765 93.4081 19.5659 93.6426 19.4691 93.9186C19.3723 94.1945 19.3308 94.5394 19.3308 94.9258M20.9487 88.5101C20.9487 88.3584 20.9763 88.2342 21.0316 88.11C21.0869 87.9858 21.1561 87.8755 21.2529 87.7789C21.3497 87.6823 21.4603 87.6133 21.5847 87.5581C21.7092 87.5029 21.8475 87.4753 21.9857 87.4753C22.124 87.4753 22.2623 87.5029 22.3867 87.5581C22.5112 87.6133 22.6218 87.6823 22.7186 87.7789C22.8154 87.8755 22.8845 87.9858 22.9398 88.11C22.9951 88.2342 23.0228 88.3722 23.0228 88.5101C23.0228 88.6481 22.9951 88.7861 22.9398 88.9102C22.8845 89.0344 22.8154 89.1448 22.7186 89.2414C22.6218 89.3379 22.5112 89.4069 22.3867 89.4621C22.2623 89.5173 22.124 89.5449 21.9857 89.5449C21.8475 89.5449 21.7092 89.5173 21.5847 89.4621C21.4603 89.4069 21.3497 89.3379 21.2529 89.2414C21.1561 89.1448 21.0869 89.0344 21.0316 88.9102C20.9763 88.7861 20.9487 88.6481 20.9487 88.5101Z" fill="white"/><path d="M25.3597 98.1957V96.4297H28.4708C28.8027 96.4297 29.0654 96.4021 29.259 96.3607C29.4664 96.3055 29.6185 96.2503 29.7291 96.1538C29.8398 96.0572 29.9089 95.9606 29.9504 95.8364C29.9919 95.7123 30.0057 95.5743 30.0057 95.4363C30.0057 95.1742 29.9227 94.8982 29.7706 94.5947C29.6185 94.2912 29.4111 93.9876 29.1484 93.6703C28.8857 93.353 28.5953 93.0494 28.2773 92.7459C27.9592 92.4424 27.6274 92.1526 27.2955 91.8905L28.8165 90.4004C29.8674 91.2696 30.6694 92.1112 31.2225 92.9391C31.7756 93.7669 32.0522 94.5395 32.0522 95.2846C32.0522 95.5467 32.0245 95.8088 31.9554 96.0572C32.2319 96.1814 32.5361 96.2779 32.8542 96.3469C33.1722 96.4021 33.5179 96.4435 33.8636 96.4435H33.9327C34.0848 96.4435 34.2093 96.4435 34.2922 96.4711C34.3752 96.4987 34.4443 96.5263 34.4858 96.5815C34.5273 96.6367 34.5549 96.6919 34.5549 96.7608C34.5549 96.8298 34.5549 96.9264 34.5549 97.023V97.5887C34.5549 97.7266 34.5549 97.837 34.5273 97.9198C34.5135 98.0026 34.4858 98.0578 34.4305 98.1129C34.3752 98.1543 34.3199 98.1819 34.2369 98.1957C34.154 98.2095 34.0433 98.2233 33.9189 98.2233H33.8359C33.2275 98.2233 32.7021 98.1405 32.2872 97.9888C31.8586 97.837 31.5129 97.63 31.2087 97.3679C30.9183 97.63 30.545 97.837 30.0887 97.9888C29.6324 98.1405 29.0793 98.2095 28.4155 98.2095H25.3458L25.3597 98.1957Z" fill="white"/><path d="M35.1219 91.5316C35.4952 91.4212 35.8824 91.3246 36.2557 91.2418C36.6291 91.1591 37.0577 91.1177 37.5417 91.1177C38.0257 91.1177 38.4266 91.1867 38.7862 91.3246C39.1457 91.4626 39.4637 91.6558 39.7264 91.9041C39.9892 92.1525 40.1966 92.4422 40.3487 92.7871C40.5146 93.132 40.6252 93.5046 40.6805 93.9047C40.7358 94.2358 40.7773 94.5531 40.8326 94.8705C40.8879 95.174 40.9433 95.45 41.0124 95.6845C41.0815 95.9191 41.1507 96.1122 41.2475 96.2502C41.3443 96.3882 41.441 96.4571 41.5793 96.4571H42.3398C42.4919 96.4571 42.6164 96.4571 42.6993 96.4847C42.7823 96.5123 42.8515 96.5399 42.8929 96.5951C42.9344 96.6365 42.9621 96.7055 42.9621 96.7745C42.9621 96.8435 42.9621 96.94 42.9621 97.0366V97.6023C42.9621 97.7403 42.9621 97.8506 42.9344 97.9334C42.9206 98.0162 42.8929 98.0714 42.8376 98.1266C42.7961 98.168 42.727 98.1956 42.644 98.2094C42.5611 98.2094 42.4643 98.2232 42.326 98.2232H33.8774C33.7529 98.2232 33.6423 98.2232 33.5594 98.2094C33.4764 98.1956 33.4073 98.168 33.3658 98.1266C33.3243 98.0852 33.2828 98.0162 33.269 97.9334C33.2552 97.8506 33.2413 97.7403 33.2413 97.6023V97.0366C33.2413 96.9262 33.2413 96.8435 33.2413 96.7745C33.2413 96.7055 33.269 96.6365 33.3105 96.5951C33.352 96.5537 33.4211 96.5123 33.5041 96.4847C33.587 96.4709 33.7115 96.4571 33.8636 96.4571H39.201C39.1319 96.3054 39.0627 96.1398 38.9936 95.9466C38.9244 95.7535 38.883 95.5465 38.8415 95.3534C38.8 95.0498 38.7447 94.7463 38.6894 94.4428C38.6341 94.1392 38.5373 93.8771 38.4128 93.6287C38.2884 93.3942 38.1224 93.1872 37.915 93.0355C37.7076 92.8837 37.4449 92.8147 37.0992 92.8147C36.9886 92.8147 36.8503 92.8147 36.6844 92.8423C36.5185 92.8561 36.3525 92.8837 36.1728 92.9113C35.993 92.9389 35.8132 92.9803 35.6197 93.0355C35.4261 93.0907 35.2601 93.1458 35.0942 93.2286V91.5592L35.1219 91.5316Z" fill="white"/><path d="M46.2945 95.5328C46.2945 95.6294 46.2945 95.726 46.2945 95.8226C46.2945 95.9192 46.2807 96.0157 46.2669 96.0985C46.5296 96.2089 46.82 96.2917 47.1242 96.3469C47.4284 96.402 47.7464 96.4296 48.0783 96.4296H48.1474C48.2995 96.4296 48.424 96.4296 48.5069 96.4572C48.5899 96.4848 48.659 96.5124 48.7005 96.5676C48.742 96.6228 48.7696 96.678 48.7696 96.747C48.7696 96.816 48.7696 96.9125 48.7696 97.0091V97.5748C48.7696 97.7128 48.7696 97.8232 48.742 97.9059C48.7282 97.9887 48.7005 98.0439 48.6452 98.0853C48.6037 98.1267 48.5346 98.1543 48.4516 98.1681C48.3686 98.1819 48.258 98.1957 48.1336 98.1957H48.0506C47.5113 98.1957 47.055 98.1405 46.6679 98.0163C46.2807 97.8921 45.9488 97.7266 45.6584 97.5334C45.4649 97.7404 45.2298 97.9059 44.9532 98.0163C44.6767 98.1405 44.331 98.1957 43.9162 98.1957H42.2707C42.1463 98.1957 42.0356 98.1957 41.9527 98.1681C41.8697 98.1543 41.8006 98.1267 41.7591 98.0853C41.7176 98.0439 41.6761 97.9749 41.6623 97.9059C41.6485 97.8232 41.6346 97.7128 41.6346 97.5748V97.0091C41.6346 96.9125 41.6346 96.816 41.6346 96.747C41.6346 96.678 41.6623 96.609 41.7038 96.5676C41.7453 96.5262 41.8006 96.4848 41.8835 96.4572C41.9665 96.4296 42.0909 96.4296 42.2431 96.4296H43.1557C43.3354 96.4296 43.4875 96.4158 43.612 96.3745C43.7364 96.3331 43.847 96.2779 43.9162 96.1813C43.9991 96.0847 44.0545 95.9743 44.0959 95.8226C44.1374 95.6708 44.1513 95.4776 44.1513 95.2569V91.5731H46.2669V95.5466L46.2945 95.5328ZM42.9068 88.5101C42.9068 88.3584 42.9344 88.2342 42.9897 88.11C43.045 87.9858 43.1142 87.8755 43.211 87.7789C43.3078 87.6823 43.4184 87.6133 43.5428 87.5581C43.6673 87.5029 43.8056 87.4753 43.9438 87.4753C44.0821 87.4753 44.2204 87.5029 44.3448 87.5581C44.4693 87.6133 44.5799 87.6823 44.6767 87.7789C44.7735 87.8755 44.8426 87.9858 44.8979 88.11C44.9532 88.2342 44.9809 88.3722 44.9809 88.5101C44.9809 88.6481 44.9532 88.7861 44.8979 88.9102C44.8426 89.0344 44.7735 89.1448 44.6767 89.2414C44.5799 89.3379 44.4693 89.4069 44.3448 89.4621C44.2204 89.5173 44.0821 89.5449 43.9438 89.5449C43.8056 89.5449 43.6673 89.5173 43.5428 89.4621C43.4184 89.4069 43.3078 89.3379 43.211 89.2414C43.1142 89.1448 43.045 89.0344 42.9897 88.9102C42.9344 88.7861 42.9068 88.6481 42.9068 88.5101ZM45.3404 88.5101C45.3404 88.3584 45.3681 88.2342 45.4234 88.11C45.4787 87.9858 45.5478 87.8755 45.6446 87.7789C45.7414 87.6823 45.852 87.6133 45.9765 87.5581C46.1009 87.5029 46.2392 87.4753 46.3775 87.4753C46.5158 87.4753 46.654 87.5029 46.7785 87.5581C46.9029 87.6133 47.0135 87.6823 47.1103 87.7789C47.2071 87.8755 47.2763 87.9858 47.3316 88.11C47.3869 88.2342 47.4145 88.3722 47.4145 88.5101C47.4145 88.6481 47.3869 88.7861 47.3316 88.9102C47.2763 89.0344 47.2071 89.1448 47.1103 89.2414C47.0135 89.3379 46.9029 89.4069 46.7785 89.4621C46.654 89.5173 46.5158 89.5449 46.3775 89.5449C46.2392 89.5449 46.1009 89.5173 45.9765 89.4621C45.852 89.4069 45.7414 89.3379 45.6446 89.2414C45.5478 89.1448 45.4787 89.0344 45.4234 88.9102C45.3681 88.7861 45.3404 88.6481 45.3404 88.5101Z" fill="white"/><path d="M53.7752 98.2923C53.388 98.2923 53.0423 98.2647 52.7519 98.1958C52.4477 98.1268 52.185 98.044 51.9361 97.9474C51.701 97.837 51.4798 97.7266 51.3 97.5887C51.1203 97.4507 50.9544 97.3265 50.8161 97.2024C50.3321 97.8784 49.6407 98.2095 48.7281 98.2095H48.0921C47.9676 98.2095 47.857 98.2095 47.774 98.182C47.6911 98.1682 47.6219 98.1406 47.5804 98.0992C47.539 98.0578 47.4975 97.9888 47.4836 97.906C47.4698 97.8232 47.456 97.7128 47.456 97.5749V97.0092C47.456 96.9126 47.456 96.816 47.456 96.7471C47.456 96.6781 47.4836 96.6091 47.5251 96.5677C47.5666 96.5263 47.6219 96.4849 47.7187 96.4573C47.8017 96.4297 47.9261 96.4297 48.0782 96.4297H48.4654C48.7281 96.4297 48.9632 96.3607 49.1568 96.2228C49.3504 96.0848 49.5025 95.864 49.5993 95.5605C49.862 94.6775 50.1662 93.9738 50.5119 93.422C50.8576 92.8839 51.2033 92.4562 51.5628 92.1664C51.9223 91.8767 52.2818 91.6697 52.6275 91.5732C52.9732 91.4766 53.2912 91.4214 53.5678 91.4214C53.9688 91.4214 54.3283 91.4766 54.6601 91.5732C54.992 91.6835 55.2824 91.8215 55.5451 92.0009C55.8078 92.1802 56.0291 92.3872 56.2226 92.6217C56.4162 92.8563 56.5683 93.1184 56.7066 93.3806C56.831 93.6427 56.9278 93.9187 56.997 94.2084C57.0661 94.4981 57.0938 94.7603 57.0938 95.0362C57.0938 95.188 57.0938 95.3536 57.0661 95.5053C57.0385 95.6571 57.0108 95.8227 56.9693 95.9744C57.2597 96.1262 57.5777 96.2504 57.9373 96.3193C58.2968 96.3883 58.6563 96.4297 59.0573 96.4297H59.1264C59.2785 96.4297 59.403 96.4297 59.4859 96.4573C59.5689 96.4849 59.638 96.5125 59.6795 96.5677C59.721 96.6229 59.7487 96.6781 59.7487 96.7471C59.7487 96.816 59.7487 96.9126 59.7487 97.0092V97.5749C59.7487 97.7128 59.7487 97.8232 59.721 97.906C59.7072 97.9888 59.6657 98.044 59.6242 98.0992C59.5689 98.1406 59.5136 98.1682 59.4306 98.182C59.3477 98.1957 59.237 98.2095 59.1126 98.2095H59.0158C58.6839 98.2095 58.3936 98.182 58.117 98.1406C57.8543 98.0992 57.6054 98.0302 57.3703 97.9474C57.1491 97.8646 56.9417 97.768 56.7619 97.6439C56.5822 97.5335 56.4162 97.4093 56.2641 97.2576C55.9737 97.5749 55.6281 97.8232 55.2132 98.0164C54.7984 98.2095 54.3144 98.2923 53.7613 98.2923M55.1303 95.0224C55.1303 94.8293 55.0888 94.6361 55.0196 94.4154C54.9505 94.1946 54.8399 93.9876 54.7016 93.8083C54.5633 93.6151 54.3836 93.4634 54.1762 93.3392C53.9688 93.215 53.7337 93.146 53.4571 93.146C53.1806 93.146 52.9593 93.2288 52.7381 93.3806C52.5169 93.5323 52.3233 93.7531 52.1574 94.0014C51.9914 94.2636 51.8393 94.5533 51.7149 94.8982C51.5904 95.2294 51.4936 95.5743 51.4245 95.9192C51.4936 95.9882 51.6042 96.0572 51.7564 96.14C51.9085 96.209 52.0606 96.278 52.2541 96.3469C52.4339 96.4021 52.6275 96.4573 52.8211 96.4987C53.0147 96.5401 53.2082 96.5539 53.388 96.5539C53.6507 96.5539 53.8996 96.5263 54.107 96.4711C54.3283 96.4159 54.508 96.3193 54.6601 96.209C54.8122 96.0848 54.9367 95.933 55.0196 95.7399C55.1026 95.5467 55.1441 95.3122 55.1441 95.0224" fill="white"/><path d="M59.0435 98.1958C58.919 98.1958 58.8084 98.1957 58.7254 98.1682C58.6425 98.1682 58.5733 98.1268 58.5319 98.0854C58.4904 98.044 58.4489 97.975 58.4351 97.8922C58.4212 97.8094 58.4074 97.6991 58.4074 97.5611V96.9954C58.4074 96.8988 58.4074 96.8022 58.4074 96.7333C58.4074 96.6643 58.4351 96.5953 58.4765 96.5539C58.518 96.4987 58.5872 96.4711 58.6701 96.4435C58.7531 96.4159 58.8775 96.4159 59.0296 96.4159H60.9655V86.551H63.0811V98.182H59.0435V98.1958Z" fill="white"/><path d="M67.3123 86.5786H65.1967V98.2095H67.3123V86.5786Z" fill="white"/><path d="M80.0613 95.4225C80.0613 95.6157 80.0613 95.7813 80.089 95.9054C80.1028 96.0296 80.1443 96.14 80.1996 96.209C80.2549 96.2918 80.3379 96.347 80.4347 96.3745C80.5314 96.4021 80.6697 96.4159 80.8357 96.4159H81.4164C81.5685 96.4159 81.693 96.4159 81.7759 96.4435C81.8589 96.4711 81.928 96.4987 81.9695 96.5539C82.011 96.6091 82.0386 96.6643 82.0386 96.7333C82.0386 96.8023 82.0386 96.8988 82.0386 96.9954V97.5611C82.0386 97.6991 82.0386 97.8094 82.011 97.8922C81.9972 97.975 81.9557 98.0302 81.9142 98.0854C81.8589 98.1268 81.8036 98.1544 81.7206 98.1682C81.6376 98.182 81.5409 98.1958 81.4026 98.1958H80.4485C80.0751 98.1958 79.7571 98.1682 79.4944 98.113C79.2317 98.0578 78.9966 97.975 78.8168 97.8922C78.6233 97.7956 78.4711 97.6853 78.3605 97.5611C78.2499 97.4369 78.1531 97.299 78.0701 97.1472C77.7245 97.3265 77.3788 97.4645 77.0469 97.5335C76.7151 97.6025 76.3694 97.6439 76.0099 97.6439C75.6503 97.6439 75.277 97.5887 74.9036 97.4921C74.5303 97.3955 74.1984 97.2438 73.8942 97.023C73.59 96.816 73.3411 96.5401 73.1476 96.209C72.954 95.8779 72.8572 95.4777 72.8572 95.0224C72.8572 94.6085 72.9401 94.236 73.1061 93.9049C73.272 93.5737 73.4932 93.2702 73.756 93.0081C74.0325 92.7459 74.3367 92.5114 74.6962 92.3044C75.0419 92.0975 75.4014 91.9181 75.7886 91.7663C76.162 91.6146 76.5353 91.4766 76.9086 91.3662C77.282 91.2558 77.6277 91.1731 77.9457 91.0903V90.1797H80.0337V95.4087L80.0613 95.4225ZM77.9734 92.7459C77.5032 92.8425 77.0884 92.9529 76.7151 93.0908C76.3417 93.2288 76.0237 93.3806 75.761 93.5461C75.4982 93.7117 75.2908 93.9049 75.1387 94.1256C75.0004 94.3326 74.9313 94.5809 74.9313 94.8293C74.9313 95.0362 74.9728 95.2156 75.0558 95.3674C75.1387 95.5191 75.2493 95.6295 75.3738 95.7261C75.5121 95.8227 75.6503 95.8779 75.8301 95.9192C75.996 95.9606 76.162 95.9744 76.3279 95.9744C76.6321 95.9744 76.9363 95.933 77.2267 95.8503C77.517 95.7675 77.7659 95.6571 77.9872 95.5053V92.7597L77.9734 92.7459ZM75.4291 88.0963C75.4291 87.9445 75.4568 87.8204 75.5121 87.6962C75.5674 87.572 75.6365 87.4616 75.7333 87.3651C75.8301 87.2685 75.9407 87.1995 76.0652 87.1443C76.1896 87.0891 76.3279 87.0615 76.4662 87.0615C76.6044 87.0615 76.7427 87.0891 76.8672 87.1443C76.9916 87.1995 77.1022 87.2685 77.199 87.3651C77.2958 87.4616 77.365 87.572 77.4203 87.6962C77.4756 87.8204 77.5032 87.9583 77.5032 88.0963C77.5032 88.2343 77.4756 88.3722 77.4203 88.4964C77.365 88.6206 77.2958 88.731 77.199 88.8276C77.1022 88.9241 76.9916 88.9931 76.8672 89.0483C76.7427 89.1035 76.6044 89.1311 76.4662 89.1311C76.3279 89.1311 76.1896 89.1035 76.0652 89.0483C75.9407 88.9931 75.8301 88.9241 75.7333 88.8276C75.6365 88.731 75.5674 88.6206 75.5121 88.4964C75.4568 88.3722 75.4291 88.2343 75.4291 88.0963ZM77.8627 88.0963C77.8627 87.9445 77.8904 87.8204 77.9457 87.6962C78.001 87.572 78.0701 87.4616 78.1669 87.3651C78.2637 87.2685 78.3744 87.1995 78.4988 87.1443C78.6233 87.0891 78.7615 87.0615 78.8998 87.0615C79.0381 87.0615 79.1764 87.0891 79.3008 87.1443C79.4252 87.1995 79.5359 87.2685 79.6327 87.3651C79.7295 87.4616 79.7986 87.572 79.8539 87.6962C79.9092 87.8204 79.9369 87.9583 79.9369 88.0963C79.9369 88.2343 79.9092 88.3722 79.8539 88.4964C79.7986 88.6206 79.7295 88.731 79.6327 88.8276C79.5359 88.9241 79.4252 88.9931 79.3008 89.0483C79.1764 89.1035 79.0381 89.1311 78.8998 89.1311C78.7615 89.1311 78.6233 89.1035 78.4988 89.0483C78.3744 88.9931 78.2637 88.9241 78.1669 88.8276C78.0701 88.731 78.001 88.6206 77.9457 88.4964C77.8904 88.3722 77.8627 88.2343 77.8627 88.0963Z" fill="white"/><path d="M85.3987 95.5328C85.3987 95.6293 85.3987 95.7259 85.3987 95.8225C85.3987 95.9191 85.3849 96.0157 85.3711 96.0984C85.6338 96.2088 85.9242 96.2916 86.2284 96.3468C86.5326 96.402 86.8506 96.4296 87.1825 96.4296H87.2516C87.4037 96.4296 87.5282 96.4296 87.6111 96.4572C87.6941 96.4848 87.7632 96.5124 87.8047 96.5675C87.8462 96.6089 87.8739 96.6779 87.8739 96.7469C87.8739 96.8159 87.8739 96.9125 87.8739 97.009V97.5747C87.8739 97.7127 87.8739 97.8231 87.8462 97.9059C87.8324 97.9886 87.7909 98.0438 87.7494 98.099C87.6941 98.1404 87.6388 98.168 87.5558 98.1818C87.4729 98.1818 87.3761 98.1956 87.2378 98.1956H87.1548C86.6155 98.1956 86.1454 98.1404 85.7721 98.0162C85.3849 97.8921 85.053 97.7403 84.7627 97.5333C84.5691 97.7403 84.334 97.9058 84.0575 98.0162C83.7809 98.1266 83.4352 98.1956 83.0204 98.1956H81.3887C81.2505 98.1956 81.1537 98.1956 81.0707 98.1818C80.9878 98.168 80.9324 98.1404 80.8771 98.099C80.8357 98.0576 80.7942 97.9886 80.7803 97.9059C80.7665 97.8231 80.7527 97.7127 80.7527 97.5747V97.009C80.7527 96.8987 80.7527 96.8159 80.7527 96.7469C80.7527 96.6779 80.7803 96.6089 80.8218 96.5675C80.8633 96.5124 80.9186 96.4848 81.0154 96.4572C81.0984 96.4434 81.2228 96.4296 81.3749 96.4296H82.2875C82.4673 96.4296 82.6194 96.4158 82.7438 96.3744C82.8683 96.333 82.9789 96.2778 83.0481 96.1812C83.131 96.0846 83.1863 95.9743 83.2278 95.8225C83.2693 95.6707 83.2831 95.4776 83.2831 95.2568V91.573H85.3987V95.5466V95.5328ZM81.9557 100.527C81.9557 100.376 81.9833 100.251 82.0386 100.127C82.094 100.003 82.1631 99.8926 82.2599 99.796C82.3567 99.6995 82.4673 99.6305 82.5917 99.5753C82.7162 99.5201 82.8545 99.4925 82.9927 99.4925C83.131 99.4925 83.2693 99.5201 83.3937 99.5753C83.5182 99.6305 83.6288 99.6995 83.7256 99.796C83.8224 99.8926 83.8915 100.003 83.9468 100.127C84.0021 100.251 84.0298 100.389 84.0298 100.527C84.0298 100.665 84.0021 100.803 83.9468 100.927C83.8915 101.052 83.8224 101.162 83.7256 101.259C83.6288 101.355 83.5182 101.424 83.3937 101.479C83.2693 101.534 83.131 101.562 82.9927 101.562C82.8545 101.562 82.7162 101.534 82.5917 101.479C82.4673 101.424 82.3567 101.355 82.2599 101.259C82.1631 101.162 82.094 101.052 82.0386 100.927C81.9833 100.803 81.9557 100.665 81.9557 100.527ZM84.3893 100.527C84.3893 100.376 84.417 100.251 84.4723 100.127C84.5276 100.003 84.5967 99.8926 84.6935 99.796C84.7903 99.6995 84.9009 99.6305 85.0254 99.5753C85.1498 99.5201 85.2881 99.4925 85.4264 99.4925C85.5647 99.4925 85.7029 99.5201 85.8274 99.5753C85.9518 99.6305 86.0624 99.6995 86.1592 99.796C86.256 99.8926 86.3252 100.003 86.3805 100.127C86.4358 100.251 86.4634 100.389 86.4634 100.527C86.4634 100.665 86.4358 100.803 86.3805 100.927C86.3252 101.052 86.256 101.162 86.1592 101.259C86.0624 101.355 85.9518 101.424 85.8274 101.479C85.7029 101.534 85.5647 101.562 85.4264 101.562C85.2881 101.562 85.1498 101.534 85.0254 101.479C84.9009 101.424 84.7903 101.355 84.6935 101.259C84.5967 101.162 84.5276 101.052 84.4723 100.927C84.417 100.803 84.3893 100.665 84.3893 100.527Z" fill="white"/><path d="M87.1687 98.1957C87.0442 98.1957 86.9336 98.1957 86.8506 98.1819C86.7677 98.1681 86.6985 98.1405 86.657 98.0991C86.6156 98.0577 86.5741 97.9888 86.5602 97.906C86.5464 97.8232 86.5326 97.7128 86.5326 97.5748V97.0092C86.5326 96.8988 86.5326 96.816 86.5326 96.747C86.5326 96.678 86.5602 96.6091 86.6017 96.5677C86.6432 96.5125 86.6985 96.4849 86.7953 96.4573C86.8783 96.4435 87.0027 96.4297 87.1548 96.4297H89.229V91.5593H91.3446V98.1957H87.1548H87.1687ZM89.6438 100.527C89.6438 100.376 89.6714 100.251 89.7267 100.127C89.7821 100.003 89.8512 99.8928 89.948 99.7962C90.0448 99.6996 90.1554 99.6306 90.2798 99.5754C90.4043 99.5202 90.5426 99.4926 90.6808 99.4926C90.8191 99.4926 90.9574 99.5202 91.0818 99.5754C91.2063 99.6306 91.3169 99.6996 91.4137 99.7962C91.5105 99.8928 91.5796 100.003 91.6349 100.127C91.6902 100.251 91.7179 100.389 91.7179 100.527C91.7179 100.665 91.6902 100.803 91.6349 100.928C91.5796 101.052 91.5105 101.162 91.4137 101.259C91.3169 101.355 91.2063 101.424 91.0818 101.479C90.9574 101.535 90.8191 101.562 90.6808 101.562C90.5426 101.562 90.4043 101.535 90.2798 101.479C90.1554 101.424 90.0448 101.355 89.948 101.259C89.8512 101.162 89.7821 101.052 89.7267 100.928C89.6714 100.803 89.6438 100.665 89.6438 100.527Z" fill="white"/><path d="M92.3678 99.741C92.8379 99.6444 93.2251 99.534 93.5155 99.3961C93.8059 99.2581 94.0409 99.0787 94.193 98.8718C94.3451 98.6648 94.4557 98.4165 94.5249 98.1405C94.5802 97.8508 94.6078 97.5197 94.6078 97.1471V91.5593H96.7235V96.4297H98.3551C98.5072 96.4297 98.6317 96.4297 98.7146 96.4573C98.7976 96.4849 98.8667 96.5125 98.9082 96.5677C98.9497 96.6229 98.9773 96.678 98.9773 96.747C98.9773 96.816 98.9773 96.9126 98.9773 97.0092V97.5748C98.9773 97.7128 98.9773 97.8232 98.9497 97.906C98.9359 97.9888 98.8944 98.0439 98.8529 98.0853C98.7976 98.1267 98.7423 98.1543 98.6593 98.1681C98.5763 98.1819 98.4657 98.1957 98.3413 98.1957H96.599C96.516 98.72 96.3639 99.1615 96.1704 99.534C95.9768 99.9066 95.7141 100.238 95.3822 100.5C95.0642 100.762 94.677 100.983 94.2207 101.148C93.7644 101.314 93.2389 101.452 92.6443 101.535L92.3678 99.741Z" fill="white"/><path d="M108.408 97.5747C108.408 97.7127 108.408 97.8231 108.38 97.9058C108.366 97.9886 108.325 98.0438 108.283 98.099C108.228 98.1404 108.173 98.168 108.09 98.1818C108.007 98.1956 107.896 98.2094 107.772 98.2094H106.527C106.126 98.2094 105.739 98.1818 105.366 98.1266C105.006 98.0714 104.66 97.9886 104.356 97.9058C104.052 97.8231 103.775 97.7265 103.527 97.6161C103.292 97.5195 103.084 97.4229 102.918 97.3402C102.697 97.4505 102.448 97.5609 102.185 97.6713C101.923 97.7817 101.632 97.8644 101.328 97.9472C101.024 98.03 100.706 98.0852 100.374 98.1404C100.042 98.1956 99.6963 98.2094 99.3368 98.2094H98.2721C98.1477 98.2094 98.037 98.2094 97.9541 98.1818C97.8711 98.1818 97.8158 98.1404 97.7605 98.099C97.719 98.0576 97.6775 97.9886 97.6637 97.9058C97.6499 97.8231 97.636 97.7127 97.636 97.5747V97.009C97.636 96.9124 97.636 96.8159 97.636 96.7469C97.636 96.6779 97.6637 96.6089 97.7052 96.5675C97.7467 96.5123 97.8158 96.4847 97.8988 96.4571C97.9817 96.4295 98.1062 96.4296 98.2583 96.4296H99.4336C99.8761 96.4296 100.263 96.4019 100.623 96.3468C100.982 96.2916 101.245 96.2364 101.439 96.1536C101.287 96.0156 101.121 95.8639 100.968 95.6983C100.803 95.5327 100.65 95.3534 100.512 95.1878C100.36 95.0222 100.222 94.8429 100.097 94.6911C99.9729 94.5256 99.8623 94.3876 99.7655 94.2634C99.6134 94.0564 99.5028 93.9047 99.406 93.7805C99.3092 93.6563 99.2539 93.5736 99.1986 93.5322C99.2262 93.4218 99.2539 93.2838 99.3092 93.132C99.3645 92.9803 99.4198 92.8285 99.4889 92.6767C99.5581 92.525 99.6272 92.387 99.6963 92.2628C99.7793 92.1387 99.8623 92.0559 99.9314 92.0145C100.111 91.9179 100.319 91.8213 100.581 91.7247C100.83 91.6144 101.121 91.5178 101.439 91.435C101.757 91.3384 102.102 91.2694 102.476 91.2143C102.849 91.1591 103.236 91.1177 103.637 91.1177C103.969 91.1177 104.301 91.1453 104.633 91.2143C104.965 91.2832 105.283 91.3798 105.559 91.5178C105.836 91.6558 106.057 91.8351 106.237 92.0559C106.417 92.2766 106.499 92.5388 106.499 92.8561C106.499 93.0217 106.472 93.2148 106.43 93.4218C106.375 93.6425 106.292 93.8909 106.154 94.1668C106.016 94.4428 105.836 94.7463 105.601 95.0774C105.366 95.4086 105.061 95.7673 104.688 96.1536C104.813 96.195 104.965 96.2226 105.144 96.264C105.31 96.3054 105.504 96.333 105.697 96.3468C105.891 96.3744 106.098 96.3882 106.32 96.402C106.527 96.4157 106.748 96.4296 106.956 96.4296H107.772C107.924 96.4296 108.034 96.4295 108.131 96.4571C108.214 96.4847 108.283 96.5123 108.325 96.5675C108.366 96.6227 108.394 96.6779 108.394 96.7469C108.394 96.8159 108.394 96.9124 108.394 97.009V97.5747H108.408ZM103.084 95.4775C103.347 95.2844 103.568 95.0912 103.748 94.9119C103.928 94.7187 104.08 94.5531 104.19 94.3738C104.301 94.2082 104.384 94.0427 104.439 93.9047C104.494 93.7667 104.522 93.6425 104.522 93.546C104.522 93.4218 104.481 93.3114 104.412 93.2148C104.342 93.1045 104.246 93.0217 104.107 92.9527C103.983 92.8699 103.817 92.8147 103.651 92.7733C103.471 92.7319 103.278 92.7043 103.056 92.7043C102.932 92.7043 102.78 92.7043 102.614 92.7319C102.448 92.7595 102.282 92.7871 102.102 92.8285C101.923 92.8699 101.757 92.9251 101.577 92.9803C101.411 93.0355 101.245 93.1045 101.093 93.1734C101.176 93.3114 101.287 93.4908 101.439 93.6977C101.591 93.9047 101.757 94.1116 101.936 94.3324C102.116 94.5531 102.31 94.7601 102.503 94.9671C102.697 95.174 102.891 95.3396 103.07 95.4775" fill="white"/><path d="M107.716 98.1958C107.592 98.1958 107.481 98.1957 107.398 98.1682C107.315 98.1682 107.246 98.1268 107.205 98.0854C107.163 98.044 107.122 97.975 107.108 97.8922C107.094 97.8094 107.08 97.6991 107.08 97.5611V96.9954C107.08 96.8988 107.08 96.8022 107.08 96.7333C107.08 96.6643 107.108 96.5953 107.149 96.5539C107.191 96.4987 107.26 96.4711 107.343 96.4435C107.426 96.4159 107.55 96.4159 107.702 96.4159H109.638V86.551H111.754V98.182H107.716V98.1958Z" fill="white"/><path d="M115.971 86.5786H113.856V98.2095H115.971V86.5786Z" fill="white"/><path d="M133.449 96.4296V91.5593H135.565V98.1957H126.204C125.554 98.1957 125.001 98.1543 124.517 98.0853C124.033 98.0163 123.632 97.9059 123.286 97.768C122.94 97.63 122.664 97.4644 122.443 97.2713C122.221 97.0781 122.042 96.8711 121.917 96.6366C121.793 96.402 121.696 96.1537 121.654 95.8916C121.599 95.6294 121.571 95.3535 121.571 95.0637C121.571 94.9534 121.571 94.8292 121.585 94.6774C121.585 94.5256 121.613 94.3739 121.627 94.2221C121.641 94.0703 121.668 93.9048 121.682 93.7392C121.696 93.5736 121.724 93.4219 121.751 93.2839L123.632 93.4495C123.59 93.6564 123.563 93.8634 123.535 94.0703C123.507 94.2773 123.493 94.4843 123.493 94.6912C123.493 95.0085 123.535 95.2707 123.618 95.4914C123.701 95.7122 123.867 95.8916 124.102 96.0295C124.337 96.1675 124.669 96.2641 125.097 96.3331C125.526 96.3882 126.079 96.4296 126.757 96.4296H133.449ZM126.715 88.5101C126.715 88.3584 126.743 88.2342 126.798 88.11C126.854 87.9858 126.923 87.8755 127.02 87.7789C127.116 87.6823 127.227 87.6133 127.351 87.5581C127.476 87.5029 127.614 87.4753 127.752 87.4753C127.891 87.4753 128.029 87.5029 128.153 87.5581C128.278 87.6133 128.388 87.6823 128.485 87.7789C128.582 87.8755 128.651 87.9858 128.706 88.11C128.762 88.2342 128.789 88.3722 128.789 88.5101C128.789 88.6481 128.762 88.7861 128.706 88.9102C128.651 89.0344 128.582 89.1448 128.485 89.2414C128.388 89.3379 128.278 89.4069 128.153 89.4621C128.029 89.5173 127.891 89.5449 127.752 89.5449C127.614 89.5449 127.476 89.5173 127.351 89.4621C127.227 89.4069 127.116 89.3379 127.02 89.2414C126.923 89.1448 126.854 89.0344 126.798 88.9102C126.743 88.7861 126.715 88.6481 126.715 88.5101ZM129.149 88.5101C129.149 88.3584 129.177 88.2342 129.232 88.11C129.287 87.9858 129.356 87.8755 129.453 87.7789C129.55 87.6823 129.661 87.6133 129.785 87.5581C129.909 87.5029 130.048 87.4753 130.186 87.4753C130.324 87.4753 130.463 87.5029 130.587 87.5581C130.711 87.6133 130.822 87.6823 130.919 87.7789C131.016 87.8755 131.085 87.9858 131.14 88.11C131.195 88.2342 131.223 88.3722 131.223 88.5101C131.223 88.6481 131.195 88.7861 131.14 88.9102C131.085 89.0344 131.016 89.1448 130.919 89.2414C130.822 89.3379 130.711 89.4069 130.587 89.4621C130.463 89.5173 130.324 89.5449 130.186 89.5449C130.048 89.5449 129.909 89.5173 129.785 89.4621C129.661 89.4069 129.55 89.3379 129.453 89.2414C129.356 89.1448 129.287 89.0344 129.232 88.9102C129.177 88.7861 129.149 88.6481 129.149 88.5101Z" fill="white"/><path d="M139.782 86.5786H137.667V98.2095H139.782V86.5786Z" fill="white"/><path d="M140.778 99.741C141.248 99.6444 141.635 99.534 141.926 99.3961C142.216 99.2581 142.451 99.0787 142.603 98.8718C142.769 98.6648 142.88 98.4165 142.935 98.1405C142.99 97.8508 143.018 97.5197 143.018 97.1471V91.5593H145.134V96.7194C145.134 97.5059 145.064 98.1681 144.912 98.7338C144.76 99.2995 144.525 99.7548 144.193 100.141C143.861 100.514 143.447 100.817 142.921 101.038C142.41 101.259 141.787 101.424 141.054 101.535L140.792 99.741H140.778Z" fill="white"/><path d="M147.235 86.5785H149.351V95.0775C149.351 95.3534 149.365 95.5742 149.406 95.7397C149.448 95.9191 149.503 96.0571 149.586 96.1537C149.669 96.2502 149.766 96.333 149.89 96.3744C150.015 96.4158 150.153 96.4296 150.319 96.4296H150.72C150.872 96.4296 150.996 96.4296 151.079 96.4572C151.162 96.4848 151.231 96.5124 151.273 96.5676C151.314 96.6228 151.342 96.6779 151.342 96.7469C151.342 96.8159 151.342 96.9125 151.342 97.0091V97.5748C151.342 97.7127 151.342 97.8231 151.314 97.9059C151.301 97.9887 151.273 98.0439 151.218 98.0991C151.162 98.1404 151.107 98.168 151.024 98.1818C150.941 98.1956 150.844 98.2094 150.706 98.2094H149.793C149.337 98.2094 148.95 98.1404 148.632 98.0163C148.314 97.8921 148.037 97.6989 147.83 97.4644C147.622 97.2298 147.47 96.9401 147.374 96.609C147.277 96.2778 147.221 95.9053 147.221 95.5052V86.5647L147.235 86.5785Z" fill="white"/><path d="M156.375 98.2923C155.988 98.2923 155.642 98.2647 155.352 98.1958C155.048 98.1268 154.785 98.044 154.536 97.9474C154.301 97.837 154.08 97.7266 153.9 97.5887C153.72 97.4507 153.555 97.3265 153.402 97.2024C152.918 97.8784 152.227 98.2095 151.314 98.2095H150.678C150.554 98.2095 150.443 98.2095 150.36 98.182C150.277 98.1682 150.222 98.1406 150.167 98.0992C150.125 98.0578 150.084 97.9888 150.07 97.906C150.056 97.8232 150.042 97.7128 150.042 97.5749V97.0092C150.042 96.9126 150.042 96.816 150.042 96.7471C150.042 96.6781 150.07 96.6091 150.111 96.5677C150.153 96.5263 150.222 96.4849 150.305 96.4573C150.388 96.4297 150.512 96.4297 150.665 96.4297H151.052C151.314 96.4297 151.55 96.3607 151.743 96.2228C151.937 96.0848 152.089 95.864 152.186 95.5605C152.448 94.6775 152.753 93.9738 153.098 93.422C153.444 92.8839 153.79 92.4562 154.149 92.1664C154.509 91.8767 154.868 91.6697 155.214 91.5732C155.56 91.4766 155.878 91.4214 156.154 91.4214C156.555 91.4214 156.915 91.4766 157.246 91.5732C157.578 91.6835 157.869 91.8215 158.131 92.0009C158.394 92.1802 158.615 92.3872 158.809 92.6217C159.003 92.8563 159.155 93.1184 159.293 93.3806C159.417 93.6427 159.514 93.9187 159.583 94.2084C159.639 94.4981 159.68 94.7603 159.68 95.0362C159.68 95.4501 159.611 95.864 159.459 96.2504C159.307 96.6367 159.099 96.9816 158.823 97.2851C158.546 97.5887 158.187 97.8232 157.786 98.0026C157.371 98.182 156.901 98.2785 156.362 98.2785M157.744 95.0224C157.744 94.8293 157.703 94.6361 157.634 94.4154C157.565 94.1946 157.454 93.9876 157.316 93.8083C157.177 93.6151 156.998 93.4634 156.79 93.3392C156.583 93.215 156.348 93.146 156.071 93.146C155.795 93.146 155.573 93.2288 155.352 93.3806C155.131 93.5323 154.937 93.7531 154.771 94.0014C154.605 94.2636 154.453 94.5533 154.329 94.8982C154.204 95.2294 154.108 95.5743 154.039 95.9192C154.108 95.9882 154.218 96.0572 154.37 96.14C154.522 96.209 154.675 96.278 154.868 96.3469C155.048 96.4021 155.242 96.4573 155.435 96.4987C155.629 96.5401 155.822 96.5539 156.002 96.5539C156.265 96.5539 156.514 96.5263 156.721 96.4711C156.942 96.4159 157.122 96.3193 157.274 96.209C157.426 96.0848 157.551 95.933 157.634 95.7399C157.717 95.5467 157.758 95.3122 157.758 95.0224" fill="white"/><path d="M171.434 86.5647V98.2094H161.436V96.4296H165.073V89.2965H167.188V96.4296H169.332V86.5647H171.447H171.434ZM167.465 100.417C167.382 100.403 167.271 100.389 167.133 100.376C166.995 100.362 166.884 100.348 166.787 100.348C166.622 100.348 166.469 100.389 166.359 100.458C166.248 100.527 166.193 100.665 166.193 100.845C166.193 101.024 166.276 101.19 166.428 101.328C166.594 101.466 166.829 101.535 167.175 101.535H167.645V102.514H164.63V101.535H165.419C165.336 101.424 165.253 101.3 165.183 101.134C165.114 100.983 165.073 100.817 165.073 100.638C165.073 100.472 165.101 100.32 165.17 100.169C165.239 100.017 165.336 99.8789 165.46 99.7547C165.584 99.6305 165.764 99.5339 165.972 99.465C166.179 99.396 166.428 99.3546 166.718 99.3546C166.843 99.3546 166.981 99.3546 167.119 99.3546C167.258 99.3546 167.424 99.3822 167.617 99.4098L167.451 100.403L167.465 100.417Z" fill="white"/><path d="M175.831 86.5786H173.715V98.2095H175.831V86.5786Z" fill="white"/><path d="M3.84406 112.131H6.16708V118.822C6.16708 119.236 6.20857 119.636 6.26388 120.023C6.33301 120.409 6.45746 120.768 6.63722 121.071C6.81698 121.375 7.06587 121.623 7.37008 121.802C7.67428 121.996 8.07528 122.078 8.55924 122.078C9.04321 122.078 9.45803 121.982 9.76224 121.802C10.0803 121.623 10.3153 121.375 10.4951 121.071C10.6749 120.768 10.7993 120.423 10.8546 120.023C10.9237 119.623 10.9514 119.222 10.9514 118.809V112.117H13.2744V119.512C13.2744 120.285 13.1638 120.961 12.9564 121.513C12.7352 122.065 12.4309 122.52 12.0299 122.879C11.629 123.237 11.1312 123.486 10.5366 123.651C9.95582 123.817 9.2921 123.9 8.54542 123.9C7.79873 123.9 7.13501 123.817 6.55425 123.651C5.9735 123.486 5.47571 123.224 5.06088 122.879C4.65988 122.52 4.34185 122.078 4.13444 121.513C3.9132 120.961 3.81641 120.299 3.81641 119.512V112.117L3.84406 112.131Z" fill="white"/><path d="M15.7357 112.131H18.5842L23.009 120.795H23.0505V112.131H25.2767V123.706H22.4282L17.9896 115.056H17.9619V123.706H15.7357V112.131Z" fill="white"/><path d="M29.8951 112.131H27.5721V123.706H29.8951V112.131Z" fill="white"/><path d="M34.4167 113.966H31.0842V112.131H40.0583V113.966H36.7397V123.706H34.4167V113.966Z" fill="white"/><path d="M41.4687 112.131H48.3133V113.966H43.7917V116.808H47.9261V118.629H43.7917V121.885H48.341V123.706H41.4687V112.131Z" fill="white"/><path d="M50.6225 112.131H53.955C54.3283 112.131 54.7155 112.158 55.1165 112.186C55.5175 112.227 55.9046 112.296 56.3056 112.393C56.6928 112.489 57.08 112.614 57.4395 112.751C57.8128 112.903 58.1585 113.083 58.4766 113.29C58.8637 113.552 59.1818 113.855 59.4445 114.2C59.7072 114.545 59.9008 114.931 60.0667 115.332C60.2188 115.732 60.3294 116.159 60.3848 116.601C60.4401 117.042 60.4816 117.484 60.4816 117.912C60.4816 118.988 60.3156 119.885 59.9838 120.63C59.6519 121.361 59.1956 121.968 58.6148 122.423C58.0203 122.879 57.3289 123.21 56.4992 123.403C55.6696 123.596 54.7708 123.706 53.7752 123.706H50.6087V112.131H50.6225ZM52.9594 121.885H54.2453C54.8261 121.885 55.3377 121.789 55.8079 121.582C56.278 121.375 56.679 121.099 57.0108 120.74C57.3427 120.381 57.6054 119.967 57.7852 119.484C57.9649 119.002 58.0617 118.477 58.0617 117.912C58.0617 117.346 57.9649 116.822 57.7852 116.339C57.6054 115.856 57.3427 115.442 57.0108 115.083C56.679 114.724 56.2642 114.449 55.794 114.255C55.3239 114.048 54.7984 113.952 54.2315 113.952H52.9456V121.885H52.9594Z" fill="white"/><path d="M70.3959 112.131H73.0231L77.5724 123.706H75.0005L74.0049 121.057H69.3035L68.2941 123.706H65.8881L70.4097 112.131H70.3959ZM71.6818 114.462H71.6542L69.9811 119.236H73.3688L71.6957 114.462H71.6818Z" fill="white"/><path d="M78.803 112.131H81.9833C82.3705 112.131 82.7576 112.131 83.1448 112.158C83.532 112.172 83.9053 112.213 84.251 112.282C84.6105 112.351 84.9424 112.448 85.2466 112.586C85.5508 112.71 85.8274 112.903 86.0486 113.138C86.2837 113.372 86.4496 113.662 86.5879 114.007C86.7123 114.352 86.7814 114.78 86.7814 115.29C86.7814 115.663 86.7261 115.994 86.6155 116.297C86.5049 116.601 86.339 116.877 86.1316 117.098C85.9241 117.332 85.6753 117.525 85.371 117.663C85.0807 117.815 84.7488 117.912 84.3893 117.953V117.981C84.5552 118.008 84.6935 118.05 84.8179 118.132C84.9424 118.215 85.053 118.298 85.1636 118.408C85.2604 118.519 85.3434 118.643 85.4264 118.767C85.4955 118.905 85.5646 119.043 85.6199 119.181L87.4728 123.706H84.8871L83.4905 120.092C83.4075 119.871 83.3246 119.678 83.2416 119.526C83.1586 119.374 83.0618 119.25 82.9374 119.153C82.813 119.057 82.6747 118.988 82.5087 118.946C82.3428 118.905 82.1354 118.891 81.8865 118.891H81.1398V123.706H78.8168V112.131H78.803ZM81.126 117.084H81.8865C82.0663 117.084 82.2737 117.084 82.4811 117.056C82.7023 117.042 82.9097 117.001 83.1172 116.946C83.3246 116.891 83.5182 116.808 83.7117 116.711C83.8915 116.615 84.0436 116.477 84.1404 116.311C84.2234 116.201 84.2648 116.063 84.2925 115.897C84.3202 115.732 84.334 115.594 84.334 115.456C84.334 115.083 84.2648 114.793 84.1127 114.6C83.9606 114.393 83.7671 114.242 83.532 114.145C83.2969 114.048 83.0342 113.993 82.7438 113.979C82.4534 113.966 82.1631 113.952 81.8865 113.952H81.126V117.07V117.084Z" fill="white"/><path d="M92.3955 112.131H95.0227L99.5719 123.706H97L96.0044 121.057H91.3031L90.2937 123.706H87.8877L92.4093 112.131H92.3955ZM93.6676 114.462H93.6399L91.9668 119.236H95.3545L93.6814 114.462H93.6676Z" fill="white"/><path d="M100.996 112.131H105.061C105.573 112.131 106.057 112.172 106.499 112.269C106.956 112.365 107.343 112.517 107.689 112.751C108.034 112.972 108.297 113.29 108.491 113.662C108.684 114.048 108.781 114.518 108.781 115.097C108.781 115.456 108.726 115.773 108.615 116.077C108.504 116.366 108.339 116.628 108.145 116.835C107.938 117.056 107.702 117.236 107.412 117.373C107.122 117.511 106.818 117.622 106.472 117.691V117.718C106.845 117.746 107.191 117.829 107.509 117.967C107.827 118.105 108.117 118.27 108.352 118.505C108.587 118.726 108.781 118.988 108.919 119.305C109.058 119.622 109.127 119.967 109.127 120.354C109.127 120.961 109.016 121.485 108.795 121.913C108.574 122.34 108.283 122.685 107.91 122.948C107.537 123.21 107.108 123.403 106.61 123.527C106.112 123.651 105.601 123.706 105.048 123.706H100.982V112.131H100.996ZM103.319 116.808H104.329C104.564 116.808 104.813 116.794 105.061 116.753C105.31 116.711 105.545 116.642 105.753 116.546C105.96 116.449 106.126 116.297 106.264 116.118C106.403 115.939 106.458 115.704 106.458 115.401C106.458 115.042 106.389 114.766 106.264 114.573C106.126 114.38 105.96 114.242 105.753 114.145C105.545 114.048 105.296 113.993 105.034 113.979C104.771 113.966 104.494 113.952 104.218 113.952H103.319V116.808ZM103.319 121.885H104.412C104.688 121.885 104.965 121.858 105.241 121.816C105.532 121.775 105.78 121.692 106.016 121.582C106.251 121.471 106.43 121.306 106.582 121.085C106.735 120.878 106.804 120.602 106.804 120.271C106.804 119.954 106.748 119.678 106.652 119.429C106.541 119.181 106.347 118.974 106.057 118.836C105.933 118.767 105.808 118.712 105.684 118.67C105.559 118.629 105.421 118.588 105.283 118.574C105.144 118.56 104.992 118.546 104.84 118.546C104.688 118.546 104.55 118.546 104.398 118.546H103.305V121.899L103.319 121.885Z" fill="white"/><path d="M115.598 112.131H122.443V113.966H117.921V116.808H122.069V118.629H117.921V121.885H122.484V123.706H115.598V112.131Z" fill="white"/><path d="M124.752 112.131H128.485L131.237 120.906H131.278L134.03 112.131H137.75V123.706H135.523V114.159H135.496L132.371 123.706H130.145L127.02 114.159L126.978 114.186V123.706H124.752V112.131Z" fill="white"/><path d="M142.479 112.131H140.156V123.706H142.479V112.131Z" fill="white"/><path d="M144.691 112.131H147.871C148.259 112.131 148.646 112.131 149.033 112.158C149.42 112.172 149.793 112.213 150.139 112.282C150.499 112.351 150.831 112.448 151.135 112.586C151.439 112.71 151.715 112.903 151.937 113.138C152.158 113.372 152.338 113.662 152.476 114.007C152.6 114.352 152.67 114.78 152.67 115.29C152.67 115.663 152.614 115.994 152.504 116.297C152.393 116.601 152.227 116.877 152.02 117.098C151.812 117.332 151.55 117.525 151.259 117.663C150.969 117.815 150.637 117.912 150.277 117.953V117.981C150.443 118.008 150.582 118.05 150.706 118.132C150.831 118.215 150.941 118.298 151.052 118.408C151.149 118.519 151.232 118.643 151.314 118.767C151.384 118.905 151.453 119.043 151.508 119.181L153.361 123.706H150.775L149.379 120.092C149.296 119.871 149.213 119.678 149.13 119.526C149.047 119.374 148.95 119.25 148.826 119.153C148.701 119.057 148.563 118.988 148.397 118.946C148.231 118.905 148.024 118.891 147.775 118.891H147.028V123.706H144.705V112.131H144.691ZM147.028 117.084H147.788C147.968 117.084 148.176 117.084 148.383 117.056C148.604 117.042 148.812 117.001 149.019 116.946C149.227 116.891 149.42 116.808 149.614 116.711C149.793 116.615 149.932 116.477 150.042 116.311C150.125 116.201 150.167 116.063 150.194 115.897C150.222 115.732 150.236 115.594 150.236 115.456C150.236 115.083 150.167 114.793 150.015 114.6C149.863 114.393 149.669 114.242 149.434 114.145C149.199 114.048 148.936 113.993 148.646 113.979C148.355 113.966 148.065 113.952 147.788 113.952H147.028V117.07V117.084Z" fill="white"/><path d="M158.284 112.131H160.911L165.46 123.706H162.888L161.893 121.057H157.191L156.182 123.706H153.776L158.297 112.131H158.284ZM159.569 114.462H159.542L157.869 119.236H161.256L159.583 114.462H159.569Z" fill="white"/><path d="M167.672 113.966H164.34V112.131H173.314V113.966H169.995V123.706H167.672V113.966Z" fill="white"/><path d="M174.724 112.131H181.569V113.966H177.047V116.808H181.182V118.629H177.047V121.885H181.597V123.706H174.724V112.131Z" fill="white"/><path d="M190.114 114.269C189.741 114.104 189.354 113.98 188.953 113.897C188.552 113.814 188.151 113.773 187.75 113.773C187.487 113.773 187.252 113.8 187.031 113.869C186.81 113.938 186.616 114.035 186.45 114.173C186.284 114.297 186.16 114.476 186.063 114.669C185.966 114.876 185.925 115.111 185.925 115.387C185.925 115.594 185.98 115.773 186.091 115.925C186.201 116.077 186.353 116.215 186.547 116.339C186.741 116.463 186.948 116.573 187.211 116.67C187.46 116.78 187.722 116.877 187.999 116.987C188.275 117.098 188.552 117.208 188.828 117.332C189.105 117.456 189.368 117.608 189.63 117.774C189.879 117.939 190.114 118.146 190.322 118.367C190.529 118.588 190.695 118.85 190.82 119.153C190.889 119.347 190.944 119.554 190.972 119.774C190.999 120.009 191.013 120.216 191.013 120.423C191.013 121.071 190.889 121.609 190.654 122.051C190.419 122.492 190.101 122.865 189.7 123.141C189.299 123.417 188.842 123.624 188.317 123.748C187.791 123.872 187.238 123.927 186.671 123.927C186.16 123.927 185.662 123.886 185.164 123.789C184.666 123.693 184.182 123.596 183.685 123.472L183.906 121.375C184.307 121.596 184.736 121.775 185.178 121.899C185.62 122.023 186.077 122.092 186.533 122.092C186.754 122.092 186.989 122.065 187.224 122.009C187.473 121.954 187.695 121.872 187.888 121.747C188.096 121.623 188.248 121.471 188.386 121.292C188.524 121.113 188.58 120.878 188.58 120.616C188.58 120.492 188.566 120.368 188.538 120.243C188.51 120.119 188.455 120.009 188.386 119.899C188.317 119.802 188.234 119.719 188.123 119.623C188.013 119.526 187.902 119.457 187.805 119.388C187.529 119.236 187.238 119.098 186.948 118.974C186.658 118.85 186.353 118.74 186.063 118.629C185.911 118.574 185.759 118.505 185.607 118.422C185.455 118.339 185.302 118.257 185.164 118.174C184.888 118.008 184.653 117.843 184.445 117.663C184.238 117.484 184.072 117.291 183.934 117.084C183.795 116.863 183.685 116.629 183.615 116.366C183.546 116.104 183.505 115.815 183.505 115.483C183.505 115.221 183.533 114.959 183.574 114.683C183.615 114.421 183.698 114.173 183.795 113.924C183.892 113.69 184.03 113.469 184.196 113.262C184.362 113.055 184.556 112.876 184.777 112.724C185.178 112.448 185.62 112.255 186.104 112.131C186.588 112.007 187.059 111.951 187.556 111.951C188.054 111.951 188.497 111.979 188.967 112.048C189.423 112.117 189.893 112.214 190.336 112.365L190.114 114.283V114.269Z" fill="white"/><path d="M194 129.667H0V131.64H194V129.667Z" fill="white"/><path d="M0 137.807H1.12003L5.71076 145.727H5.73842V137.807H6.62338V146.803H5.43421L0.912616 139.035H0.884961V146.803H0V137.807Z" fill="white"/><path d="M11.4907 137.807H12.5001L16.0814 146.817H15.1549L14.187 144.402H9.63776L8.66984 146.817H7.79871L11.4907 137.807ZM9.96963 143.616H13.8828L11.9331 138.649L9.96963 143.616Z" fill="white"/><path d="M18.1555 138.58H15.4868V137.807H21.7092V138.58H19.0543V146.803H18.1555V138.58Z" fill="white"/><path d="M23.7142 137.807H22.8292V146.817H23.7142V137.807Z" fill="white"/><path d="M29.3558 146.955C28.6644 146.955 28.0699 146.83 27.5721 146.568C27.0743 146.32 26.6595 145.975 26.3414 145.547C26.0234 145.12 25.7745 144.623 25.6224 144.043C25.4703 143.478 25.3873 142.884 25.3873 142.25C25.3873 141.67 25.4703 141.105 25.6224 140.566C25.7745 140.028 26.0234 139.518 26.3553 139.035C26.535 138.787 26.7286 138.58 26.9498 138.4C27.1711 138.221 27.4061 138.083 27.6689 137.959C27.9178 137.848 28.1943 137.766 28.4709 137.71C28.7612 137.655 29.0516 137.628 29.342 137.628C30.0057 137.628 30.5865 137.752 31.0843 137.986C31.5821 138.221 31.9969 138.552 32.3287 138.966C32.6606 139.38 32.9095 139.863 33.0616 140.415C33.2275 140.967 33.3105 141.546 33.3105 142.167C33.3105 142.788 33.2414 143.409 33.0893 143.988C32.951 144.568 32.7159 145.078 32.3979 145.506C32.0798 145.947 31.665 146.292 31.1672 146.541C30.6694 146.789 30.061 146.927 29.342 146.927M29.3558 138.428C28.8719 138.428 28.4294 138.524 28.0284 138.731C27.6274 138.925 27.2955 139.228 27.0328 139.642C26.7701 140.042 26.5903 140.47 26.4659 140.925C26.3414 141.38 26.2861 141.836 26.2861 142.319C26.2861 142.802 26.3414 143.257 26.4659 143.698C26.5903 144.14 26.7701 144.554 27.0466 144.968C27.3232 145.395 27.655 145.699 28.0284 145.906C28.4156 146.113 28.858 146.209 29.3558 146.209C29.8536 146.209 30.3099 146.113 30.6971 145.906C31.0843 145.699 31.43 145.395 31.6927 144.968C31.9554 144.568 32.1352 144.14 32.2596 143.698C32.3702 143.257 32.4394 142.802 32.4394 142.319C32.4394 141.836 32.384 141.38 32.2596 140.925C32.1352 140.47 31.9554 140.042 31.6927 139.642C31.43 139.242 31.0981 138.938 30.6833 138.731C30.2823 138.538 29.8398 138.428 29.3558 138.428Z" fill="white"/><path d="M35.0251 137.807H36.1451L40.7358 145.727H40.7635V137.807H41.6485V146.803H40.4455L35.9377 139.035H35.91V146.803H35.0251V137.807Z" fill="white"/><path d="M46.5019 137.807H47.5114L51.0927 146.817H50.1662L49.1983 144.402H44.6491L43.6811 146.817H42.81L46.5019 137.807ZM44.9809 143.616H48.8941L46.9444 138.649L44.9809 143.616Z" fill="white"/><path d="M52.2957 137.807H53.1944V146.03H56.8173V146.803H52.2957V137.807Z" fill="white"/><path d="M61.6984 137.807H63.9108C64.3394 137.807 64.7128 137.862 65.0585 137.959C65.4041 138.055 65.6945 138.207 65.9434 138.428C66.1923 138.635 66.3721 138.897 66.5103 139.214C66.6486 139.532 66.7039 139.918 66.7039 140.36C66.7039 140.801 66.621 141.16 66.4827 141.477C66.3306 141.794 66.1232 142.057 65.8604 142.277C65.5977 142.484 65.2935 142.65 64.9478 142.76C64.6021 142.871 64.2288 142.926 63.8278 142.926H62.5833V146.817H61.6984V137.821V137.807ZM62.5833 142.139H63.2056C63.3715 142.139 63.5374 142.139 63.6895 142.126C63.8555 142.112 64.0214 142.098 64.1735 142.07C64.4362 142.043 64.6851 141.988 64.8787 141.905C65.0861 141.836 65.252 141.725 65.3903 141.588C65.5286 141.45 65.6254 141.284 65.6945 141.077C65.7637 140.87 65.7913 140.636 65.7913 140.346C65.7913 139.766 65.6392 139.325 65.335 139.021C65.0308 138.718 64.5883 138.566 64.0076 138.566H62.5557V142.126L62.5833 142.139Z" fill="white"/><path d="M69.9534 137.807H70.9628L74.5441 146.817H73.6177L72.6497 144.402H68.1005L67.1325 146.817H66.2614L69.9534 137.807ZM68.4323 143.616H72.3455L70.3958 138.649L68.4323 143.616Z" fill="white"/><path d="M78.4573 146.803H77.5032L74.1431 137.807H75.0834L78.001 145.92L81.0016 137.807H81.8865L78.4573 146.803Z" fill="white"/><path d="M83.8362 137.807H82.9512V146.817H83.8362V137.807Z" fill="white"/><path d="M85.8688 137.807H86.7538V146.03H90.3766V146.803H85.8688V137.807Z" fill="white"/><path d="M92.4508 137.807H91.5658V146.817H92.4508V137.807Z" fill="white"/><path d="M98.0924 146.955C97.401 146.955 96.8064 146.83 96.3087 146.568C95.8109 146.32 95.396 145.975 95.078 145.547C94.76 145.12 94.5249 144.623 94.359 144.043C94.2069 143.478 94.1239 142.884 94.1239 142.25C94.1239 141.67 94.2069 141.105 94.359 140.566C94.5111 140.028 94.76 139.518 95.0918 139.035C95.2716 138.787 95.4652 138.58 95.6864 138.4C95.9076 138.221 96.1427 138.083 96.4054 137.959C96.6543 137.848 96.9309 137.766 97.2074 137.71C97.4978 137.655 97.7882 137.628 98.0786 137.628C98.7423 137.628 99.3231 137.752 99.8208 137.986C100.319 138.221 100.733 138.552 101.065 138.966C101.397 139.38 101.646 139.863 101.798 140.415C101.964 140.967 102.047 141.546 102.047 142.167C102.047 142.788 101.978 143.409 101.826 143.988C101.688 144.568 101.452 145.078 101.134 145.506C100.816 145.947 100.402 146.292 99.9038 146.541C99.406 146.789 98.7976 146.927 98.0786 146.927M98.0924 138.428C97.6084 138.428 97.166 138.524 96.765 138.731C96.364 138.925 96.0321 139.228 95.7694 139.642C95.5067 140.042 95.3269 140.47 95.2024 140.925C95.078 141.38 95.0227 141.836 95.0227 142.319C95.0227 142.802 95.078 143.257 95.2024 143.698C95.3131 144.14 95.5066 144.554 95.7832 144.968C96.0597 145.395 96.3916 145.699 96.765 145.906C97.1383 146.113 97.5946 146.209 98.0924 146.209C98.5902 146.209 99.0465 146.113 99.4337 145.906C99.8208 145.699 100.167 145.395 100.429 144.968C100.692 144.568 100.872 144.14 100.996 143.698C101.107 143.257 101.176 142.802 101.176 142.319C101.176 141.836 101.121 141.38 100.996 140.925C100.872 140.47 100.692 140.042 100.429 139.642C100.167 139.242 99.8347 138.938 99.4198 138.731C99.0188 138.538 98.5764 138.428 98.0924 138.428Z" fill="white"/><path d="M103.762 137.807H104.882L109.472 145.727H109.5V137.807H110.385V146.803H109.196L104.674 139.035H104.647V146.803H103.762V137.807Z" fill="white"/><path d="M118.751 142.885H115.501V143.781H118.751V142.885Z" fill="white"/><path d="M129.84 144.444C129.84 143.616 130.048 142.981 130.476 142.553C130.905 142.139 131.569 141.919 132.454 141.919H134.058V144.513C134.058 144.844 134.072 145.106 134.113 145.299C134.155 145.492 134.21 145.644 134.293 145.74C134.376 145.837 134.473 145.906 134.583 145.947C134.708 145.975 134.832 145.989 134.998 145.989H135.468C135.662 145.989 135.745 146.03 135.745 146.127V146.61C135.745 146.692 135.717 146.734 135.662 146.761C135.606 146.775 135.537 146.789 135.468 146.789H134.804C134.611 146.789 134.417 146.761 134.224 146.692C134.044 146.637 133.878 146.527 133.726 146.389C133.588 146.251 133.463 146.072 133.38 145.837C133.297 145.616 133.242 145.327 133.242 144.995V142.678H132.772C132.44 142.678 132.136 142.705 131.873 142.747C131.61 142.788 131.375 142.884 131.195 143.009C131.016 143.147 130.864 143.326 130.767 143.574C130.67 143.823 130.615 144.154 130.615 144.554V146.279C130.615 146.679 130.546 147.065 130.393 147.451C130.241 147.838 130.006 148.183 129.702 148.486C129.384 148.79 128.983 149.038 128.499 149.217C128.015 149.411 127.421 149.493 126.743 149.493C126.218 149.493 125.747 149.438 125.346 149.342C124.945 149.245 124.6 149.093 124.309 148.928C124.019 148.762 123.784 148.555 123.59 148.334C123.397 148.114 123.245 147.879 123.134 147.658C123.023 147.438 122.94 147.189 122.899 146.968C122.857 146.734 122.83 146.527 122.83 146.348C122.83 145.892 122.885 145.451 122.996 145.051C123.106 144.651 123.272 144.306 123.466 144.03C123.576 144.099 123.687 144.154 123.784 144.209C123.881 144.264 123.991 144.319 124.102 144.375C123.95 144.637 123.839 144.926 123.742 145.258C123.659 145.589 123.618 145.906 123.618 146.223C123.618 146.389 123.632 146.568 123.673 146.748C123.715 146.941 123.784 147.12 123.881 147.3C123.977 147.479 124.116 147.644 124.268 147.81C124.434 147.976 124.641 148.114 124.89 148.238C125.139 148.362 125.429 148.459 125.761 148.527C126.093 148.596 126.48 148.638 126.923 148.638C127.421 148.638 127.849 148.569 128.209 148.445C128.568 148.307 128.872 148.141 129.094 147.934C129.329 147.727 129.495 147.479 129.605 147.203C129.716 146.927 129.771 146.651 129.771 146.375V144.388L129.84 144.444ZM125.775 150.928C125.775 150.776 125.83 150.652 125.927 150.556C126.024 150.459 126.148 150.404 126.287 150.404C126.425 150.404 126.549 150.459 126.646 150.556C126.743 150.652 126.798 150.776 126.798 150.928C126.798 151.066 126.743 151.19 126.646 151.287C126.549 151.383 126.425 151.439 126.287 151.439C126.135 151.439 126.01 151.383 125.927 151.287C125.83 151.19 125.775 151.066 125.775 150.928ZM127.407 150.928C127.407 150.776 127.462 150.652 127.559 150.556C127.656 150.459 127.78 150.404 127.918 150.404C128.057 150.404 128.181 150.459 128.278 150.556C128.375 150.652 128.43 150.776 128.43 150.928C128.43 151.066 128.375 151.19 128.278 151.287C128.181 151.383 128.057 151.439 127.918 151.439C127.78 151.439 127.656 151.383 127.559 151.287C127.462 151.19 127.407 151.066 127.407 150.928Z" fill="white"/><path d="M135.15 146.803C134.97 146.803 134.874 146.761 134.874 146.665V146.196C134.874 146.113 134.901 146.058 134.956 146.044C135.012 146.03 135.067 146.016 135.15 146.016H136.478C136.63 146.016 136.754 146.003 136.865 145.975C136.975 145.947 137.058 145.892 137.114 145.823C137.183 145.754 137.224 145.644 137.252 145.52C137.28 145.396 137.293 145.23 137.293 145.023V141.96H138.095V145.285C138.095 145.285 138.095 145.409 138.095 145.465C138.095 145.52 138.095 145.589 138.082 145.644C138.524 145.892 139.077 146.016 139.768 146.016H139.838C140.017 146.016 140.114 146.072 140.114 146.168V146.651C140.114 146.734 140.087 146.775 140.031 146.803C139.976 146.817 139.921 146.83 139.838 146.83H139.755C139.52 146.83 139.312 146.83 139.119 146.789C138.925 146.761 138.759 146.734 138.607 146.692C138.455 146.651 138.317 146.596 138.192 146.527C138.068 146.458 137.943 146.389 137.819 146.306C137.708 146.458 137.57 146.582 137.39 146.679C137.21 146.775 136.975 146.817 136.699 146.817H135.15V146.803ZM138.22 139.822C138.22 139.973 138.164 140.097 138.068 140.194C137.971 140.291 137.846 140.346 137.708 140.346C137.57 140.346 137.445 140.291 137.349 140.194C137.252 140.097 137.197 139.973 137.197 139.822C137.197 139.684 137.252 139.559 137.349 139.463C137.445 139.366 137.57 139.311 137.708 139.311C137.846 139.311 137.971 139.366 138.068 139.463C138.164 139.559 138.22 139.684 138.22 139.822Z" fill="white"/><path d="M139.464 146.803C139.285 146.803 139.188 146.761 139.188 146.665V146.196C139.188 146.113 139.215 146.058 139.271 146.044C139.326 146.03 139.395 146.016 139.464 146.016H140.916C140.985 145.796 141.082 145.547 141.193 145.271C141.303 144.995 141.442 144.719 141.608 144.43V137.766H142.41V143.215C142.603 142.967 142.811 142.746 143.046 142.526C143.267 142.305 143.516 142.125 143.778 141.96C144.041 141.794 144.318 141.67 144.608 141.587C144.899 141.491 145.203 141.449 145.521 141.449C146.005 141.449 146.42 141.532 146.765 141.698C147.111 141.863 147.401 142.084 147.623 142.374C147.844 142.664 148.01 142.995 148.106 143.381C148.203 143.767 148.259 144.181 148.259 144.623V146.816H139.45L139.464 146.803ZM147.457 144.747C147.457 144.264 147.401 143.85 147.291 143.533C147.18 143.215 147.042 142.953 146.848 142.746C146.655 142.553 146.433 142.415 146.184 142.332C145.936 142.25 145.659 142.208 145.355 142.208C145.051 142.208 144.76 142.263 144.484 142.374C144.207 142.484 143.931 142.636 143.696 142.829C143.447 143.022 143.225 143.243 143.004 143.491C142.797 143.74 142.603 144.002 142.437 144.292C142.271 144.568 142.119 144.857 141.995 145.147C141.87 145.437 141.773 145.727 141.704 146.002H147.47V144.747H147.457Z" fill="white"/><path d="M152.946 146.803C152.421 146.803 151.978 146.734 151.619 146.582C151.259 146.43 150.969 146.251 150.748 146.016C150.526 145.782 150.36 145.52 150.264 145.23C150.167 144.94 150.125 144.65 150.125 144.361C150.125 143.988 150.194 143.643 150.319 143.326C150.443 143.009 150.623 142.733 150.858 142.484C151.093 142.25 151.37 142.057 151.702 141.919C152.034 141.781 152.407 141.712 152.822 141.712C152.988 141.712 153.167 141.725 153.347 141.767C153.527 141.794 153.707 141.863 153.886 141.946C154.066 142.029 154.232 142.139 154.384 142.277C154.536 142.415 154.675 142.595 154.799 142.815C154.923 143.036 155.02 143.285 155.089 143.588C155.159 143.892 155.186 144.237 155.186 144.637V146.03H156.721C156.915 146.03 157.011 146.072 157.011 146.168V146.651C157.011 146.734 156.984 146.775 156.928 146.803C156.873 146.817 156.804 146.83 156.721 146.83H155.103C155.006 147.313 154.827 147.713 154.578 148.031C154.329 148.348 154.025 148.61 153.679 148.803C153.333 148.997 152.918 149.162 152.476 149.259C152.033 149.369 151.55 149.452 151.052 149.507C151.052 149.369 151.024 149.245 151.01 149.134C150.996 149.01 150.983 148.886 150.969 148.762C151.425 148.721 151.854 148.652 152.241 148.555C152.628 148.458 152.974 148.32 153.278 148.155C153.568 147.989 153.817 147.796 153.997 147.575C154.177 147.355 154.301 147.106 154.343 146.817H152.96L152.946 146.803ZM154.384 146.003V145.009C154.384 144.471 154.329 144.043 154.232 143.698C154.135 143.367 153.997 143.105 153.831 142.912C153.665 142.719 153.472 142.595 153.264 142.526C153.057 142.457 152.849 142.429 152.628 142.429C152.393 142.429 152.158 142.471 151.951 142.581C151.743 142.677 151.55 142.815 151.397 142.981C151.245 143.147 151.121 143.34 151.024 143.56C150.927 143.781 150.886 144.016 150.886 144.264C150.886 144.512 150.927 144.719 150.996 144.94C151.066 145.147 151.19 145.34 151.356 145.492C151.522 145.644 151.729 145.782 151.992 145.865C152.255 145.961 152.559 146.003 152.932 146.003H154.37H154.384Z" fill="white"/><path d="M156.362 146.803C156.168 146.803 156.071 146.761 156.071 146.665V146.196C156.071 146.113 156.099 146.058 156.154 146.044C156.209 146.03 156.279 146.016 156.362 146.016H158.449V137.766H159.251V146.816H156.362V146.803Z" fill="white"/><path d="M162.321 137.766H161.519V146.816H162.321V137.766Z" fill="white"/><path d="M172.581 146.003C172.484 145.92 172.401 145.837 172.332 145.727C172.263 145.63 172.208 145.52 172.153 145.396C172.097 145.271 172.07 145.161 172.042 145.037C172.014 144.913 171.987 144.802 171.959 144.678C171.931 144.485 171.89 144.306 171.848 144.112C171.807 143.919 171.765 143.74 171.696 143.561C171.641 143.381 171.558 143.216 171.475 143.064C171.378 142.912 171.268 142.774 171.129 142.664C170.991 142.553 170.825 142.457 170.632 142.402C170.438 142.333 170.203 142.305 169.94 142.305C169.857 142.305 169.774 142.305 169.664 142.319C169.553 142.333 169.456 142.346 169.359 142.36C169.249 142.374 169.152 142.402 169.041 142.429C168.931 142.457 168.834 142.484 168.737 142.498V141.822C168.972 141.753 169.221 141.698 169.47 141.643C169.719 141.601 169.982 141.574 170.272 141.574C170.59 141.574 170.88 141.629 171.129 141.725C171.378 141.822 171.599 141.96 171.779 142.139C171.959 142.319 172.097 142.54 172.208 142.788C172.318 143.036 172.388 143.312 172.429 143.602C172.471 143.892 172.512 144.168 172.554 144.43C172.595 144.692 172.664 144.94 172.733 145.147C172.802 145.368 172.899 145.547 173.01 145.699C173.12 145.851 173.259 145.947 173.425 146.003V146.83H169.912C169.276 146.83 168.792 146.996 168.447 147.341C168.101 147.686 167.921 148.169 167.921 148.817C167.921 149.079 167.963 149.341 168.06 149.576C168.156 149.824 168.295 150.045 168.502 150.224C168.709 150.418 168.958 150.569 169.276 150.68C169.594 150.79 169.968 150.845 170.41 150.845C170.59 150.845 170.77 150.845 170.963 150.818C171.157 150.79 171.337 150.776 171.53 150.749V151.439C171.309 151.494 171.115 151.535 170.936 151.563C170.756 151.59 170.562 151.604 170.355 151.604C169.802 151.604 169.318 151.521 168.917 151.37C168.516 151.218 168.184 151.011 167.921 150.763C167.659 150.514 167.465 150.225 167.341 149.893C167.216 149.576 167.147 149.231 167.147 148.9C167.147 148.403 167.23 147.976 167.382 147.617C167.534 147.258 167.755 146.968 168.032 146.734C168.308 146.499 168.64 146.334 169.014 146.223C169.387 146.113 169.788 146.058 170.217 146.058H172.54L172.581 146.003Z" fill="white"/><path d="M175.181 137.766H175.983V144.775C175.983 145.009 175.997 145.202 176.038 145.368C176.08 145.533 176.135 145.658 176.218 145.754C176.301 145.851 176.411 145.92 176.55 145.961C176.688 146.002 176.868 146.016 177.075 146.016H177.366C177.559 146.016 177.656 146.058 177.656 146.154V146.637C177.656 146.72 177.628 146.761 177.573 146.789C177.518 146.803 177.449 146.816 177.366 146.816H176.812C176.508 146.816 176.259 146.775 176.052 146.679C175.845 146.582 175.679 146.472 175.554 146.306C175.43 146.154 175.333 145.961 175.278 145.74C175.222 145.52 175.195 145.285 175.195 145.037V137.766H175.181Z" fill="white"/><path d="M177.006 146.803C176.826 146.803 176.729 146.761 176.729 146.665V146.196C176.729 146.113 176.757 146.058 176.812 146.044C176.868 146.03 176.923 146.016 177.006 146.016H178.333C178.486 146.016 178.61 146.003 178.721 145.975C178.831 145.947 178.914 145.892 178.969 145.823C179.039 145.754 179.08 145.644 179.108 145.52C179.135 145.396 179.149 145.23 179.149 145.023V141.96H179.951V145.285C179.951 145.285 179.951 145.409 179.951 145.465C179.951 145.52 179.951 145.589 179.937 145.644C180.38 145.892 180.933 146.016 181.624 146.016H181.694C181.873 146.016 181.97 146.072 181.97 146.168V146.651C181.97 146.734 181.942 146.775 181.887 146.803C181.832 146.817 181.776 146.83 181.694 146.83H181.611C181.375 146.83 181.168 146.83 180.974 146.789C180.781 146.761 180.615 146.734 180.463 146.692C180.311 146.651 180.172 146.596 180.048 146.527C179.924 146.458 179.799 146.389 179.675 146.306C179.564 146.458 179.426 146.582 179.246 146.679C179.066 146.775 178.831 146.817 178.555 146.817H177.006V146.803ZM180.09 139.822C180.09 139.973 180.034 140.097 179.937 140.194C179.841 140.291 179.716 140.346 179.578 140.346C179.44 140.346 179.315 140.291 179.218 140.194C179.122 140.097 179.066 139.973 179.066 139.822C179.066 139.684 179.122 139.559 179.218 139.463C179.315 139.366 179.44 139.311 179.578 139.311C179.716 139.311 179.841 139.366 179.937 139.463C180.034 139.559 180.09 139.684 180.09 139.822Z" fill="white"/><path d="M182.827 141.808C183.062 141.739 183.311 141.67 183.56 141.629C183.809 141.574 184.086 141.56 184.376 141.56C184.694 141.56 184.971 141.601 185.22 141.698C185.468 141.794 185.676 141.932 185.856 142.098C186.035 142.263 186.187 142.484 186.298 142.733C186.409 142.981 186.492 143.257 186.533 143.574C186.575 143.878 186.63 144.181 186.685 144.471C186.741 144.761 186.81 145.023 186.907 145.244C186.989 145.464 187.1 145.644 187.238 145.782C187.377 145.92 187.543 145.989 187.75 145.989H188.4C188.58 145.989 188.676 146.044 188.676 146.14V146.623C188.676 146.706 188.649 146.748 188.593 146.775C188.538 146.789 188.483 146.803 188.4 146.803H181.348C181.168 146.803 181.071 146.761 181.071 146.665V146.196C181.071 146.113 181.099 146.058 181.154 146.044C181.21 146.03 181.279 146.016 181.348 146.016H186.685C186.588 145.947 186.506 145.851 186.436 145.754C186.367 145.658 186.312 145.547 186.257 145.423C186.201 145.299 186.16 145.188 186.132 145.064C186.105 144.94 186.077 144.816 186.049 144.706C186.008 144.43 185.952 144.14 185.883 143.85C185.814 143.56 185.717 143.312 185.565 143.077C185.427 142.857 185.233 142.664 184.998 142.526C184.749 142.388 184.445 142.305 184.044 142.305C183.961 142.305 183.878 142.305 183.768 142.319C183.671 142.319 183.56 142.346 183.463 142.36C183.353 142.374 183.256 142.401 183.145 142.429C183.035 142.457 182.938 142.47 182.841 142.498V141.822L182.827 141.808ZM183.864 148.527C183.864 148.376 183.92 148.251 184.003 148.155C184.1 148.058 184.224 148.003 184.362 148.003C184.501 148.003 184.625 148.058 184.722 148.155C184.819 148.251 184.874 148.376 184.874 148.527C184.874 148.665 184.819 148.789 184.722 148.886C184.625 148.983 184.501 149.038 184.362 149.038C184.21 149.038 184.1 148.983 184.003 148.886C183.906 148.789 183.864 148.665 183.864 148.527Z" fill="white"/><path d="M188.027 146.803C187.833 146.803 187.736 146.761 187.736 146.665V146.196C187.736 146.113 187.764 146.058 187.819 146.044C187.874 146.03 187.944 146.016 188.027 146.016H190.114V137.766H190.916V146.816H188.027V146.803Z" fill="white"/><path d="M194 137.766H193.198V146.816H194V137.766Z" fill="white"/></svg>