<svg xmlns="http://www.w3.org/2000/svg" version="1.2" viewBox="0 0 306 64" width="306" height="64"><title>image</title><style>.s0 { fill: #85754e } </style><g><path fill-rule="evenodd" class="s0" d="m74.2 53.4v7.3h-0.9v-7.3z"/><path fill-rule="evenodd" class="s0" d="m80.2 59.6h-0.1l-2.9-6.2h-1.1v7.3h0.8v-6.2l3 6.2h1v-7.3h-0.7v6.2z"/><path fill-rule="evenodd" class="s0" d="m81.9 54.1h1.8v6.6h0.8v-6.6h1.7v-0.7h-4.3v0.7z"/><path fill-rule="evenodd" class="s0" d="m88 57.2h2.6v-0.7h-2.6v-2.4h2.7v-0.7h-3.5v7.3h3.6v-0.6h-2.8v-2.9z"/><path class="s0" d="m94.8 57.1c0.7-0.2 1.5-0.5 1.5-1.9 0-1.7-1.8-1.8-2.3-1.8h-1.8v7.3h0.8v-3.2h0.8c1.1 0 1.3 0.5 1.5 1.6l0.4 1.6h0.8l-0.4-2c-0.2-0.8-0.3-1.3-1.3-1.6m-1.4-0.3h-0.4v-2.7h0.6c0.9 0 1.9 0 1.9 1.2 0 1.3-1.1 1.5-2.1 1.5z"/><path fill-rule="evenodd" class="s0" d="m102 59.6h-0.1l-2.9-6.2h-1.1v7.3h0.8v-6.2l3 6.2h1v-7.3h-0.7v6.2z"/><path class="s0" d="m106.1 53.4l-2.3 7.3h0.9l0.7-2.2h2.5l0.8 2.2h0.8l-2.4-7.3zm-0.5 4.4l1-3.7 1.1 3.7z"/><path fill-rule="evenodd" class="s0" d="m109.5 54.1h1.7v6.6h0.8v-6.6h1.8v-0.7h-4.3v0.7z"/><path fill-rule="evenodd" class="s0" d="m115.6 53.4v7.3h-0.8v-7.3z"/><path class="s0" d="m119.8 53.3c-2.1 0-2.6 1.9-2.6 3.7 0 1.9 0.5 3.9 2.6 3.9 2.1 0 2.6-2 2.6-3.9 0-1.8-0.5-3.7-2.6-3.7zm0 6.9c-1.5 0-1.7-1.8-1.7-3.2 0-1.3 0.2-3 1.7-3 1.5 0 1.7 1.7 1.7 3 0 1.4-0.3 3.2-1.7 3.2z"/><path fill-rule="evenodd" class="s0" d="m127.9 59.6l-2.9-6.2h-1.1v7.3h0.8v-6.2l3 6.2h1v-7.3h-0.8v6.2z"/><path class="s0" d="m132.1 53.4l-2.3 7.3h0.8l0.7-2.2h2.6l0.7 2.2h0.8l-2.3-7.3zm-0.6 4.4l1.1-3.7 1.1 3.7z"/><path fill-rule="evenodd" class="s0" d="m137.4 53.4h-0.8v7.3h3.4v-0.6h-2.6v-6.7z"/><path fill-rule="evenodd" class="s0" d="m147.6 56.6h-3v-3.2h-0.8v7.3h0.8v-3.4h3v3.4h0.8v-7.3h-0.8v3.2z"/><path class="s0" d="m154 58.2c0 0.8 0 2-1.5 2-1.4 0-1.5-1.2-1.5-2v-4.8h-0.8v5c0 0.9 0.3 2.5 2.2 2.5 2.2 0 2.4-1.6 2.4-2.5v-5h-0.8z"/><path fill-rule="evenodd" class="s0" d="m160.7 59.6h-0.1l-3-6.2h-1v7.3h0.8v-6.2l3 6.2h1v-7.3h-0.7v6.2z"/><path fill-rule="evenodd" class="s0" d="m162.4 54.1h1.8v6.6h0.8v-6.6h1.7v-0.7h-4.3v0.7z"/><path fill-rule="evenodd" class="s0" d="m168.6 53.4v7.3h-0.9v-7.3z"/><path fill-rule="evenodd" class="s0" d="m174.6 59.6h-0.1l-2.9-6.2h-1.1v7.3h0.8v-6.2l3 6.2h1v-7.3h-0.7v6.2z"/><path class="s0" d="m179.6 54c1 0 1.4 0.7 1.4 1.4h0.9c0-1.2-0.9-2.1-2.3-2.1-2 0-2.7 1.6-2.7 3.5 0 2.1 0.6 4.1 2.9 4.1 1.1 0 1.9-0.6 2.1-0.7v-3.6h-2.5v0.7h1.6v2.5c-0.1 0.1-0.5 0.4-1.3 0.4-1.7 0-1.9-1.9-1.9-3.4 0-1.3 0.3-2.8 1.8-2.8"/><path fill-rule="evenodd" class="s0" d="m196.5 57.2h2.6v-0.7h-2.6v-2.4h2.7v-0.7h-3.5v7.3h3.6v-0.6h-2.8v-2.9z"/><path class="s0" d="m204.6 60.1c0.5-0.3 1-1.3 1-3 0-1.9-0.5-3.8-2.6-3.8-2.1 0-2.7 1.9-2.7 3.8 0 1.6 0.6 3.6 2.7 3.6h3.1v-0.7l-1.5 0.1zm-1.6 0c-1.5 0-1.7-1.8-1.7-3 0-1.4 0.2-3.1 1.7-3.1 1.5 0 1.7 1.7 1.7 3.1 0 1.4-0.1 3-1.7 3"/><path class="s0" d="m210.9 58.2c0 0.8 0 2-1.5 2-1.4 0-1.4-1.2-1.4-2v-4.8h-0.8v5c0 0.9 0.2 2.5 2.2 2.5 2.2 0 2.3-1.6 2.3-2.5v-5h-0.8c0 0 0 4.8 0 4.8z"/><path fill-rule="evenodd" class="s0" d="m214.4 57.2h2.5v-0.7h-2.5v-2.4h2.6v-0.7h-3.5v7.3h3.6v-0.6h-2.7v-2.9z"/><path class="s0" d="m220.8 56.8l-0.7-0.4c-0.6-0.3-1.2-0.7-1.2-1.3 0-0.7 0.5-1.1 1.4-1.1 0.7 0 1.4 0.2 1.5 0.3v-0.8c-0.2-0.1-0.8-0.2-1.5-0.2-1.3 0-2.3 0.6-2.3 1.9 0 1.1 0.9 1.5 1.6 1.9l0.6 0.3c0.6 0.4 1.2 0.7 1.2 1.5 0 0.8-0.7 1.3-1.5 1.3-0.9 0-1.6-0.3-1.8-0.4v0.8c0.2 0.1 0.9 0.3 1.7 0.3 1.3 0 2.5-0.6 2.5-2.1 0-1.2-0.8-1.6-1.5-2"/><path fill-rule="evenodd" class="s0" d="m222.8 54.1h1.7v6.6h0.8v-6.6h1.7v-0.7h-4.2v0.7z"/><path class="s0" d="m230.7 57.1c0.6-0.2 1.4-0.5 1.4-1.9 0-1.7-1.8-1.8-2.3-1.8h-1.8v7.3h0.8v-3.2h0.8c1.1 0 1.3 0.5 1.6 1.6l0.3 1.6h0.8l-0.4-2c-0.2-0.8-0.2-1.3-1.2-1.6m-1.4-0.3h-0.5v-2.7h0.7c0.8 0 1.8 0 1.8 1.2 0 1.3-1 1.5-2 1.5z"/><path fill-rule="evenodd" class="s0" d="m234.6 53.4v7.3h-0.8v-7.3z"/><path class="s0" d="m238.1 53.4l-2.3 7.3h0.8l0.7-2.2h2.6l0.7 2.2h0.8l-2.3-7.3zm-0.6 4.4l1.1-3.7 1.1 3.7c0 0-2.2 0-2.2 0z"/><path fill-rule="evenodd" class="s0" d="m246.6 59.6l-3-6.2h-1.1v7.3h0.8v-6.2l3 6.2h1v-7.3h-0.7v6.2z"/><path fill-rule="evenodd" class="s0" d="m252.9 57.2h2.5v-0.7h-2.5v-2.4h2.7v-0.7h-3.5v7.3h3.6v-0.6h-2.8v-2.9z"/><path fill-rule="evenodd" class="s0" d="m261.4 53.4h-0.9l-1.6 2.7-1.6-2.7h-0.9l2 3.5-2.3 3.8h0.9l1.9-3 1.8 3h0.9l-2.3-3.8 2.1-3.5z"/><path fill-rule="evenodd" class="s0" d="m266.4 56.6h-3v-3.2h-0.8v7.3h0.8v-3.4h3v3.4h0.8v-7.3h-0.8v3.2z"/><path fill-rule="evenodd" class="s0" d="m270 53.4v7.3h-0.8v-7.3z"/><path class="s0" d="m274.8 56.9v-0.1c0.1 0 1-0.3 1-1.6 0-1.2-0.8-1.8-2-1.8h-1.9v7.3h1.9c1.2 0 2.3-0.4 2.3-1.9 0-1.5-0.8-1.8-1.3-1.9zm-2-2.8h0.8c0.5 0 1.4 0.1 1.4 1.1 0 1.3-1.1 1.4-1.6 1.4h-0.7v-2.5zm1 5.9h-1v-2.7h1.1c0.9 0 1.5 0.5 1.5 1.4 0 1.3-1.2 1.3-1.6 1.3z"/><path fill-rule="evenodd" class="s0" d="m278.5 53.4v7.3h-0.8v-7.3z"/><path fill-rule="evenodd" class="s0" d="m279.6 54.1h1.7v6.6h0.8v-6.6h1.8v-0.7h-4.3v0.7z"/><path fill-rule="evenodd" class="s0" d="m285.7 53.4v7.3h-0.8v-7.3z"/><path class="s0" d="m289.9 53.3c-2.1 0-2.6 1.9-2.6 3.7 0 1.9 0.5 3.9 2.6 3.9 2.1 0 2.6-2 2.6-3.9 0-1.8-0.5-3.7-2.6-3.7zm0 6.9c-1.4 0-1.7-1.8-1.7-3.2 0-1.3 0.3-3 1.7-3 1.5 0 1.7 1.7 1.7 3 0 1.4-0.2 3.2-1.7 3.2z"/><path fill-rule="evenodd" class="s0" d="m298.1 59.6h-0.1l-2.9-6.2h-1.1v7.3h0.8v-6.2l3 6.2h1v-7.3h-0.7v6.2z"/><path class="s0" d="m75.1 35.1q-0.8-0.5-1.3-0.8l-0.6 1.1q0.2 0.1 0.7 0.4 0.5 0.3 0.8 0.4 0.3-0.7 0.4-0.8 1.1 0.7 1.4 0.8l0.5-0.9-1.4-1q-0.4 0.7-0.5 0.8z"/><path class="s0" d="m89.5 46.7q0.3-0.4 0.6-1.1-1.2-0.7-1.4-0.8-0.3 0.5-0.4 0.8-1-0.7-1.4-0.9-0.3 0.4-0.6 1.1l1.4 0.8q0.3-0.5 0.4-0.7 1 0.5 1.4 0.8"/><path class="s0" d="m105.7 43.5q0.2 0 0.6-0.4 0.2 0.2 0.3 0.4h1.1 1.9q0 0 0.3-0.2 0.2-0.1 0.2-0.1 0 0 0.5 0.1 0.4 0.2 1.1 0.2h1.1q0.5-0.9 0.4-1.5v-2.2q-0.1 0.1-0.6 0.7-0.3 0.4-0.3 0.5 0 0 0.2 1.2-0.1 0.1-0.9 0-0.1 0-0.4 0-0.3-0.1-0.4-0.2l0.5-2q-0.4 0.2-0.8 0.6-0.4 0.5-0.4 0.7v0.5q0 0.2-0.1 0.4h-2.3v0.1q-0.6 0-0.7-0.2 0.3-0.4 0.4-1.2 0.1-0.6 0.2-1.1-0.7 0.6-1.2 1.2 0 0.3 0 0.7-0.1 0.6-0.5 0.6h-2-13.6v-0.1h-0.5q0-0.2 0-0.4-0.1-0.3-0.1-0.4v-1.2q0 0 0-0.5-0.1-0.4-0.1-0.6-0.1 0-0.5 0.6-0.4 0.6-0.4 0.8 0 0 0.1 0.7 0.1 0.6 0.1 0.9v0.1h-3.7v0.1h-6.3v-0.1h-0.3q-0.6 0-0.8-0.2l-0.1-0.2q-0.4-3.5-0.6-5.2-0.7 0.9-0.8 1.1 0 0.5 0 0.8-0.2 0.1-1 0.3-0.6 0.3-0.9 0.5-1 0.8-1.2 2.4 0.3 0.2 0.7 0.3 0.2 0.1 0.6 0.2 1.3 0.4 1.4 0.4 0.2 0 0.2-0.2 0.2-0.2 0.3-0.4 0.2-0.3 0.4-0.4 0.1 0.1 0.1 0.3 0.1 0.9 0.1 1 0.2 0.3 0.5 0.5 0.2 0.1 0.3 0.1h7.8 2.8q0.5-0.7 0.5-0.7 0.3 0.5 0.5 0.7h0.5 1.9 12.1 1.8zm-29.6-2.3q-0.2 0-0.5-0.1-0.3 0-0.8-0.2-0.4-0.1-0.7-0.4 0.3-0.2 0.9-0.5 0.6-0.2 0.9-0.3 0.3-0.4 0.5-0.8l0.4 2.3c0 0-0.7 0-0.7 0z"/><path class="s0" d="m118.9 43.8q0.2-1.1 0.2-1.6 0-0.2 0-0.4 0-0.4-0.1-1.2-0.2-0.5-0.2-0.7-0.1-0.3-0.5-0.7-0.4-0.6-0.6-0.6-0.5 0-1.2 1.2-0.7 1.1-0.7 1.7 0 0.6 0.3 1 0.3 0.6 0.9 0.6 0.9 0 1.5-1.1v0.1q0 0.1 0.1 0.3 0 0.2 0 0.2 0 1.5-2.5 3.2-0.9 0.5-1.4 0.5-0.1 0-0.8-0.1-0.8-0.2-0.8-0.2-0.2 0-0.3 0.2 0.3 0.2 1.5 0.5 0.5 0.1 1.1 0.3h0.6q1 0 1.8-1.1 0.7-0.9 1.1-2.1m-1.5-2.1q-0.3 0-0.6-0.1-0.4-0.2-0.4-0.5 0-0.2 0.3-0.6 0.4-0.3 0.6-0.3 0.4 0 0.7 0.6 0.2 0.4 0.2 0.7-0.3 0.2-0.8 0.2"/><path class="s0" d="m125.5 43.3q0.3 0.2 0.5 0.2h2.5 5.9 3.3q0.2-0.3 0.3-0.8 0.1-0.5 0.1-0.9 0.1-0.4 0.1-0.7l-0.4-4.1h0.1q0.4-0.7 0.7-1.4-0.7-0.4-1-0.6-0.1-0.1-0.1-0.2v-0.3q0-0.2 0-0.2h-0.2q-0.6 0.8-0.8 1.3-0.1 0.1-0.1 0.3 0 0.2 0.1 0.3 0.2 0.2 0.3 0.3 0.3 2 0.4 3 0.1 0.4 0.1 1 0.2 1.1 0.2 1.2 0 0.3-0.1 0.4v0.1q-0.4 0-3 0h-0.7q0.3-0.5 0.6-0.9 0.1-0.4 0.1-0.7 0-0.3-0.2-0.9-0.2-0.8-0.6-0.8-0.8 0-1.9 1-1 0.8-1.4 1.6-0.1 0.5 0 0.7h-2.2v0.1h-1.5v-0.1h-0.3q-0.7-0.2-1.3-1.1-0.5-0.7-1-1.5l-0.7 1.3q0.1 0.1 0.6 0.8 0.6 0.8 0.6 1 0 0.6-1.4 2.1-1.4 1.5-2.3 1.5-0.4 0-1.1-0.3-0.6-0.3-0.7-0.3h-0.1l-0.1 0.1v0.2q0.4 0.2 1.4 0.6 1.3 0.6 1.8 0.6 0.9 0 2-1.7 1.1-1.6 1.1-2.5 0.1 0.1 0.4 0.3zm6.3-2.7q0.5-0.3 0.8-0.3 0.4 0 0.6 0.4 0.3 0.4 0.3 0.8 0 0.3-0.4 0.5-0.4 0.2-0.6 0.2-0.3 0-0.7-0.3-0.6-0.3-0.6-0.6 0-0.4 0.6-0.7"/><path class="s0" d="m133.7 36l-1.5-0.7q-0.5 1-0.5 1 0.5 0.3 1.4 0.9 0.3-0.5 0.6-1.2z"/><path class="s0" d="m140.3 35.5l0.8 8q0.5-1.3 0.5-2.2l-0.4-7.9q-1 1.5-0.9 2.1"/><path class="s0" d="m145.1 47q1 0 1.8-1.1 0.7-0.9 1.1-2.1 0.2-1.1 0.2-1.6 0.1-0.2 0.1-0.4 0-0.4-0.2-1.2-0.1-0.5-0.2-0.7-0.1-0.3-0.4-0.7-0.4-0.6-0.7-0.6-0.5 0-1.2 1.2-0.7 1.1-0.7 1.7 0 0.6 0.3 1 0.3 0.6 1 0.6 0.8 0 1.4-1.1l0.1 0.1q0 0.1 0 0.3 0 0.2 0 0.2 0 1.5-2.5 3.2-0.8 0.5-1.4 0.5-0.1 0-0.8-0.1-0.8-0.2-0.8-0.2-0.2 0-0.2 0.2 0.2 0.2 1.4 0.5 0.5 0.1 1.1 0.3h0.6zm1.5-5.3q-0.4 0-0.7-0.1-0.4-0.2-0.4-0.5 0-0.2 0.3-0.6 0.4-0.3 0.6-0.3 0.4 0 0.7 0.6 0.2 0.4 0.2 0.7-0.3 0.2-0.7 0.2z"/><path class="s0" d="m171.5 45.9q1 0.5 1.4 0.8 0.3-0.4 0.6-1.1-1.2-0.7-1.4-0.8-0.3 0.5-0.4 0.8-1.1-0.7-1.5-0.9-0.2 0.4-0.6 1.1l1.5 0.8q0.3-0.5 0.4-0.7z"/><path class="s0" d="m197.1 42.7q0.1-0.5 0.1-0.9 0.1-0.4 0.1-0.7l-0.4-4.1h0.1q0.4-0.7 0.7-1.4-0.7-0.4-1-0.6-0.2-0.1-0.2-0.2l0.1-0.3q0-0.2 0-0.2h-0.2q-0.6 0.8-0.8 1.3-0.1 0.1-0.1 0.3 0 0.2 0.1 0.3 0.2 0.2 0.3 0.3 0.3 2 0.4 3 0.1 0.4 0.1 1 0.1 1.1 0.1 1.2 0 0.3 0 0.4v0.1q-0.4 0-2.7 0h-0.4q-0.2-2-0.3-3 0-0.7-0.1-1.1-0.1-1.6-0.1-2.4-0.1-0.7-0.2-1.6l-1 1.3 0.9 6.8h-2.7-1.4-1.1q0-0.1 0.3-0.5 0.2-0.3 0.2-0.4 0-0.8-1.1-1.5-1.1-0.6-1.9-0.7-1.1 0-3.1 1.3-2.6 1.5-3.6 1.8h-0.8v0.1q-0.5 0-0.6-0.2 0.3-0.4 0.4-1.2 0.1-0.6 0.1-1.1-0.6 0.6-1.1 1.2 0 0.3-0.1 0.6 0 0.7-0.4 0.7h-2v-0.1h-0.5q0-0.2-0.1-0.5 0-0.2 0-0.3v-1.2q0 0-0.1-0.5 0-0.4 0-0.6-0.1 0-0.5 0.6-0.4 0.6-0.4 0.8 0 0 0.1 0.7 0.1 0.6 0.1 0.9l-0.1 0.1h-3.6-9.3-0.7q-0.4-0.7-0.7-2.3-0.2-1.8-0.5-2.5-0.2 0.2-0.4 0.7-0.2 0.5-0.4 0.7l0.7 2.6q-0.1 0.7-0.5 0.8-1.1 0.3-2 0.3-0.6 0-1.1-0.1-0.1-0.1-0.2-0.2-0.1-0.1-0.1-0.3 0-0.6-0.1-0.6-0.5 1.3-0.5 1.8 0 0.1 0.1 0.4l0.2 0.2q0.4 0.1 1 0.1 0.7 0 1.8-0.1 0.9-0.1 1-0.3 0.5-0.7 0.7-1.1 0 0.1 0.3 0.6 0.1 0.3 0.4 0.5 0.2 0.1 0.3 0.1h10.4 2.7q0.5-0.7 0.6-0.7 0.3 0.5 0.4 0.7h2.8q0.1 0 0.5-0.4 0.2 0.3 0.3 0.4h1.1 10.5 4.2q0.2 0 0.5-0.6v0.1q0 0.1 0 0.3 0.1 0.1 0.1 0.2h4q0.3-0.4 0.4-0.8m-10.7-0.6q-0.1 0.1-0.2 0.1h-6.3q1-0.5 2.1-1.1 1.3-0.7 2.2-0.7 0.4 0 0.8 0.2 0.3 0 0.8 0.5 0.8 0.5 0.8 0.8 0 0.1-0.2 0.2"/><path class="s0" d="m208.5 45.6q0.8-1.5 1-1.8 0.1-0.2 0.1-0.2l0.1-0.1h10q0.2-0.5 0.3-0.9 0.2-1.1 0.2-1.4l-0.4-4.2 0.1 0.1q0 0 0.8-1.5-1.1-0.5-1.2-0.7 0-0.1 0-0.2 0.1-0.3 0-0.4h-0.2q-0.4 0.8-0.7 1.1-0.2 0.4-0.2 0.6l0.1 0.2q0.2 0.2 0.3 0.3v0.1q0.1 0.9 0.4 3 0.1 0.4 0.1 1 0.1 1 0.1 1.2 0 0.3 0 0.4h-9.8-1.2q-1.4 0.1-2 0.1-0.2 0-0.4 0.5-0.1 0.4-0.3 0.8 0.8 0.1 1.6 0.1 1 0.2 1.1 1.1-0.6 0.5-1.7 0.8-1.1 0.1-1.7 0.2-0.2 0-0.5 0-2.5 0-2.5-1.8 0-0.5 0.5-1.6 0.4-1 0.4-1v-0.2h-0.2q-1 1.2-1.3 2.9-0.1 0.5-0.1 0.9 0 1.1 0.8 1.7 0.7 0.5 1.9 0.5 0.6 0 0.8 0 1.7-0.4 2.3-0.7 0.4-0.2 0.7-0.3 0.5-0.3 0.7-0.6"/><path class="s0" d="m205.3 49q-1.1-0.6-1.3-0.7l-0.6 0.9 1.4 0.9q0.3-0.5 0.4-0.8 0.8 0.5 1.2 0.8 0.3-0.6 0.5-0.9l-1.2-0.8q-0.2 0.4-0.4 0.6z"/><path class="s0" d="m224.7 45.9q0.8-0.9 1.1-2.1 0.2-1.1 0.2-1.6 0.1-0.2 0.1-0.4 0-0.4-0.2-1.2-0.1-0.5-0.2-0.7-0.1-0.3-0.4-0.7-0.4-0.6-0.7-0.6-0.4 0-1.1 1.2-0.7 1.1-0.7 1.7 0 0.6 0.2 1 0.4 0.6 1 0.6 0.9 0 1.4-1.1l0.1 0.1q0 0.1 0 0.3 0 0.2 0 0.2 0 1.5-2.5 3.2-0.8 0.5-1.4 0.5 0 0-0.8-0.1-0.7-0.2-0.8-0.2-0.1 0-0.2 0.2 0.2 0.2 1.4 0.5 0.5 0.1 1.1 0.3h0.6q1 0 1.8-1.1m-0.3-4.2q-0.3 0-0.6-0.1-0.5-0.2-0.5-0.5 0-0.2 0.4-0.6 0.3-0.3 0.5-0.3 0.4 0 0.7 0.6 0.2 0.4 0.2 0.7-0.3 0.2-0.7 0.2z"/><path class="s0" d="m243.1 41.8q0-0.4 0-0.7l-0.3-4.1q0.4-0.7 0.8-1.4-0.7-0.4-1-0.6-0.2-0.1-0.2-0.2v-0.3q0.1-0.2 0-0.2h-0.2q-0.5 0.8-0.7 1.3-0.1 0.1-0.1 0.3 0 0.2 0.1 0.3 0.1 0.2 0.2 0.3 0.3 1.9 0.5 3 0 0.4 0.1 1 0.1 1 0.1 1.2 0 0.3 0 0.4v0.1q-0.4 0-3 0h-5.5-0.6q-0.5-0.7-0.7-2.3-0.3-1.8-0.6-2.5-0.1 0.2-0.3 0.7-0.3 0.4-0.4 0.7l0.7 2.6q-0.1 0.7-0.5 0.8-1.1 0.3-2 0.3-0.6 0-1.1-0.1-0.2-0.1-0.2-0.2-0.1-0.1-0.1-0.3 0-0.6-0.2-0.7-0.4 1.4-0.4 1.9 0 0.1 0.1 0.4l0.2 0.2q0.4 0.1 0.9 0.1 0.8 0 1.8-0.1 0.9-0.2 1.1-0.3 0.5-0.7 0.7-1.1 0 0.1 0.3 0.5 0.1 0.4 0.4 0.5 0.2 0.2 0.3 0.2h9.3q0.3-0.4 0.4-0.8 0-0.5 0.1-0.9"/><path class="s0" d="m246.2 33.4q-1 1.5-1 2.1l0.8 8q0.6-1.3 0.6-2.2l-0.4-7.9z"/><path class="s0" d="m256.7 46.5q1.6-0.8 2-2.6 0.1-0.4 0.1-0.4h0.3-0.1 7.2q0.1 0 0.3-0.1 0.1-0.2 0.2-0.3 0.5-1 0.7-1.5 0.1-0.1 0.1-0.3 0-0.1-0.1-0.5-0.1-0.4-0.7-0.9-0.4-0.4-0.9-0.6-0.4-0.2-0.6-0.2-0.4 0-0.9 0.3-1.1 0.7-1.7 1-2.1 1.2-3.5 1.8h-0.3q-0.2-0.1-0.6-0.9-0.4-1-0.6-1.2l-0.6 1.4q1 1.6 1 2.5 0 0.8-1.6 1.4-1.3 0.4-2.1 0.4-0.9 0-1.6-0.4-0.8-0.6-0.8-1.6 0-0.6 0.4-1.5 0.4-0.9 0.4-0.9v-0.2h-0.2q-0.5 0.5-0.9 1.6-0.3 1.1-0.3 1.9 0 1.2 0.8 1.8 0.7 0.6 1.9 0.6 1.5 0 2.7-0.6m5.8-5.1q0.9-0.6 1.3-0.8 0.3-0.1 0.7-0.1 0.4 0 0.6 0.1 0.3 0.1 0.5 0.2 0.3 0.2 0.8 0.8 0.1 0.3 0.1 0.2v0.3q-0.4 0.1-0.5 0.1h-4.8q0.5-0.2 1.3-0.8z"/><path class="s0" d="m260.5 37l1.4 0.8 0.6-1-1.4-0.9q-0.1 0.2-0.3 0.5-0.2 0.4-0.3 0.6z"/><path class="s0" d="m294.9 44.4q0.2-0.4 0.4-0.7 0.2-0.4 0.2-0.6 0-0.5-0.9-1.1-1-0.6-1.1-0.9-0.1-0.5-0.1-1.2v-1.1q0 0 0-0.7 0-0.7 0-1l0.8-1.5q-1.1-0.5-1.2-0.6 0-0.1 0-0.5 0-0.2-0.1-0.2-0.2 0.1-0.6 0.8-0.4 0.7-0.4 0.9 0 0.2 0.1 0.2 0.2 0.2 0.3 0.3 0.2 1.9 0.3 2.9 0.1 0.6 0.1 1 0 0.2 0 0.7 0.1 0.4 0.1 0.5 0 0.2-0.6 0.5-0.5 0.1-0.8 0.1h-1.7v0.1h-1.3v-0.1h-0.7q-0.7 0-0.7-0.3 0.3-0.1 0.6-0.6 0.2-0.6 0.2-0.8 0-0.3-0.6-0.8-0.6-0.4-0.7-0.5-0.5-0.1-0.7-0.1-0.3 0-0.6 0.2-0.1 0-0.5 0.8-0.5 0.8-0.5 1 0 0.3 0.4 0.3h0.1 0.2q0.4 0 0.7 0.5-0.4 0.2-0.5 0.2-0.9 0.1-1.1 0.1h-1.8v0.1h-7.3v-0.1h-0.3q-0.7-0.2-1.4-1.1-0.5-0.7-1-1.5l-0.7 1.3q0.2 0.1 0.7 0.8 0.6 0.8 0.6 1 0 0.6-1.4 2.1-1.5 1.5-2.4 1.5-0.3 0-1-0.3-0.7-0.3-0.7-0.3h-0.1l-0.1 0.1v0.2q0.3 0.2 1.4 0.6 1.3 0.6 1.7 0.6 0.9 0 2.1-1.7 1.1-1.6 1.1-2.5 0.1 0.1 0.4 0.3 0.3 0.2 0.4 0.2h9.6q0.5 0 1.3-0.2 0.9-0.3 1-0.5 0.2 0.3 0.4 0.3 0.5 0.4 0.8 0.4h3 1.1q0 0 0.9-0.3 0.8-0.2 0.9-0.3 0.6 0.1 1.7 1.5"/><path class="s0" d="m297.4 35.5l0.9 8q0.5-1.3 0.5-2.2l-0.4-7.9q-1 1.5-1 2.1z"/><path class="s0" d="m191.2 57.4h-0.7c0 0.6 0 0.9-0.2 1.3l-1.6-2c0.7-0.5 1.4-1.1 1.4-2 0-1-0.7-1.6-1.6-1.6-0.9 0-1.7 0.7-1.7 1.6 0 0.7 0.5 1.3 0.9 1.8-0.8 0.5-1.8 1.2-1.8 2.3 0 1.3 1 2.1 2.3 2.1 0.9 0 1.6-0.5 2.2-1.1l0.8 0.9h0.8l-1.3-1.5c0.4-0.6 0.5-1.4 0.5-1.8zm-3.7-2.7c0-0.7 0.5-0.9 1-0.9 0.4 0 0.9 0.2 0.9 0.9 0 0.6-0.5 1.1-1.1 1.4-0.3-0.4-0.8-0.9-0.8-1.4zm0.7 5.6c-0.8 0-1.6-0.6-1.6-1.5 0-0.9 0.8-1.4 1.5-1.8l1.8 2.2c-0.5 0.7-1.1 1.1-1.7 1.1z"/><path class="s0" d="m76.5 24.6c0.1-0.4 0.9-2.4 1.9-4.8h8c0.9 2.4 1.8 4.4 1.9 4.8 0.3 0.7 0.1 1.2-0.7 1.5h5.5c-1-0.5-1.2-0.8-1.5-1.5-0.5-1.2-8.4-20.2-8.4-20.2 0 0-7.9 19-8.4 20.2-0.3 0.6-0.6 0.9-1.4 1.5h3.7c-0.8-0.3-0.9-0.8-0.6-1.5zm5.9-14.9c0 0 1.8 4.8 3.4 8.8h-6.9c1.4-3.4 3.5-8.8 3.5-8.8z"/><path class="s0" d="m94.4 26.1h6.7c6.5 0 8.2-3.4 8.2-5.8 0-5.2-6.1-5.6-6.1-5.6 0 0 4.1-1.3 4.1-5 0-4.2-5-4.8-7-4.8h-5.9c0.6 0.2 0.9 0.7 0.9 1.4v18.4c0 0.7-0.3 1.1-0.9 1.4m3.8-19.9c0 0 0.7 0 2 0 2 0 4.2 1 4.2 3.7 0 3.9-3.4 4.3-4.9 4.3-0.8 0-1.3-0.1-1.3-0.1v-7.9zm0 9.3c0 0 1.5 0 2.4 0 2.6 0 5.4 0.8 5.4 4.4 0 4.7-4.4 5-6.4 5-0.9 0-1.4-0.1-1.4-0.1 0 0 0-9.3 0-9.3z"/><path class="s0" d="m113.1 6.3v13.1c0 5.3 4.3 7 7.7 7 3.8 0 7.1-1.9 7.1-7l0.1-13.1c0-0.7 0.3-1.2 0.8-1.4h-3.2c0.5 0.2 0.8 0.7 0.8 1.4l0.1 13.2c0 2.8-1.3 5.5-5.4 5.5-4.3 0-5.1-3.3-5.1-5.5v-13.2c0-0.7 0.6-1.2 1.1-1.4h-5c0.5 0.2 1 0.7 1 1.4"/><path class="s0" d="m137.5 26.1h7.1c8.7 0 12.3-5.9 12.3-10.9 0-2.8-1.6-10.3-11.7-10.3h-7.7c0.5 0.2 0.8 0.7 0.8 1.4v18.4c0 0.7-0.3 1.2-0.8 1.4m3.8-19.8c0.6-0.1 2.7-0.1 3.9-0.1 6.3 0 8.5 5.1 8.5 9 0 4.6-2 9.6-9 9.6-0.9 0-2.3 0-3.4-0.1 0 0 0-18.4 0-18.4z"/><path class="s0" d="m160.3 26.1h4.6c-0.5-0.2-0.8-0.7-0.8-1.4v-9.7h10.7v9.7c0 0.7-0.3 1.2-0.8 1.4h4.5c-0.5-0.2-0.8-0.7-0.8-1.4v-18.4c0-0.7 0.3-1.2 0.8-1.4h-4.5c0.5 0.2 0.8 0.7 0.8 1.4v7.4h-10.7v-7.4c0-0.7 0.3-1.2 0.8-1.4h-4.6c0.5 0.2 0.8 0.7 0.8 1.4v18.4c0 0.7-0.3 1.2-0.8 1.4z"/><path class="s0" d="m183.1 24.6c0.2-0.4 1-2.4 2-4.8h7.9c1 2.4 1.8 4.4 2 4.8 0.3 0.7 0 1.2-0.7 1.5h5.5c-1.1-0.5-1.3-0.8-1.5-1.5-0.5-1.2-8.4-20.2-8.4-20.2 0 0-7.9 19-8.5 20.2-0.2 0.6-0.5 0.9-1.4 1.5h3.8c-0.8-0.3-0.9-0.8-0.7-1.5zm5.9-14.9c0 0 1.9 4.8 3.5 8.8h-6.9c1.3-3.4 3.4-8.8 3.4-8.8z"/><path class="s0" d="m201.1 26.1h6.6c6.6 0 8.2-3.4 8.2-5.8 0-5.2-6-5.6-6-5.6 0 0 4.1-1.3 4.1-5 0-4.2-5-4.8-7.1-4.8h-5.8c0.5 0.2 0.8 0.7 0.8 1.4v18.4c0 0.7-0.3 1.1-0.8 1.4zm3.7-19.9c0 0 0.7 0 2.1 0 2 0 4.2 1 4.2 3.7 0 3.9-3.5 4.3-5 4.3-0.7 0-1.3-0.1-1.3-0.1 0 0 0-7.9 0-7.9zm0 9.3c0 0 1.5 0 2.5 0 2.6 0 5.4 0.8 5.4 4.4 0 4.7-4.5 5-6.4 5-0.9 0-1.5-0.1-1.5-0.1v-9.3z"/><path class="s0" d="m219.2 26.1h4.6c-0.5-0.2-0.8-0.7-0.8-1.4v-18.4c0-0.7 0.3-1.2 0.8-1.4h-4.6c0.5 0.2 0.8 0.7 0.8 1.4v18.4c0 0.7-0.3 1.2-0.8 1.4z"/><g><path class="s0" d="m239.6 3.5q3.1 0 4.6 1.4 1.5 1.5 1.5 4.5 0 2.3-0.8 4.3-0.9 2-2.3 3.8-1.3 1.7-3 3.2-1.7 1.5-3.5 2.9h5.7q0.8 0 1.5-0.1 0.6-0.1 1.1-0.4 0.4-0.3 0.8-0.8 0.4-0.6 0.7-1.5l0.9 0.1-1.3 5.4h-11.1q-0.7 0-1.3 0.1-0.6 0-1.1 0l-0.1-0.9q1.8-1.8 3.7-3.5 1.9-1.8 3.5-3.7 1.5-2 2.5-4 1.1-2.1 1.1-4.4 0-2.5-1.2-3.5-1.1-1.1-3.2-1.1-0.9 0-1.7 0.1-0.7 0.2-1.2 0.6-0.5 0.4-0.8 1.1-0.3 0.7-0.5 1.9l-0.8 0.1-0.2-4.4q0.9-0.3 1.7-0.6 0.7-0.2 1.5-0.4 0.7-0.1 1.5-0.2 0.8 0 1.8 0z"/><path class="s0" d="m257.3 3.5q1.8 0 3.3 0.9 1.4 0.9 2.4 2.4 0.9 1.6 1.4 3.6 0.5 2.1 0.5 4.4 0 2.6-0.5 4.9-0.5 2.2-1.5 3.8-1.1 1.6-2.6 2.5-1.6 0.8-3.6 0.8c-1.4 0-2.5-0.3-3.5-0.8q-1.4-0.9-2.3-2.4-0.9-1.5-1.3-3.5-0.5-2.1-0.5-4.4 0-2.9 0.5-5.1 0.5-2.3 1.5-3.9 1-1.6 2.6-2.4 1.5-0.8 3.6-0.8zm-1.1 1.5q-1.1 0-1.8 0.8-0.7 0.9-1.1 2.3-0.3 1.4-0.4 3.1-0.2 1.6-0.2 3.1 0 2.6 0.3 4.7 0.2 2 0.7 3.4 0.5 1.5 1.3 2.2 0.9 0.8 2.2 0.8 1.5 0 2.3-0.8 0.8-0.8 1.2-2 0.4-1.3 0.5-3 0.1-1.7 0.1-3.5 0-1-0.1-2.3 0-1.2-0.2-2.4-0.1-1.3-0.5-2.4-0.3-1.2-0.8-2.1-0.6-0.9-1.4-1.4-0.9-0.6-2.1-0.6z"/><path class="s0" d="m274.5 3.5q3.1 0 4.6 1.4 1.5 1.5 1.5 4.5 0 2.3-0.8 4.3-0.9 2-2.3 3.8-1.3 1.7-3 3.2-1.7 1.5-3.5 2.9h5.7q0.9 0 1.5-0.1 0.6-0.1 1.1-0.4 0.4-0.3 0.8-0.8 0.4-0.6 0.7-1.5l0.9 0.1-1.3 5.4h-11.1q-0.7 0-1.3 0.1-0.6 0-1.1 0l-0.1-0.9q1.8-1.8 3.7-3.5 1.9-1.8 3.5-3.7 1.5-2 2.5-4 1.1-2.1 1.1-4.4 0-2.5-1.2-3.5-1.1-1.1-3.1-1.1-1 0-1.8 0.1-0.7 0.2-1.2 0.6-0.5 0.4-0.8 1.1-0.3 0.7-0.5 1.9l-0.8 0.1-0.2-4.4q0.9-0.3 1.7-0.6 0.7-0.2 1.5-0.4 0.7-0.1 1.5-0.2 0.8 0 1.8 0z"/><path class="s0" d="m295.8 3.8q0.7 0 1.4 0 0.8-0.1 1.5-0.2l-0.3 4.6-0.9 0.1q-0.1-2-0.7-2.4-0.5-0.5-1.8-0.5h-5.2l-0.5 4.7q2.1 0.4 3.9 1.1 1.8 0.7 3 1.8 1.3 1 2 2.4 0.7 1.4 0.7 3 0 1.7-0.6 3.2-0.5 1.5-1.6 2.7-1.2 1.2-2.9 1.8-1.8 0.7-4.2 0.7-0.4 0-0.9 0-0.5-0.1-1-0.2-0.5-0.1-0.9-0.2-0.5-0.1-0.8-0.2l0.2-5.1h0.7q0.2 2.3 1.2 3.4 1 1 2.6 1 1 0 1.9-0.3 1-0.3 1.7-1.1 0.7-0.7 1.1-1.7 0.5-1.1 0.5-2.5-0.1-1.6-0.7-2.8-0.6-1.2-1.7-2.1-1.1-0.9-2.6-1.5-1.5-0.7-3.1-1l-0.3-0.2 0.8-8.5h7.5z"/></g></g><path class="s0" d="m21.5 22.2c-3.6-1.2-8 2.3-9.9 7.9-0.5 1.6-0.8 3.3-0.8 4.8q0-1 0.3-2.1c0.9-4.9 4.8-9.6 8.7-9.8 2.6-0.2 4.8 1.9 5.5 4.3-0.5-2.5-1.8-4.4-3.8-5.1z"/><path class="s0" d="m30.8 3.8c7.7 0 14.9 2.9 20.3 8.3 5.4 5.4 8.4 12.5 8.4 20.1 0 7.6-3 14.7-8.4 20.1-5.4 5.4-12.6 8.3-20.3 8.3-7.7 0-14.9-2.9-20.3-8.3-5.4-5.4-8.4-12.5-8.4-20.1 0-7.6 3-14.7 8.4-20.1 5.4-5.4 12.6-8.3 20.3-8.3zm-19.7 8.9c-5.2 5.2-8.1 12.1-8.1 19.5 0 7.3 2.9 14.3 8.1 19.5 5.3 5.2 12.3 8 19.7 8 7.4 0 14.4-2.8 19.7-8 5.2-5.2 8.1-12.1 8.1-19.5 0-7.4-2.9-14.3-8.1-19.5-5.3-5.2-12.3-8-19.7-8-7.4 0-14.4 2.8-19.7 8z"/><path class="s0" d="m11.5 21.3c2.8-8.2 9.9-7.3 9.9-7.3 0 0-7.8-1.6-9.9 7.3z"/><path class="s0" d="m25.9 17.3c0 0-0.6 0.7 0.8 0.9 1.3 0.1 1.6 0.6 0 1-1.5 0.4-1.2 0.8-1.2 0.8 0.6 0 0.7-0.4 1.7 0.2 0.9 0.6 1.1-0.2 1.1-0.2 2 2 0.6 1.9 0.6 1.9 1.1-0.9-2.3-1.4-4.4 0.3-2.1 1.6-2.6 0.1-2.6 0.1 1.8 0.2 1-0.8 4.1-1.2 0 0-0.4-0.9-1.5-1 0 0 0.9-1.1 1.9-1.1 0.4-0.1-0.9-0.9-0.9-0.9-0.5-0.5-1.5 0.7-2.2 0.8-0.9 0.2-1.6-0.1-1.8-0.3q0.2 0 0.5 0c0.9 0 1.6-0.4 1.6-1 0-0.3-0.2-0.6-0.6-0.8q0.1 0.2 0.1 0.4c0 0.5-0.6 1-1.3 1-0.6 0-1.2-0.5-1.2-1q0-0.3 0.1-0.5c-0.5 0.1-1 0.3-1.7 0.5 0.6 0.2 0.9 0.5 0.9 0.5-1.1-0.5-2.3-0.3-2.3-0.3 0 0 5.7-3.2 8.3-0.1m-4.8-0.7c0 0 0.1 0.3 0.2 0.4 0 0 0.5-0.4 1.2-0.4 0 0-1.4 0-1.4 0z"/><path class="s0" d="m21.7 14c0 0 2.6 0 5.4 2.7 0.3 0.3 0.2 0.5 1.1 1.1 0.4 0.3 1.9 1.5 1.4 3.2 0 0 0.6-2.4-3.1-3.3 0 0 0.9 0.1 0.5-0.5-0.5-0.7-2.7-2.8-5.3-3.2z"/><path class="s0" d="m38.2 25.6c0 0 1.1 0.5 1.2-0.1q0.2-0.8 0.5-1.4 0.4-0.8 0.9-1.1c0.5-0.5 1-0.7 1-0.7-2.7 0.6-3.6 3.3-3.6 3.3"/><path class="s0" d="m31 37.4c0 0 0.3-0.1 0.5-1 0.2-1 0.8-3.3 2.3-3.3 0.7 0 0.9-0.3 0.9-0.3 0 0 0.3 0.7-0.8 1-2.3 0.5-1.8 3-2.9 3.6z"/><path class="s0" d="m33.1 24.4l-0.1-0.2c-1.1-1-1.9-2.3-1.9-2.3 0 0 0.8 2.1 1.3 2.8l0.7-0.3z"/><path class="s0" d="m29.5 45.7c3.1-1.1 2.2-5.5 5.8-5.9 6.4-0.8 5.1-7.8 5.1-7.8 0 0 0.4 7.1-6.4 7-2.3-0.1-1.2 4.6-4.5 6.7"/><path class="s0" d="m35.5 39.6c0 0 0 3.7-2.9 5.6 0 0 3.8-1.4 3.6-6.1l-0.7 0.5z"/><path class="s0" d="m29.7 31c0 0-1.1-1.3-0.6-2.1 0.1-0.3 1.3-0.4 1.5-0.8 1.1-3.3 2.5-3.9 3.8-4.2 0 0-3.1 0.2-4.2 4.1-0.1 0.3-0.6 0.3-1 0.4-0.3 0.1-0.9 0.7-0.6 2 0.4 1.1 0.9 1.6 0.9 1.6 0 0 0.2-1 0.2-1z"/><path class="s0" d="m28.8 41.5c0 0-0.7 0.1-0.7 0.4-0.1 0.3 0.4 0.9 1.1 0.3 0.8-0.6 0.6-1.1 0.4-1.5-0.2-0.5-0.5-0.2-0.4 0.2 0.1 0.4 0.1 0.5-0.4 0.6z"/><path class="s0" d="m30.3 30.4c0 0-1 0.1-2.9 6.1-0.5 1.8-0.7 1.6-0.9 1.8-1 0.7-1.5 0.7-1.7 1.6-0.1 1-0.4 1.2-0.3 1.5 0 0 0.6-0.3 0.6-0.9 0.1-0.6 0.6-1 1.8-1.7 1.5-0.9 1.5-4.4 3.4-8.4"/><path class="s0" d="m37.3 29.1c0 0 0.3 0.8-0.7 1.2-1 0.5-1.2 0.9-1 2.1 0 0-0.8-1.6 0.2-2.2 0.6-0.3 1.4-0.3 1.5-1.1z"/><path class="s0" d="m37.6 31.9v-0.1-0.2c0-0.1 0-0.3 0.2-0.4 0.7-0.6 0.2-1.2 0.2-1.2-0.3 1-1.3 0.9-1.6 1.1q-0.1 0.1-0.2 0.3l-0.1 0.1-0.1 0.2q0 0.2 0.1 0.5c0 0.4-0.1 0.7-0.1 0.7 0 0 0.2-0.1 0.2-0.3 0.1-0.1 0.4 0 0.6 0 0.3 0 0.5-0.1 0.7-0.3q0.1-0.2 0.1-0.4m-0.8 0.2c-0.2-0.1-0.2-0.3-0.1-0.5 0.1-0.1 0.3-0.2 0.5-0.1 0.1 0.1 0.2 0.3 0.1 0.5-0.1 0.1-0.4 0.2-0.5 0.1z"/><path class="s0" d="m49.6 13.6c-5-5-11.7-7.8-18.8-7.8-7.1 0-13.8 2.8-18.8 7.8-5.1 4.9-7.8 11.6-7.8 18.6 0 7 2.7 13.7 7.8 18.7 5 4.9 11.7 7.7 18.8 7.7 7.1 0 13.8-2.8 18.8-7.7 5.1-5 7.8-11.6 7.8-18.7 0-7.1-2.7-13.7-7.8-18.6zm-4.7 21.6c0.5 6.6 3.3 11.3 6.8 11.9-4.7 6.4-12.3 10.6-20.9 10.6q-1.2 0-2.3-0.1c17.8-8.2 12.2-20.3 12.2-20.3q0 0 0 0.2l0.1 0.1q0.2 0.9 0.3 1.8c0.3 4-0.8 12.9-16.8 17.5-7.8-2-14.2-7.6-17.3-14.9 16.3 13.5 27.9 3.2 27.9 3.2q0 0-0.2 0.2-1.2 0.8-2.5 1.2c-4.7 2-15.1 4-26.6-9.2q-0.3-1.6-0.5-3.4c6 6.4 14.3 8.5 18.5 4.7 2.4-2.2 3.1-5.7 2.2-9.5 0.4 3.8-1.3 8.1-5 9.5-4.7 1.7-11.1-0.9-15.7-5.3q0-0.6 0-1.2c0-14.1 11.5-25.5 25.7-25.5 5.5 0 10.6 1.7 14.8 4.7-0.5 0.6-1.6 1.8-4.6 3.5-4.3 2.5-4.7 5.6-4.7 5.6 0 0 0.8-3.2 5.5-5.5 3-1.4 4.2-2.3 4.6-3q2.1 1.5 3.8 3.5c-0.5 0.4-1.9 0.9-5.2 1.1-4.6 0.3-6.5 2.5-6.5 2.5 0 0 2.4-2.2 7.4-2 3.1 0.1 4.4-0.4 5-0.8 2.2 2.7 3.8 5.8 4.7 9.3-1.6-0.5-2.7-1.1-4.1-2.1-11.2-8.2-15.6-0.7-15.6-0.7v-0.1q0.4-0.4 0.8-0.7c1.7-1.4 6.3-3.8 13.4 1.8 0 0 2.4 2.5 5.9 3.2q0.5 2.5 0.5 5.2c0 5-1.4 9.6-3.9 13.5-3.6-0.8-6.5-6-6.9-12.9-0.2-3.8-2.2-8.5-5.8-8.9l-0.1 0.1v0.1c3.9 0.5 4.8 6.4 5.1 11.1m-5-11.2c0-0.2-0.2 0.1 0 0"/></svg>