<svg xmlns="http://www.w3.org/2000/svg" version="1.2" viewBox="0 0 729 141" width="729" height="141"><title>image</title><style>.s0 { fill: #ffffff } </style><g><path fill-rule="evenodd" class="s0" d="m174.9 122.5h2v18.1h-2z"/><path fill-rule="evenodd" class="s0" d="m191.6 137.7h-0.1l-7.3-15.2h-2.5v18h1.9v-15.2l7.3 15.2h2.6v-18h-1.9v15.2z"/><path fill-rule="evenodd" class="s0" d="m196 124.2h4.2v16.3h2v-16.3h4.3v-1.7h-10.5v1.7z"/><path fill-rule="evenodd" class="s0" d="m210.9 131.9h6.3v-1.7h-6.3v-6h6.6v-1.7h-8.6v18h8.8v-1.6h-6.8v-7z"/><path class="s0" d="m227.5 131.6c1.7-0.4 3.6-1.3 3.6-4.6 0-4.4-4.4-4.5-5.6-4.5h-4.4v18h2v-8h1.8c2.8 0 3.3 1.3 3.8 3.9l0.9 4.1h2l-1-4.9c-0.4-2-0.6-3.3-3.1-4zm-3.3-0.8h-1.1v-6.6h1.5c2.1 0 4.5 0 4.5 3.1 0 3-2.5 3.5-4.9 3.5z"/><path fill-rule="evenodd" class="s0" d="m245.1 137.7h-0.1l-7.3-15.2h-2.5v18h1.9v-15.2l7.3 15.2h2.6v-18h-1.9v15.2z"/><path class="s0" d="m255.3 122.5l-5.6 18h2l1.7-5.5h6.3l1.8 5.5h2l-5.7-18zm-1.4 10.8l2.6-8.9 2.6 8.9z"/><path fill-rule="evenodd" class="s0" d="m263.6 124.2h4.2v16.3h2v-16.3h4.2v-1.7h-10.5v1.7z"/><path fill-rule="evenodd" class="s0" d="m276.6 122.5h2v18.1h-2z"/><path class="s0" d="m288.9 122.2c-5.1 0-6.3 4.7-6.3 9.3 0 4.6 1.2 9.3 6.3 9.3 5.1 0 6.3-4.8 6.3-9.3 0-4.6-1.3-9.3-6.3-9.3zm0 16.9c-3.6 0-4.2-4.4-4.2-7.6 0-3.3 0.6-7.6 4.2-7.6 3.6 0 4.1 4.3 4.1 7.6 0 3.2-0.6 7.6-4.1 7.6z"/><path fill-rule="evenodd" class="s0" d="m308.9 137.7h-0.1l-7.3-15.2h-2.6v18h2v-15.2l7.3 15.2h2.6v-18h-1.9v15.2z"/><path class="s0" d="m319.1 122.5l-5.6 18h2l1.7-5.5h6.3l1.8 5.5h2l-5.7-18zm-1.4 10.8l2.5-8.9h0.1l2.6 8.9z"/><path fill-rule="evenodd" class="s0" d="m332 122.5h-2v18.1h8.3v-1.7h-6.3v-16.4z"/><path fill-rule="evenodd" class="s0" d="m357 130.3h-7.3v-7.8h-2v18.1l2-0.1v-8.5h7.3v8.5h2v-18h-2v7.8z"/><path class="s0" d="m372.7 134.3c0 2.1 0 4.8-3.7 4.8-3.3 0-3.5-2.7-3.5-4.8v-11.8h-2v12.2c0 2.4 0.6 6.1 5.5 6.1 5.4 0 5.7-3.7 5.7-6.1v-12.2h-2z"/><path fill-rule="evenodd" class="s0" d="m389.1 137.7h-0.1l-7.2-15.2h-2.6v18h1.9v-15.2l7.3 15.2h2.6v-18h-1.9v15.2z"/><path fill-rule="evenodd" class="s0" d="m393.5 124.2h4.2v16.3h2v-16.3h4.3v-1.7h-10.5v1.7z"/><path fill-rule="evenodd" class="s0" d="m406.5 122.5h2v18.1h-2z"/><path fill-rule="evenodd" class="s0" d="m423.3 137.7h-0.1l-7.3-15.2h-2.5v18h1.8v-15.2h0.1l7.3 15.2h2.6v-18h-1.9v15.2z"/><path class="s0" d="m435.6 123.9c2.5 0 3.4 1.9 3.4 3.5h2.3c0-3-2.2-5.2-5.7-5.2-4.9 0-6.6 4.1-6.6 8.7 0 5.2 1.5 10 7.1 10 2.7 0 4.6-1.4 5.1-1.8v-8.7h-6.1v1.6h4.1v6.2c-0.3 0.2-1.5 0.9-3.3 0.9-4.2 0-4.8-4.7-4.8-8.2 0-3.3 0.9-7 4.5-7"/><path fill-rule="evenodd" class="s0" d="m477.2 131.9h6.3v-1.7h-6.3v-6h6.6v-1.7h-8.6v18h8.8v-1.6h-6.8v-7z"/><path class="s0" d="m497 139c1.2-0.8 2.4-3.2 2.4-7.5 0-4.6-1.3-9.3-6.3-9.3-5.1 0-6.6 4.7-6.6 9.3 0 4 1.4 9 6.5 9h7.7v-1.7l-3.6 0.2zm-4.1-0.1c-3.6 0-4.2-4.4-4.2-7.4 0-3.2 0.6-7.5 4.3-7.5 3.7 0 4.1 4.3 4.1 7.5 0 3.6-0.3 7.4-4.2 7.4z"/><path class="s0" d="m512.4 134.3c0 2.1 0 4.8-3.7 4.8-3.3 0-3.5-2.7-3.5-4.8v-11.8h-2v12.2c0 2.4 0.6 6.1 5.5 6.1 5.4 0 5.7-3.7 5.7-6.1v-12.2h-2v11.9z"/><path fill-rule="evenodd" class="s0" d="m520.9 131.9h6.3v-1.7h-6.3v-6h6.6v-1.7h-8.6v18h8.8v-1.6h-6.8v-7z"/><path class="s0" d="m536.7 130.8l-1.7-0.9c-1.3-0.8-2.9-1.7-2.9-3.2 0-1.7 1.3-2.8 3.3-2.8 1.9 0 3.5 0.6 3.9 0.8v-2c-0.6-0.2-2-0.5-3.7-0.5-3.3 0-5.7 1.5-5.7 4.6 0 2.8 2.2 3.8 3.9 4.7l1.5 0.9c1.5 0.8 3 1.6 3 3.6 0 2.1-1.7 3.1-3.9 3.1-2.2 0-3.9-0.8-4.3-0.9v2.1c0.5 0.1 2.2 0.5 4.1 0.5 3.3 0 6.3-1.3 6.3-5.1 0-2.8-2-3.9-3.8-4.9"/><path fill-rule="evenodd" class="s0" d="m541.5 124.2h4.3v16.3h2v-16.3h4.2v-1.7h-10.5v1.7z"/><path class="s0" d="m560.9 131.6c1.7-0.4 3.6-1.3 3.6-4.6 0-4.4-4.4-4.5-5.6-4.5h-4.4v18h2v-8h1.8c2.8 0 3.3 1.3 3.9 3.9l0.8 4.1h2l-1-4.9c-0.4-2-0.6-3.3-3.1-4m-3.3-0.8h-1.1v-6.6h1.5c2.1 0 4.5 0 4.5 3.1 0 3-2.5 3.5-4.9 3.5z"/><path fill-rule="evenodd" class="s0" d="m568.7 122.5h2v18.1h-2z"/><path class="s0" d="m579.2 122.5l-5.6 18h1.9l1.8-5.5h6.3l1.8 5.5h2l-5.7-18zm-1.4 10.8l2.6-8.9 2.6 8.9z"/><path fill-rule="evenodd" class="s0" d="m600 137.7l-7.4-15.2h-2.5v18h1.9v-15.2l7.3 15.2h2.6v-18h-1.9v15.2z"/><path fill-rule="evenodd" class="s0" d="m615.5 131.9h6.3v-1.7h-6.3v-6h6.6v-1.7h-8.6v18h8.8v-1.6h-6.8v-7z"/><path fill-rule="evenodd" class="s0" d="m636.3 122.5h-2.2l-3.9 6.7-4-6.7h-2.2l5.1 8.6-5.6 9.5h2.2l4.5-7.6 4.4 7.6h2.2l-5.5-9.5 5-8.6z"/><path fill-rule="evenodd" class="s0" d="m648.6 130.3h-7.3v-7.8h-2v18.1l2-0.1v-8.5h7.3v8.5h2v-18h-2v7.8z"/><path fill-rule="evenodd" class="s0" d="m655.4 122.5h2v18.1h-2z"/><path class="s0" d="m669.2 131v-0.1c0.4-0.1 2.6-0.9 2.6-4 0-3-2-4.4-4.9-4.4h-4.7v18h4.7c2.9 0 5.7-1.1 5.7-4.8 0-3.5-2.1-4.4-3.4-4.7zm-5-6.8h2c1.4 0 3.6 0.2 3.6 2.9 0 3.1-2.7 3.2-3.8 3.2h-1.8v-6.1zm2.3 14.6h-2.3v-6.8h2.6c2.1 0 3.8 1.2 3.8 3.4 0 3.3-3.1 3.4-4.1 3.4z"/><path fill-rule="evenodd" class="s0" d="m676.4 122.5h2v18.1h-2z"/><path fill-rule="evenodd" class="s0" d="m681.1 124.2h4.2v16.3h2v-16.3h4.2v-1.7h-10.4v1.7z"/><path fill-rule="evenodd" class="s0" d="m694.1 122.5h2v18.1h-2z"/><path class="s0" d="m706.4 122.2c-5.1 0-6.4 4.7-6.4 9.3 0 4.6 1.3 9.3 6.4 9.3 5.1 0 6.3-4.8 6.3-9.3 0-4.6-1.3-9.3-6.3-9.3zm0 16.9c-3.6 0-4.2-4.4-4.2-7.6 0-3.3 0.6-7.6 4.2-7.6 3.6 0 4.1 4.3 4.1 7.6 0 3.2-0.6 7.6-4.1 7.6z"/><path fill-rule="evenodd" class="s0" d="m726.4 137.7h-0.1l-7.3-15.2h-2.5v18h1.9v-15.2l7.3 15.2h2.6v-18h-1.9v15.2z"/><path class="s0" d="m179.2 77.7q-2.1-1.2-3.3-1.9l-1.4 2.5q0.6 0.3 1.8 1 1.2 0.7 1.8 1 0.9-1.6 1.2-1.8c1.7 1 2.8 1.6 3.3 1.9l1.3-2.4-3.5-2.2q-1 1.6-1.2 1.9z"/><path class="s0" d="m214.6 106.1q0.6-0.9 1.4-2.6-3-1.8-3.4-2-0.7 1.2-1 1.8-2.6-1.6-3.5-2.1-0.7 0.9-1.5 2.6l3.5 2.1q0.7-1.3 1.1-1.8 2.3 1.2 3.4 2"/><path class="s0" d="m254.3 98.2q0.4 0 1.4-1 0.5 0.7 0.7 1h7.4q0.1 0 0.7-0.4 0.5-0.4 0.6-0.4-0.1 0 1.1 0.4 1.2 0.4 2.7 0.4h2.7c0.8-1.4 1.2-2.6 1.1-3.7v-5.4q-0.3 0.4-1.6 1.9-0.7 0.8-0.7 1.2 0-0.1 0.5 2.9-0.2 0.2-2.3 0-0.1 0-1-0.1-0.6-0.2-0.9-0.4l1.3-5q-0.9 0.6-1.9 1.6-1.1 1.1-1.1 1.7v1.1q0 0.6-0.3 1.1h-5.6v0.1c-0.8 0-1.4-0.1-1.5-0.5q0.7-0.8 0.9-2.9 0.2-1.3 0.3-2.7-1.5 1.5-2.8 3 0 0.8 0 1.6-0.2 1.6-1.2 1.6h-4.9v-0.1h-33.3v-0.1h-1.4q0-0.5-0.1-1.1 0-0.7 0-0.8v-3c0-0.1-0.1-0.5-0.2-1.2q-0.2-1.1-0.2-1.6-0.1 0.1-1.2 1.6-1 1.4-1 1.9 0 0 0.2 1.6 0.3 1.6 0.3 2.3l-0.1 0.3h-9v0.1h-15.5v-0.1h-0.7q-1.5 0-2-0.6l-0.1-0.5q-1-8.4-1.5-12.7c-1.2 1.5-1.9 2.4-2.1 2.8q0 1.1 0.1 1.8c-0.3 0.2-1.1 0.5-2.4 0.9q-1.6 0.5-2.3 1.1c-1.5 1.4-2.5 3.3-2.9 5.8q0.7 0.6 1.6 0.9 0.5 0.2 1.5 0.4 3.2 0.9 3.6 0.9c0.2 0 0.4-0.1 0.5-0.3 0.2-0.4 0.4-0.7 0.6-1.1 0.3-0.5 0.6-0.8 1-1 0.1 0.3 0.2 0.6 0.2 0.9q0.3 2 0.4 2.3c0.3 0.6 0.6 1.1 1.2 1.4 0.2 0.1 0.5 0.2 0.7 0.2h26q1.1-1.7 1.3-1.8 0.7 1.2 1.1 1.8h6 29.7 4.4zm-72.6-5.7q-0.5 0-1.2-0.2-0.8-0.1-2.2-0.6c-0.6-0.2-1.1-0.5-1.5-1q0.7-0.5 2.2-1 1.5-0.5 2.1-0.9 0.8-1 1.3-1.8l0.8 5.5z"/><path class="s0" d="m286.6 98.9q0.4-2.5 0.5-3.8c0.1-0.4 0.1-0.8 0.1-1.1q0-1-0.3-2.9c-0.2-0.8-0.5-1.4-0.6-1.8q-0.2-0.6-1-1.7-1-1.3-1.6-1.3-1.1 0-2.9 2.8-1.7 2.8-1.7 4.1 0 1.5 0.6 2.6 0.8 1.5 2.4 1.5c1.4 0 2.6-0.9 3.5-2.8l0.2 0.2q0 0.3 0 0.8 0.1 0.5 0.1 0.5c0 2.4-2.1 5-6.2 7.8q-2 1.3-3.5 1.3c0 0-0.7-0.1-1.9-0.3-1.2-0.3-1.9-0.4-2-0.4q-0.3 0-0.5 0.5 0.6 0.5 3.5 1.2 1.2 0.3 2.8 0.7h1.4q2.4 0 4.5-2.7 1.7-2.2 2.6-5.2m-3.5-5q-0.8 0-1.6-0.3-1.1-0.5-1.1-1.3 0-0.5 0.9-1.4 0.9-0.9 1.4-0.9c0.7 0 1.2 0.5 1.6 1.5 0.4 0.7 0.5 1.3 0.6 1.8q-0.8 0.6-1.8 0.6"/><path class="s0" d="m302.9 97.8q0.8 0.4 1.1 0.4h28.7c0.4-0.5 0.7-1.2 0.8-2q0.2-1.1 0.3-2.1 0.2-0.9 0.2-1.7l-1-10.2 0.2 0.2c0.6-1.2 1.3-2.4 1.8-3.6q-1.6-0.9-2.4-1.4-0.4-0.2-0.4-0.6l0.1-0.5q0-0.5 0-0.7h-0.5q-1.4 2.1-2 3.4-0.1 0.2-0.1 0.7 0 0.4 0.1 0.6 0.5 0.5 0.7 0.7 0.8 4.9 1.1 7.5 0.1 0.9 0.3 2.4c0.2 1.7 0.3 2.8 0.3 3q0 0.7-0.1 0.9l-0.1 0.3q-0.9-0.1-7.3 0h-1.6q0.6-1.2 1.3-2.3 0.4-0.9 0.4-1.7c0-0.5-0.1-1.3-0.5-2.2q-0.6-1.9-1.5-1.9-1.9 0-4.7 2.3-2.5 2.1-3.4 4.1-0.2 1.1-0.1 1.7h-5.4v0.1h-3.6v-0.1h-0.8q-1.6-0.5-3.2-2.7c-0.9-1.2-1.7-2.4-2.5-3.7l-1.7 3.2q0.3 0.3 1.6 2c1 1.3 1.5 2.1 1.5 2.4 0 1-1.2 2.8-3.5 5.2q-3.5 3.5-5.7 3.5-0.9 0-2.6-0.6-1.6-0.8-1.7-0.8l-0.3 0.1-0.2 0.1v0.5q0.8 0.5 3.4 1.6 3.2 1.3 4.3 1.3 2.3 0 5-4.1c1.8-2.6 2.7-4.6 2.7-6.1q0.3 0.3 1 0.8zm15.4-6.7q1.1-0.6 1.9-0.6 1 0 1.6 0.9 0.7 0.9 0.7 1.9 0 0.8-1 1.4c-0.6 0.2-1 0.4-1.5 0.4q-0.6 0-1.8-0.7-1.3-0.8-1.3-1.7 0-0.8 1.4-1.6"/><path class="s0" d="m323.1 79.9l-3.8-1.9q-1.1 2.5-1.3 2.6 1.2 0.8 3.5 2.1c0.5-0.8 1-1.7 1.5-2.8z"/><path class="s0" d="m339.1 78.6l2 19.6c0.9-2 1.4-3.8 1.4-5.4l-1.1-19.4c-1.6 2.5-2.3 4.2-2.3 5.2"/><path class="s0" d="m351 106.8q2.3 0 4.4-2.8 1.7-2.1 2.6-5.1 0.5-2.5 0.6-3.7 0.1-0.7 0.1-1.2 0-1-0.3-2.9c-0.3-0.8-0.5-1.4-0.7-1.8q-0.2-0.6-1-1.7-0.9-1.3-1.5-1.3c-0.8 0-1.7 0.9-2.9 2.8q-1.8 2.8-1.8 4.1 0 1.5 0.7 2.6c0.5 1 1.3 1.5 2.3 1.5 1.5 0 2.7-0.9 3.6-2.8l0.2 0.2q0 0.3 0 0.8 0.1 0.5 0.1 0.5c0 2.4-2.1 5-6.3 7.8q-1.9 1.3-3.4 1.3-0.1 0-1.9-0.3c-1.2-0.3-1.9-0.4-2-0.4q-0.4 0-0.5 0.5 0.6 0.5 3.4 1.2 1.3 0.3 2.8 0.7h1.5zm3.6-12.9q-0.8 0-1.6-0.3-1.1-0.5-1.1-1.2 0-0.6 0.9-1.4 0.9-1 1.4-1 0.9 0 1.6 1.6 0.5 0.9 0.6 1.7-0.8 0.6-1.8 0.6z"/><path class="s0" d="m415.8 104.1q2.3 1.2 3.4 2 0.6-0.9 1.4-2.6-2.9-1.8-3.3-2-0.8 1.2-1.1 1.8c-1.7-1.1-2.9-1.8-3.5-2.1q-0.7 0.9-1.5 2.6l3.6 2q0.7-1.2 1-1.7z"/><path class="s0" d="m478.6 96.2c0.1-0.7 0.2-1.4 0.3-2.1q0.1-0.9 0.1-1.7l-0.9-10.2 0.2 0.2q0.9-1.7 1.7-3.7-1.5-0.8-2.4-1.3-0.4-0.2-0.4-0.6l0.1-0.5q0.1-0.5 0-0.7h-0.5q-1.3 2.1-1.9 3.4-0.2 0.2-0.2 0.7 0 0.4 0.2 0.6 0.4 0.5 0.6 0.7 0.8 4.9 1.1 7.5 0.2 0.9 0.3 2.4c0.2 1.7 0.3 2.8 0.3 3q0 0.7 0 0.9l-0.1 0.3q-0.9-0.1-6.6 0h-1.1q-0.5-5-0.6-7.3c0-1.3-0.1-2.2-0.2-2.9q-0.3-3.8-0.3-5.7c-0.2-1.2-0.2-2.6-0.4-4.1l-2.6 3.3 2.2 16.7h-6.7v0.1h-3.4v-0.1h-2.7c0.1-0.2 0.4-0.6 0.9-1.4q0.5-0.7 0.5-0.9 0-1.9-2.9-3.7c-1.7-1-3.2-1.5-4.4-1.5q-2.8 0-7.9 3c-4.1 2.5-7 4-8.6 4.5h-2v0.1q-1.3 0-1.6-0.5 0.8-0.8 1-2.9 0.2-1.3 0.3-2.7-1.5 1.5-2.8 3 0 0.8-0.1 1.6-0.1 1.6-1.1 1.5h-4.8v-0.1h-1.3c-0.1-0.3-0.1-0.7-0.1-1.2q-0.1-0.6-0.1-0.8v-2.9q0-0.2-0.2-1.3-0.1-1.1-0.1-1.5-0.2 0.1-1.2 1.5c-0.7 1-1.1 1.6-1.1 1.9q0 0.1 0.3 1.7 0.2 1.6 0.2 2.2l-0.1 0.4h-9v0.1h-22.7v-0.1h-1.7q-1.1-1.7-1.7-5.7-0.6-4.5-1.4-6.1-0.2 0.5-0.8 1.7-0.6 1.1-0.9 1.6l1.7 6.6q-0.3 1.7-1.3 2-2.7 0.6-4.9 0.6-1.4 0-2.7-0.3c-0.3-0.2-0.4-0.3-0.5-0.5q-0.2-0.2-0.2-0.7c-0.1-1-0.2-1.5-0.4-1.6q-1.1 3.4-1.1 4.6-0.1 0.2 0.3 1l0.4 0.4q1.1 0.3 2.4 0.3 1.8 0 4.4-0.3c1.5-0.2 2.3-0.4 2.5-0.6 0.9-1.2 1.4-2.1 1.7-2.8q0.1 0.2 0.7 1.4 0.4 0.9 1 1.2 0.6 0.3 0.8 0.4h32.2q1.2-1.7 1.4-1.8 0.8 1.2 1.1 1.7h6.7q0.3 0.1 1.4-1 0.4 0.7 0.7 1h28.4l10.3 0.1c0.3 0 0.7-0.5 1.2-1.4l0.1 0.2q0 0.2 0.1 0.6 0 0.4 0 0.6h10c0.4-0.6 0.7-1.3 0.8-2.1m-26.1-1.4q-0.4 0.3-0.7 0.3h-15.4q2.6-1.4 5.1-2.7 3.2-1.7 5.5-1.7c0.8 0 1.4 0.1 2.1 0.3q0.5 0.2 2 1.3 1.8 1.3 1.8 2c0 0.2-0.1 0.4-0.5 0.5"/><path class="s0" d="m506.6 103.3c1.3-2.3 2.2-3.8 2.4-4.4q0.2-0.5 0.3-0.5l0.3-0.1h24.4q0.6-1.4 0.8-2.2 0.4-2.7 0.4-3.6l-0.9-10.2 0.1 0.1q0.2 0 2-3.4-2.5-1.5-3-1.7c0.1-0.3 0.1-0.5 0.1-0.6 0.2-0.6 0.2-0.9-0.1-1.1h-0.3q-1.1 2-1.6 2.9c-0.4 0.6-0.6 1-0.6 1.3l0.1 0.5q0.5 0.5 0.8 0.7v0.2q0.3 2.4 1 7.4 0.2 1 0.3 2.4 0.3 2.6 0.3 3 0 0.8-0.1 1.1h-24.1-3q-3.3 0.1-4.9 0.1c-0.2 0-0.5 0.4-0.9 1.3q-0.3 1-0.6 1.9 1.8 0.2 3.8 0.4 2.5 0.4 2.7 2.6c-1 0.9-2.4 1.5-4.1 1.9-1.8 0.3-3.2 0.5-4.1 0.6q-0.6 0-1.4 0-6.1 0-6.1-4.5 0-1.2 1.2-3.7c0.7-1.7 1.1-2.5 1.1-2.5v-0.7l-0.5 0.2q-2.5 2.8-3.3 7.1-0.3 1.2-0.3 2 0 2.9 2.2 4.4c1.1 0.7 2.6 1.1 4.4 1.1q1.6 0 2.1-0.1 4-0.9 5.6-1.6 1-0.4 1.9-0.8 1.1-0.6 1.7-1.5"/><path class="s0" d="m498.7 111.8q-2.6-1.6-3.2-1.9l-1.3 2.4 3.3 2.1q0.6-1.2 1-1.8c1.4 0.8 2.3 1.4 3 1.8 0.5-1 0.9-1.8 1.2-2.3l-2.9-1.9c-0.4 0.7-0.7 1.2-1.1 1.6z"/><path class="s0" d="m546.4 104q1.8-2.1 2.7-5.1 0.4-2.6 0.5-3.8 0.1-0.6 0.1-1.1 0-1-0.4-2.9-0.3-1.2-0.5-1.8-0.3-0.6-1.1-1.7-0.9-1.3-1.5-1.3-1.1 0-2.9 2.8-1.7 2.7-1.8 4.1 0 1.5 0.7 2.6 0.8 1.5 2.4 1.5 2.1 0 3.5-2.8l0.2 0.2q0 0.3 0 0.8 0.1 0.5 0.1 0.5c0 2.4-2.1 5-6.3 7.8q-1.9 1.3-3.4 1.3-0.1 0-1.9-0.3c-1.2-0.3-1.9-0.4-2-0.4q-0.4 0-0.5 0.5c0.4 0.3 1.5 0.7 3.4 1.2q1.3 0.3 2.8 0.7h1.5c1.6 0 3.1-0.9 4.4-2.8m-0.9-10.1q-0.7 0-1.5-0.3-1.1-0.5-1.1-1.3c0-0.3 0.3-0.8 0.9-1.4q0.9-0.9 1.4-0.9c0.6 0 1.1 0.5 1.6 1.5q0.5 1 0.6 1.8-0.8 0.6-1.9 0.6z"/><path class="s0" d="m591.4 94q0.2-0.8 0.2-1.6l-1-10.2 0.2 0.2q1-1.7 1.8-3.7-1.6-0.8-2.4-1.3-0.4-0.2-0.4-0.6l0.1-0.6q0.1-0.4 0-0.6h-0.5q-1.4 2.1-2 3.3-0.1 0.3-0.1 0.8 0 0.4 0.1 0.5 0.4 0.6 0.7 0.8 0.7 4.8 1.1 7.5 0.1 0.9 0.3 2.4c0.2 1.7 0.3 2.7 0.3 3q0 0.7-0.1 0.9l-0.1 0.2q-0.9 0-7.3 0.1v0.1h-13.3v-0.1h-1.7q-1-1.7-1.6-5.7-0.7-4.5-1.4-6.1-0.3 0.5-0.9 1.7-0.6 1.1-0.9 1.6l1.7 6.5q-0.2 1.8-1.3 2-2.6 0.7-4.8 0.7-1.4 0-2.8-0.3-0.3-0.3-0.5-0.5-0.1-0.2-0.2-0.8c0-0.9-0.1-1.4-0.3-1.5-0.8 2.2-1.2 3.8-1.2 4.6q0 0.2 0.3 1l0.4 0.3q1.1 0.3 2.4 0.3 1.9 0 4.4-0.3c1.5-0.2 2.4-0.4 2.6-0.5q1.3-1.8 1.7-2.9 0.1 0.2 0.7 1.4 0.4 0.9 1 1.3 0.5 0.3 0.8 0.3h22.9c0.4-0.6 0.7-1.2 0.8-2q0.2-1.1 0.3-2.2"/><path class="s0" d="m599 73.4c-1.5 2.6-2.4 4.2-2.4 5.2l2.1 19.6c0.9-2 1.4-3.8 1.4-5.4l-1.1-19.4z"/><path class="s0" d="m624.9 105.6q4-1.9 4.8-6.3 0.3-1 0.3-1h0.7-0.1l-0.1-0.1h17.6q0.2 0 0.7-0.3c0.3-0.3 0.5-0.4 0.5-0.5 1-1.8 1.6-3.1 1.9-3.8q0.1-0.3 0.1-0.8 0-0.3-0.2-1.1-0.3-1-1.7-2.2c-0.7-0.7-1.4-1.2-2.1-1.5q-1-0.4-1.5-0.5-1 0-2.4 0.7c-1.8 1.1-3.1 1.9-4 2.5q-5.3 2.9-8.6 4.4h-0.7c-0.5-0.3-0.9-1-1.5-2.3q-1-2.4-1.5-3l-1.5 3.4q2.4 3.9 2.4 6.2 0 2.1-4 3.5-3 1-5.1 1c-1.5 0-2.8-0.4-3.9-1.1q-1.9-1.3-1.9-3.9 0-1.4 0.9-3.6 1-2.3 1-2.2v-0.6h-0.4q-1.3 1.4-2.2 4.1-0.9 2.7-0.9 4.5 0 3.1 2 4.6 1.8 1.3 4.6 1.3 3.8 0 6.8-1.4m14.3-12.5q2-1.5 3-1.9 0.9-0.4 1.9-0.4c0.5 0 1 0.1 1.4 0.3q0.7 0.2 1.1 0.5 0.9 0.6 2 2 0.2 0.7 0.2 0.5v0.7q-0.9 0.3-1.2 0.3h-11.7c0.8-0.3 1.8-1 3.3-2z"/><path class="s0" d="m634.1 82.2l3.4 2 1.6-2.5-3.5-2.1q-0.3 0.5-0.8 1.3c-0.3 0.6-0.6 1.1-0.7 1.3"/><path class="s0" d="m718.7 100.4c0.3-0.5 0.6-1.1 0.9-1.7 0.3-0.6 0.5-1.1 0.5-1.4q0-1.3-2.4-2.8-2.3-1.4-2.5-2.3c-0.1-0.7-0.2-1.6-0.2-2.7v-2.9c0 0.1-0.1-0.4-0.1-1.7q-0.1-1.6 0-2.3h0.1l1.8-3.6q-2.5-1.4-3-1.7c0 0 0.1-0.4 0.2-1q0.1-0.5-0.3-0.7-0.5 0.4-1.4 2.1-1 1.7-1 2.1c0 0.3 0.1 0.5 0.2 0.6q0.5 0.4 0.8 0.6c0.3 3.2 0.5 5.5 0.7 7.1 0 1 0.1 1.8 0.1 2.4q0.1 0.7 0.2 1.8 0.1 1.1 0.1 1.2 0 0.7-1.5 1.2-1.2 0.4-1.9 0.4h-4.1v0.1h-3.3v-0.1h-1.7q-1.7 0-1.7-0.7c0.5-0.2 0.9-0.7 1.4-1.6q0.7-1.3 0.7-1.9c0-0.5-0.6-1.1-1.6-2-1-0.7-1.6-1.1-1.8-1.2-0.8-0.2-1.3-0.4-1.6-0.4q-0.8 0.1-1.5 0.5-0.2 0.2-1.3 2-1.1 2-1.1 2.6 0 0.7 0.8 0.7l0.5-0.1h0.3q1 0 1.7 1.4c-0.6 0.2-1 0.4-1.1 0.4q-2.2 0.3-2.7 0.3h-4.5v0.1h-17.9v-0.1h-0.8q-1.6-0.4-3.3-2.6-1.3-1.9-2.5-3.8l-1.7 3.2c0.3 0.2 0.8 0.9 1.7 2q1.4 1.9 1.4 2.4 0 1.6-3.4 5.2-3.6 3.6-5.8 3.6-0.8 0-2.5-0.7-1.7-0.8-1.8-0.7h-0.2l-0.2 0.1v0.5q0.8 0.5 3.4 1.6 3.2 1.4 4.3 1.4 2.2 0 5-4.2c1.8-2.6 2.7-4.6 2.7-6.1q0.2 0.3 1 0.8c0.5 0.3 0.8 0.5 1 0.5h23.6c0.8 0 1.8-0.3 3.2-0.6 1.4-0.5 2.2-0.9 2.5-1.2 0.3 0.4 0.6 0.7 0.8 0.9q1.3 0.9 2 0.9h10.1q0.1 0 2.2-0.7c1.4-0.5 2.1-0.7 2.2-0.7q1.5 0 4.3 3.6"/><path class="s0" d="m724.8 78.6l2 19.6c1-2 1.5-3.8 1.5-5.4l-1.1-19.4c-1.6 2.5-2.4 4.2-2.4 5.2"/><path class="s0" d="m464.1 132.3h-1.7c0 1.4-0.1 2.2-0.5 3.1l-4-4.9c1.8-1.2 3.6-2.5 3.6-4.8 0-2.4-1.9-3.8-4.1-3.8-2.2 0-4 1.5-4 3.8 0 1.8 1.2 3.1 2.2 4.4-2 1.2-4.5 2.9-4.5 5.6 0 3.4 2.4 5.2 5.6 5.2 2.1 0 4-1.1 5.4-2.8l1.9 2.4h2l-3-3.8c0.8-1.5 1-3.4 1.1-4.4zm-9-6.6c0-1.6 1.2-2.3 2.3-2.3 1.1 0 2.3 0.7 2.3 2.3 0 1.5-1.3 2.7-2.7 3.5v-0.1c-0.8-1-1.9-2.3-1.9-3.4zm1.6 13.7c-1.9 0-3.8-1.3-3.8-3.5 0-2.2 1.9-3.5 3.6-4.5l4.4 5.5c-1.2 1.6-2.6 2.5-4.2 2.5z"/><path class="s0" d="m182.5 51.9c0.3-0.9 2.3-6 4.8-11.8h19.5c2.3 5.9 4.5 10.9 4.9 11.8 0.6 1.7 0.1 2.8-1.9 3.7h13.6c-2.6-1.2-3.1-2.1-3.7-3.7-1.2-2.9-20.7-49.6-20.7-49.6 0 0-19.3 46.7-20.6 49.6-0.7 1.4-1.4 2.3-3.5 3.7h9.2c-1.9-0.7-2.2-2-1.6-3.7zm14.5-36.5c0 0 4.6 11.8 8.5 21.5h-16.9c3.3-8.3 8.4-21.5 8.4-21.5z"/><path class="s0" d="m226.6 55.6h16.3c16.1 0 20.2-8.4 20.2-14.4 0-12.6-14.9-13.7-14.9-13.7 0 0 10.1-3.1 10.1-12.1 0-10.3-12.3-11.9-17.4-11.9h-14.3c1.4 0.6 2.1 1.6 2.1 3.4v45.3c0 1.7-0.7 2.7-2.1 3.4m9.2-48.8c0 0 1.7-0.2 5-0.2 4.9 0 10.4 2.6 10.4 9.2 0 9.7-8.5 10.5-12.2 10.5-1.8 0-3.2-0.2-3.2-0.2v-19.3q0 0 0 0zm0 22.8c0 0 3.7-0.1 6-0.1 6.4 0 13.3 2 13.3 10.9 0 11.5-11 12.2-15.8 12.2-2.1 0-3.5-0.3-3.5-0.3v-22.7z"/><path class="s0" d="m272.4 6.9v32.3c0 13 10.7 17.1 18.9 17.1 9.4 0 17.4-4.7 17.4-17.2l0.3-32.2c0-1.7 0.8-2.8 2-3.4h-7.9c1.2 0.6 1.9 1.7 1.9 3.4l0.4 32.5c0 6.9-3.2 13.4-13.3 13.4-10.6 0-12.4-8.1-12.4-13.4v-32.5c0-1.7 1.2-2.8 2.4-3.4h-12c1.1 0.6 2.3 1.7 2.3 3.4"/><path class="s0" d="m332.3 55.6h17.4c21.4 0 30.3-14.6 30.3-26.9 0-6.7-3.9-25.2-28.9-25.2h-18.8c1.2 0.6 2 1.7 2 3.4v45.3c0 1.7-0.8 2.8-2 3.4zm9.2-48.7c1.7-0.3 6.8-0.1 9.6-0.1 15.6 0 21.1 12.4 21.1 21.9 0 11.5-5 23.6-22.2 23.6-2.2 0-5.8 0-8.5-0.1v-45.3z"/><path class="s0" d="m388.4 55.6h11.1c-1.1-0.6-1.9-1.7-1.9-3.4v-23.9h26.2v23.9c0 1.7-0.7 2.8-1.9 3.4h11.1c-1.3-0.6-2-1.7-2-3.4v-45.3c0-1.7 0.7-2.8 2-3.4h-11.1c1.2 0.6 1.9 1.7 1.9 3.4v18.2h-26.2v-18.2c0-1.7 0.8-2.8 1.9-3.4h-11.1c1.2 0.6 2 1.7 2 3.4v45.3c0 1.7-0.8 2.8-2 3.4z"/><path class="s0" d="m444.3 51.9c0.3-0.9 2.3-6 4.8-11.8h19.5c2.3 5.9 4.4 10.9 4.9 11.8 0.6 1.7 0 2.8-1.9 3.7h13.6c-2.6-1.2-3.1-2.1-3.8-3.7-1.2-2.9-20.6-49.6-20.6-49.6 0 0-19.4 46.7-20.6 49.6-0.7 1.4-1.4 2.3-3.5 3.7h9.2c-2-0.7-2.2-2-1.6-3.7zm14.5-36.5c0 0 4.6 11.8 8.5 21.5h-17c3.3-8.3 8.5-21.5 8.5-21.5z"/><path class="s0" d="m488.4 55.6h16.3c16.1 0 20.1-8.4 20.1-14.4 0-12.6-14.9-13.7-14.9-13.7 0 0 10.2-3.1 10.2-12.1 0-10.3-12.3-11.9-17.4-11.9h-14.3c1.3 0.6 2.1 1.6 2.1 3.4v45.3c0 1.7-0.8 2.7-2.1 3.4m9.2-48.8c0 0 1.7-0.2 4.9-0.2 5 0 10.4 2.6 10.4 9.2 0 9.7-8.5 10.5-12.2 10.5-1.8 0-3.1-0.2-3.1-0.2 0 0 0-19.3 0-19.3zm0 22.8c0 0 3.6-0.1 6-0.1 6.3 0 13.2 2 13.2 10.9 0 11.5-11 12.2-15.7 12.2-2.2 0-3.5-0.3-3.5-0.3v-22.7z"/><path class="s0" d="m532.9 55.6h11.1c-1.1-0.6-1.9-1.7-1.9-3.4v-45.3c0-1.7 0.8-2.8 1.9-3.4h-11.1c1.2 0.6 2 1.7 2 3.4v45.3c0 1.7-0.8 2.8-2 3.4z"/><g><path class="s0" d="m583 0.1q7.5 0 11.2 3.5 3.7 3.5 3.7 11.1 0 5.6-2.1 10.5-2.1 4.9-5.4 9.2-3.4 4.2-7.6 8-4.2 3.7-8.4 7h13.8q2.2 0 3.7-0.2 1.6-0.2 2.7-0.9 1.1-0.8 2-2.1 0.9-1.4 1.7-3.7l2.2 0.3-3.1 13.3h-27.2q-1.7 0-3.2 0.1-1.5 0-2.8 0.2l-0.3-2.2q4.4-4.4 9.1-8.8 4.7-4.4 8.6-9.1 3.8-4.7 6.3-9.7 2.5-5 2.5-10.7 0-6.2-2.8-8.8-2.7-2.5-7.8-2.6-2.4 0-4.2 0.4-1.7 0.3-3 1.3-1.2 1-2 2.7-0.8 1.8-1.1 4.6l-2.2 0.3-0.4-10.6q2.3-1 4.1-1.6 1.9-0.6 3.7-0.9 1.9-0.3 3.9-0.5 1.9-0.1 4.4-0.1z"/><path class="s0" d="m626.2 0q4.6 0 8.2 2.2 3.5 2.3 5.9 6 2.3 3.8 3.5 8.9 1.3 5.1 1.3 10.6 0 6.6-1.3 12.1-1.3 5.4-3.8 9.3-2.6 3.9-6.4 6.1-3.8 2.1-8.8 2.1c-3.4 0-6.1-0.7-8.4-2.1q-3.5-2.1-5.8-5.8-2.2-3.7-3.3-8.7-1-4.9-1-10.6 0-7.1 1.2-12.6 1.3-5.6 3.7-9.5 2.5-3.9 6.2-5.9 3.8-2.1 8.8-2.1 0 0 0 0zm-2.5 3.7q-2.9 0-4.6 2.2-1.7 2.2-2.6 5.6-0.8 3.4-1.1 7.4-0.3 4.1-0.3 7.8 0 6.3 0.5 11.4 0.6 5 1.8 8.5 1.3 3.5 3.4 5.4 2.1 1.8 5.3 1.8 3.6 0 5.6-1.9 2-1.9 3-5.1 1-3.1 1.1-7.2 0.2-4.1 0.2-8.5 0-2.6-0.1-5.6-0.1-3-0.5-6.1-0.3-3-1.1-5.9-0.8-2.8-2.2-5-1.3-2.2-3.4-3.5-2.1-1.3-5.1-1.3 0.1 0 0.1 0z"/><path class="s0" d="m668.6 0.1q7.6 0 11.3 3.5 3.7 3.5 3.7 11.1 0 5.6-2.1 10.5-2.1 4.9-5.5 9.2-3.4 4.2-7.5 8-4.2 3.7-8.5 7h13.8q2.2 0 3.8-0.2 1.5-0.2 2.6-0.9 1.2-0.8 2.1-2.1 0.9-1.4 1.7-3.7l2.2 0.3-3.2 13.3h-27.1q-1.8 0-3.3 0.1-1.5 0-2.7 0.2l-0.3-2.2q4.4-4.4 9.1-8.8 4.7-4.4 8.5-9.1 3.9-4.7 6.4-9.7 2.4-5 2.4-10.7 0-6.2-2.7-8.8-2.8-2.5-7.8-2.6-2.4 0-4.2 0.4-1.8 0.3-3 1.3-1.3 1-2 2.7-0.8 1.8-1.2 4.6l-2.1 0.3-0.4-10.6q2.2-1 4.1-1.6 1.9-0.6 3.7-0.9 1.8-0.3 3.8-0.5 2-0.1 4.4-0.1z"/><path class="s0" d="m720.8 0.9q1.7 0 3.5-0.1 1.8-0.1 3.7-0.4l-0.8 11.2-2.2 0.4q-0.3-5-1.8-6.1-1.1-1.1-4.4-1.1h-12.8l-1 11.5q5.1 0.9 9.4 2.7 4.4 1.8 7.5 4.4 3 2.6 4.8 5.9 1.7 3.3 1.7 7.4c0 2.7-0.5 5.3-1.3 7.8q-1.4 3.8-4.2 6.6-2.8 2.9-7.1 4.6-4.3 1.6-10.3 1.7-0.9 0-2.1-0.2-1.2-0.1-2.4-0.4-1.2-0.2-2.4-0.4-1.1-0.3-1.8-0.6l0.5-12.5h1.7q0.4 5.5 2.9 8.2 2.5 2.7 6.4 2.7 2.5 0 4.7-0.8 2.3-0.9 4.1-2.6 1.7-1.8 2.8-4.4 1-2.6 1-6.1 0-3.8-1.5-6.8-1.6-3-4.3-5.2-2.7-2.3-6.3-3.8-3.6-1.5-7.7-2.2l-0.6-0.6 1.9-20.7h18.3z"/></g></g><path class="s0" d="m47.7 46c-8.9-2.9-19.8 5.7-24.3 19.3-1.3 4-2 8.1-2 11.8 0.1-1.6 0.2-3.3 0.6-5.1 2.4-11.9 11.7-23.5 21.5-24.1 6.4-0.4 11.7 4.7 13.5 10.6-1.2-6.2-4.4-10.9-9.3-12.5z"/><path class="s0" d="m70.4 0.8c18.8 0 36.5 7.2 49.8 20.4 13.4 13.2 20.7 30.7 20.7 49.3 0 18.6-7.3 36.2-20.7 49.4-13.3 13.1-31 20.4-49.8 20.4-18.8 0-36.5-7.3-49.8-20.4-13.3-13.2-20.6-30.7-20.6-49.4 0-18.6 7.3-36.1 20.6-49.3 13.3-13.2 31-20.4 49.8-20.4zm-48.2 21.9c-12.9 12.8-20 29.8-20 47.8 0 18 7.1 35.1 20 47.8 12.9 12.8 30 19.8 48.2 19.8 18.3 0 35.4-7 48.3-19.8 12.9-12.7 20-29.7 20-47.8 0-18.1-7.1-35-20-47.8-12.9-12.7-30-19.7-48.3-19.7-18.2 0-35.3 7-48.2 19.7z"/><path class="s0" d="m23.2 43.9c6.6-20.2 24.1-18.1 24.1-18.1 0 0-19.2-3.8-24.1 18.1z"/><path class="s0" d="m58.5 33.9c0 0-1.5 1.9 1.8 2.2 3.3 0.4 3.9 1.6 0.1 2.6-3.8 0.9-2.9 1.9-2.9 1.9 1.4 0 1.7-1 4 0.5 2.4 1.5 2.7-0.5 2.7-0.5 5.1 4.9 1.6 4.7 1.6 4.7 2.7-2.3-5.7-3.5-10.8 0.6-5.2 4.1-6.4 0.4-6.4 0.4 4.4 0.4 2.6-2.1 10-3.1 0 0-1-2.2-3.5-2.4 0 0 2-2.7 4.5-2.8 1 0-2.1-2-2.1-2-1.2-1.2-3.7 1.7-5.4 1.9-2.4 0.4-3.9-0.3-4.6-0.8q0.6 0.1 1.2 0.1c2.3 0 4.2-1.1 4.2-2.5 0-0.8-0.7-1.4-1.6-1.9q0.2 0.4 0.2 0.8c0 1.4-1.4 2.6-3.1 2.6-1.6 0-3-1.2-3-2.6q0-0.5 0.3-1c-1.2 0.2-2.6 0.5-4.1 1.1 1.4 0.5 2.1 1.2 2.1 1.2-2.6-1.1-5.7-0.8-5.7-0.8 0 0 14-7.7 20.5-0.2m-11.8-1.7c0 0 0.1 0.8 0.4 1.1 0 0 1.3-0.9 3-1.1 0 0-3.4 0-3.4 0z"/><path class="s0" d="m48.1 25.9c0 0 6.4-0.1 13.2 6.6 0.8 0.8 0.4 1.2 2.7 2.7 1 0.7 4.8 3.8 3.5 7.9 0 0 1.4-6-7.7-8.1 0 0 2.4 0.1 1.3-1.4-1.3-1.6-6.5-6.8-13-7.7z"/><path class="s0" d="m88.7 54.4c0 0 2.5 1.2 2.8-0.3 0.3-1.3 0.7-2.4 1.2-3.4 0.7-1.3 1.5-2.2 2.3-2.9 1.3-1.2 2.5-1.5 2.5-1.5-6.7 1.5-8.9 8-8.9 8"/><path class="s0" d="m71 83.3c0 0 0.8-0.3 1.3-2.6 0.5-2.3 1.7-8.1 5.5-8 1.7 0.1 2.1-0.8 2.1-0.8 0 0 0.9 1.9-1.8 2.5-5.6 1.3-4.4 7.4-7.1 8.9z"/><path class="s0" d="m76.2 51.3l-0.4-0.4c-2.6-2.4-4.7-5.7-4.7-5.7 0 0 2 5.3 3.4 6.9l1.6-0.8h0.1z"/><path class="s0" d="m67.4 103.6c7.4-2.7 5.1-13.5 14.1-14.5 15.8-2 12.6-19.1 12.6-19.1 0 0 0.9 17.4-15.8 17.2-5.6-0.1-3 11.3-10.9 16.4"/><path class="s0" d="m82 88.7c0 0 0 9-7.2 13.8 0 0 9.4-3.4 9-15l-1.8 1.2z"/><path class="s0" d="m67.8 67.5c0 0-2.8-3-1.6-5 0.4-0.8 3.3-1 3.7-2 2.7-8 6.2-9.5 9.5-10.4 0 0-7.8 0.4-10.5 10-0.3 0.9-1.4 0.8-2.3 1-0.9 0.2-2.3 1.9-1.5 5 0.9 2.8 2.1 3.9 2.1 3.9 0 0 0.6-2.5 0.6-2.5z"/><path class="s0" d="m65.5 93.3c0 0-1.6 0.2-1.7 0.9-0.1 0.8 1 2.3 2.8 0.9 1.8-1.4 1.3-2.8 0.9-3.8-0.5-1.1-1.3-0.4-1 0.5 0.3 0.9 0.3 1.3-1 1.5"/><path class="s0" d="m69.2 66c0 0-2.5 0.4-7 15-1.4 4.4-1.8 4.1-2.4 4.6-2.4 1.7-3.7 1.6-4 3.9-0.4 2.3-1.1 2.8-0.8 3.5 0 0 1.4-0.7 1.5-2.2 0.1-1.4 1.4-2.3 4.4-4.1 3.6-2.1 3.6-10.8 8.3-20.7"/><path class="s0" d="m86.4 62.9c0 0 0.8 1.9-1.7 3-2.5 1.1-3.1 2.2-2.5 5 0 0-2-3.8 0.5-5.2 1.5-0.9 3.3-0.7 3.7-2.8z"/><path class="s0" d="m87.2 69.7l-0.1-0.6c0-0.4 0.1-0.7 0.5-1.1 1.8-1.4 0.6-2.9 0.6-2.9-0.9 2.5-3.2 2.3-3.9 2.8q-0.4 0.2-0.6 0.6l-0.1 0.1-0.1 0.2-0.1 0.1-0.1 0.5q-0.1 0.4 0 1.2c0.2 0.9-0.1 1.5-0.1 1.5 0 0 0.4-0.2 0.5-0.5 0.2-0.4 0.9 0 1.6-0.1 0.6 0 1.2-0.3 1.5-0.8 0.2-0.3 0.4-0.6 0.4-1m-2 0.5c-0.4-0.2-0.5-0.8-0.3-1.1 0.3-0.4 0.8-0.5 1.2-0.2 0.4 0.2 0.5 0.7 0.2 1.1-0.3 0.4-0.8 0.5-1.1 0.2z"/><path class="s0" d="m116.7 24.8c-12.4-12.3-28.8-19-46.3-19-17.4 0-33.9 6.7-46.2 19-12.3 12.2-19.1 28.4-19.1 45.7 0 17.3 6.8 33.6 19.1 45.8 12.4 12.2 28.8 19 46.3 19 17.4 0 33.8-6.8 46.2-19 12.3-12.2 19.1-28.5 19.1-45.8 0-17.3-6.8-33.5-19.1-45.7zm-11.5 53.1c1 16.1 8 27.8 16.4 29.3-11.4 15.6-30.1 25.9-51.1 25.9q-2.9-0.1-5.8-0.3c43.8-20 30-49.8 30-49.8 0 0 0.1 0.2 0.1 0.5l0.1 0.3q0.6 2.1 0.7 4.3c0.9 9.9-2 31.8-41 43-19.2-5-35-18.7-42.5-36.6 39.9 33.2 68.4 8 68.4 8q0 0-0.6 0.4c-1.8 1.2-3.8 2.3-5.9 3-11.6 4.9-37.3 9.9-65.4-22.5-0.6-2.7-1-5.5-1.2-8.4 14.8 15.7 35 20.8 45.5 11.4 5.8-5.3 7.4-13.9 5.3-23.3 1 9.5-3.2 19.9-12.3 23.3-11.5 4.2-27.3-2.1-38.5-12.8q-0.1-1.5-0.1-3.1c0-34.5 28.2-62.5 63.1-62.5 13.6 0 26.1 4.2 36.3 11.4-1.1 1.6-4 4.5-11.3 8.8-10.4 6.1-11.3 13.6-11.3 13.6 0 0 1.8-7.8 13.4-13.4 7.3-3.6 10.2-5.8 11.3-7.5 3.4 2.6 6.5 5.5 9.3 8.6-1.4 0.9-4.7 2.4-12.8 2.8-11.4 0.6-15.9 6-15.9 6 0 0 5.7-5.3 18-4.8 7.6 0.3 10.8-1 12.3-2 5.4 6.6 9.4 14.3 11.7 22.7-4.1-1.1-6.8-2.5-10.1-4.9-27.7-20.2-38.4-1.8-38.4-1.8l0.2-0.2q0.8-1 1.8-1.8c4.1-3.5 15.5-9.3 32.9 4.3 0 0 5.8 6.2 14.4 8 0.9 4.1 1.3 8.4 1.3 12.7 0 12.2-3.5 23.6-9.5 33.2-8.8-1.9-16.1-14.7-17-31.7-0.5-9.3-5.5-20.9-14.2-21.8v0.1l-0.2 0.1-0.1 0.3c9.6 1.1 11.9 15.7 12.6 27.2m-12.4-27.6c0.1-0.3-0.3 0.3 0 0"/></svg>