<svg xmlns="http://www.w3.org/2000/svg" width="50" height="50" viewBox="0 0 50 50" fill="none"><path d="M39 17.6667C39.3682 17.6667 39.6667 17.3682 39.6667 17C39.6667 16.6319 39.3682 16.3334 39 16.3334C38.6319 16.3334 38.3334 16.6319 38.3334 17C38.3334 17.3682 38.6319 17.6667 39 17.6667Z" fill="white"/><path d="M15.1855 13.6811C15.3157 13.8112 15.4864 13.8764 15.6569 13.8764C15.8274 13.8764 15.998 13.8112 16.1282 13.6811L16.5999 13.2094L17.0715 13.6811C17.2017 13.8112 17.3724 13.8764 17.5429 13.8764C17.7134 13.8764 17.884 13.8112 18.0142 13.6811C18.2745 13.4207 18.2745 12.9984 18.0142 12.7384L17.5425 12.2669L18.0142 11.7954C18.2745 11.5352 18.2745 11.1131 18.0142 10.8527C17.7539 10.5924 17.3319 10.5924 17.0715 10.8527L16.5999 11.3244L16.1282 10.8527C15.8679 10.5924 15.4459 10.5924 15.1855 10.8527C14.9252 11.1131 14.9252 11.5354 15.1855 11.7954L15.6572 12.2669L15.1855 12.7384C14.9252 12.9984 14.9252 13.4206 15.1855 13.6811Z" fill="white"/><path d="M37.6667 29H26.3334C25.9649 29 25.6667 29.2985 25.6667 29.6667V38.3333C25.6667 38.7015 25.9649 39 26.3334 39H37.6667C38.0352 39 38.3334 38.7015 38.3334 38.3333V29.6667C38.3334 29.2985 38.0352 29 37.6667 29ZM35 37.6667H29V32.3333H35V37.6667ZM37 37.6667H36.3334V31.6667C36.3334 31.2985 36.0352 31 35.6667 31H28.3334C27.9649 31 27.6667 31.2985 27.6667 31.6667V37.6667H27V30.3333H37V37.6667Z" fill="white"/><path d="M12.3334 19.6666C13.4362 19.6666 14.3334 18.7695 14.3334 17.6666C14.3334 16.5638 13.4362 15.6666 12.3334 15.6666C11.2305 15.6666 10.3334 16.5638 10.3334 17.6666C10.3334 18.7695 11.2305 19.6666 12.3334 19.6666ZM12.3334 17C12.7012 17 13 17.2991 13 17.6666C13 18.0341 12.7012 18.3333 12.3334 18.3333C11.9655 18.3333 11.6667 18.0341 11.6667 17.6666C11.6667 17.2991 11.9655 17 12.3334 17Z" fill="white"/><path d="M45 41H43.6667V23C43.6667 22.6318 43.3685 22.3333 43 22.3333H40.3334C39.9649 22.3333 39.6667 22.6318 39.6667 23V24.3333H37V23C37 22.6318 36.7019 22.3333 36.3334 22.3333H33.6667C33.2982 22.3333 33 22.6318 33 23V24.3333H30.3334V23C30.3334 22.6318 30.0352 22.3333 29.6667 22.3333H27C26.6315 22.3333 26.3334 22.6318 26.3334 23V24.3333H25.6667V15H31V15.6666C31 16.0348 31.2982 16.3333 31.6667 16.3333H34.3334C34.7019 16.3333 35 16.0348 35 15.6666V11C35 10.6318 34.7019 10.3333 34.3334 10.3333H32.3334V9.66663C32.3334 9.29846 32.0352 8.99996 31.6667 8.99996H25.6667V8.33329C25.6667 7.96513 25.3685 7.66663 25 7.66663C24.6315 7.66663 24.3334 7.96513 24.3334 8.33329V9.66663V14.3333V24.3333H23.6667V23C23.6667 22.6318 23.3685 22.3333 23 22.3333H20.3334C19.9649 22.3333 19.6667 22.6318 19.6667 23V24.3333H17V23C17 22.6318 16.7019 22.3333 16.3334 22.3333H13.6667C13.2982 22.3333 13 22.6318 13 23V24.3333H10.3334V23C10.3334 22.6318 10.0352 22.3333 9.66671 22.3333H7.00004C6.63154 22.3333 6.33337 22.6318 6.33337 23V41H5.00004C4.63154 41 4.33337 41.2985 4.33337 41.6666C4.33337 42.0348 4.63154 42.3333 5.00004 42.3333H45C45.3685 42.3333 45.6667 42.0348 45.6667 41.6666C45.6667 41.2985 45.3685 41 45 41ZM33.6667 11.6666V15H32.3334V14.3333V11.6666H33.6667ZM31 10.3333V11V13.6666H25.6667V10.3333H31ZM19 41H13V31H19V41ZM20.3334 41V30.3333C20.3334 29.9651 20.0352 29.6666 19.6667 29.6666H12.3334C11.9649 29.6666 11.6667 29.9651 11.6667 30.3333V41H7.66671V23.6666H9.00004V25C9.00004 25.3681 9.29821 25.6666 9.66671 25.6666H13.6667C14.0352 25.6666 14.3334 25.3681 14.3334 25V23.6666H15.6667V25C15.6667 25.3681 15.9649 25.6666 16.3334 25.6666H20.3334C20.7019 25.6666 21 25.3681 21 25V23.6666H22.3334V25C22.3334 25.3681 22.6315 25.6666 23 25.6666H27C27.3685 25.6666 27.6667 25.3681 27.6667 25V23.6666H29V25C29 25.3681 29.2982 25.6666 29.6667 25.6666H33.6667C34.0352 25.6666 34.3334 25.3681 34.3334 25V23.6666H35.6667V25C35.6667 25.3681 35.9649 25.6666 36.3334 25.6666H40.3334C40.7019 25.6666 41 25.3681 41 25V23.6666H42.3334V41H20.3334Z" fill="white"/><path d="M17 37H17.6667C18.0352 37 18.3334 36.7015 18.3334 36.3333C18.3334 35.9651 18.0352 35.6666 17.6667 35.6666H17C16.6315 35.6666 16.3334 35.9651 16.3334 36.3333C16.3334 36.7015 16.6315 37 17 37Z" fill="white"/></svg>