<svg xmlns="http://www.w3.org/2000/svg" width="50" height="50" viewBox="0 0 50 50" fill="none"><path d="M37.8314 37.1646C36.7285 37.1646 35.8314 38.0617 35.8314 39.1646C35.8314 40.2674 36.7285 41.1646 37.8314 41.1646C38.9342 41.1646 39.8314 40.2674 39.8314 39.1646C39.8314 38.0617 38.9342 37.1646 37.8314 37.1646ZM37.8314 39.8312C37.4639 39.8312 37.1647 39.5321 37.1647 39.1646C37.1647 38.7971 37.4639 38.4979 37.8314 38.4979C38.1989 38.4979 38.498 38.7971 38.498 39.1646C38.498 39.5321 38.1989 39.8312 37.8314 39.8312Z" fill="white"/><path d="M43.9733 22.2889L39.2595 17.5747C39.0095 17.3247 38.5669 17.3247 38.3169 17.5747L31.2459 24.6457C30.9855 24.906 30.9855 25.328 31.2459 25.5884L32.1887 26.5312L31.2457 27.4742L30.3029 26.5314C30.0425 26.271 29.6205 26.271 29.3602 26.5314L27.9459 25.1172C27.6855 24.8569 27.2635 24.8569 27.0032 25.1172L25.1179 27.0025C24.8575 27.2629 24.8575 27.6849 25.1179 27.9452L26.532 29.3595C26.2717 29.6199 26.2717 30.0419 26.532 30.3022L27.4748 31.245L26.5318 32.188L25.589 31.2452C25.3287 30.9849 24.9067 30.9849 24.6464 31.2452L17.5748 38.3165C17.4498 38.4415 17.3795 38.6112 17.3795 38.7879C17.3795 38.9645 17.4498 39.1342 17.5748 39.2592L22.289 43.973C22.4192 44.1032 22.5898 44.1684 22.7603 44.1684C22.9308 44.1684 23.1015 44.1032 23.2317 43.973L30.3027 36.902C30.4277 36.777 30.498 36.6074 30.498 36.4307C30.498 36.254 30.4277 36.0844 30.3027 35.9594L29.3598 35.0167L30.3027 34.0737L31.2457 35.0167C31.3758 35.1469 31.5465 35.212 31.717 35.212C31.8875 35.212 32.0582 35.1469 32.1884 35.0167L35.0168 32.1882C35.2772 31.9279 35.2772 31.5059 35.0168 31.2455L34.0738 30.3025L35.0168 29.3597L35.9595 30.3025C36.0845 30.4275 36.2542 30.4979 36.4309 30.4979C36.6075 30.4979 36.7772 30.4275 36.9022 30.3025L43.9732 23.2315C44.2337 22.9712 44.2337 22.5494 43.9733 22.2889ZM38.7882 18.9889L40.2025 20.4034L38.7882 21.8175L37.3737 20.4032L38.7882 18.9889ZM36.431 24.1745L35.0167 22.7604L36.431 21.346L37.8454 22.7604L36.431 24.1745ZM38.7882 23.7029L40.2025 25.117L38.7882 26.5314L37.3738 25.117L38.7882 23.7029ZM34.0738 23.703L35.4882 25.1172L34.074 26.5314L32.6599 25.117L34.0738 23.703ZM26.5315 27.4742L27.4742 26.5315L28.4172 27.4742L27.4742 28.4172L26.5315 27.4742ZM25.1172 32.6597L26.5315 34.0739L25.1173 35.488L23.7032 34.0737L25.1172 32.6597ZM22.7603 37.8452L21.346 36.4309L22.7603 35.0165L24.1745 36.4309L22.7603 37.8452ZM25.1173 37.3735L26.5317 38.7879L25.1173 40.2022L23.7032 38.7879L25.1173 37.3735ZM20.4033 37.3735L21.8177 38.788L20.4035 40.2024L18.989 38.788L20.4033 37.3735ZM22.7603 42.559L21.346 41.1449L22.7602 39.7307L24.1744 41.145L22.7603 42.559ZM27.4743 37.8452L26.06 36.4307L27.4742 35.0164L28.8887 36.4307L27.4743 37.8452ZM28.4172 34.0742L27.4742 33.1312L28.4172 32.1882L29.36 33.131L28.4172 34.0742ZM31.7172 33.6027L28.8893 30.7749C28.889 30.7745 28.889 30.7742 28.8887 30.7739C28.8884 30.7735 28.888 30.7735 28.8877 30.7732L27.9457 29.8312L29.8314 27.9455L30.7733 28.8875C30.7737 28.8879 30.7737 28.8882 30.774 28.8885C30.7744 28.8889 30.7747 28.8889 30.775 28.8892L33.6029 31.717L31.7172 33.6027ZM33.1312 29.3599L32.1884 28.417L33.1313 27.474L34.0744 28.417L33.1312 29.3599ZM36.431 28.8885L35.0167 27.474L36.431 26.0599L37.8455 27.4742L36.431 28.8885ZM41.1452 24.1744L39.7309 22.7602L41.145 21.346L42.5592 22.7604L41.1452 24.1744Z" fill="white"/><path d="M31.8313 6.49797C31.8313 6.1298 31.5328 5.8313 31.1646 5.8313C30.7965 5.8313 30.498 6.1298 30.498 6.49797C30.498 19.7316 19.7316 30.498 6.49797 30.498C6.1298 30.498 5.8313 30.7965 5.8313 31.1646C5.8313 31.5328 6.1298 31.8313 6.49797 31.8313C20.4668 31.8313 31.8313 20.4668 31.8313 6.49797Z" fill="white"/><path d="M19.8313 15.1645C21.6692 15.1645 23.1647 13.669 23.1647 11.8311C23.1647 9.9933 21.6692 8.4978 19.8313 8.4978C19.4632 8.4978 19.1647 8.7963 19.1647 9.16447C19.1647 9.53264 19.4632 9.83114 19.8313 9.83114C20.9342 9.83114 21.8313 10.7283 21.8313 11.8311C21.8313 12.934 20.9342 13.8311 19.8313 13.8311C18.7285 13.8311 17.8313 12.934 17.8313 11.8311C17.8313 11.463 17.5328 11.1645 17.1647 11.1645C16.7965 11.1645 16.498 11.463 16.498 11.8311C16.498 13.6691 17.9935 15.1645 19.8313 15.1645Z" fill="white"/><path d="M10.9706 21.698C10.9706 22.7274 11.8081 23.5649 12.8375 23.5649C13.8668 23.5649 14.704 22.7274 14.704 21.698C14.704 20.6687 13.8668 19.8315 12.8375 19.8315C11.8081 19.8315 10.9706 20.6687 10.9706 21.698ZM12.8375 21.1647C13.1315 21.1647 13.3706 21.404 13.3706 21.6979C13.3706 21.9922 13.1313 22.2314 12.8375 22.2314C12.5431 22.2314 12.304 21.992 12.304 21.6979C12.304 21.404 12.5433 21.1647 12.8375 21.1647Z" fill="white"/><path d="M20.498 19.8311C20.8662 19.8311 21.1646 19.5327 21.1646 19.1645C21.1646 18.7963 20.8662 18.4978 20.498 18.4978C20.1298 18.4978 19.8313 18.7963 19.8313 19.1645C19.8313 19.5327 20.1298 19.8311 20.498 19.8311Z" fill="white"/><path d="M27.8313 14.4979C28.1995 14.4979 28.498 14.1994 28.498 13.8312C28.498 13.463 28.1995 13.1646 27.8313 13.1646C27.4631 13.1646 27.1647 13.463 27.1647 13.8312C27.1647 14.1994 27.4631 14.4979 27.8313 14.4979Z" fill="white"/><path d="M10.498 27.8314C10.8662 27.8314 11.1646 27.5329 11.1646 27.1647C11.1646 26.7965 10.8662 26.498 10.498 26.498C10.1298 26.498 9.8313 26.7965 9.8313 27.1647C9.8313 27.5329 10.1298 27.8314 10.498 27.8314Z" fill="white"/><path d="M11.8313 13.8311C12.1995 13.8311 12.498 13.5327 12.498 13.1645C12.498 12.7963 12.1995 12.4978 11.8313 12.4978C11.4631 12.4978 11.1647 12.7963 11.1647 13.1645C11.1647 13.5327 11.4631 13.8311 11.8313 13.8311Z" fill="white"/><path d="M10.498 16.4979C10.8662 16.4979 11.1646 16.1994 11.1646 15.8312C11.1646 15.463 10.8662 15.1646 10.498 15.1646C10.1298 15.1646 9.8313 15.463 9.8313 15.8312C9.8313 16.1994 10.1298 16.4979 10.498 16.4979Z" fill="white"/><path d="M10.4997 39.1453C10.106 39.1453 9.78699 39.4644 9.78699 39.8579C9.78699 40.2516 10.106 40.5708 10.4997 40.5708C10.8933 40.5708 11.2123 40.2516 11.2123 39.8579C11.2125 39.4644 10.8933 39.1453 10.4997 39.1453Z" fill="white"/><path d="M31.833 40.4785C31.4394 40.4785 31.1204 40.7977 31.1204 41.1912C31.1204 41.5848 31.4394 41.904 31.833 41.904C32.2267 41.904 32.5457 41.5848 32.5457 41.1912C32.5459 40.7977 32.2267 40.4785 31.833 40.4785Z" fill="white"/><path d="M36.134 9.26683L35.6656 9.74133C35.4071 10.0033 35.4098 10.4255 35.6718 10.6843C35.8016 10.8123 35.971 10.8763 36.1403 10.8763C36.3125 10.8763 36.4843 10.8103 36.615 10.6782L37.0833 10.2037L37.558 10.672C37.6878 10.8003 37.8568 10.864 38.0261 10.864C38.1983 10.864 38.3701 10.798 38.5008 10.6658C38.7593 10.4035 38.7566 9.98167 38.4943 9.72283L38.02 9.25483L38.4881 8.7805C38.7466 8.5185 38.744 8.09633 38.482 7.8375C38.22 7.57933 37.7978 7.58167 37.539 7.84367L37.0708 8.318L36.5963 7.84983C36.3343 7.591 35.9123 7.594 35.6536 7.856C35.3951 8.11833 35.3978 8.54017 35.6601 8.799L36.134 9.26683Z" fill="white"/></svg>