<svg xmlns="http://www.w3.org/2000/svg" width="50" height="50" viewBox="0 0 50 50" fill="none"><g clip-path="url(#clip0_39_172)"><path d="M3.25104 6.76677C3.25 8.73902 4.87708 10.3385 6.88333 10.3395C8.88958 10.3406 10.5167 8.74107 10.5177 6.76882C10.5187 4.79657 8.89166 3.19707 6.88541 3.19604C6.88437 3.19604 6.88437 3.19604 6.88333 3.19604C4.87812 3.19912 3.25416 4.79555 3.25104 6.76677ZM8.95416 6.76677C8.9552 7.89114 8.02812 8.80251 6.88437 8.80353C5.74062 8.80455 4.81354 7.89318 4.8125 6.76882C4.81145 5.64446 5.73854 4.73309 6.88229 4.73206C8.02708 4.73104 8.95625 5.64138 8.95833 6.76677H8.95416Z" fill="white"/><path d="M6.88333 0C3.08333 0.00409605 0.00416667 3.03107 0 6.76667C0.04375 8.41123 0.65625 9.9923 1.7375 11.2477L6.26563 17.0129C6.52813 17.3488 7.01875 17.4113 7.35938 17.1532C7.4125 17.1133 7.46042 17.0662 7.50208 17.0129L10.6552 12.9937C10.9188 12.6578 10.8552 12.1755 10.5135 11.9164C10.1719 11.6573 9.68125 11.7198 9.41771 12.0557L6.88333 15.2875L2.97083 10.3046C2.10729 9.31645 1.61042 8.06921 1.5625 6.76667C1.5625 3.87793 3.94479 1.53602 6.88333 1.53602C9.82188 1.53602 12.2042 3.87793 12.2042 6.76667C12.176 8.08457 11.6688 9.3482 10.7729 10.3292C10.4938 10.6528 10.5344 11.1371 10.8635 11.4116C11.1927 11.686 11.6854 11.6461 11.9646 11.3225C11.9719 11.3133 11.9802 11.3041 11.9875 11.2948C13.1073 10.0404 13.7385 8.4358 13.7667 6.76667C13.7625 3.03107 10.6833 0.00409605 6.88333 0Z" fill="white"/><path d="M36.0208 17.4082C36.4523 17.4082 36.8021 17.0644 36.8021 16.6402C36.8021 16.216 36.4523 15.8722 36.0208 15.8722C35.5893 15.8722 35.2396 16.216 35.2396 16.6402C35.2396 17.0644 35.5893 17.4082 36.0208 17.4082Z" fill="white"/><path d="M26.0521 33.2804C26.4835 33.2804 26.8333 32.9366 26.8333 32.5124C26.8333 32.0882 26.4835 31.7444 26.0521 31.7444C25.6206 31.7444 25.2708 32.0882 25.2708 32.5124C25.2708 32.9366 25.6206 33.2804 26.0521 33.2804Z" fill="white"/><path d="M34.3854 33.2804C34.8168 33.2804 35.1666 32.9366 35.1666 32.5124C35.1666 32.0882 34.8168 31.7444 34.3854 31.7444C33.9539 31.7444 33.6041 32.0882 33.6041 32.5124C33.6041 32.9366 33.9539 33.2804 34.3854 33.2804Z" fill="white"/><path d="M27.6875 17.4082C28.119 17.4082 28.4688 17.0644 28.4688 16.6402C28.4688 16.216 28.119 15.8722 27.6875 15.8722C27.256 15.8722 26.9062 16.216 26.9062 16.6402C26.9062 17.0644 27.256 17.4082 27.6875 17.4082Z" fill="white"/><path d="M31.8541 17.4082C32.2856 17.4082 32.6354 17.0644 32.6354 16.6402C32.6354 16.216 32.2856 15.8722 31.8541 15.8722C31.4227 15.8722 31.0729 16.216 31.0729 16.6402C31.0729 17.0644 31.4227 17.4082 31.8541 17.4082Z" fill="white"/><path d="M23.5208 17.4082C23.9523 17.4082 24.3021 17.0644 24.3021 16.6402C24.3021 16.216 23.9523 15.8722 23.5208 15.8722C23.0893 15.8722 22.7396 16.216 22.7396 16.6402C22.7396 17.0644 23.0893 17.4082 23.5208 17.4082Z" fill="white"/><path d="M30.2188 33.2804C30.6502 33.2804 31 32.9366 31 32.5124C31 32.0882 30.6502 31.7444 30.2188 31.7444C29.7873 31.7444 29.4375 32.0882 29.4375 32.5124C29.4375 32.9366 29.7873 33.2804 30.2188 33.2804Z" fill="white"/><path d="M21.8854 33.2804C22.3168 33.2804 22.6666 32.9366 22.6666 32.5124C22.6666 32.0882 22.3168 31.7444 21.8854 31.7444C21.4539 31.7444 21.1041 32.0882 21.1041 32.5124C21.1041 32.9366 21.4539 33.2804 21.8854 33.2804Z" fill="white"/><path d="M38.5521 33.2804C38.9835 33.2804 39.3333 32.9366 39.3333 32.5124C39.3333 32.0882 38.9835 31.7444 38.5521 31.7444C38.1206 31.7444 37.7708 32.0882 37.7708 32.5124C37.7708 32.9366 38.1206 33.2804 38.5521 33.2804Z" fill="white"/><path d="M15.1875 17.4082C15.619 17.4082 15.9688 17.0644 15.9688 16.6402C15.9688 16.216 15.619 15.8722 15.1875 15.8722C14.756 15.8722 14.4062 16.216 14.4062 16.6402C14.4062 17.0644 14.756 17.4082 15.1875 17.4082Z" fill="white"/><path d="M17.7188 33.2804C18.1502 33.2804 18.5 32.9366 18.5 32.5124C18.5 32.0882 18.1502 31.7444 17.7188 31.7444C17.2873 31.7444 16.9375 32.0882 16.9375 32.5124C16.9375 32.9366 17.2873 33.2804 17.7188 33.2804Z" fill="white"/><path d="M13.5521 33.2804C13.9835 33.2804 14.3333 32.9366 14.3333 32.5124C14.3333 32.0882 13.9835 31.7444 13.5521 31.7444C13.1206 31.7444 12.7708 32.0882 12.7708 32.5124C12.7708 32.9366 13.1206 33.2804 13.5521 33.2804Z" fill="white"/><path d="M17.8635 49.1526C18.295 49.1526 18.6448 48.8087 18.6448 48.3846C18.6448 47.9604 18.295 47.6166 17.8635 47.6166C17.4321 47.6166 17.0823 47.9604 17.0823 48.3846C17.0823 48.8087 17.4321 49.1526 17.8635 49.1526Z" fill="white"/><path d="M22.0302 49.1526C22.4617 49.1526 22.8115 48.8087 22.8115 48.3846C22.8115 47.9604 22.4617 47.6166 22.0302 47.6166C21.5987 47.6166 21.249 47.9604 21.249 48.3846C21.249 48.8087 21.5987 49.1526 22.0302 49.1526Z" fill="white"/><path d="M19.3541 17.4082C19.7856 17.4082 20.1354 17.0644 20.1354 16.6402C20.1354 16.216 19.7856 15.8722 19.3541 15.8722C18.9227 15.8722 18.5729 16.216 18.5729 16.6402C18.5729 17.0644 18.9227 17.4082 19.3541 17.4082Z" fill="white"/><path d="M13.6968 49.1526C14.1283 49.1526 14.4781 48.8087 14.4781 48.3846C14.4781 47.9604 14.1283 47.6166 13.6968 47.6166C13.2654 47.6166 12.9156 47.9604 12.9156 48.3846C12.9156 48.8087 13.2654 49.1526 13.6968 49.1526Z" fill="white"/><path d="M11.0208 15.8722C10.5896 15.8784 10.2448 16.2265 10.25 16.6505C10.2552 17.0744 10.6104 17.4133 11.0417 17.4082C11.4687 17.4031 11.8125 17.0601 11.8125 16.6402C11.8094 16.2132 11.4552 15.8691 11.0208 15.8722Z" fill="white"/><path d="M49.2188 36.3524H38.4157C37.9844 36.3524 37.6344 36.6965 37.6344 37.1204C37.6344 37.5444 37.9844 37.8884 38.4157 37.8884H43.0354V38.9309H41.8948C41.4636 38.9309 41.1136 39.2749 41.1136 39.6989V40.0389H38.5823C37.9907 39.3374 37.1136 38.9299 36.1865 38.9268H33.5417C32.6146 38.9299 31.7375 39.3374 31.1459 40.0389H28.6125V39.6948C28.6125 39.2708 28.2625 38.9268 27.8313 38.9268H26.6854V37.8884H31.3063C31.7375 37.8884 32.0875 37.5444 32.0875 37.1204C32.0875 36.6965 31.7375 36.3524 31.3063 36.3524H20.5073C20.0761 36.3524 19.7261 36.6965 19.7261 37.1204C19.7261 37.5444 20.0761 37.8884 20.5073 37.8884H25.1271V38.9309H23.9865C23.5552 38.9309 23.2052 39.2749 23.2052 39.6989V44.053C23.2052 44.4769 23.5552 44.821 23.9865 44.821H27.8313C28.174 44.8179 28.4729 44.5947 28.5677 44.2711H30.3938V44.7002C30.3959 45.3074 30.7386 45.8634 31.2854 46.1461L29.8813 47.9237C29.6167 48.2586 29.6782 48.7409 30.0188 49.001C30.3594 49.2611 30.85 49.2007 31.1146 48.8658L33.1073 46.3447H36.6167L38.6084 48.8658C38.8729 49.2017 39.3636 49.2621 39.7052 49.002C40.0469 48.7419 40.1084 48.2596 39.8438 47.9237L38.4375 46.142C38.9844 45.8593 39.3271 45.3033 39.3292 44.6961V44.267H41.1563C41.25 44.5906 41.55 44.8148 41.8927 44.8169H45.7365C46.1677 44.8169 46.5177 44.4728 46.5177 44.0489V39.6948C46.5177 39.2708 46.1677 38.9268 45.7365 38.9268H44.5979V37.8884H49.2188C49.65 37.8884 50 37.5444 50 37.1204C50 36.6965 49.65 36.3524 49.2188 36.3524ZM33.5417 40.4628H36.1875C37.0604 40.4638 37.7677 41.1581 37.7688 42.0162V44.6961C37.7688 44.7565 37.7188 44.8056 37.6573 44.8056H32.0677C32.0063 44.8056 31.9563 44.7565 31.9563 44.6961V42.0162C31.9573 41.1571 32.6677 40.4618 33.5417 40.4628ZM24.7719 40.4628H27.0542V43.2809H24.7677L24.7719 40.4628ZM28.6167 42.731V41.5749H30.4427C30.4167 41.7203 30.4021 41.8677 30.3979 42.0162V42.733L28.6167 42.731ZM39.2854 41.5749H41.1136V42.731H39.3313V42.0142C39.3271 41.8667 39.3115 41.7203 39.2854 41.5749ZM44.9573 43.2809H42.6761V40.4628H44.9573V43.2809Z" fill="white"/><path d="M40.1948 17.4686C40.6269 17.4686 40.9771 17.1243 40.9771 16.6996C40.9771 16.2748 40.6269 15.9305 40.1948 15.9305C39.7628 15.9305 39.4125 16.2748 39.4125 16.6996C39.4125 17.1243 39.7628 17.4686 40.1948 17.4686Z" fill="white"/><path d="M44.0021 18.9596C44.4341 18.9596 44.7844 18.6153 44.7844 18.1905C44.7844 17.7658 44.4341 17.4215 44.0021 17.4215C43.57 17.4215 43.2198 17.7658 43.2198 18.1905C43.2198 18.6153 43.57 18.9596 44.0021 18.9596Z" fill="white"/><path d="M46.5552 22.1535C46.9872 22.1535 47.3375 21.8092 47.3375 21.3845C47.3375 20.9598 46.9872 20.6155 46.5552 20.6155C46.1231 20.6155 45.7729 20.9598 45.7729 21.3845C45.7729 21.8092 46.1231 22.1535 46.5552 22.1535Z" fill="white"/><path d="M47.2115 26.1472C47.6435 26.1472 47.9938 25.8029 47.9938 25.3782C47.9938 24.9534 47.6435 24.6091 47.2115 24.6091C46.7794 24.6091 46.4292 24.9534 46.4292 25.3782C46.4292 25.8029 46.7794 26.1472 47.2115 26.1472Z" fill="white"/><path d="M45.7729 29.941C46.2049 29.941 46.5552 29.5967 46.5552 29.172C46.5552 28.7473 46.2049 28.403 45.7729 28.403C45.3408 28.403 44.9906 28.7473 44.9906 29.172C44.9906 29.5967 45.3408 29.941 45.7729 29.941Z" fill="white"/><path d="M42.6052 32.5134C43.0373 32.5134 43.3875 32.1691 43.3875 31.7444C43.3875 31.3196 43.0373 30.9753 42.6052 30.9753C42.1732 30.9753 41.8229 31.3196 41.8229 31.7444C41.8229 32.1691 42.1732 32.5134 42.6052 32.5134Z" fill="white"/><path d="M9.41559 33.608C9.84764 33.608 10.1979 33.2637 10.1979 32.839C10.1979 32.4143 9.84764 32.0699 9.41559 32.0699C8.98354 32.0699 8.6333 32.4143 8.6333 32.839C8.6333 33.2637 8.98354 33.608 9.41559 33.608Z" fill="white"/><path d="M5.9104 35.7268C6.34245 35.7268 6.6927 35.3825 6.6927 34.9578C6.6927 34.533 6.34245 34.1887 5.9104 34.1887C5.47836 34.1887 5.12811 34.533 5.12811 34.9578C5.12811 35.3825 5.47836 35.7268 5.9104 35.7268Z" fill="white"/><path d="M3.90522 39.2596C4.33726 39.2596 4.68751 38.9153 4.68751 38.4906C4.68751 38.0659 4.33726 37.7216 3.90522 37.7216C3.47317 37.7216 3.12292 38.0659 3.12292 38.4906C3.12292 38.9153 3.47317 39.2596 3.90522 39.2596Z" fill="white"/><path d="M3.93958 43.3076C4.37163 43.3076 4.72187 42.9633 4.72187 42.5386C4.72187 42.1138 4.37163 41.7695 3.93958 41.7695C3.50753 41.7695 3.15729 42.1138 3.15729 42.5386C3.15729 42.9633 3.50753 43.3076 3.93958 43.3076Z" fill="white"/><path d="M6.00312 46.8086C6.43516 46.8086 6.78541 46.4643 6.78541 46.0395C6.78541 45.6148 6.43516 45.2705 6.00312 45.2705C5.57107 45.2705 5.22083 45.6148 5.22083 46.0395C5.22083 46.4643 5.57107 46.8086 6.00312 46.8086Z" fill="white"/><path d="M9.55628 48.8658C9.98833 48.8658 10.3386 48.5215 10.3386 48.0968C10.3386 47.6721 9.98833 47.3278 9.55628 47.3278C9.12423 47.3278 8.77399 47.6721 8.77399 48.0968C8.77399 48.5215 9.12423 48.8658 9.55628 48.8658Z" fill="white"/></g><defs><clipPath id="clip0_39_172"><rect width="50" height="49.1525" fill="white"/></clipPath></defs></svg>