<svg xmlns="http://www.w3.org/2000/svg" width="50" height="50" viewBox="0 0 50 50" fill="none"><path d="M11.6666 14.1895C12.7695 14.1895 13.6666 13.2923 13.6666 12.1895C13.6666 11.0866 12.7695 10.1895 11.6666 10.1895C10.5638 10.1895 9.66663 11.0866 9.66663 12.1895C9.66663 13.2923 10.5638 14.1895 11.6666 14.1895ZM11.6666 11.5228C12.0341 11.5228 12.3333 11.822 12.3333 12.1895C12.3333 12.557 12.0341 12.8561 11.6666 12.8561C11.2991 12.8561 11 12.557 11 12.1895C11 11.822 11.2991 11.5228 11.6666 11.5228Z" fill="white"/><path d="M41.8723 39.0407C42.1633 38.4965 42.3333 37.865 42.3333 37.1894C42.3333 35.1675 40.8378 33.5227 39 33.5227C37.1621 33.5227 35.6666 35.1675 35.6666 37.1894C35.6666 37.8655 35.8368 38.4974 36.1281 39.0417C35.3676 39.529 34.7563 40.1874 34.3335 40.9567C33.9106 40.1872 33.3005 39.5282 32.5388 39.0407C32.8298 38.4965 32.9998 37.865 32.9998 37.1894C32.9998 35.1675 31.5043 33.5227 29.6665 33.5227C27.8286 33.5227 26.3331 35.1675 26.3331 37.1894C26.3331 37.8655 26.5033 38.4974 26.7946 39.0417C26.0341 39.529 25.4228 40.1874 25 40.9567C24.5771 40.1872 23.967 39.5282 23.2053 39.0407C23.4963 38.4965 23.6663 37.865 23.6663 37.1894C23.6663 35.1675 22.1708 33.5227 20.333 33.5227C18.4951 33.5227 16.9996 35.1675 16.9996 37.1894C16.9996 37.8655 17.1698 38.4974 17.4611 39.0417C16.7006 39.529 16.0893 40.1874 15.6665 40.9567C15.2436 40.1872 14.6335 39.5282 13.8718 39.0407C14.1633 38.4965 14.3333 37.865 14.3333 37.1894C14.3333 35.1675 12.8378 33.5227 11 33.5227C9.16213 33.5227 7.66663 35.1675 7.66663 37.1894C7.66663 37.8655 7.83679 38.4974 8.12813 39.0417C6.60363 40.0185 5.66663 41.6905 5.66663 43.5227C5.66663 43.8909 5.96513 44.1894 6.33329 44.1894H43.6666C44.0348 44.1894 44.3333 43.8909 44.3333 43.5227C44.3333 41.6857 43.3976 40.0169 41.8723 39.0407ZM39 34.856C40.1028 34.856 41 35.9029 41 37.1894C41 38.4759 40.1028 39.5227 39 39.5227C37.8971 39.5227 37 38.4759 37 37.1894C37 35.9029 37.8971 34.856 39 34.856ZM29.6666 34.856C30.7695 34.856 31.6666 35.9029 31.6666 37.1894C31.6666 38.4759 30.7695 39.5227 29.6666 39.5227C28.5638 39.5227 27.6666 38.4759 27.6666 37.1894C27.6666 35.9029 28.5638 34.856 29.6666 34.856ZM20.3333 34.856C21.4361 34.856 22.3333 35.9029 22.3333 37.1894C22.3333 38.4759 21.4361 39.5227 20.3333 39.5227C19.2305 39.5227 18.3333 38.4759 18.3333 37.1894C18.3333 35.9029 19.2305 34.856 20.3333 34.856ZM11 34.856C12.1028 34.856 13 35.9029 13 37.1894C13 38.4759 12.1028 39.5227 11 39.5227C9.89713 39.5227 8.99996 38.4759 8.99996 37.1894C8.99996 35.9029 9.89713 34.856 11 34.856ZM7.05529 42.856C7.24896 41.7029 7.94313 40.6919 8.96429 40.0864C9.52813 40.5669 10.2333 40.856 11 40.856C11.7666 40.856 12.4716 40.5669 13.0355 40.0865C14.0578 40.6922 14.7516 41.701 14.945 42.856H7.05529ZM16.3886 42.856C16.5823 41.7029 17.2765 40.6919 18.2976 40.0864C18.8615 40.5669 19.5666 40.856 20.3333 40.856C21.1 40.856 21.805 40.5669 22.3688 40.0865C23.3911 40.6922 24.085 41.701 24.2783 42.856H16.3886ZM25.722 42.856C25.9156 41.7029 26.6098 40.6919 27.631 40.0864C28.1948 40.5669 28.9 40.856 29.6666 40.856C30.4333 40.856 31.1383 40.5669 31.7021 40.0865C32.7245 40.6922 33.4183 41.701 33.6116 42.856H25.722ZM35.0553 42.856C35.249 41.7029 35.9431 40.6919 36.9643 40.0864C37.5281 40.5669 38.2333 40.856 39 40.856C39.7666 40.856 40.4716 40.5669 41.0355 40.0865C42.0578 40.6922 42.7516 41.701 42.945 42.856H35.0553Z" fill="white"/><path d="M35 22.856C35.3682 22.856 35.6667 22.5575 35.6667 22.1893V21.132L39 24.4653V32.1893C39 32.5575 39.2985 32.856 39.6667 32.856C40.0349 32.856 40.3334 32.5575 40.3334 32.1893V24.1893C40.3334 24.0125 40.263 23.843 40.138 23.718L36.6094 20.1893H37.6667C38.0349 20.1893 38.3334 19.8908 38.3334 19.5226C38.3334 19.1545 38.0349 18.856 37.6667 18.856H35C34.6319 18.856 34.3334 19.1545 34.3334 19.5226V22.1893C34.3334 22.5575 34.6319 22.856 35 22.856Z" fill="white"/><path d="M12.3334 19.5226C12.3334 19.8908 12.6319 20.1893 13 20.1893H14.0574L10.5287 23.718C10.4037 23.843 10.3334 24.0126 10.3334 24.1893V32.1893C10.3334 32.5575 10.6319 32.856 11 32.856C11.3682 32.856 11.6667 32.5575 11.6667 32.1893V24.4653L15 21.132V22.1893C15 22.5575 15.2985 22.856 15.6667 22.856C16.0349 22.856 16.3334 22.5575 16.3334 22.1893V19.5226C16.3334 19.1545 16.0349 18.856 15.6667 18.856H13C12.6319 18.856 12.3334 19.1545 12.3334 19.5226Z" fill="white"/><path d="M40.2526 15.6033C40.3828 15.7334 40.5535 15.7986 40.724 15.7986C40.8945 15.7986 41.0651 15.7334 41.1953 15.6033L41.6666 15.1319L42.138 15.6033C42.2681 15.7334 42.4388 15.7986 42.6093 15.7986C42.7798 15.7986 42.9505 15.7334 43.0806 15.6033C43.341 15.3429 43.341 14.9209 43.0806 14.6606L42.6093 14.1893L43.0806 13.7179C43.341 13.4576 43.341 13.0356 43.0806 12.7753C42.8203 12.5149 42.3983 12.5149 42.138 12.7753L41.6666 13.2464L41.1953 12.7751C40.935 12.5148 40.513 12.5148 40.2526 12.7751C39.9923 13.0354 39.9923 13.4574 40.2526 13.7178L40.724 14.1891L40.2526 14.6604C39.9921 14.9209 39.9921 15.3429 40.2526 15.6033Z" fill="white"/><path d="M36.9999 14.1895C37.3681 14.1895 37.6666 13.8911 37.6666 13.5229C37.6666 13.1547 37.3681 12.8562 36.9999 12.8562C36.6317 12.8562 36.3333 13.1547 36.3333 13.5229C36.3333 13.8911 36.6317 14.1895 36.9999 14.1895Z" fill="white"/><path d="M20.9687 21.8705V23.5228H20.3333C19.9652 23.5228 19.6667 23.8213 19.6667 24.1895V28.8561C19.6667 29.2243 19.9652 29.5228 20.3333 29.5228H30.3057C30.6738 29.5228 30.9723 29.2243 30.9723 28.8561V24.1895C30.9723 23.8213 30.6738 23.5228 30.3057 23.5228H29.639V21.6526C30.988 20.6413 32.3278 18.916 32.3333 16.8561V9.52279C32.3333 8.41996 31.4362 7.52279 30.3333 7.52279C29.9293 7.52279 29.5543 7.64512 29.2395 7.85196C28.8168 7.25162 28.1215 6.85612 27.3333 6.85612C26.8917 6.85612 26.4825 6.98646 26.13 7.20062C25.7665 6.38379 24.9502 5.81079 24 5.81079C23.0365 5.81079 22.2077 6.39829 21.8522 7.23362C21.4975 7.01596 21.0848 6.88379 20.639 6.88379C19.3525 6.88379 18.3057 7.93062 18.3057 9.21712V16.8838C18.3057 18.8856 19.3167 20.762 20.9687 21.8705ZM29.639 28.1895H21V24.8561H29.639V28.1895ZM30.3333 8.85612C30.7008 8.85612 31 9.15529 31 9.52279V11.5228V12.8561C31 13.2236 30.7008 13.5228 30.3333 13.5228C29.9655 13.5228 29.6663 13.2236 29.6663 12.8561V11.8593C29.6663 11.8581 29.6667 11.8571 29.6667 11.8561V9.52112C29.6675 9.15446 29.966 8.85612 30.3333 8.85612ZM27.3333 8.18946C27.8848 8.18946 28.3333 8.63796 28.3333 9.18946V9.51962C28.3333 9.52079 28.333 9.52179 28.333 9.52279V11.8593C28.3312 12.4093 27.8837 12.8561 27.3333 12.8561C26.7818 12.8561 26.3333 12.4076 26.3333 11.8561V11.5228V9.18946C26.3333 8.63796 26.7818 8.18946 27.3333 8.18946ZM24 7.14412C24.5515 7.14412 25 7.59262 25 8.14412V9.18929V11.4256C24.6428 11.0921 24.1672 10.8836 23.641 10.8836H23V8.14412C23 7.59279 23.4485 7.14412 24 7.14412ZM20.639 8.21712C21.1905 8.21712 21.639 8.66562 21.639 9.21712V10.8961C20.8837 10.9231 20.196 11.1951 19.639 11.633V9.21712C19.639 8.66562 20.0875 8.21712 20.639 8.21712ZM19.639 14.3395C19.639 13.1693 20.5912 12.2171 21.7617 12.2171H23.6408C24.0073 12.2171 24.3055 12.5153 24.3055 12.8818C24.3055 13.2483 24.0073 13.5465 23.6408 13.5465H21.6757C21.3075 13.5465 21.009 13.845 21.009 14.2131V17.0755C21.009 17.4436 21.3075 17.7421 21.6757 17.7421C22.0438 17.7421 22.3423 17.4436 22.3423 17.0755V14.8798H23.6408C24.5737 14.8798 25.3528 14.2348 25.5718 13.369C26.0002 13.8668 26.6267 14.1893 27.3333 14.1893C27.7965 14.1893 28.2262 14.0498 28.5895 13.816C28.9307 14.4326 29.5802 14.856 30.3333 14.856C30.5682 14.856 30.7905 14.8078 31 14.7331V16.8543C30.9955 18.5428 29.7042 20.0115 28.5997 20.7563C28.416 20.8803 28.3057 21.0873 28.3057 21.309V23.5225H22.3022V21.501C22.3022 21.2633 22.1755 21.0433 21.9698 20.9241C20.5323 20.0908 19.6392 18.5426 19.6392 16.8835L19.639 14.3395Z" fill="white"/><path d="M28 27.5227C28.5523 27.5227 29 27.075 29 26.5227C29 25.9704 28.5523 25.5227 28 25.5227C27.4477 25.5227 27 25.9704 27 26.5227C27 27.075 27.4477 27.5227 28 27.5227Z" fill="white"/></svg>